<?xml version="1.0" encoding="UTF-8"?>
<svg version="1.1" xmlns="http://www.w3.org/2000/svg" width="1254" height="1254">
<path d="M0 0 C413.82 0 827.64 0 1254 0 C1254 413.82 1254 827.64 1254 1254 C840.18 1254 426.36 1254 0 1254 C0 840.18 0 426.36 0 0 Z " fill="#FDFDFD" transform="translate(0,0)"/>
<path d="M0 0 C4.99295605 1.458899 6.89891357 5.22543178 9.7265625 9.40625 C10.96533232 11.16333424 12.20492885 12.9198359 13.4453125 14.67578125 C14.06019531 15.55959473 14.67507813 16.4434082 15.30859375 17.35400391 C17.86713498 20.99602325 20.53865379 24.54674534 23.2265625 28.09375 C24.20874729 29.39942829 25.19051925 30.70541724 26.171875 32.01171875 C26.65430664 32.65286621 27.13673828 33.29401367 27.63378906 33.95458984 C30.12656585 37.26917028 32.613744 40.58794745 35.1015625 43.90625 C36.10153647 45.23960286 37.10153645 46.57293621 38.1015625 47.90625 C44.13671875 55.953125 50.171875 64 56.20703125 72.046875 C56.71741943 72.72733887 57.22780762 73.40780273 57.75366211 74.10888672 C58.77421567 75.46973298 59.79456199 76.83073468 60.81469727 78.19189453 C63.00453185 81.11334844 65.19702641 84.03256109 67.3984375 86.9453125 C71.21341039 91.99945542 74.96003371 97.09062616 78.64672852 102.23876953 C83.66311581 109.24098102 88.77779903 116.13424553 94.1015625 122.90625 C99.2597008 129.46811799 104.2106278 136.14392335 109.05981445 142.93652344 C113.35631898 148.9317668 117.80018508 154.80402169 122.2890625 160.65625 C127.14672882 166.99124194 131.92475532 173.35905693 136.52514648 179.88305664 C139.55959784 184.17737826 142.68681183 188.39466618 145.8515625 192.59375 C150.26063547 198.44405915 154.63463196 204.31840996 158.9765625 210.21875 C159.84849243 211.40355957 159.84849243 211.40355957 160.73803711 212.61230469 C162.52632448 215.04329245 164.31397672 217.47474631 166.1015625 219.90625 C175.30606868 232.4400158 175.30606868 232.4400158 184.6015625 244.90625 C190.2157698 252.36764566 195.73782244 259.89691349 201.27099609 267.41845703 C204.79324809 272.2052999 208.31986542 276.98892719 211.84594727 281.77294922 C214.7899845 285.76769397 217.73246134 289.76357035 220.671875 293.76171875 C228.83295902 304.85815499 237.06790882 315.89623489 245.35546875 326.8984375 C252.9492362 336.99549109 260.42240137 347.18136127 267.90576172 357.36035156 C274.41919176 366.21947134 280.9514988 375.06215432 287.56298828 383.84838867 C291.44222094 389.01021909 295.27680001 394.20396683 299.1015625 399.40625 C303.60291897 405.52503882 308.11548405 411.63495498 312.6640625 417.71875 C313.14037109 418.358125 313.61667969 418.9975 314.10742188 419.65625 C314.56052734 420.26082031 315.01363281 420.86539062 315.48046875 421.48828125 C316.12846436 422.35573975 316.12846436 422.35573975 316.78955078 423.24072266 C318.0819109 424.92619861 318.0819109 424.92619861 319.55029297 426.47412109 C321.83274804 428.94564581 323.04285729 430.60254838 323.6875 433.9375 C322.92331994 437.80934564 321.38023804 439.49945464 318.7265625 442.40625 C317.79782814 443.45588567 316.87349013 444.50942442 315.953125 445.56640625 C315.4777832 446.11184082 315.00244141 446.65727539 314.51269531 447.21923828 C312.20719142 449.97547218 310.15687949 452.89877553 308.1015625 455.84375 C304.56106565 460.88892362 300.90504152 465.811067 297.11962891 470.67749023 C293.49045901 475.36152218 289.9781242 480.12632486 286.4765625 484.90625 C281.3473607 491.90588564 276.12955192 498.83068462 270.8515625 505.71875 C266.0345842 512.00756694 261.30713137 518.33519361 256.74804688 524.81298828 C253.03633667 530.06095125 249.12262099 535.14526989 245.20068359 540.23706055 C240.46917589 546.3927148 235.85594099 552.6301917 231.26269531 558.8894043 C227.57148896 563.91741762 223.85303266 568.92305652 220.1015625 573.90625 C215.8107363 579.60597229 211.57122074 585.34117597 207.3515625 591.09375 C202.32365115 597.94516194 197.20809768 604.7232766 192.0390625 611.46875 C186.43700055 618.7804972 180.97340122 626.17381068 175.61083984 633.66259766 C171.76441296 639.02315833 167.78736189 644.25515707 163.73828125 649.46484375 C160.57857653 653.5585111 157.53264 657.73500808 154.4765625 661.90625 C149.42493431 668.79710019 144.29504318 675.62171384 139.1015625 682.40625 C132.70416496 690.76542344 126.42518938 699.20404859 120.19921875 707.69140625 C116.99351386 712.06088561 113.74067085 716.39373228 110.48046875 720.72265625 C108.07040441 723.94794761 105.68613348 727.19106904 103.3046875 730.4375 C96.98286779 739.05307731 90.55909467 747.58234668 84.06420898 756.06811523 C79.09807083 762.5680986 74.23032347 769.13417586 69.3972168 775.73339844 C64.97178594 781.76117293 60.45796021 787.71739924 55.9140625 793.65625 C50.88324459 800.2318376 45.90858817 806.83967891 41.03125 813.52978516 C33.09660802 824.41031101 24.94658871 835.12986573 16.7890625 845.84375 C16.13139893 846.70758301 15.47373535 847.57141602 14.79614258 848.46142578 C13.52451805 850.12897736 12.2480295 851.79283289 10.96630859 853.45263672 C9.69520226 855.12514505 8.4542555 856.82090447 7.24072266 858.53564453 C6.64437012 859.3604834 6.04801758 860.18532227 5.43359375 861.03515625 C4.91128174 861.77967041 4.38896973 862.52418457 3.85083008 863.29125977 C2.1015625 864.90625 2.1015625 864.90625 -0.41552734 865.35253906 C-3.46923684 864.80365205 -4.12729112 864.09524631 -5.95703125 861.63671875 C-6.50020996 860.92281982 -7.04338867 860.2089209 -7.60302734 859.47338867 C-8.1748877 858.68810791 -8.74674805 857.90282715 -9.3359375 857.09375 C-10.25173584 855.87619019 -10.25173584 855.87619019 -11.18603516 854.6340332 C-13.10735767 852.07038089 -15.00488469 849.49046186 -16.8984375 846.90625 C-18.05292485 845.34340967 -19.20785905 843.78089932 -20.36328125 842.21875 C-22.08151702 839.89123871 -23.79684742 837.56176799 -25.50561523 835.22729492 C-29.89760006 829.23058156 -34.37982803 823.30798556 -38.8984375 817.40625 C-44.55209712 810.01992991 -50.11314139 802.57430268 -55.609375 795.0703125 C-59.97120782 789.12953567 -64.41898298 783.2587174 -68.8984375 777.40625 C-74.55134215 770.02065426 -80.11277588 762.57657996 -85.60717773 755.07250977 C-89.98626187 749.10666619 -94.45910993 743.21735379 -98.9609375 737.34375 C-103.91958376 730.87309004 -108.78482567 724.35222532 -113.5234375 717.71875 C-117.82935432 711.69312034 -122.2632527 705.79452021 -126.8359375 699.96875 C-134.06211971 690.76232556 -140.99291291 681.35438642 -147.8984375 671.90625 C-155.144747 662.00488282 -162.4434201 652.15181523 -169.8984375 642.40625 C-176.76185059 633.43405901 -183.49616045 624.3746336 -190.171875 615.26220703 C-193.11687003 611.24365471 -196.06944694 607.23069268 -199.0234375 603.21875 C-199.60625488 602.42710449 -200.18907227 601.63545898 -200.78955078 600.81982422 C-204.95077194 595.17470249 -209.1497809 589.55908801 -213.36645508 583.95532227 C-217.18090832 578.87965372 -220.9511831 573.77253048 -224.7109375 568.65625 C-229.57001124 562.04489967 -234.46743812 555.46412204 -239.3984375 548.90625 C-247.24254503 538.47140019 -254.98669665 527.96452529 -262.70849609 517.43896484 C-269.14557316 508.66519956 -275.61467104 499.93301098 -282.28125 491.33203125 C-285.51011298 487.13400525 -288.63826871 482.86192323 -291.7734375 478.59375 C-296.14733274 472.63958971 -300.53117397 466.69399886 -304.9609375 460.78125 C-305.4360376 460.14364746 -305.9111377 459.50604492 -306.40063477 458.84912109 C-309.0662718 455.28686476 -311.78659153 451.77953677 -314.5703125 448.30859375 C-315.48091431 447.15931396 -315.48091431 447.15931396 -316.40991211 445.98681641 C-317.58556386 444.50629523 -318.77342107 443.03536166 -319.97485352 441.57568359 C-323.83665662 436.68638502 -323.83665662 436.68638502 -324.09765625 433.390625 C-322.30757969 429.68219278 -319.93284434 426.5760929 -317.3984375 423.34375 C-316.29296791 421.90234439 -315.18749917 420.46093814 -314.08203125 419.01953125 C-313.53659668 418.31521973 -312.99116211 417.6109082 -312.42919922 416.88525391 C-306.5935976 409.34085411 -300.97061999 401.64574766 -295.3984375 393.90625 C-289.10603815 385.17040109 -282.685376 376.544307 -276.140625 367.99609375 C-266.72086428 355.69034963 -266.72086428 355.69034963 -257.62084961 343.1484375 C-249.45341122 331.58680508 -240.94180366 320.26692934 -232.43139648 308.95654297 C-228.61653276 303.88053092 -224.84600026 298.77295011 -221.0859375 293.65625 C-216.22686376 287.04489967 -211.32943688 280.46412204 -206.3984375 273.90625 C-199.75359233 265.06675347 -193.17989061 256.17684556 -186.63232422 247.26513672 C-183.72472122 243.30945379 -180.81127356 239.35808011 -177.8984375 235.40625 C-176.73174308 233.82293712 -175.5650764 232.23960379 -174.3984375 230.65625 C-163.8984375 216.40625 -163.8984375 216.40625 -153.3984375 202.15625 C-152.82101807 201.37258057 -152.24359863 200.58891113 -151.64868164 199.78149414 C-150.48131219 198.19726519 -149.31383162 196.61311812 -148.14624023 195.02905273 C-145.23941193 191.0850843 -142.3344927 187.13973838 -139.43359375 183.19140625 C-132.82259754 174.19840437 -126.1583594 165.24874309 -119.44482422 156.33203125 C-115.25855616 150.75761022 -111.14993372 145.13280166 -107.0859375 139.46875 C-102.68235406 133.33174278 -98.17070571 127.31191393 -93.53515625 121.34765625 C-90.37545323 117.25399111 -87.32943987 113.07754448 -84.2734375 108.90625 C-79.20545728 101.99081502 -74.05192624 95.14816485 -68.8359375 88.34375 C-63.87724258 81.87312765 -59.0120483 75.35222388 -54.2734375 68.71875 C-49.41490329 61.91979659 -44.36369017 55.302061 -39.203125 48.73022461 C-33.16205608 41.01563895 -27.38367806 33.11565003 -21.59326172 25.21240234 C-18.85931994 21.49231965 -16.10162332 17.79027034 -13.3359375 14.09375 C-12.85946777 13.45421387 -12.38299805 12.81467773 -11.89208984 12.15576172 C-10.99823373 10.96299961 -10.09687908 9.77580858 -9.18701172 8.59521484 C-8.31953588 7.45819365 -7.4775134 6.30134804 -6.66064453 5.12744141 C-4.64819479 2.38785104 -3.27329275 1.02345542 0 0 Z " fill="#FDC911" transform="translate(627.8984375,192.09375)"/>
<path d="M0 0 C0.33 0 0.66 0 1 0 C1 137.28 1 274.56 1 416 C-100.97 416 -202.94 416 -308 416 C-306.55813823 413.11627646 -305.27048471 410.83422271 -303.41796875 408.26953125 C-302.90492188 407.55796875 -302.391875 406.84640625 -301.86328125 406.11328125 C-301.31027344 405.35402344 -300.75726563 404.59476563 -300.1875 403.8125 C-299.32125 402.61753906 -299.32125 402.61753906 -298.4375 401.3984375 C-294.01519323 395.32615944 -289.47363579 389.35296568 -284.88427734 383.40649414 C-280.92495952 378.25866608 -277.09564153 373.02837523 -273.3125 367.75 C-268.87128515 361.55358235 -264.32386944 355.47520238 -259.6484375 349.453125 C-251.60536143 339.02989191 -243.93318903 328.31445611 -236.25 317.625 C-231.82607819 311.47238623 -227.29296521 305.43435908 -222.64453125 299.44921875 C-217.58100721 292.88784088 -212.72555436 286.16685378 -207.82324219 279.48486328 C-204.84415209 275.42471612 -201.86049862 271.36793655 -198.875 267.3125 C-198.29339111 266.52222412 -197.71178223 265.73194824 -197.11254883 264.91772461 C-192.93508342 259.24918576 -188.71109959 253.61714212 -184.47265625 247.99414062 C-180.70651253 242.98096261 -177.03164261 237.90592895 -173.375 232.8125 C-168.89554145 226.57313654 -164.30003975 220.45878899 -159.5859375 214.39453125 C-155.92566825 209.63560975 -152.45573004 204.73756966 -148.95483398 199.86108398 C-144.90167167 194.22434956 -140.77011794 188.6533492 -136.59033203 183.11010742 C-132.69014411 177.93345956 -128.83824015 172.72271262 -125 167.5 C-120.69552981 161.64458108 -116.36963481 155.80695705 -112 150 C-107.67649884 144.25237992 -103.38903772 138.4793765 -99.125 132.6875 C-98.53831543 131.89069824 -97.95163086 131.09389648 -97.34716797 130.27294922 C-94.41474278 126.28789972 -91.48647219 122.29984916 -88.5625 118.30859375 C-81.65336011 108.88909373 -74.63954959 99.55821196 -67.54394531 90.27832031 C-63.66773764 85.20418441 -59.83966168 80.10466268 -56.109375 74.921875 C-48.44103879 64.29980929 -40.64287453 53.78023321 -32.6171875 43.42578125 C-28.77376236 38.4287285 -25.06593724 33.33028692 -21.33447266 28.24951172 C-17.37214488 22.85637342 -13.38884337 17.47992013 -9.375 12.125 C-8.89047363 11.47748779 -8.40594727 10.82997559 -7.90673828 10.1628418 C-2.59821286 3.09199087 -2.59821286 3.09199087 0 0 Z " fill="#FDC911" transform="translate(624,208)"/>
<path d="M0 0 C101.97 0 203.94 0 309 0 C305.54613896 5.18079156 302.30716505 10.03561063 298.5 14.875 C294.36227604 20.18149146 290.35044875 25.57107139 286.375 31 C281.2622782 37.97515799 276.06795779 44.88178917 270.8125 51.75 C264.92556091 59.4469073 259.13447992 67.20239442 253.43212891 75.03662109 C245.87424304 85.39811413 238.24354382 95.70570255 230.53051758 105.95214844 C226.73316622 111.00361929 222.98776082 116.09183981 219.25 121.1875 C214.16076633 128.12303718 208.98109546 134.98342416 203.75 141.8125 C199.00501095 148.00796883 194.34530969 154.23807233 189.85961914 160.62329102 C185.44487649 166.86438421 180.75849138 172.8976348 176.10693359 178.96289062 C171.12343706 185.47913827 166.28583405 192.08563288 161.51025391 198.75512695 C157.66715731 204.11070275 153.69428998 209.33835269 149.6484375 214.54296875 C146.42109468 218.72412658 143.30985364 222.99023274 140.1875 227.25 C135.68913576 233.38435438 131.13995524 239.47202396 126.5 245.5 C121.98757308 251.3634202 117.56028371 257.28174115 113.1875 263.25 C107.54216256 270.95392806 101.78027659 278.56171463 95.97485352 286.14550781 C90.86439996 292.83388902 85.85547329 299.59143919 80.88037109 306.38085938 C77.51644804 310.96441071 74.1084124 315.50662815 70.625 320 C67.09875883 324.55330171 63.66953984 329.16035685 60.296875 333.828125 C51.6813714 345.72572521 42.8976641 357.48833496 33.96948242 369.15283203 C29.5215828 374.97407105 25.14306412 380.84104565 20.8125 386.75 C16.15391855 393.10079266 11.45545655 399.41828771 6.6875 405.6875 C5.85085815 406.79399902 5.85085815 406.79399902 4.99731445 407.92285156 C3.68967873 409.63447063 2.34845223 411.32034897 1 413 C0.67 413 0.34 413 0 413 C0 276.71 0 140.42 0 0 Z " fill="#FDC911" transform="translate(630,629)"/>
<path d="M0 0 C101.64 0 203.28 0 308 0 C308 136.29 308 272.58 308 413 C302.38095238 407.38095238 302.38095238 407.38095238 300.01171875 404.09375 C299.47861084 403.3608374 298.94550293 402.6279248 298.39624023 401.87280273 C297.83235596 401.08977783 297.26847168 400.30675293 296.6875 399.5 C291.5262104 392.40848323 286.27752554 385.39536408 280.9375 378.4375 C275.40619267 371.21883244 270.01233689 363.92024125 264.72021484 356.52490234 C260.57625532 350.7515405 256.29022317 345.10027429 251.95117188 339.47265625 C247.21542147 333.31789038 242.61273259 327.07044277 238.02197266 320.80712891 C234.71587815 316.30452547 231.36582061 311.84771826 227.9375 307.4375 C224.08836942 302.47695651 220.40277546 297.41898652 216.75 292.3125 C211.76578319 285.35165663 206.59913042 278.56411403 201.31054688 271.83251953 C196.40195076 265.56602377 191.67127858 259.18010116 186.97119141 252.75634766 C183.68396593 248.26871524 180.35234236 243.82879971 176.9375 239.4375 C173.0718337 234.45382237 169.36175787 229.37613853 165.6875 224.25 C160.89321894 217.56335074 155.97642411 210.99014316 150.95263672 204.47460938 C146.2186938 198.32204876 141.61739109 192.07711976 137.02856445 185.81591797 C133.65923618 181.22691268 130.24530918 176.68117077 126.75 172.1875 C123.50636271 168.0028399 120.36776639 163.76082614 117.3125 159.4375 C112.60338744 152.77504756 107.71752231 146.2531396 102.80981445 139.73608398 C98.50481318 134.01602034 94.23742481 128.27027658 90 122.5 C85.20401072 115.97152391 80.3683884 109.47466166 75.5 103 C67.65589691 92.56514682 59.91174089 82.05827534 52.18994141 71.53271484 C45.75565197 62.7627491 39.29093917 54.03305314 32.625 45.4375 C29.34729354 41.1764816 26.17952867 36.8344457 23 32.5 C18.88767039 26.89434466 14.75216942 21.31303536 10.5 15.8125 C9.32824219 14.2965625 9.32824219 14.2965625 8.1328125 12.75 C6.77476753 10.99896766 5.41552282 9.24886467 4.0546875 7.5 C3.50039063 6.778125 2.94609375 6.05625 2.375 5.3125 C1.90835937 4.71050781 1.44171875 4.10851562 0.9609375 3.48828125 C0 2 0 2 0 0 Z " fill="#FDC911" transform="translate(317,629)"/>
<path d="M0 0 C4.99295605 1.458899 6.89891357 5.22543178 9.7265625 9.40625 C10.96533232 11.16333424 12.20492885 12.9198359 13.4453125 14.67578125 C14.06019531 15.55959473 14.67507813 16.4434082 15.30859375 17.35400391 C17.86713498 20.99602325 20.53865379 24.54674534 23.2265625 28.09375 C24.20874729 29.39942829 25.19051925 30.70541724 26.171875 32.01171875 C26.65430664 32.65286621 27.13673828 33.29401367 27.63378906 33.95458984 C30.12656585 37.26917028 32.613744 40.58794745 35.1015625 43.90625 C36.10153647 45.23960286 37.10153645 46.57293621 38.1015625 47.90625 C44.13671875 55.953125 50.171875 64 56.20703125 72.046875 C56.71741943 72.72733887 57.22780762 73.40780273 57.75366211 74.10888672 C58.77421567 75.46973298 59.79456199 76.83073468 60.81469727 78.19189453 C63.00453185 81.11334844 65.19702641 84.03256109 67.3984375 86.9453125 C71.21341039 91.99945542 74.96003371 97.09062616 78.64672852 102.23876953 C83.66311581 109.24098102 88.77779903 116.13424553 94.1015625 122.90625 C99.2597008 129.46811799 104.2106278 136.14392335 109.05981445 142.93652344 C113.35631898 148.9317668 117.80018508 154.80402169 122.2890625 160.65625 C127.14672882 166.99124194 131.92475532 173.35905693 136.52514648 179.88305664 C139.55959784 184.17737826 142.68681183 188.39466618 145.8515625 192.59375 C150.26063547 198.44405915 154.63463196 204.31840996 158.9765625 210.21875 C159.84849243 211.40355957 159.84849243 211.40355957 160.73803711 212.61230469 C162.52632448 215.04329245 164.31397672 217.47474631 166.1015625 219.90625 C175.30606868 232.4400158 175.30606868 232.4400158 184.6015625 244.90625 C190.2157698 252.36764566 195.73782244 259.89691349 201.27099609 267.41845703 C204.79324809 272.2052999 208.31986542 276.98892719 211.84594727 281.77294922 C214.7899845 285.76769397 217.73246134 289.76357035 220.671875 293.76171875 C228.83295902 304.85815499 237.06790882 315.89623489 245.35546875 326.8984375 C252.9492362 336.99549109 260.42240137 347.18136127 267.90576172 357.36035156 C274.41919176 366.21947134 280.9514988 375.06215432 287.56298828 383.84838867 C291.44222094 389.01021909 295.27680001 394.20396683 299.1015625 399.40625 C303.60291897 405.52503882 308.11548405 411.63495498 312.6640625 417.71875 C313.14037109 418.358125 313.61667969 418.9975 314.10742188 419.65625 C314.56052734 420.26082031 315.01363281 420.86539062 315.48046875 421.48828125 C316.12846436 422.35573975 316.12846436 422.35573975 316.78955078 423.24072266 C318.0819109 424.92619861 318.0819109 424.92619861 319.55029297 426.47412109 C321.83274804 428.94564581 323.04285729 430.60254838 323.6875 433.9375 C322.92331994 437.80934564 321.38023804 439.49945464 318.7265625 442.40625 C317.79782814 443.45588567 316.87349013 444.50942442 315.953125 445.56640625 C315.4777832 446.11184082 315.00244141 446.65727539 314.51269531 447.21923828 C312.20719142 449.97547218 310.15687949 452.89877553 308.1015625 455.84375 C304.56106565 460.88892362 300.90504152 465.811067 297.11962891 470.67749023 C293.49045901 475.36152218 289.9781242 480.12632486 286.4765625 484.90625 C281.3473607 491.90588564 276.12955192 498.83068462 270.8515625 505.71875 C266.0345842 512.00756694 261.30713137 518.33519361 256.74804688 524.81298828 C253.03633667 530.06095125 249.12262099 535.14526989 245.20068359 540.23706055 C240.46917589 546.3927148 235.85594099 552.6301917 231.26269531 558.8894043 C227.57148896 563.91741762 223.85303266 568.92305652 220.1015625 573.90625 C215.8107363 579.60597229 211.57122074 585.34117597 207.3515625 591.09375 C202.32365115 597.94516194 197.20809768 604.7232766 192.0390625 611.46875 C186.43700055 618.7804972 180.97340122 626.17381068 175.61083984 633.66259766 C171.76441296 639.02315833 167.78736189 644.25515707 163.73828125 649.46484375 C160.57857653 653.5585111 157.53264 657.73500808 154.4765625 661.90625 C149.42493431 668.79710019 144.29504318 675.62171384 139.1015625 682.40625 C132.70416496 690.76542344 126.42518938 699.20404859 120.19921875 707.69140625 C116.99351386 712.06088561 113.74067085 716.39373228 110.48046875 720.72265625 C108.07040441 723.94794761 105.68613348 727.19106904 103.3046875 730.4375 C96.98286779 739.05307731 90.55909467 747.58234668 84.06420898 756.06811523 C79.09807083 762.5680986 74.23032347 769.13417586 69.3972168 775.73339844 C64.97178594 781.76117293 60.45796021 787.71739924 55.9140625 793.65625 C50.88324459 800.2318376 45.90858817 806.83967891 41.03125 813.52978516 C33.09660802 824.41031101 24.94658871 835.12986573 16.7890625 845.84375 C16.13139893 846.70758301 15.47373535 847.57141602 14.79614258 848.46142578 C13.52451805 850.12897736 12.2480295 851.79283289 10.96630859 853.45263672 C9.69520226 855.12514505 8.4542555 856.82090447 7.24072266 858.53564453 C6.64437012 859.3604834 6.04801758 860.18532227 5.43359375 861.03515625 C4.91128174 861.77967041 4.38896973 862.52418457 3.85083008 863.29125977 C2.1015625 864.90625 2.1015625 864.90625 -0.41552734 865.35253906 C-3.46923684 864.80365205 -4.12729112 864.09524631 -5.95703125 861.63671875 C-6.50020996 860.92281982 -7.04338867 860.2089209 -7.60302734 859.47338867 C-8.1748877 858.68810791 -8.74674805 857.90282715 -9.3359375 857.09375 C-10.25173584 855.87619019 -10.25173584 855.87619019 -11.18603516 854.6340332 C-13.10735767 852.07038089 -15.00488469 849.49046186 -16.8984375 846.90625 C-18.05292485 845.34340967 -19.20785905 843.78089932 -20.36328125 842.21875 C-22.08151702 839.89123871 -23.79684742 837.56176799 -25.50561523 835.22729492 C-29.89760006 829.23058156 -34.37982803 823.30798556 -38.8984375 817.40625 C-44.55209712 810.01992991 -50.11314139 802.57430268 -55.609375 795.0703125 C-59.97120782 789.12953567 -64.41898298 783.2587174 -68.8984375 777.40625 C-74.55134215 770.02065426 -80.11277588 762.57657996 -85.60717773 755.07250977 C-89.98626187 749.10666619 -94.45910993 743.21735379 -98.9609375 737.34375 C-103.91958376 730.87309004 -108.78482567 724.35222532 -113.5234375 717.71875 C-117.82935432 711.69312034 -122.2632527 705.79452021 -126.8359375 699.96875 C-134.06211971 690.76232556 -140.99291291 681.35438642 -147.8984375 671.90625 C-155.144747 662.00488282 -162.4434201 652.15181523 -169.8984375 642.40625 C-176.76185059 633.43405901 -183.49616045 624.3746336 -190.171875 615.26220703 C-193.11687003 611.24365471 -196.06944694 607.23069268 -199.0234375 603.21875 C-199.60625488 602.42710449 -200.18907227 601.63545898 -200.78955078 600.81982422 C-204.95077194 595.17470249 -209.1497809 589.55908801 -213.36645508 583.95532227 C-217.18090832 578.87965372 -220.9511831 573.77253048 -224.7109375 568.65625 C-229.57001124 562.04489967 -234.46743812 555.46412204 -239.3984375 548.90625 C-247.24254503 538.47140019 -254.98669665 527.96452529 -262.70849609 517.43896484 C-269.14557316 508.66519956 -275.61467104 499.93301098 -282.28125 491.33203125 C-285.51011298 487.13400525 -288.63826871 482.86192323 -291.7734375 478.59375 C-296.14733274 472.63958971 -300.53117397 466.69399886 -304.9609375 460.78125 C-305.4360376 460.14364746 -305.9111377 459.50604492 -306.40063477 458.84912109 C-309.0662718 455.28686476 -311.78659153 451.77953677 -314.5703125 448.30859375 C-315.48091431 447.15931396 -315.48091431 447.15931396 -316.40991211 445.98681641 C-317.58556386 444.50629523 -318.77342107 443.03536166 -319.97485352 441.57568359 C-323.83665662 436.68638502 -323.83665662 436.68638502 -324.09765625 433.390625 C-322.30757969 429.68219278 -319.93284434 426.5760929 -317.3984375 423.34375 C-316.29296791 421.90234439 -315.18749917 420.46093814 -314.08203125 419.01953125 C-313.53659668 418.31521973 -312.99116211 417.6109082 -312.42919922 416.88525391 C-306.5935976 409.34085411 -300.97061999 401.64574766 -295.3984375 393.90625 C-289.10603815 385.17040109 -282.685376 376.544307 -276.140625 367.99609375 C-266.72086428 355.69034963 -266.72086428 355.69034963 -257.62084961 343.1484375 C-249.45341122 331.58680508 -240.94180366 320.26692934 -232.43139648 308.95654297 C-228.61653276 303.88053092 -224.84600026 298.77295011 -221.0859375 293.65625 C-216.22686376 287.04489967 -211.32943688 280.46412204 -206.3984375 273.90625 C-199.75359233 265.06675347 -193.17989061 256.17684556 -186.63232422 247.26513672 C-183.72472122 243.30945379 -180.81127356 239.35808011 -177.8984375 235.40625 C-176.73174308 233.82293712 -175.5650764 232.23960379 -174.3984375 230.65625 C-163.8984375 216.40625 -163.8984375 216.40625 -153.3984375 202.15625 C-152.82101807 201.37258057 -152.24359863 200.58891113 -151.64868164 199.78149414 C-150.48131219 198.19726519 -149.31383162 196.61311812 -148.14624023 195.02905273 C-145.23941193 191.0850843 -142.3344927 187.13973838 -139.43359375 183.19140625 C-132.82259754 174.19840437 -126.1583594 165.24874309 -119.44482422 156.33203125 C-115.25855616 150.75761022 -111.14993372 145.13280166 -107.0859375 139.46875 C-102.68235406 133.33174278 -98.17070571 127.31191393 -93.53515625 121.34765625 C-90.37545323 117.25399111 -87.32943987 113.07754448 -84.2734375 108.90625 C-79.20545728 101.99081502 -74.05192624 95.14816485 -68.8359375 88.34375 C-63.87724258 81.87312765 -59.0120483 75.35222388 -54.2734375 68.71875 C-49.41490329 61.91979659 -44.36369017 55.302061 -39.203125 48.73022461 C-33.16205608 41.01563895 -27.38367806 33.11565003 -21.59326172 25.21240234 C-18.85931994 21.49231965 -16.10162332 17.79027034 -13.3359375 14.09375 C-12.85946777 13.45421387 -12.38299805 12.81467773 -11.89208984 12.15576172 C-10.99823373 10.96299961 -10.09687908 9.77580858 -9.18701172 8.59521484 C-8.31953588 7.45819365 -7.4775134 6.30134804 -6.66064453 5.12744141 C-4.64819479 2.38785104 -3.27329275 1.02345542 0 0 Z M-3.8984375 15.90625 C-5.50465708 17.81811913 -7.05383614 19.74829519 -8.5859375 21.71875 C-9.31526489 22.65231323 -9.31526489 22.65231323 -10.05932617 23.60473633 C-16.50810302 31.91227229 -22.68977193 40.41894363 -28.8984375 48.90625 C-36.17743864 58.84396423 -43.49818689 68.7387832 -51.01074219 78.50146484 C-55.5758682 84.4482509 -60.01833067 90.48021355 -64.44824219 96.52807617 C-68.94264866 102.64794724 -73.53060063 108.69164023 -78.1484375 114.71875 C-82.98395972 121.03340009 -87.7387456 127.38362534 -92.32226562 133.88330078 C-95.35652792 138.17761774 -98.48375587 142.39475778 -101.6484375 146.59375 C-106.05751156 152.44406059 -110.43138098 158.31850169 -114.7734375 164.21875 C-115.35762451 165.01224854 -115.94181152 165.80574707 -116.54370117 166.62329102 C-119.51330826 170.6589109 -122.47889413 174.69745072 -125.44140625 178.73828125 C-131.63447671 187.17636118 -137.89783058 195.54849486 -144.28320312 203.84204102 C-148.02087811 208.71371378 -151.62647491 213.66234244 -155.16772461 218.67797852 C-158.27210704 223.06353465 -161.47290453 227.368626 -164.7109375 231.65625 C-169.05956169 237.41461232 -173.31662614 243.23103978 -177.5234375 249.09375 C-181.98691974 255.3089162 -186.55733123 261.40884614 -191.25 267.453125 C-199.29307607 277.87635809 -206.96524847 288.59179389 -214.6484375 299.28125 C-219.07235931 305.43386377 -223.60547229 311.47189092 -228.25390625 317.45703125 C-233.31296315 324.01262054 -238.16408081 330.72767305 -243.06201172 337.40380859 C-246.10736247 341.55361519 -249.15856092 345.69910953 -252.2109375 349.84375 C-252.80100586 350.64506348 -253.39107422 351.44637695 -253.99902344 352.27197266 C-257.80598745 357.43703296 -261.64486778 362.57683271 -265.50390625 367.703125 C-268.59498746 371.8380134 -271.65257056 375.99713462 -274.7109375 380.15625 C-279.55206074 386.73893363 -284.42654176 393.29448664 -289.34106445 399.82250977 C-294.00132984 406.02194537 -298.59653649 412.26878645 -303.1796875 418.52539062 C-305.49920537 421.6851968 -307.81400669 424.80358981 -310.3046875 427.83203125 C-312.10153005 429.73460191 -312.10153005 429.73460191 -311.8984375 431.90625 C-209.9284375 431.90625 -107.9584375 431.90625 -2.8984375 431.90625 C-2.8984375 294.62625 -2.8984375 157.34625 -2.8984375 15.90625 C-3.2284375 15.90625 -3.5584375 15.90625 -3.8984375 15.90625 Z M2.1015625 15.90625 C2.1015625 153.18625 2.1015625 290.46625 2.1015625 431.90625 C104.4015625 431.90625 206.7015625 431.90625 312.1015625 431.90625 C308.22844154 426.09656856 304.37433435 420.51661033 300.1015625 415.03125 C295.33619915 408.85760891 290.65253303 402.63171107 286.0390625 396.34375 C281.75676025 390.50799432 277.45482021 384.68929327 273.1015625 378.90625 C266.97095027 370.75661055 260.92445642 362.54601914 254.88378906 354.32958984 C251.37560163 349.55941608 247.86174085 344.79341839 244.34765625 340.02758789 C241.45054083 336.09768953 238.55712426 332.16518286 235.671875 328.2265625 C229.48052978 319.78421854 223.21668645 311.40605514 216.8515625 303.09375 C212.01622924 296.7789491 207.26125978 290.42888229 202.67773438 283.92919922 C199.64347208 279.63488226 196.51624413 275.41774222 193.3515625 271.21875 C188.94248935 265.36844061 184.56851522 259.49407385 180.2265625 253.59375 C179.64310059 252.80097656 179.05963867 252.00820313 178.45849609 251.19140625 C176.07499722 247.95147037 173.69280022 244.7105783 171.31054688 241.46972656 C169.53316009 239.05228629 167.75511969 236.6353293 165.9765625 234.21875 C165.39479248 233.42823242 164.81302246 232.63771484 164.21362305 231.82324219 C160.03625171 226.1549986 155.81248567 220.52315807 151.57421875 214.90039062 C147.80807325 209.88721024 144.13330556 204.81210886 140.4765625 199.71875 C136.01455052 193.50600439 131.44749775 187.4072388 126.75390625 181.3671875 C122.88437368 176.35360628 119.1620001 171.23004389 115.41430664 166.12524414 C111.67195649 161.03032269 107.90361392 155.95675522 104.1015625 150.90625 C99.79434187 145.18264263 95.53086087 139.42849678 91.2890625 133.65625 C86.42998876 127.04489967 81.53256188 120.46412204 76.6015625 113.90625 C71.71656467 107.40784104 66.85825584 100.8911266 62.0390625 94.34375 C61.46542969 93.56459229 60.89179687 92.78543457 60.30078125 91.98266602 C57.39635832 88.0344661 54.49807749 84.08186284 51.60546875 80.125 C45.29903737 71.51253797 38.88225571 63.01199328 32.29003906 54.61621094 C28.18429538 49.36242663 24.2335807 44.01457588 20.3515625 38.59375 C16.43632358 33.12687689 12.49502031 27.68854165 8.4140625 22.34375 C7.62644531 21.31121094 6.83882812 20.27867187 6.02734375 19.21484375 C4.31099964 16.84415126 4.31099964 16.84415126 2.1015625 15.90625 Z M-310.8984375 436.90625 C-305.77419797 447.15472905 -297.69138365 456.13536053 -290.75439453 465.21142578 C-286.71911003 470.49660218 -282.74112387 475.80817965 -278.859375 481.20703125 C-276.36857277 484.63560563 -273.82185529 488.02038948 -271.2734375 491.40625 C-266.82496797 497.32058001 -262.41060469 503.25880171 -258.0234375 509.21875 C-257.43723633 510.01490723 -256.85103516 510.81106445 -256.24707031 511.63134766 C-253.31413336 515.61703098 -250.38539062 519.60574435 -247.4609375 523.59765625 C-241.33320509 531.95167311 -235.13628229 540.24394719 -228.8359375 548.46875 C-223.36252621 555.61562754 -218.01219213 562.83324502 -212.77246094 570.15283203 C-207.98862028 576.82206872 -203.0683363 583.38434565 -198.13037109 589.93994141 C-195.03670862 594.04902569 -191.96193098 598.16615555 -188.9609375 602.34375 C-185.08798419 607.71673118 -181.04939234 612.96021869 -177.0234375 618.21875 C-172.01371927 624.76363955 -167.08818238 631.34532887 -162.34204102 638.08349609 C-159.24249081 642.46924533 -155.99861828 646.72183906 -152.70410156 650.9609375 C-149.65614924 654.89286672 -146.69907798 658.88268347 -143.7734375 662.90625 C-138.49502286 670.15974513 -133.05443663 677.28505503 -127.60449219 684.41015625 C-123.56954208 689.69213215 -119.60581995 695.00902225 -115.7265625 700.40625 C-113.62527001 703.27981238 -111.45411939 706.09246691 -109.2734375 708.90625 C-105.17010295 714.20090099 -101.17486362 719.56905809 -97.2109375 724.96875 C-90.41799776 734.22161931 -83.5419406 743.40993005 -76.64306641 752.58398438 C-75.04182269 754.71539078 -73.44381111 756.84915631 -71.84765625 758.984375 C-66.89088094 765.61256296 -61.90302489 772.21464818 -56.87280273 778.78735352 C-51.38550992 785.95931351 -45.94949834 793.143144 -40.75634766 800.53100586 C-36.36445928 806.73732815 -31.71541322 812.74688348 -27.08886719 818.77905273 C-21.76277863 825.73507549 -16.54850983 832.76659363 -11.41503906 839.8659668 C-10.8784668 840.60242432 -10.34189453 841.33888184 -9.7890625 842.09765625 C-9.32532227 842.73904541 -8.86158203 843.38043457 -8.38378906 844.04125977 C-6.71615709 846.13511917 -4.791219 848.0134685 -2.8984375 849.90625 C-2.8984375 713.61625 -2.8984375 577.32625 -2.8984375 436.90625 C-104.5384375 436.90625 -206.1784375 436.90625 -310.8984375 436.90625 Z M2.1015625 436.90625 C2.1015625 573.19625 2.1015625 709.48625 2.1015625 849.90625 C5.28745779 846.72035471 7.93953032 844.00111437 10.59765625 840.4921875 C11.54801758 839.24211914 11.54801758 839.24211914 12.51757812 837.96679688 C13.18466797 837.08056641 13.85175781 836.19433594 14.5390625 835.28125 C15.24353516 834.35119141 15.94800781 833.42113281 16.67382812 832.46289062 C21.77281654 825.71463372 26.79937173 818.91472702 31.79711914 812.09130859 C36.28641707 805.97504675 40.86751414 799.9326461 45.4765625 793.90625 C51.25333437 786.3497142 56.93701874 778.74529052 62.46044922 771.00097656 C69.0601016 761.75677507 75.78826815 752.65501331 82.80371094 743.72167969 C87.55917173 737.64948348 92.14502448 731.46567438 96.69750977 725.24047852 C101.217632 719.07242793 105.8299606 712.97946386 110.4765625 706.90625 C115.1695589 700.77142607 119.82108575 694.62167847 124.33203125 688.3515625 C127.43624409 684.06185557 130.63334171 679.84167523 133.81835938 675.61181641 C136.25011871 672.37964923 138.67529812 669.1425428 141.1015625 665.90625 C143.85681883 662.23113942 146.61222269 658.55618072 149.375 654.88671875 C152.67525061 650.50069796 155.96000282 646.10522337 159.20703125 641.6796875 C165.55434903 633.02881927 171.95850438 624.42951364 178.4765625 615.90625 C183.05690126 609.91616265 187.60878984 603.91641028 192.015625 597.796875 C200.63290196 585.85533015 209.46635721 574.08385162 218.41992188 562.39306641 C222.46570585 557.0959989 226.40516018 551.74589439 230.23535156 546.29174805 C234.72323763 539.94568381 239.49052425 533.81216151 244.21875 527.64453125 C247.93253505 522.78858211 251.58829916 517.90909464 255.1015625 512.90625 C259.86174268 506.13347868 264.89526252 499.57813222 269.92871094 493.00708008 C275.0558646 486.3043321 280.09008115 479.5393419 285.08178711 472.73535156 C288.83151484 467.62535999 292.60745154 462.53651407 296.4140625 457.46875 C297.14399414 456.49639404 297.14399414 456.49639404 297.88867188 455.50439453 C300.20213481 452.42528552 302.52131795 449.35064271 304.84765625 446.28125 C305.27199951 445.71978271 305.69634277 445.15831543 306.13354492 444.57983398 C307.27204225 443.07393223 308.41326341 441.57009083 309.5546875 440.06640625 C311.19859772 438.21355978 311.19859772 438.21355978 311.1015625 436.90625 C209.1315625 436.90625 107.1615625 436.90625 2.1015625 436.90625 Z " fill="#0B0A05" transform="translate(627.8984375,192.09375)"/>
<path d="M0 0 C1.06025391 -0.02449219 2.12050781 -0.04898438 3.21289062 -0.07421875 C11.3423174 -0.10430916 17.59420866 1.28161916 24 6.4375 C26.24413975 11.02335079 26.30703146 15.37702082 25.4375 20.375 C24.04143385 23.07440467 22.76889637 24.32115082 20.4375 26.375 C19.7775 26.375 19.1175 26.375 18.4375 26.375 C18.4375 27.035 18.4375 27.695 18.4375 28.375 C19.159375 28.436875 19.88125 28.49875 20.625 28.5625 C24.3372565 29.63492966 25.94971068 31.47257913 28.4375 34.375 C29.79238172 38.43964515 29.97512555 42.12485211 29.4375 46.375 C27.625 49.75 27.625 49.75 25.4375 52.375 C25.004375 52.931875 24.57125 53.48875 24.125 54.0625 C16.7888556 59.76839009 8.03701163 59.5568273 -0.75 59.5625 C-1.75998047 59.57474609 -2.76996094 59.58699219 -3.81054688 59.59960938 C-4.77412109 59.60154297 -5.73769531 59.60347656 -6.73046875 59.60546875 C-7.60985107 59.60957764 -8.4892334 59.61368652 -9.39526367 59.61791992 C-11.5625 59.375 -11.5625 59.375 -13.5625 57.375 C-13.81646729 55.05993652 -13.81646729 55.05993652 -13.82128906 52.13085938 C-13.82759338 51.03632446 -13.83389771 49.94178955 -13.84039307 48.81408691 C-13.8363446 47.62762573 -13.83229614 46.44116455 -13.828125 45.21875 C-13.83003845 44.00554077 -13.8319519 42.79233154 -13.83392334 41.5423584 C-13.83528634 38.97338657 -13.83158192 36.40440788 -13.82324219 33.83544922 C-13.8125446 29.89144496 -13.82313394 25.94789625 -13.8359375 22.00390625 C-13.83461593 19.51301982 -13.83205358 17.02213368 -13.828125 14.53125 C-13.83419769 12.75155823 -13.83419769 12.75155823 -13.84039307 10.93591309 C-13.83408875 9.84137817 -13.82778442 8.74684326 -13.82128906 7.61914062 C-13.81969788 6.65254517 -13.81810669 5.68594971 -13.81646729 4.69006348 C-13.08891137 -1.94204319 -5.01314342 0.00594326 0 0 Z " fill="#0F0F0E" transform="translate(342.5625,56.625)"/>
<path d="M0 0 C1.71703125 0.00193359 1.71703125 0.00193359 3.46875 0.00390625 C4.6134375 -0.01800781 5.758125 -0.03992187 6.9375 -0.0625 C9.96875 0.56640625 9.96875 0.56640625 11.765625 2.78125 C12.89841166 5.40357755 13.87549942 7.96277464 14.71875 10.69140625 C16.18195134 15.25413713 17.76032491 19.74937523 19.44433594 24.23364258 C22.27532609 31.77295972 24.97858149 39.34475159 27.46875 47.00390625 C27.869729 48.20188843 27.869729 48.20188843 28.27880859 49.42407227 C29.4923599 53.23275005 30.1871301 55.74623277 28.96875 59.56640625 C25.58994602 59.85167113 22.34054696 59.98039101 18.96875 59.56640625 C15.07828113 55.79751454 15.16464438 50.94793096 13.96875 45.56640625 C6.70875 45.89640625 -0.55125 46.22640625 -8.03125 46.56640625 C-8.670625 48.52578125 -9.31 50.48515625 -9.96875 52.50390625 C-11.90625 58.44140625 -11.90625 58.44140625 -13.03125 59.56640625 C-14.71733966 59.63846136 -16.40625659 59.65026693 -18.09375 59.62890625 C-19.01285156 59.61988281 -19.93195312 59.61085937 -20.87890625 59.6015625 C-21.58917969 59.58996094 -22.29945313 59.57835937 -23.03125 59.56640625 C-22.51010718 52.49123766 -20.90127325 46.43652093 -18.5390625 39.765625 C-18.19245575 38.76682816 -17.845849 37.76803131 -17.48873901 36.7389679 C-16.75864048 34.64232646 -16.02387385 32.54730527 -15.28466797 30.45385742 C-14.15494786 27.25021365 -13.04327821 24.04070958 -11.93359375 20.83007812 C-11.21981186 18.78738906 -10.50500368 16.74505826 -9.7890625 14.703125 C-9.45770294 13.74580978 -9.12634338 12.78849457 -8.78494263 11.8021698 C-8.46806488 10.91056656 -8.15118713 10.01896332 -7.82470703 9.1003418 C-7.55014679 8.31918503 -7.27558655 7.53802826 -6.9927063 6.73320007 C-5.29222472 2.90089591 -4.24185999 0.79261559 0 0 Z " fill="#0C0C0C" transform="translate(866.03125,56.43359375)"/>
<path d="M0 0 C1.71703125 0.00193359 1.71703125 0.00193359 3.46875 0.00390625 C4.6134375 -0.01800781 5.758125 -0.03992187 6.9375 -0.0625 C9.96875 0.56640625 9.96875 0.56640625 11.71875 2.64453125 C13.15641604 6.00507562 14.37500595 9.39491852 15.46875 12.87890625 C17.3893188 18.85483979 17.3893188 18.85483979 19.53125 24.75390625 C21.86003397 30.80611317 23.79804072 37.00057614 25.8203125 43.16015625 C26.07554687 43.93359375 26.33078125 44.70703125 26.59375 45.50390625 C26.82835937 46.21933594 27.06296875 46.93476562 27.3046875 47.671875 C27.99683196 49.73692507 27.99683196 49.73692507 29.21875 52.31640625 C30.14133458 55.08416 29.76003038 56.79692492 28.96875 59.56640625 C27.34411158 59.62036103 25.71896459 59.6591782 24.09375 59.69140625 C22.73636719 59.72621094 22.73636719 59.72621094 21.3515625 59.76171875 C18.96875 59.56640625 18.96875 59.56640625 16.96875 57.56640625 C15.78270705 53.94299064 14.91432683 50.26275203 13.96875 46.56640625 C6.70875 46.56640625 -0.55125 46.56640625 -8.03125 46.56640625 C-8.670625 48.52578125 -9.31 50.48515625 -9.96875 52.50390625 C-11.90625 58.44140625 -11.90625 58.44140625 -13.03125 59.56640625 C-14.52863124 59.66431195 -16.03067892 59.69615489 -17.53125 59.69140625 C-18.3459375 59.69398437 -19.160625 59.6965625 -20 59.69921875 C-22.03125 59.56640625 -22.03125 59.56640625 -23.03125 58.56640625 C-22.60221725 51.92547614 -20.73993557 46.11242591 -18.5390625 39.86328125 C-18.19245575 38.86306946 -17.845849 37.86285767 -17.48873901 36.83233643 C-16.75793008 34.72996999 -16.02316837 32.62897386 -15.28466797 30.52929688 C-14.15623095 27.31635201 -13.04411144 24.09808258 -11.93359375 20.87890625 C-11.21971747 18.83169363 -10.50490588 16.78480687 -9.7890625 14.73828125 C-9.29202316 13.29760284 -9.29202316 13.29760284 -8.78494263 11.82781982 C-8.30962601 10.48557343 -8.30962601 10.48557343 -7.82470703 9.11621094 C-7.55014679 8.33203796 -7.27558655 7.54786499 -6.9927063 6.7399292 C-5.29554805 2.90323646 -4.24439594 0.79308945 0 0 Z " fill="#0E0D0D" transform="translate(485.03125,56.43359375)"/>
<path d="M0 0 C0.9075 0.00257812 1.815 0.00515625 2.75 0.0078125 C4.11125 0.00394531 4.11125 0.00394531 5.5 0 C7.75 0.1328125 7.75 0.1328125 8.75 1.1328125 C8.83700342 2.76754132 8.85701063 4.40595305 8.84765625 6.04296875 C8.84515869 6.9337915 8.84266113 7.82461426 8.84008789 8.74243164 C8.82643188 10.45160767 8.82643188 10.45160767 8.8125 12.1953125 C8.791875 15.8046875 8.77125 19.4140625 8.75 23.1328125 C16.01 23.1328125 23.27 23.1328125 30.75 23.1328125 C30.7104134 15.93758468 30.7104134 15.93758468 30.65991211 8.74243164 C30.65741455 7.85160889 30.65491699 6.96078613 30.65234375 6.04296875 C30.64710693 5.12652588 30.64187012 4.21008301 30.63647461 3.26586914 C30.75 1.1328125 30.75 1.1328125 31.75 0.1328125 C33.22648876 0.03457254 34.70775417 0.00307731 36.1875 0.0078125 C37.39212891 0.00394531 37.39212891 0.00394531 38.62109375 0 C40.75 0.1328125 40.75 0.1328125 42.75 1.1328125 C42.75 19.9428125 42.75 38.7528125 42.75 58.1328125 C40.3703388 59.3226431 38.83514265 59.26631216 36.1875 59.2578125 C34.97900391 59.26167969 34.97900391 59.26167969 33.74609375 59.265625 C31.75 59.1328125 31.75 59.1328125 30.75 58.1328125 C30.66262355 56.27911639 30.64301847 54.42213709 30.65234375 52.56640625 C30.65556641 51.44169922 30.65878906 50.31699219 30.66210938 49.15820312 C30.67467773 47.38219727 30.67467773 47.38219727 30.6875 45.5703125 C30.69201172 44.38244141 30.69652344 43.19457031 30.70117188 41.97070312 C30.71300314 39.02471838 30.73093924 36.07875934 30.75 33.1328125 C23.49 33.1328125 16.23 33.1328125 8.75 33.1328125 C8.76160156 34.92589844 8.77320313 36.71898437 8.78515625 38.56640625 C8.79453229 40.90104063 8.80363269 43.23567613 8.8125 45.5703125 C8.82087891 46.75431641 8.82925781 47.93832031 8.83789062 49.15820312 C8.84111328 50.28291016 8.84433594 51.40761719 8.84765625 52.56640625 C8.85289307 53.60853271 8.85812988 54.65065918 8.86352539 55.72436523 C8.75 58.1328125 8.75 58.1328125 7.75 59.1328125 C6.08570949 59.23105187 4.41718069 59.26254881 2.75 59.2578125 C1.38875 59.26167969 1.38875 59.26167969 0 59.265625 C-2.25 59.1328125 -2.25 59.1328125 -3.25 58.1328125 C-3.34893778 56.35835241 -3.37799092 54.57994999 -3.37939453 52.80273438 C-3.38254669 51.66485474 -3.38569885 50.5269751 -3.38894653 49.35461426 C-3.3869223 48.11610718 -3.38489807 46.8776001 -3.3828125 45.6015625 C-3.38376923 44.34017456 -3.38472595 43.07878662 -3.38571167 41.7791748 C-3.38639375 39.10584112 -3.38503529 36.43259813 -3.38037109 33.75927734 C-3.37467381 30.32574559 -3.37795301 26.892292 -3.38394356 23.45876312 C-3.38841762 20.19386007 -3.38528883 16.92896657 -3.3828125 13.6640625 C-3.38483673 12.42555542 -3.38686096 11.18704834 -3.38894653 9.91101074 C-3.38579437 8.7731311 -3.38264221 7.63525146 -3.37939453 6.46289062 C-3.37859894 5.45552856 -3.37780334 4.4481665 -3.37698364 3.41027832 C-3.20649909 0.35261879 -3.05551091 0.18036002 0 0 Z " fill="#0D0D0D" transform="translate(526.25,56.8671875)"/>
<path d="M0 0 C1.44729492 -0.03673828 1.44729492 -0.03673828 2.92382812 -0.07421875 C11.02137489 -0.10702448 17.15465124 1.58108616 23.375 6.875 C27.17354662 11.47929894 27.8888017 14.88694681 27.75 20.77734375 C27.09030565 26.26105304 24.67129819 30.52914134 20.625 34.25 C13.84494151 38.77003899 7.3087476 38.63120697 -0.5625 38.375 C-0.55726318 38.97562256 -0.55202637 39.57624512 -0.54663086 40.19506836 C-0.52591986 42.90086838 -0.51285875 45.60665177 -0.5 48.3125 C-0.49162109 49.25802734 -0.48324219 50.20355469 -0.47460938 51.17773438 C-0.47138672 52.07685547 -0.46816406 52.97597656 -0.46484375 53.90234375 C-0.45960693 54.73499756 -0.45437012 55.56765137 -0.44897461 56.42553711 C-0.5625 58.375 -0.5625 58.375 -1.5625 59.375 C-3.22679051 59.47323937 -4.89531931 59.50473631 -6.5625 59.5 C-7.92375 59.50386719 -7.92375 59.50386719 -9.3125 59.5078125 C-11.5625 59.375 -11.5625 59.375 -12.5625 58.375 C-12.66660433 56.63663709 -12.70103527 54.89405223 -12.70776367 53.15258789 C-12.71414352 52.0379567 -12.72052338 50.9233255 -12.72709656 49.7749176 C-12.72820938 48.56142136 -12.7293222 47.34792511 -12.73046875 46.09765625 C-12.73379715 44.86083603 -12.73712555 43.62401581 -12.74055481 42.34971619 C-12.7456293 39.72769545 -12.74796298 37.10566822 -12.74780273 34.48364258 C-12.74772129 31.78793658 -12.75468657 29.09239981 -12.76831055 26.39672852 C-12.78655346 22.52615102 -12.79153586 18.65577233 -12.79296875 14.78515625 C-12.80015427 13.57368423 -12.80733978 12.36221222 -12.81474304 11.11402893 C-12.81166641 9.99624557 -12.80858978 8.87846222 -12.80541992 7.72680664 C-12.80684494 6.73943008 -12.80826996 5.75205353 -12.80973816 4.73475647 C-12.13184747 -1.73534891 -4.93283063 0.00641044 0 0 Z " fill="#0B0B0B" transform="translate(817.5625,56.625)"/>
<path d="M0 0 C0.80566406 0.00257812 1.61132812 0.00515625 2.44140625 0.0078125 C3.64603516 0.00394531 3.64603516 0.00394531 4.875 0 C7.00390625 0.1328125 7.00390625 0.1328125 9.00390625 1.1328125 C9.01325195 2.34340332 9.02259766 3.55399414 9.03222656 4.80126953 C9.07220573 9.3079866 9.13798665 13.81402672 9.21142578 18.3203125 C9.23958946 20.26781495 9.26082685 22.21543072 9.27490234 24.16308594 C9.29639571 26.96868718 9.34307823 29.7729325 9.39453125 32.578125 C9.39575989 33.44398224 9.39698853 34.30983948 9.39825439 35.20193481 C9.53204965 40.76851441 10.37759974 43.84895159 14.00390625 48.1328125 C17.1998869 49.73080283 20.52713381 49.50054805 24.00390625 49.1328125 C28.25326944 47.33863693 30.05818987 45.26976151 32.00390625 41.1328125 C32.45417986 38.06620128 32.46856571 35.02543618 32.48046875 31.9296875 C32.50383804 30.61209442 32.50383804 30.61209442 32.52767944 29.2678833 C32.57507629 26.4728681 32.60293488 23.67810189 32.62890625 20.8828125 C32.66536702 18.07341453 32.70591267 15.26415872 32.7515564 12.45489502 C32.77884031 10.7088453 32.80016658 8.96269078 32.81509399 7.2164917 C32.89321587 1.24350288 32.89321587 1.24350288 34.00390625 0.1328125 C35.48039501 0.03457254 36.96166042 0.00307731 38.44140625 0.0078125 C39.64603516 0.00394531 39.64603516 0.00394531 40.875 0 C43.00390625 0.1328125 43.00390625 0.1328125 45.00390625 1.1328125 C45.1032434 6.96772368 45.17559561 12.80213587 45.22363281 18.63769531 C45.24367122 20.62020449 45.27090978 22.60265513 45.30566406 24.58496094 C45.35452579 27.44480891 45.37695298 30.30387131 45.39453125 33.1640625 C45.41517639 34.04147095 45.43582153 34.91887939 45.45709229 35.82287598 C45.4595613 42.6897026 43.75796259 47.87573218 39.29296875 53.15625 C38.74382813 53.60226563 38.1946875 54.04828125 37.62890625 54.5078125 C37.08492187 54.96929687 36.5409375 55.43078125 35.98046875 55.90625 C30.94295181 59.03229806 25.8681728 59.472757 20.06640625 59.4453125 C19.05030273 59.46948242 19.05030273 59.46948242 18.01367188 59.49414062 C12.1823603 59.49973153 7.60442605 58.31134126 3.078125 54.51953125 C2.62050781 53.95878906 2.16289063 53.39804688 1.69140625 52.8203125 C1.22089844 52.26730469 0.75039063 51.71429688 0.265625 51.14453125 C-3.28741711 45.47946411 -3.27901032 39.85127369 -3.2265625 33.39453125 C-3.22610428 32.47315872 -3.22564606 31.55178619 -3.22517395 30.60249329 C-3.2221644 28.66523949 -3.21431718 26.72798785 -3.2019043 24.79077148 C-3.18354807 21.81290209 -3.18139547 18.83534217 -3.18164062 15.85742188 C-3.17672876 13.97395562 -3.17090189 12.09049149 -3.1640625 10.20703125 C-3.16294968 9.31231613 -3.16183685 8.41760101 -3.16069031 7.49577332 C-3.1040765 0.20653347 -3.1040765 0.20653347 0 0 Z " fill="#0B0B0B" transform="translate(747.99609375,56.8671875)"/>
<path d="M0 0 C0.8146875 0.00257812 1.629375 0.00515625 2.46875 0.0078125 C3.2834375 0.00523438 4.098125 0.00265625 4.9375 0 C6.96875 0.1328125 6.96875 0.1328125 7.96875 1.1328125 C8.05612645 2.98650861 8.07573153 4.84348791 8.06640625 6.69921875 C8.06318359 7.82392578 8.05996094 8.94863281 8.05664062 10.10742188 C8.04826172 11.29142578 8.03988281 12.47542969 8.03125 13.6953125 C8.02673828 14.88318359 8.02222656 16.07105469 8.01757812 17.29492188 C8.00574675 20.24093476 7.98926287 23.18684931 7.96875 26.1328125 C8.62875 26.1328125 9.28875 26.1328125 9.96875 26.1328125 C10.23751953 25.40215576 10.50628906 24.67149902 10.78320312 23.91870117 C11.94188843 21.19593387 13.26239641 18.99075513 14.9375 16.55859375 C15.50855469 15.72650391 16.07960938 14.89441406 16.66796875 14.03710938 C17.55935547 12.75416992 17.55935547 12.75416992 18.46875 11.4453125 C19.06300781 10.57841797 19.65726563 9.71152344 20.26953125 8.81835938 C24.68027491 2.42128759 24.68027491 2.42128759 26.96875 0.1328125 C29.3515625 -0.0625 29.3515625 -0.0625 32.09375 0.0078125 C33.00382813 0.02585938 33.91390625 0.04390625 34.8515625 0.0625 C35.55023437 0.08570313 36.24890625 0.10890625 36.96875 0.1328125 C37.68359375 1.81640625 37.68359375 1.81640625 37.96875 4.1328125 C36.59765625 6.54296875 36.59765625 6.54296875 34.53125 9.1953125 C33.80292969 10.15953125 33.07460938 11.12375 32.32421875 12.1171875 C30.76001221 14.11978692 29.17930182 16.10960927 27.58203125 18.0859375 C26.84339844 19.02953125 26.10476563 19.973125 25.34375 20.9453125 C24.65023437 21.79738281 23.95671875 22.64945313 23.2421875 23.52734375 C21.68284597 26.08388241 21.68284597 26.08388241 22.421875 28.95703125 C24.37765763 32.97231225 26.752076 36.5044689 29.34375 40.1328125 C30.77692642 42.17144848 32.20922782 44.21060186 33.63574219 46.25390625 C34.85115355 47.96705751 36.1146448 49.64583864 37.3828125 51.3203125 C39.2550741 54.64057938 38.88475865 55.57926631 37.96875 59.1328125 C34.12153135 59.80747858 30.79595369 60.00455024 26.96875 59.1328125 C23.61568588 56.07299072 21.63431729 52.40144633 19.46875 48.4453125 C18.57929687 46.93420898 18.57929687 46.93420898 17.671875 45.39257812 C16.5697331 43.51223468 15.4837594 41.62224775 14.41992188 39.7199707 C13.41654893 37.93115121 12.36750904 36.16746545 11.28320312 34.42651367 C9.96875 32.1328125 9.96875 32.1328125 9.96875 30.1328125 C9.30875 30.1328125 8.64875 30.1328125 7.96875 30.1328125 C7.97398682 30.97577881 7.97922363 31.81874512 7.98461914 32.68725586 C8.00162826 35.80509186 8.01418406 38.92290427 8.02368164 42.04077148 C8.02872057 43.39201636 8.03555177 44.74325576 8.04418945 46.09448242 C8.05627419 48.03301684 8.06144828 49.9715905 8.06640625 51.91015625 C8.07164307 53.07796631 8.07687988 54.24577637 8.08227539 55.44897461 C7.96875 58.1328125 7.96875 58.1328125 6.96875 59.1328125 C5.47136876 59.2307182 3.96932108 59.26256114 2.46875 59.2578125 C1.6540625 59.26039062 0.839375 59.26296875 0 59.265625 C-2.03125 59.1328125 -2.03125 59.1328125 -3.03125 58.1328125 C-3.13018778 56.35835241 -3.15924092 54.57994999 -3.16064453 52.80273438 C-3.16379669 51.66485474 -3.16694885 50.5269751 -3.17019653 49.35461426 C-3.1681723 48.11610718 -3.16614807 46.8776001 -3.1640625 45.6015625 C-3.16501923 44.34017456 -3.16597595 43.07878662 -3.16696167 41.7791748 C-3.16764375 39.10584112 -3.16628529 36.43259813 -3.16162109 33.75927734 C-3.15592381 30.32574559 -3.15920301 26.892292 -3.16519356 23.45876312 C-3.16966762 20.19386007 -3.16653883 16.92896657 -3.1640625 13.6640625 C-3.16608673 12.42555542 -3.16811096 11.18704834 -3.17019653 9.91101074 C-3.16704437 8.7731311 -3.16389221 7.63525146 -3.16064453 6.46289062 C-3.15984894 5.45552856 -3.15905334 4.4481665 -3.15823364 3.41027832 C-2.99581961 0.49736453 -2.90592768 0.19000296 0 0 Z " fill="#090909" transform="translate(606.03125,56.8671875)"/>
<path d="M0 0 C2.97 0 5.94 0 9 0 C9.33 6.27 9.66 12.54 10 19 C11.32 18.01 12.64 17.02 14 16 C19.17230866 15.13273979 23.71251829 15.42523138 28.5 17.5625 C33.47321231 22.411382 34.1937501 26.63649459 34.4375 33.375 C34.26273454 40.6069611 32.53976747 45.92149397 27.9375 51.5 C24.29535567 54.31972464 20.65331031 54.32242648 16.23046875 54.30078125 C12.98317402 53.86287986 11.23405762 52.30612399 9 50 C8.34 50.99 7.68 51.98 7 53 C5.0546875 53.29296875 5.0546875 53.29296875 2.875 53.1875 C1.59625 53.125625 0.3175 53.06375 -1 53 C-1.02526692 45.61271898 -1.0428316 38.22544902 -1.05493164 30.83813477 C-1.05997363 28.32283105 -1.06680703 25.80753028 -1.07543945 23.29223633 C-1.08751094 19.68570225 -1.09322949 16.07920677 -1.09765625 12.47265625 C-1.10281754 11.34038101 -1.10797882 10.20810577 -1.11329651 9.04151917 C-1.11337204 8.00051559 -1.11344757 6.95951202 -1.11352539 5.88696289 C-1.115746 4.96540909 -1.11796661 4.04385529 -1.12025452 3.09437561 C-1 1 -1 1 0 0 Z " fill="#0D0C0C" transform="translate(813,322)"/>
<path d="M0 0 C3.3 0 6.6 0 10 0 C10.02464071 7.38728591 10.0428316 14.77454812 10.05493164 22.16186523 C10.05997363 24.67716895 10.06680703 27.19246972 10.07543945 29.70776367 C10.08751094 33.31429775 10.09322949 36.92079323 10.09765625 40.52734375 C10.10281754 41.65961899 10.10797882 42.79189423 10.11329651 43.95848083 C10.11337204 44.99948441 10.11344757 46.04048798 10.11352539 47.11303711 C10.115746 48.03459091 10.11796661 48.95614471 10.12025452 49.90562439 C10 52 10 52 9 53 C6.66702567 53.04092937 4.33294775 53.04241723 2 53 C2 51.35 2 49.7 2 48 C1.071875 48.825 0.14375 49.65 -0.8125 50.5 C-4.89627521 53.39094838 -8.40283677 53.7942332 -13.33984375 53.54296875 C-17.75829445 52.64111171 -20.39905696 50.64443516 -23 47 C-26.26546844 40.11603951 -25.88246246 31.28754057 -23.8125 24.125 C-22.08216282 19.46132931 -19.41892406 17.20946203 -15 15 C-12.7578125 14.796875 -12.7578125 14.796875 -10.125 14.75 C-8.82949219 14.71132813 -8.82949219 14.71132813 -7.5078125 14.671875 C-5 15 -5 15 -1 18 C-0.67 12.06 -0.34 6.12 0 0 Z " fill="#0C0C0C" transform="translate(400,816)"/>
<path d="M0 0 C1.34362885 0.00031689 2.68728332 0.01162897 4.03076172 0.03173828 C4.73820526 0.03456818 5.4456488 0.03739807 6.17453003 0.04031372 C8.43667432 0.05151941 10.69842437 0.07662399 12.96044922 0.10205078 C14.49299559 0.11208011 16.02554816 0.12120604 17.55810547 0.12939453 C21.31737223 0.15145992 25.07634386 0.18599183 28.83544922 0.22705078 C28.83544922 3.52705078 28.83544922 6.82705078 28.83544922 10.22705078 C21.57544922 10.22705078 14.31544922 10.22705078 6.83544922 10.22705078 C6.83544922 14.84705078 6.83544922 19.46705078 6.83544922 24.22705078 C13.10544922 24.22705078 19.37544922 24.22705078 25.83544922 24.22705078 C25.83544922 26.86705078 25.83544922 29.50705078 25.83544922 32.22705078 C24.83544922 33.22705078 24.83544922 33.22705078 23.06958008 33.34057617 C22.32071533 33.33533936 21.57185059 33.33010254 20.80029297 33.32470703 C19.99140625 33.32148437 19.18251953 33.31826172 18.34912109 33.31494141 C17.49898437 33.3065625 16.64884766 33.29818359 15.77294922 33.28955078 C14.91894531 33.28503906 14.06494141 33.28052734 13.18505859 33.27587891 C11.06849258 33.26405452 8.95196237 33.24611847 6.83544922 33.22705078 C6.83544922 38.50705078 6.83544922 43.78705078 6.83544922 49.22705078 C8.41197266 49.21544922 9.98849609 49.20384766 11.61279297 49.19189453 C13.66617721 49.18251835 15.71956272 49.17341797 17.77294922 49.16455078 C18.81386719 49.15617187 19.85478516 49.14779297 20.92724609 49.13916016 C21.91660156 49.1359375 22.90595703 49.13271484 23.92529297 49.12939453 C24.84173584 49.12415771 25.75817871 49.1189209 26.70239258 49.11352539 C28.83544922 49.22705078 28.83544922 49.22705078 29.83544922 50.22705078 C30.07273735 56.75247451 30.07273735 56.75247451 28.83544922 59.22705078 C24.31479494 59.27642778 19.79429705 59.31275901 15.2734375 59.33691406 C13.73499823 59.34698196 12.19657815 59.36063724 10.65820312 59.37792969 C8.44900789 59.40214395 6.24006527 59.41352569 4.03076172 59.42236328 C3.34112335 59.43268585 2.65148499 59.44300842 1.94094849 59.4536438 C0.23744016 59.45404556 -1.46541021 59.34896104 -3.16455078 59.22705078 C-5.75641914 56.63518242 -5.41740394 55.5887845 -5.42333984 51.98291016 C-5.42964417 50.88837524 -5.43594849 49.79384033 -5.44244385 48.6661377 C-5.43839539 47.47967651 -5.43434692 46.29321533 -5.43017578 45.07080078 C-5.43208923 43.85759155 -5.43400269 42.64438232 -5.43597412 41.39440918 C-5.43733712 38.82543735 -5.4336327 36.25645866 -5.42529297 33.6875 C-5.41459539 29.74349575 -5.42518472 25.79994703 -5.43798828 21.85595703 C-5.43666671 19.3650706 -5.43410436 16.87418446 -5.43017578 14.38330078 C-5.43624847 12.60360901 -5.43624847 12.60360901 -5.44244385 10.78796387 C-5.43613953 9.69342896 -5.42983521 8.59889404 -5.42333984 7.47119141 C-5.42174866 6.50459595 -5.42015747 5.53800049 -5.41851807 4.54211426 C-4.99782327 0.70722991 -3.71878035 0.26681575 0 0 Z " fill="#101010" transform="translate(658.16455078125,56.77294921875)"/>
<path d="M0 0 C1.34362885 0.00031689 2.68728332 0.01162897 4.03076172 0.03173828 C4.73820526 0.03456818 5.4456488 0.03739807 6.17453003 0.04031372 C8.43667432 0.05151941 10.69842437 0.07662399 12.96044922 0.10205078 C14.49299559 0.11208011 16.02554816 0.12120604 17.55810547 0.12939453 C21.31737223 0.15145992 25.07634386 0.18599183 28.83544922 0.22705078 C28.83544922 3.19705078 28.83544922 6.16705078 28.83544922 9.22705078 C21.57544922 9.22705078 14.31544922 9.22705078 6.83544922 9.22705078 C6.83544922 14.17705078 6.83544922 19.12705078 6.83544922 24.22705078 C8.19541016 24.21544922 9.55537109 24.20384766 10.95654297 24.19189453 C12.72867702 24.18251816 14.50081255 24.1734178 16.27294922 24.16455078 C17.61969727 24.15198242 17.61969727 24.15198242 18.99365234 24.13916016 C19.84765625 24.1359375 20.70166016 24.13271484 21.58154297 24.12939453 C22.76768188 24.12153931 22.76768188 24.12153931 23.9777832 24.11352539 C25.83544922 24.22705078 25.83544922 24.22705078 26.83544922 25.22705078 C27.07074334 30.75646255 27.07074334 30.75646255 25.83544922 33.22705078 C19.56544922 33.22705078 13.29544922 33.22705078 6.83544922 33.22705078 C6.83544922 38.50705078 6.83544922 43.78705078 6.83544922 49.22705078 C8.41197266 49.21544922 9.98849609 49.20384766 11.61279297 49.19189453 C13.66617721 49.18251835 15.71956272 49.17341797 17.77294922 49.16455078 C18.81386719 49.15617187 19.85478516 49.14779297 20.92724609 49.13916016 C21.91660156 49.1359375 22.90595703 49.13271484 23.92529297 49.12939453 C24.84173584 49.12415771 25.75817871 49.1189209 26.70239258 49.11352539 C28.83544922 49.22705078 28.83544922 49.22705078 29.83544922 50.22705078 C30.07273735 56.75247451 30.07273735 56.75247451 28.83544922 59.22705078 C24.31479494 59.27642778 19.79429705 59.31275901 15.2734375 59.33691406 C13.73499823 59.34698196 12.19657815 59.36063724 10.65820312 59.37792969 C8.44900789 59.40214395 6.24006527 59.41352569 4.03076172 59.42236328 C3.34112335 59.43268585 2.65148499 59.44300842 1.94094849 59.4536438 C0.23744016 59.45404556 -1.46541021 59.34896104 -3.16455078 59.22705078 C-5.75641914 56.63518242 -5.41740394 55.5887845 -5.42333984 51.98291016 C-5.42964417 50.88837524 -5.43594849 49.79384033 -5.44244385 48.6661377 C-5.43839539 47.47967651 -5.43434692 46.29321533 -5.43017578 45.07080078 C-5.43208923 43.85759155 -5.43400269 42.64438232 -5.43597412 41.39440918 C-5.43733712 38.82543735 -5.4336327 36.25645866 -5.42529297 33.6875 C-5.41459539 29.74349575 -5.42518472 25.79994703 -5.43798828 21.85595703 C-5.43666671 19.3650706 -5.43410436 16.87418446 -5.43017578 14.38330078 C-5.43624847 12.60360901 -5.43624847 12.60360901 -5.44244385 10.78796387 C-5.43613953 9.69342896 -5.42983521 8.59889404 -5.42333984 7.47119141 C-5.42174866 6.50459595 -5.42015747 5.53800049 -5.41851807 4.54211426 C-4.99782327 0.70722991 -3.71878035 0.26681575 0 0 Z " fill="#121111" transform="translate(386.16455078125,56.77294921875)"/>
<path d="M0 0 C1.16374102 0.00166914 2.32748204 0.00333827 3.52648795 0.00505799 C6.73445008 0.01170587 9.94221662 0.02739689 13.15012074 0.04702699 C16.61848601 0.0660223 20.08687903 0.07323608 23.55528259 0.08195496 C30.34168165 0.10086673 37.12799208 0.13058391 43.91433357 0.16399566 C51.8253647 0.2025421 59.73642282 0.23036736 67.64749904 0.25778272 C81.76899643 0.30708883 95.89043614 0.36615599 110.01187134 0.43070984 C123.69837337 0.49326731 137.38488016 0.54887716 151.07144165 0.59672546 C152.33550634 0.60114602 152.33550634 0.60114602 153.62510769 0.60565589 C154.46639389 0.60859722 155.30768009 0.61153855 156.17445982 0.61456901 C171.77679637 0.66916612 187.37910257 0.73009129 202.98140328 0.79407549 C208.48867954 0.81652555 213.99596091 0.83715211 219.50324631 0.85721779 C226.22135849 0.88182833 232.93944432 0.91012505 239.65752171 0.94291631 C243.08164366 0.95956536 246.50575412 0.9747552 249.92989922 0.9857769 C253.64999835 0.99860066 257.37002276 1.01735609 261.09008789 1.03759766 C262.16082782 1.03994 263.23156775 1.04228235 264.33475435 1.04469568 C270.9949881 1.08896775 277.54971557 1.49836549 284.17202759 2.20927429 C284.17202759 2.53927429 284.17202759 2.86927429 284.17202759 3.20927429 C280.54202759 3.53927429 276.91202759 3.86927429 273.17202759 4.20927429 C273.17202759 4.53927429 273.17202759 4.86927429 273.17202759 5.20927429 C176.48202759 5.20927429 79.79202759 5.20927429 -19.82797241 5.20927429 C-20.15797241 5.86927429 -20.48797241 6.52927429 -20.82797241 7.20927429 C-20.82797241 5.55927429 -20.82797241 3.90927429 -20.82797241 2.20927429 C-13.75294053 0.35259948 -7.29531586 -0.06129979 0 0 Z " fill="#120E00" transform="translate(336.8279724121094,623.7907257080078)"/>
<path d="M0 0 C0.76166977 0.00222061 1.52333954 0.00444122 2.30809021 0.00672913 C3.16890701 0.00680466 4.02972382 0.00688019 4.91662598 0.00695801 C5.8520372 0.01211929 6.78744843 0.01728058 7.75120544 0.02259827 C8.70422043 0.02401321 9.65723541 0.02542816 10.63912964 0.02688599 C13.69605085 0.032503 16.75289996 0.04505836 19.80979919 0.05775452 C21.87685543 0.06276733 23.94391281 0.06733061 26.01097107 0.07142639 C31.08977507 0.08247795 36.16852489 0.09975397 41.24729919 0.12025452 C41.24729919 3.42025452 41.24729919 6.72025452 41.24729919 10.12025452 C35.96729919 10.12025452 30.68729919 10.12025452 25.24729919 10.12025452 C25.25515442 12.29349304 25.25515442 12.29349304 25.26316833 14.51063538 C25.28121192 19.86479581 25.29272884 25.21895353 25.30223083 30.57313538 C25.30727253 32.89442903 25.31410571 35.21571949 25.32273865 37.53700256 C25.33481144 40.86554246 25.34052898 44.19404054 25.34495544 47.52259827 C25.35011673 48.56737839 25.35527802 49.61215851 25.3605957 50.68859863 C25.360709 52.12997948 25.360709 52.12997948 25.36082458 53.60047913 C25.3630452 54.45097336 25.36526581 55.30146759 25.36755371 56.17773438 C25.24729919 58.12025452 25.24729919 58.12025452 24.24729919 59.12025452 C22.77081044 59.21849447 21.28954502 59.2499897 19.80979919 59.24525452 C19.00671326 59.24783264 18.20362732 59.25041077 17.37620544 59.25306702 C15.24729919 59.12025452 15.24729919 59.12025452 13.24729919 58.12025452 C13.24729919 42.28025452 13.24729919 26.44025452 13.24729919 10.12025452 C8.29729919 10.12025452 3.34729919 10.12025452 -1.75270081 10.12025452 C-2.75270081 9.12025452 -2.75270081 9.12025452 -2.88551331 7.30775452 C-2.88293518 6.58587952 -2.88035706 5.86400452 -2.87770081 5.12025452 C-2.88027893 4.39837952 -2.88285706 3.67650452 -2.88551331 2.93275452 C-2.70775044 0.50681428 -2.43155917 0.16683165 0 0 Z " fill="#0F0E0E" transform="translate(695.7527008056641,56.87974548339844)"/>
<path d="M0 0 C1.36560059 0.00303635 1.36560059 0.00303635 2.75878906 0.00613403 C3.68723633 0.00517731 4.61568359 0.00422058 5.57226562 0.00323486 C7.53938871 0.00255298 9.50651403 0.00440781 11.47363281 0.00857544 C14.49581932 0.01392358 17.51785721 0.00863071 20.54003906 0.00222778 C22.44628939 0.00288856 24.35253963 0.00416972 26.25878906 0.00613403 C27.16918945 0.0041098 28.07958984 0.00208557 29.01757812 0 C35.39383938 0.02399685 35.39383938 0.02399685 36.50878906 1.13894653 C36.64160156 2.95144653 36.64160156 2.95144653 36.63378906 5.13894653 C36.63765625 6.22175903 36.63765625 6.22175903 36.64160156 7.32644653 C36.50878906 9.13894653 36.50878906 9.13894653 35.50878906 10.13894653 C32.97829504 10.2120822 30.47574069 10.2314218 27.94628906 10.20144653 C27.23537109 10.19693481 26.52445313 10.1924231 25.79199219 10.18777466 C24.03088893 10.17595517 22.2698287 10.15801916 20.50878906 10.13894653 C20.51100967 10.73807358 20.51323029 11.33720062 20.51551819 11.95448303 C20.53757071 18.16692511 20.55269552 24.37935615 20.5637207 30.59182739 C20.5687624 32.91312105 20.57559558 35.23441151 20.58422852 37.55569458 C20.59630131 40.88423448 20.60201885 44.21273255 20.60644531 47.54129028 C20.6116066 48.5860704 20.61676788 49.63085052 20.62208557 50.70729065 C20.62219887 52.14867149 20.62219887 52.14867149 20.62231445 53.61917114 C20.62453506 54.46966537 20.62675568 55.32015961 20.62904358 56.19642639 C20.50878906 58.13894653 20.50878906 58.13894653 19.50878906 59.13894653 C17.84449855 59.2371859 16.17596975 59.26868284 14.50878906 59.26394653 C13.14753906 59.26781372 13.14753906 59.26781372 11.75878906 59.27175903 C9.50878906 59.13894653 9.50878906 59.13894653 8.50878906 58.13894653 C8.41567017 56.63475914 8.39132878 55.12623297 8.39526367 53.61917114 C8.3953392 52.65825058 8.39541473 51.69733002 8.39549255 50.70729065 C8.40065384 49.66251053 8.40581512 48.61773041 8.41113281 47.54129028 C8.41254776 46.47729507 8.41396271 45.41329987 8.41542053 44.31706238 C8.42103843 40.9034957 8.43359395 37.48999354 8.44628906 34.07644653 C8.45130176 31.76850477 8.45586506 29.46056198 8.45996094 27.15261841 C8.47101367 21.48137227 8.48776919 15.81016401 8.50878906 10.13894653 C6.90197266 10.15634888 6.90197266 10.15634888 5.26269531 10.17410278 C3.86556163 10.18347952 2.46842607 10.19257984 1.07128906 10.20144653 C0.36423828 10.20982544 -0.3428125 10.21820435 -1.07128906 10.22683716 C-2.87814653 10.23548241 -4.68508697 10.19114665 -6.49121094 10.13894653 C-7.49121094 9.13894653 -7.49121094 9.13894653 -7.62402344 7.32644653 C-7.62144531 6.60457153 -7.61886719 5.88269653 -7.61621094 5.13894653 C-7.61878906 4.41707153 -7.62136719 3.69519653 -7.62402344 2.95144653 C-7.3076913 -1.3655568 -3.46929471 0.01305658 0 0 Z " fill="#101010" transform="translate(898.4912109375,56.861053466796875)"/>
<path d="M0 0 C1.18722656 0.00386719 2.37445312 0.00773438 3.59765625 0.01171875 C8.1957532 0.42581637 10.77934971 1.14113431 14.05566406 4.45483398 C16.39963081 8.01426974 16.4137169 10.09375972 16.36328125 14.328125 C16.35999313 14.98455994 16.35670502 15.64099487 16.35331726 16.31732178 C16.34294403 17.69569921 16.32307498 19.07403466 16.29418945 20.45214844 C16.24984498 22.56990344 16.2327103 24.68652421 16.22070312 26.8046875 C16.11740557 37.13259443 16.11740557 37.13259443 14.9375 38.3125 C12 38.5625 12 38.5625 8.9375 38.3125 C8.2775 37.3225 7.6175 36.3325 6.9375 35.3125 C6.15375 35.8075 5.37 36.3025 4.5625 36.8125 C-0.09950147 38.74160406 -4.07870774 39.0849878 -9.0625 38.3125 C-11.99673195 36.51603146 -13.53455355 35.3683929 -15.0625 32.3125 C-15.68655103 27.27551665 -15.93163927 23.53952015 -12.9375 19.3125 C-6.79998703 15.04292576 -1.29647729 15.05516484 5.9375 15.3125 C5.2775 13.0025 4.6175 10.6925 3.9375 8.3125 C-1.2365636 8.10959555 -5.28842428 8.06587613 -10.0625 10.3125 C-11.0525 10.3125 -12.0425 10.3125 -13.0625 10.3125 C-13.0625 8.0025 -13.0625 5.6925 -13.0625 3.3125 C-8.51416026 0.68071258 -5.23952639 -0.07411735 0 0 Z " fill="#0D0D0D" transform="translate(847.0625,830.6875)"/>
<path d="M0 0 C1.20849609 -0.00386719 1.20849609 -0.00386719 2.44140625 -0.0078125 C4.4375 0.125 4.4375 0.125 5.4375 1.125 C5.53061889 2.62918739 5.55496028 4.13771356 5.55102539 5.64477539 C5.55094986 6.60569595 5.55087433 7.56661652 5.55079651 8.55665588 C5.54563522 9.601436 5.54047394 10.64621613 5.53515625 11.72265625 C5.5337413 12.78665146 5.53232635 13.85064667 5.53086853 14.94688416 C5.52525064 18.36045083 5.51269511 21.773953 5.5 25.1875 C5.49498731 27.49544176 5.490424 29.80338455 5.48632812 32.11132812 C5.47527539 37.78257711 5.45799877 43.4537776 5.4375 49.125 C12.0375 49.125 18.6375 49.125 25.4375 49.125 C25.4375 52.095 25.4375 55.065 25.4375 58.125 C22.81724949 60.74525051 15.64008948 59.35509796 12.08178711 59.36523438 C10.01179901 59.37494465 7.94280185 59.40595712 5.87304688 59.4375 C4.57560547 59.44265625 3.27816406 59.4478125 1.94140625 59.453125 C0.14425171 59.46714355 0.14425171 59.46714355 -1.68920898 59.48144531 C-2.63739502 59.36381836 -3.58558105 59.24619141 -4.5625 59.125 C-6.8068195 55.75852075 -6.8075516 54.66877354 -6.78955078 50.7355957 C-6.78939972 49.63468094 -6.78924866 48.53376617 -6.78909302 47.39949036 C-6.77877045 46.21191635 -6.76844788 45.02434235 -6.7578125 43.80078125 C-6.75356766 41.97597481 -6.75356766 41.97597481 -6.74923706 40.11430359 C-6.73802603 36.22193642 -6.71291948 32.32979784 -6.6875 28.4375 C-6.67747141 25.80143561 -6.66834535 23.16536762 -6.66015625 20.52929688 C-6.63808366 14.06111968 -6.60459688 7.59307617 -6.5625 1.125 C-4.1828388 -0.0648306 -2.64764265 -0.00849966 0 0 Z " fill="#0F0F0F" transform="translate(432.5625,56.875)"/>
<path d="M0 0 C2.64 0 5.28 0 8 0 C8.02464574 5.96313166 8.042834 11.92623395 8.05493164 17.8894043 C8.05997278 19.91968298 8.06680557 21.94995802 8.07543945 23.98022461 C8.08751467 26.89177347 8.09323034 29.8032745 8.09765625 32.71484375 C8.10281754 33.6283812 8.10797882 34.54191864 8.11329651 35.48313904 C8.11349168 37.65575427 8.06211805 39.82827296 8 42 C7 43 7 43 3.9375 43.0625 C2.968125 43.041875 1.99875 43.02125 1 43 C1 42.01 1 41.02 1 40 C0.17822266 40.72703125 0.17822266 40.72703125 -0.66015625 41.46875 C-4.76570827 44.15552194 -9.27393629 43.76317177 -14 43 C-17.41311667 40.47429367 -18.66637768 39.00086696 -20 35 C-20.14619515 32.71148355 -20.22091336 30.41799684 -20.25 28.125 C-20.27578125 26.91070312 -20.3015625 25.69640625 -20.328125 24.4453125 C-19.86617442 19.5948314 -18.08763159 17.11784358 -14.75 13.6875 C-11.19526959 11.50618816 -9.11032181 11.48620977 -5 12 C-3.35 12.99 -1.7 13.98 0 15 C0 10.05 0 5.1 0 0 Z " fill="#130E01" transform="translate(686,464)"/>
<path d="M0 0 C3 0.125 3 0.125 4 1.125 C4.08874135 4.22751201 4.11518455 7.3076812 4.09765625 10.41015625 C4.0962413 11.34097519 4.09482635 12.27179413 4.09336853 13.2308197 C4.08775172 16.21641191 4.0751964 19.20193029 4.0625 22.1875 C4.05748716 24.20637913 4.05292388 26.22525943 4.04882812 28.24414062 C4.03777683 33.20445572 4.02050095 38.16471532 4 43.125 C1.69 43.125 -0.62 43.125 -3 43.125 C-3.33 42.465 -3.66 41.805 -4 41.125 C-4.86625 41.62 -5.7325 42.115 -6.625 42.625 C-10.30686209 44.26138315 -12.04603538 44.8512384 -16 44.125 C-19.76416929 41.66202503 -22.55984887 39.44545338 -24 35.125 C-25.01688372 21.70546897 -25.01688372 21.70546897 -22.1875 17.375 C-18.20188723 13.27551258 -18.20188723 13.27551258 -14.87890625 12.859375 C-14.11449219 12.86453125 -13.35007812 12.8696875 -12.5625 12.875 C-11.80066406 12.86984375 -11.03882813 12.8646875 -10.25390625 12.859375 C-7.78556982 13.1502708 -6.142314 13.89524344 -4 15.125 C-4.01160156 14.12597656 -4.02320313 13.12695312 -4.03515625 12.09765625 C-4.04417969 10.80730469 -4.05320312 9.51695312 -4.0625 8.1875 C-4.07410156 6.89972656 -4.08570313 5.61195313 -4.09765625 4.28515625 C-3.97034707 0.16543113 -3.97034707 0.16543113 0 0 Z " fill="#090700" transform="translate(533,731.875)"/>
<path d="M0 0 C0.33 0 0.66 0 1 0 C1 133.65 1 267.3 1 405 C101.65 405 202.3 405 306 405 C306.33 403.68 306.66 402.36 307 401 C307.99 402.65 308.98 404.3 310 406 C207.7 406 105.4 406 0 406 C0 272.02 0 138.04 0 0 Z " fill="#F7C105" transform="translate(630,218)"/>
<path d="M0 0 C2.94145573 3.94774322 3.35346732 6.34927398 3.09765625 11.203125 C1.25830468 18.79914987 -4.94594317 25.04085475 -10.625 30.1875 C-9.12646484 30.27837891 -9.12646484 30.27837891 -7.59765625 30.37109375 C-6.30730469 30.45488281 -5.01695312 30.53867187 -3.6875 30.625 C-2.39972656 30.70621094 -1.11195313 30.78742187 0.21484375 30.87109375 C3.375 31.1875 3.375 31.1875 4.375 32.1875 C4.41580783 34.18708364 4.41754356 36.18795254 4.375 38.1875 C0.06251391 38.21636537 -4.24994762 38.23425255 -8.5625 38.25 C-9.79419922 38.25837891 -11.02589844 38.26675781 -12.29492188 38.27539062 C-13.46474609 38.27861328 -14.63457031 38.28183594 -15.83984375 38.28515625 C-17.46587524 38.29301147 -17.46587524 38.29301147 -19.12475586 38.30102539 C-21.625 38.1875 -21.625 38.1875 -22.625 37.1875 C-23.10581231 34.22394776 -23.2378667 32.10707292 -21.52832031 29.54199219 C-19.99403328 27.81245094 -18.4017243 26.1802071 -16.75 24.5625 C-10.52851185 18.59736646 -10.52851185 18.59736646 -8.4375 10.5 C-8.24731356 7.34318119 -8.24731356 7.34318119 -9.625 6.1875 C-14.17450416 5.92502861 -17.50939805 6.19205663 -21.625 8.1875 C-21.75 4.8125 -21.75 4.8125 -21.625 1.1875 C-17.0237179 -3.4137821 -5.44149868 -3.57178942 0 0 Z " fill="#130E01" transform="translate(566.625,736.8125)"/>
<path d="M0 0 C2 1.5625 2 1.5625 3 2.5625 C3.04092937 4.89547433 3.04241723 7.22955225 3 9.5625 C0.61435923 8.98665568 -1.66682784 8.34022405 -4 7.5625 C-7.5 7.14583333 -7.5 7.14583333 -11 7.5625 C-13.32227191 9.81521077 -13.95231712 11.21843529 -14.3984375 14.4375 C-14.39070313 15.46875 -14.38296875 16.5 -14.375 17.5625 C-14.38273437 18.59375 -14.39046875 19.625 -14.3984375 20.6875 C-13.95126968 23.91412268 -13.33917988 25.31390339 -11 27.5625 C-5.75160668 28.07873541 -1.94117633 27.53897053 3 25.5625 C3.2338579 28.41556644 3.41446017 30.76627535 3 33.5625 C-0.33230472 37.00588154 -4.89293408 37.29592386 -9.5 37.625 C-14.53247999 37.499188 -17.76325829 35.83266716 -21.3125 32.1875 C-25.57634638 25.55485008 -25.75580291 19.28848527 -25 11.5625 C-23.43993241 6.19924061 -20.78443474 2.55277171 -16 -0.4375 C-10.67054973 -2.08841079 -5.06634481 -2.42762356 0 0 Z " fill="#101010" transform="translate(437,336.4375)"/>
<path d="M0 0 C0 10.89 0 21.78 0 33 C2.31 33 4.62 33 7 33 C7 35.31 7 37.62 7 40 C-0.92 40 -8.84 40 -17 40 C-18 35 -18 35 -17 33 C-14.36 33 -11.72 33 -9 33 C-9 24.75 -9 16.5 -9 8 C-10.98 8.99 -12.96 9.98 -15 11 C-15.66 11 -16.32 11 -17 11 C-17.5 8.3125 -17.5 8.3125 -17 5 C-11.7450613 -0.42309674 -7.76195774 0 0 0 Z " fill="#110D01" transform="translate(720,467)"/>
<path d="M0 0 C1.32 0.33 2.64 0.66 4 1 C4 1.66 4 2.32 4 3 C7.56278089 2.86057319 11.1251426 2.71232922 14.6875 2.5625 C15.69490234 2.52318359 16.70230469 2.48386719 17.74023438 2.44335938 C18.71669922 2.40146484 19.69316406 2.35957031 20.69921875 2.31640625 C21.59471436 2.27974854 22.49020996 2.24309082 23.4128418 2.20532227 C26.04679242 2.0517107 26.04679242 2.0517107 28.76879883 1.41772461 C29.50509521 1.27987549 30.2413916 1.14202637 31 1 C31.33 1.33 31.66 1.66 32 2 C33.99730833 2.09891728 35.99816863 2.12632274 37.9979248 2.12698364 C39.30204819 2.12980347 40.60617157 2.13262329 41.94981384 2.13552856 C43.40859999 2.13358396 44.867386 2.13153578 46.32617188 2.12939453 C47.85177146 2.13074851 49.37737072 2.13252842 50.90296936 2.13470459 C55.05781156 2.13927934 59.21262904 2.13748919 63.36747169 2.1343255 C67.70587864 2.13180212 72.0442834 2.13413938 76.38269043 2.13571167 C83.66968162 2.13753343 90.95666269 2.13512689 98.24365234 2.13037109 C106.68071856 2.12492846 115.11776062 2.12669111 123.55482626 2.1321975 C130.78537755 2.13672845 138.01592154 2.13737927 145.24647379 2.13475883 C149.57080895 2.13319596 153.89513273 2.13300257 158.21946716 2.13629532 C162.28397699 2.13917377 166.34845553 2.13719882 170.41296196 2.13140106 C171.90899542 2.13007332 173.40503149 2.13046781 174.90106392 2.13266373 C176.93473342 2.13537466 178.96840864 2.13138091 181.0020752 2.12698364 C182.71327923 2.1264181 182.71327923 2.1264181 184.45905304 2.12584114 C186.93559324 2.28816156 186.93559324 2.28816156 188 1 C191 0.875 191 0.875 194 1 C194.33 1.33 194.66 1.66 195 2 C198.02819443 2.09531516 201.03353767 2.12551596 204.06201172 2.11352539 C205.01318878 2.11367142 205.96436584 2.11381744 206.94436646 2.1139679 C210.1061629 2.11326814 213.26790128 2.10547135 216.4296875 2.09765625 C218.61825529 2.09579186 220.80682349 2.09436805 222.99539185 2.09336853 C228.77123151 2.08954145 234.54704621 2.07971182 240.32287598 2.06866455 C246.19832015 2.05846798 252.07376829 2.0538711 257.94921875 2.04882812 C269.0005383 2.03856375 280.05184142 2.02276717 291.10314751 2.00279331 C295.7354213 1.99597181 300.36772111 2 305 2 C305 2.66 305 3.32 305 4 C204.35 4 103.7 4 0 4 C0 2.68 0 1.36 0 0 Z " fill="#F8D11D" transform="translate(631,619)"/>
<path d="M0 0 C1.98 2.475 1.98 2.475 4 5 C-98.3 5 -200.6 5 -306 5 C-306 4.67 -306 4.34 -306 4 C-205.02 4 -104.04 4 0 4 C0 2.68 0 1.36 0 0 Z " fill="#D9AA13" transform="translate(936,619)"/>
<path d="M0 0 C1.21236328 0.02707031 1.21236328 0.02707031 2.44921875 0.0546875 C3.37154297 0.08949219 3.37154297 0.08949219 4.3125 0.125 C4.9725 1.775 5.6325 3.425 6.3125 5.125 C5.74660156 5.31835938 5.18070313 5.51171875 4.59765625 5.7109375 C3.86417969 5.97132813 3.13070312 6.23171875 2.375 6.5 C1.27865234 6.88285156 1.27865234 6.88285156 0.16015625 7.2734375 C-1.87432116 7.97771413 -1.87432116 7.97771413 -2.6875 10.125 C-2.80864921 11.76755791 -2.86290767 13.41552478 -2.875 15.0625 C-2.89626953 16.37541016 -2.89626953 16.37541016 -2.91796875 17.71484375 C-2.85413349 20.38744335 -2.85413349 20.38744335 -0.6875 23.125 C2.86922179 24.3438121 2.86922179 24.3438121 6.3125 25.125 C6.3125 25.785 6.3125 26.445 6.3125 27.125 C2.3125 31.125 2.3125 31.125 -0.375 31.625 C-4.97171139 30.93115677 -7.64661753 28.56798263 -10.6875 25.125 C-12.59669075 19.39742775 -12.96902663 11.6714029 -10.8984375 5.94140625 C-8.0500512 1.58185318 -5.10099901 -0.14785504 0 0 Z " fill="#110D01" transform="translate(520.6875,744.875)"/>
<path d="M0 0 C1.65322266 0.01740234 1.65322266 0.01740234 3.33984375 0.03515625 C4.44457031 0.04417969 5.54929687 0.05320312 6.6875 0.0625 C7.54214844 0.07410156 8.39679688 0.08570313 9.27734375 0.09765625 C9.27734375 0.75765625 9.27734375 1.41765625 9.27734375 2.09765625 C68.34734375 2.09765625 127.41734375 2.09765625 188.27734375 2.09765625 C188.27734375 2.42765625 188.27734375 2.75765625 188.27734375 3.09765625 C100.16734375 3.09765625 12.05734375 3.09765625 -78.72265625 3.09765625 C-78.72265625 2.76765625 -78.72265625 2.43765625 -78.72265625 2.09765625 C-77.3165786 2.08219505 -77.3165786 2.08219505 -75.88209534 2.06642151 C-67.06736983 1.96885453 -58.25271755 1.86613674 -49.43811131 1.75831699 C-44.90595039 1.70304703 -40.37378307 1.64962066 -35.84155273 1.6003418 C-31.47137077 1.55275814 -27.10126977 1.50041777 -22.73118401 1.4447155 C-21.0601699 1.42426467 -19.38913356 1.40555619 -17.71808052 1.38858223 C-15.38562065 1.36459832 -13.05331518 1.33453605 -10.72094727 1.30297852 C-10.02323715 1.29722305 -9.32552704 1.29146759 -8.60667419 1.28553772 C-5.27085744 1.2339061 -3.09477123 0.11100327 0 0 Z " fill="#F8D11D" transform="translate(422.72265625,619.90234375)"/>
<path d="M0 0 C12.74181631 -0.71449437 12.74181631 -0.71449437 16.04296875 1.16015625 C18.00368216 3.4083643 18.92421441 5.68927908 19.625 8.5625 C18.71372687 12.1164652 16.76897951 13.68178459 14 16 C9.36297289 17.5456757 4.87528349 17.05735628 0 17 C0 11.39 0 5.78 0 0 Z " fill="#EAEAEA" transform="translate(341,90)"/>
<path d="M0 0 C3.82720189 0.70295545 5.34573657 1.78706892 8.0625 4.5625 C9.06067179 9.29126915 8.87605381 13.80722069 8.0625 18.5625 C5.13343889 21.69591421 3.52501315 22.32441646 -0.625 23 C-3.41764816 22.47166116 -4.2948478 21.86221308 -5.9375 19.5625 C-7.70124514 13.87658036 -8.080787 7.76112885 -5.3125 2.4375 C-2.9375 0.5625 -2.9375 0.5625 0 0 Z " fill="#F4F4F4" transform="translate(391.9375,838.4375)"/>
<path d="M0 0 C10.33333333 0 10.33333333 0 14 3 C16.44605705 6.66908557 16.83946402 9.73618769 16 14 C13.82425584 16.69105198 12.08934144 18.45532928 9 20 C6.03 20 3.06 20 0 20 C0 13.4 0 6.8 0 0 Z " fill="#EFEFEF" transform="translate(817,66)"/>
<path d="M0 0 C2.55949546 1.85342775 2.97918798 2.93756393 4 6 C4.52922596 11.43474349 4.50423369 15.55231877 1 20 C-1 22 -1 22 -3.3125 22.4375 C-6 22 -6 22 -8.8125 20.25 C-12.10748644 15.35459157 -11.98129817 10.72951509 -11 5 C-7.99395222 0.40251516 -5.45545888 -0.94877546 0 0 Z " fill="#F2F2F2" transform="translate(833,346)"/>
<path d="M0 0 C1.5675 -0.04125 3.135 -0.0825 4.75 -0.125 C5.63171875 -0.14820312 6.5134375 -0.17140625 7.421875 -0.1953125 C10.14906426 0.01129275 11.71315408 0.52694159 14 2 C15.55460305 5.10920609 15.72720693 8.63083028 15 12 C12.76283125 14.3477112 11.44104578 14.95380107 8.203125 15.29296875 C5.46875 15.1953125 2.734375 15.09765625 0 15 C0 10.05 0 5.1 0 0 Z " fill="#EEEEEE" transform="translate(341,66)"/>
<path d="M0 0 C2.70702609 1.35351305 2.75142894 2.57501207 3.7265625 5.40234375 C4.0359375 6.29244141 4.3453125 7.18253906 4.6640625 8.09960938 C4.98117187 9.03611328 5.29828125 9.97261719 5.625 10.9375 C5.94984375 11.87013672 6.2746875 12.80277344 6.609375 13.76367188 C9 20.70954241 9 20.70954241 9 23 C3.72 23 -1.56 23 -7 23 C-5.48526781 15.01323028 -2.83197448 7.59877122 0 0 Z " fill="#E8E8E8" transform="translate(868,70)"/>
<path d="M0 0 C0.66 0 1.32 0 2 0 C2.79276039 2.52049393 3.58423465 5.04138014 4.375 7.5625 C4.59671875 8.26697266 4.8184375 8.97144531 5.046875 9.69726562 C5.37558594 10.74624023 5.37558594 10.74624023 5.7109375 11.81640625 C5.90993652 12.45006104 6.10893555 13.08371582 6.31396484 13.73657227 C7.2465221 16.81334747 8.11677227 19.90870295 9 23 C3.72 23 -1.56 23 -7 23 C-5.48526781 15.01323028 -2.83197448 7.59877122 0 0 Z " fill="#E7E7E7" transform="translate(487,70)"/>
<path d="M0 0 C3.09068319 0.52767762 4.33613586 1.23442419 6.5625 3.4375 C7.05859375 6.25 7.05859375 6.25 7 9.4375 C6.99871094 10.489375 6.99742187 11.54125 6.99609375 12.625 C6.5625 15.4375 6.5625 15.4375 5.22265625 17.28515625 C2.59917547 19.10616056 0.65546856 18.88855792 -2.4375 18.4375 C-5.24841402 15.54080692 -5.84896427 13.42426034 -5.8125 9.4375 C-5.82023438 8.591875 -5.82796875 7.74625 -5.8359375 6.875 C-5.21683965 3.08757788 -3.8809959 0.69658901 0 0 Z " fill="#F3C40F" transform="translate(522.4375,750.5625)"/>
<path d="M0 0 C3.07235903 0.5245491 4.329332 1.27426419 6.5625 3.4375 C7.55899341 8.23678811 7.50101653 12.94282552 4.875 17.125 C2.09324591 18.7038334 0.70423081 19.0819576 -2.4375 18.4375 C-5.21559094 15.50618103 -5.84907478 13.43634247 -5.8125 9.4375 C-5.82023438 8.591875 -5.82796875 7.74625 -5.8359375 6.875 C-5.21683965 3.08757788 -3.8809959 0.69658901 0 0 Z " fill="#EDC119" transform="translate(679.4375,482.5625)"/>
<path d="M0 0 C0.91007813 0.00902344 1.82015625 0.01804687 2.7578125 0.02734375 C3.45648437 0.03894531 4.15515625 0.05054688 4.875 0.0625 C5.35692771 5.48418675 5.35692771 5.48418675 3.3125 7.9375 C0.01122746 9.46116425 -2.5333844 9.395057 -6.125 9.0625 C-6.785 8.4025 -7.445 7.7425 -8.125 7.0625 C-7.875 4 -7.875 4 -7.125 1.0625 C-4.60024538 -0.19987731 -2.81299534 -0.03606404 0 0 Z " fill="#EEEEEE" transform="translate(849.125,852.9375)"/>
<path d="M0 0 C0.33 0 0.66 0 1 0 C1 10.89 1 21.78 1 33 C3.31 33 5.62 33 8 33 C8 35.31 8 37.62 8 40 C0.08 40 -7.84 40 -16 40 C-16 39.67 -16 39.34 -16 39 C-8.08 38.505 -8.08 38.505 0 38 C0.33 37.01 0.66 36.02 1 35 C0.505 34.505 0.505 34.505 0 34 C-0.08847743 31.47905924 -0.11527301 28.98569107 -0.09765625 26.46484375 C-0.0962413 25.71159317 -0.09482635 24.95834259 -0.09336853 24.18226624 C-0.08775376 21.7673044 -0.07519883 19.35243399 -0.0625 16.9375 C-0.0574869 15.30403779 -0.05292366 13.67057414 -0.04882812 12.03710938 C-0.03777954 8.02470415 -0.02050506 4.01236759 0 0 Z " fill="#523F03" transform="translate(719,467)"/>
<path d="M0 0 C0.33 0 0.66 0 1 0 C1.06058594 0.78246094 1.12117187 1.56492188 1.18359375 2.37109375 C1.26738281 3.38300781 1.35117187 4.39492188 1.4375 5.4375 C1.51871094 6.44683594 1.59992187 7.45617187 1.68359375 8.49609375 C1.73211468 10.93640779 1.73211468 10.93640779 3 12 C3.1284374 15.01081155 3.18523579 17.98859628 3.1875 21 C3.19974609 21.82628906 3.21199219 22.65257813 3.22460938 23.50390625 C3.23819624 29.29190878 2.43064736 34.39050523 1 40 C0.67 40 0.34 40 0 40 C0 26.8 0 13.6 0 0 Z " fill="#EDEDED" transform="translate(757,59)"/>
<path d="M0 0 C3 0.125 3 0.125 4 1.125 C4.08874135 4.22751201 4.11518455 7.3076812 4.09765625 10.41015625 C4.0962413 11.34097519 4.09482635 12.27179413 4.09336853 13.2308197 C4.08775172 16.21641191 4.0751964 19.20193029 4.0625 22.1875 C4.05748716 24.20637913 4.05292388 26.22525943 4.04882812 28.24414062 C4.03777683 33.20445572 4.02050095 38.16471532 4 43.125 C1.69 43.125 -0.62 43.125 -3 43.125 C-2.67 42.135 -2.34 41.145 -2 40.125 C-2 40.785 -2 41.445 -2 42.125 C-0.35 42.125 1.3 42.125 3 42.125 C2.67 29.255 2.34 16.385 2 3.125 C0.68 2.795 -0.64 2.465 -2 2.125 C-2.33 6.745 -2.66 11.365 -3 16.125 C-3.66 15.795 -4.32 15.465 -5 15.125 C-4.85973717 12.81215544 -4.71264442 10.49972409 -4.5625 8.1875 C-4.48128906 6.89972656 -4.40007813 5.61195313 -4.31640625 4.28515625 C-3.90364624 0.16265193 -3.90364624 0.16265193 0 0 Z " fill="#3E2E03" transform="translate(533,731.875)"/>
<path d="M0 0 C1.65 0 3.3 0 5 0 C5 4.29 5 8.58 5 13 C3.35 13 1.7 13 0 13 C-2.45811625 9.31282562 -2.31118164 7.35654296 -2 3 C-1.34 2.01 -0.68 1.02 0 0 Z " fill="#FAC40F" transform="translate(677,485)"/>
<path d="M0 0 C0.66 0 1.32 0 2 0 C3.32 2.64 4.64 5.28 6 8 C5.34 8.66 4.68 9.32 4 10 C3.45051478 11.82796601 3.45051478 11.82796601 3.1484375 13.9140625 C3.01953125 14.67460938 2.890625 15.43515625 2.7578125 16.21875 C2.63148438 17.0128125 2.50515625 17.806875 2.375 18.625 C2.17390625 19.82769531 2.17390625 19.82769531 1.96875 21.0546875 C1.63865211 23.03527484 1.31838917 25.01749675 1 27 C0.67 27 0.34 27 0 27 C0 18.09 0 9.18 0 0 Z " fill="#CCCBCC" transform="translate(614,87)"/>
<path d="M0 0 C0.66 0 1.32 0 2 0 C2 4.95 2 9.9 2 15 C-0.475 14.01 -0.475 14.01 -3 13 C-3.33 12.01 -3.66 11.02 -4 10 C-3.34 9.67 -2.68 9.34 -2 9 C-1.31270746 6.88153715 -1.31270746 6.88153715 -0.875 4.4375 C-0.70742188 3.61121094 -0.53984375 2.78492188 -0.3671875 1.93359375 C-0.24601563 1.29550781 -0.12484375 0.65742188 0 0 Z " fill="#E5BB14" transform="translate(684,464)"/>
<path d="M0 0 C1.11391731 4.45566923 1.15797961 5.13361986 -1 9 C-3.22154352 11.45700665 -5.57246266 13.74771269 -8 16 C-8.66 15.34 -9.32 14.68 -10 14 C-6.7 9.38 -3.4 4.76 0 0 Z " fill="#E6BE13" transform="translate(540,320)"/>
<path d="M0 0 C4.95 0.33 9.9 0.66 15 1 C12.40605843 4.89091235 10.45756796 4.98336169 6 6 C5.01 6 4.02 6 3 6 C0 2.66666667 0 2.66666667 0 0 Z " fill="#F2C61B" transform="translate(317,629)"/>
<path d="M0 0 C2.84766278 0.49834099 3.73470379 1.20765215 5.5 3.4375 C4.38625 3.746875 3.2725 4.05625 2.125 4.375 C-1.2945155 5.26076483 -1.2945155 5.26076483 -3.5 6.4375 C-3.96523063 8.33283342 -3.96523063 8.33283342 -4.125 10.5 C-4.24875 11.799375 -4.3725 13.09875 -4.5 14.4375 C-4.83 14.4375 -5.16 14.4375 -5.5 14.4375 C-5.58153933 12.85503293 -5.63943557 11.27133727 -5.6875 9.6875 C-5.72230469 8.80578125 -5.75710938 7.9240625 -5.79296875 7.015625 C-5.34520829 3.07533292 -4.00753688 0.70131895 0 0 Z " fill="#D0AB11" transform="translate(522.5,750.5625)"/>
<path d="M0 0 C0.33 0 0.66 0 1 0 C1.22786458 1.98567708 1.45572917 3.97135417 1.68359375 5.95703125 C1.97170735 8.19396393 1.97170735 8.19396393 3 11 C5.31 10.34 7.62 9.68 10 9 C10.33 9.99 10.66 10.98 11 12 C7.77856724 14.14762184 6.7404533 14.561068 3 14 C0.86674388 11.80087136 0.05558628 10.48915928 -0.29296875 7.421875 C-0.25816406 6.54015625 -0.22335937 5.6584375 -0.1875 4.75 C-0.16042969 3.85796875 -0.13335938 2.9659375 -0.10546875 2.046875 C-0.07066406 1.37140625 -0.03585937 0.6959375 0 0 Z " fill="#E0B413" transform="translate(674,487)"/>
<path d="M0 0 C0.66 0.33 1.32 0.66 2 1 C1.360625 1.2475 0.72125 1.495 0.0625 1.75 C-2.15640538 2.81408299 -2.15640538 2.81408299 -2.8125 5 C-3.18451089 7.07160124 -3.18451089 7.07160124 -2 9 C-3.98 9.66 -5.96 10.32 -8 11 C-8.5 8.3125 -8.5 8.3125 -8 5 C-5.59794368 2.82827785 -3.00381571 1.21238345 0 0 Z " fill="#1B1502" transform="translate(711,467)"/>
<path d="M0 0 C4.95 0 9.9 0 15 0 C14.01 0.495 14.01 0.495 13 1 C13 1.66 13 2.32 13 3 C11.20906809 3.08086147 9.41710372 3.13912702 7.625 3.1875 C6.12839844 3.23970703 6.12839844 3.23970703 4.6015625 3.29296875 C3.74304688 3.19628906 2.88453125 3.09960938 2 3 C1.34 2.01 0.68 1.02 0 0 Z " fill="#F6C71C" transform="translate(918,630)"/>
<path d="M0 0 C1.23556641 0.01740234 1.23556641 0.01740234 2.49609375 0.03515625 C3.32238281 0.04417969 4.14867187 0.05320313 5 0.0625 C5.63808594 0.07410156 6.27617188 0.08570313 6.93359375 0.09765625 C6.93359375 0.42765625 6.93359375 0.75765625 6.93359375 1.09765625 C5.79921875 1.22140625 4.66484375 1.34515625 3.49609375 1.47265625 C1.73265625 1.78203125 1.73265625 1.78203125 -0.06640625 2.09765625 C-1.21295107 4.39074588 -1.26369742 5.89675281 -1.3828125 8.44921875 C-1.42470703 9.3 -1.46660156 10.15078125 -1.50976562 11.02734375 C-1.54908203 11.91679688 -1.58839844 12.80625 -1.62890625 13.72265625 C-1.67208984 14.61984375 -1.71527344 15.51703125 -1.75976562 16.44140625 C-1.86597486 18.65999908 -1.96801819 20.87870505 -2.06640625 23.09765625 C-2.39640625 23.09765625 -2.72640625 23.09765625 -3.06640625 23.09765625 C-3.09528137 19.45183938 -3.1131621 15.80605162 -3.12890625 12.16015625 C-3.13728516 11.11923828 -3.14566406 10.07832031 -3.15429688 9.00585938 C-3.15913086 7.52182617 -3.15913086 7.52182617 -3.1640625 6.0078125 C-3.16929932 5.09136963 -3.17453613 4.17492676 -3.17993164 3.23071289 C-3.02856826 0.38670886 -2.84622961 0.13450991 0 0 Z " fill="#242324" transform="translate(560.06640625,56.90234375)"/>
<path d="M0 0 C-1.98 2.97 -3.96 5.94 -6 9 C-8 5 -8 5 -8 2 C-5 0 -5 0 0 0 Z " fill="#E8BD0E" transform="translate(939,629)"/>
<path d="M0 0 C1 3 1 3 -0.25 6 C-1.69149811 8.47113961 -2.85630917 10.16255071 -5 12 C-5.99 11.67 -6.98 11.34 -8 11 C-5.36 7.37 -2.72 3.74 0 0 Z " fill="#E7BF13" transform="translate(377,540)"/>
<path d="M0 0 C0 4.95 0 9.9 0 15 C-3 11 -3 11 -2.75 7.9375 C-2 5 -2 5 -1 2 C-1.99 1.67 -2.98 1.34 -4 1 C-2 0 -2 0 0 0 Z " fill="#EFC30B" transform="translate(711,475)"/>
<path d="M0 0 C0.66 0.99 1.32 1.98 2 3 C0.35 4.98 -1.3 6.96 -3 9 C-3.66 8.67 -4.32 8.34 -5 8 C-4.75 6.125 -4.75 6.125 -4 4 C-1.9375 2.75 -1.9375 2.75 0 2 C0 1.34 0 0.68 0 0 Z " fill="#EDC114" transform="translate(726,910)"/>
<path d="M0 0 C0.99 0.33 1.98 0.66 3 1 C3.6875 3.0625 3.6875 3.0625 4 5 C1.36 5 -1.28 5 -4 5 C-2.68 3.35 -1.36 1.7 0 0 Z " fill="#F3D11A" transform="translate(559,763)"/>
<path d="M0 0 C1.32 1.65 2.64 3.3 4 5 C-2.27 5 -8.54 5 -15 5 C-15 4.67 -15 4.34 -15 4 C-10.05 4 -5.1 4 0 4 C0 2.68 0 1.36 0 0 Z " fill="#DEAD0D" transform="translate(936,619)"/>
<path d="M0 0 C0.99 0 1.98 0 3 0 C3 0.66 3 1.32 3 2 C3.66 2 4.32 2 5 2 C5 4.31 5 6.62 5 9 C2.33264727 6.51047079 0.44253657 4.36591866 -1 1 C-0.67 0.67 -0.34 0.34 0 0 Z " fill="#F2CB1D" transform="translate(566,961)"/>
<path d="M0 0 C0.66 0.99 1.32 1.98 2 3 C0.35 4.98 -1.3 6.96 -3 9 C-3.66 8.67 -4.32 8.34 -5 8 C-5 5 -5 5 -2.5 2.3125 C-1.675 1.549375 -0.85 0.78625 0 0 Z " fill="#EDBF10" transform="translate(711,930)"/>
<path d="M0 0 C0.66 0.99 1.32 1.98 2 3 C0.75453595 6.73639216 -0.63404953 7.18756513 -4 9 C-4 5.00095031 -2.27413033 3.19799578 0 0 Z " fill="#E6BC14" transform="translate(523,343)"/>
<path d="M0 0 C0.99 0.33 1.98 0.66 3 1 C3 2.98 3 4.96 3 7 C1.68 7.33 0.36 7.66 -1 8 C-1.04241723 5.66705225 -1.04092937 3.33297433 -1 1 C-0.67 0.67 -0.34 0.34 0 0 Z " fill="#E7E7E7" transform="translate(690,58)"/>
<path d="M0 0 C0 3.56172735 -0.74670717 4.36534757 -2.875 7.125 C-3.40867187 7.82882812 -3.94234375 8.53265625 -4.4921875 9.2578125 C-6 11 -6 11 -8 12 C-6.49087042 7.01987239 -3.44338151 3.75740058 0 0 Z " fill="#241A02" transform="translate(933,637)"/>
<path d="M0 0 C0.66 0.33 1.32 0.66 2 1 C1.34 2.65 0.68 4.3 0 6 C0.66 6.33 1.32 6.66 2 7 C0.02 7.99 0.02 7.99 -2 9 C-2.125 5.625 -2.125 5.625 -2 2 C-1.34 1.34 -0.68 0.68 0 0 Z " fill="#241A03" transform="translate(547,736)"/>
<path d="M0 0 C0.66 0.33 1.32 0.66 2 1 C2.625 3.5625 2.625 3.5625 3 6 C2.34 6 1.68 6 1 6 C0.67 6.66 0.34 7.32 0 8 C-0.66 7.67 -1.32 7.34 -2 7 C-1.34 4.69 -0.68 2.38 0 0 Z " fill="#E2E2E3" transform="translate(868,70)"/>
<path d="M0 0 C3.3 0 6.6 0 10 0 C10.33 1.32 10.66 2.64 11 4 C9.68 4 8.36 4 7 4 C7 3.34 7 2.68 7 2 C4.69 1.67 2.38 1.34 0 1 C0 0.67 0 0.34 0 0 Z " fill="#363636" transform="translate(633,57)"/>
<path d="M0 0 C3.57104439 1.87949705 5.54744301 3.17053157 7 7 C6.34 7.66 5.68 8.32 5 9 C1.125 3.375 1.125 3.375 0 0 Z " fill="#EABB0F" transform="translate(906,581)"/>
<path d="M0 0 C3.82946843 1.45255699 5.12050295 3.42895561 7 7 C6.01 7 5.02 7 4 7 C0 2.65714286 0 2.65714286 0 0 Z " fill="#E9BD12" transform="translate(878,543)"/>
<path d="M0 0 C0.66 0.99 1.32 1.98 2 3 C0.6875 5 0.6875 5 -1 7 C-1.99 7 -2.98 7 -4 7 C-2.79618552 4.50638429 -1.54571278 2.31856917 0 0 Z " fill="#D8B111" transform="translate(517,351)"/>
<path d="M0 0 C0.66 0.66 1.32 1.32 2 2 C0.02 4.97 0.02 4.97 -2 8 C-2.66 7.34 -3.32 6.68 -4 6 C-2.68 4.02 -1.36 2.04 0 0 Z " fill="#EABC0E" transform="translate(665,992)"/>
<path d="M0 0 C0.33 1.32 0.66 2.64 1 4 C-1.4375 6.75 -1.4375 6.75 -4 9 C-4.66 8.67 -5.32 8.34 -6 8 C-4.02 5.36 -2.04 2.72 0 0 Z " fill="#DDDCDD" transform="translate(729,924)"/>
<path d="M0 0 C0.66 0.66 1.32 1.32 2 2 C0.02 4.31 -1.96 6.62 -4 9 C-4.66 8.67 -5.32 8.34 -6 8 C-4.02 5.36 -2.04 2.72 0 0 Z " fill="#DEDEDF" transform="translate(811,814)"/>
<path d="M0 0 C3.82946843 1.45255699 5.12050295 3.42895561 7 7 C6.01 7 5.02 7 4 7 C4 6.34 4 5.68 4 5 C3.34 5 2.68 5 2 5 C1.34 3.35 0.68 1.7 0 0 Z " fill="#E9C013" transform="translate(898,570)"/>
<path d="M0 0 C3.57104439 1.87949705 5.54744301 3.17053157 7 7 C6.01 7 5.02 7 4 7 C0 2.65714286 0 2.65714286 0 0 Z " fill="#E7BC0E" transform="translate(886,554)"/>
<path d="M0 0 C0.33 0.66 0.66 1.32 1 2 C1.99 1.67 2.98 1.34 4 1 C4.33 1.99 4.66 2.98 5 4 C2.525 5.485 2.525 5.485 0 7 C0 4.69 0 2.38 0 0 Z " fill="#E1E1E2" transform="translate(822,335)"/>
<path d="M0 0 C2.97 0 5.94 0 9 0 C9 0.33 9 0.66 9 1 C6.69 1.33 4.38 1.66 2 2 C1.67 2.99 1.34 3.98 1 5 C0.34 4.67 -0.32 4.34 -1 4 C-0.67 2.68 -0.34 1.36 0 0 Z " fill="#353435" transform="translate(782,57)"/>
<path d="M0 0 C1.32 0.33 2.64 0.66 4 1 C4 2.98 4 4.96 4 7 C2 5.1875 2 5.1875 0 3 C0 2.01 0 1.02 0 0 Z " fill="#EDC417" transform="translate(513,891)"/>
<path d="M0 0 C2.475 0.99 2.475 0.99 5 2 C4.67 3.65 4.34 5.3 4 7 C2 5.1875 2 5.1875 0 3 C0 2.01 0 1.02 0 0 Z " fill="#E8C118" transform="translate(478,844)"/>
<path d="M0 0 C0.33 0.99 0.66 1.98 1 3 C-0.40445835 5.2636564 -2.1967913 7.0208685 -4 9 C-4.66 8.67 -5.32 8.34 -6 8 C-4.02 5.36 -2.04 2.72 0 0 Z " fill="#303131" transform="translate(313,612)"/>
<path d="M0 0 C0.33 1.32 0.66 2.64 1 4 C-0.4375 6.25 -0.4375 6.25 -2 8 C-2.99 7.67 -3.98 7.34 -5 7 C-3.35 4.69 -1.7 2.38 0 0 Z " fill="#E4BA13" transform="translate(601,238)"/>
<path d="M0 0 C2.34058637 2.12780579 3.70700306 4.11562221 5 7 C4.01 7.495 4.01 7.495 3 8 C1.5 6.8125 1.5 6.8125 0 5 C-0.1875 2.3125 -0.1875 2.3125 0 0 Z " fill="#E8E8E8" transform="translate(615,88)"/>
</svg>
