<?xml version="1.0" encoding="UTF-8"?>
<svg version="1.1" xmlns="http://www.w3.org/2000/svg" width="1254" height="1254">
<path d="M0 0 C413.82 0 827.64 0 1254 0 C1254 413.82 1254 827.64 1254 1254 C840.18 1254 426.36 1254 0 1254 C0 840.18 0 426.36 0 0 Z " fill="#FDFDFD" transform="translate(0,0)"/>
<path d="M0 0 C1.14456161 -0.00692368 2.28912323 -0.01384735 3.46836853 -0.02098083 C7.16514515 -0.03824826 10.86177864 -0.04457376 14.55859375 -0.046875 C15.81575195 -0.04821442 17.07291016 -0.04955383 18.36816406 -0.05093384 C43.108522 -0.0452069 67.7759135 0.63425144 91.99609375 6.203125 C93.49269531 6.52216797 93.49269531 6.52216797 95.01953125 6.84765625 C98.35932727 7.58172453 101.67638445 8.38267763 104.99609375 9.203125 C105.78806152 9.39745117 106.5800293 9.59177734 107.39599609 9.79199219 C128.50533786 15.00985646 149.25969633 20.98814039 168.99609375 30.203125 C170.6756034 30.91976916 172.35513807 31.63635544 174.03515625 32.35180664 C198.63150345 43.0300266 221.36672721 56.39938954 242.99609375 72.203125 C244.13398285 73.02231843 245.27198955 73.84134856 246.41015625 74.66015625 C254.29185653 80.43105817 261.65058326 86.77492355 268.99609375 93.203125 C269.79402344 93.89921875 270.59195313 94.5953125 271.4140625 95.3125 C272.69282481 96.43048948 273.96917896 97.55124455 275.2421875 98.67578125 C276.49068353 99.76300162 277.75562923 100.83145474 279.03125 101.88671875 C279.67964844 102.42425781 280.32804688 102.96179688 280.99609375 103.515625 C281.86234375 104.22138672 281.86234375 104.22138672 282.74609375 104.94140625 C283.99609375 106.203125 283.99609375 106.203125 283.99609375 108.203125 C284.55296875 108.43 285.10984375 108.656875 285.68359375 108.890625 C313.57004105 124.71806806 336.87073702 168.48092325 351.99609375 195.203125 C352.53363281 196.13640625 353.07117188 197.0696875 353.625 198.03125 C375.98693739 237.75872459 389.33150605 282.30112832 395.99609375 327.203125 C396.24818604 328.89018555 396.24818604 328.89018555 396.50537109 330.61132812 C403.22924573 378.07561208 403.41246334 437.31915344 385.875 482.87988281 C384.85559077 485.57452122 384.12959014 488.26906862 383.49609375 491.078125 C381.38682216 499.86865687 378.97038166 508.46364914 375.11328125 516.65625 C373.95171145 519.30430423 372.96267417 521.99465349 371.9855957 524.71533203 C368.96983993 533.07661199 365.35701628 540.92222541 361.24316406 548.79443359 C359.82168345 551.53999501 358.43645033 554.30260372 357.05078125 557.06640625 C350.16118532 570.70210883 342.67856378 583.63281264 333.99609375 596.203125 C333.54105469 596.86376953 333.08601562 597.52441406 332.6171875 598.20507812 C329.81096295 602.25525595 326.93230566 606.24635627 323.99609375 610.203125 C323.60389648 610.73421875 323.21169922 611.2653125 322.80761719 611.8125 C307.42441701 632.54145658 289.62041622 652.4200344 269.99609375 669.203125 C269.10664062 669.98171875 268.2171875 670.7603125 267.30078125 671.5625 C251.58332807 685.21928363 234.6594461 697.20858935 216.99609375 708.203125 C216.28420898 708.64994629 215.57232422 709.09676758 214.83886719 709.55712891 C197.54688351 720.34115742 178.94798095 728.61012622 160.11743164 736.31005859 C157.87929429 737.25229664 155.67628752 738.25787131 153.46875 739.26953125 C149.32891341 741.12102269 145.17283586 742.4899453 140.80859375 743.703125 C139.72155151 744.01286255 139.72155151 744.01286255 138.61254883 744.32885742 C137.13072815 744.75077707 135.64822767 745.17031688 134.16503906 745.58740234 C132.0802748 746.17922759 130.00245537 746.79061005 127.92578125 747.41015625 C126.69085937 747.77496094 125.4559375 748.13976562 124.18359375 748.515625 C123.08402344 748.84175781 121.98445313 749.16789063 120.8515625 749.50390625 C117.99609375 750.203125 117.99609375 750.203125 113.99609375 750.203125 C113.99609375 750.863125 113.99609375 751.523125 113.99609375 752.203125 C113.19945312 752.32429687 112.4028125 752.44546875 111.58203125 752.5703125 C109.99261719 752.82167969 109.99261719 752.82167969 108.37109375 753.078125 C107.32695313 753.24054687 106.2828125 753.40296875 105.20703125 753.5703125 C102.00471951 754.20142503 99.08317574 755.15407768 95.99609375 756.203125 C86.43163976 758.59125334 76.8651756 759.74263075 67.05444336 760.55664062 C66.1960083 760.62818359 65.33757324 760.69972656 64.453125 760.7734375 C63.6897583 760.83289551 62.9263916 760.89235352 62.13989258 760.95361328 C60.01144988 761.15394019 60.01144988 761.15394019 58.04321289 761.69580078 C45.52570468 764.79793341 31.15773885 763.44321546 18.37109375 763.453125 C17.23558075 763.45479675 16.10006775 763.45646851 14.93014526 763.45819092 C-1.9148772 763.45967848 -18.35448432 762.95287847 -35.00390625 760.203125 C-36.0096167 760.03973633 -37.01532715 759.87634766 -38.05151367 759.70800781 C-43.85637095 758.75303717 -49.65489017 757.76369492 -55.44140625 756.703125 C-56.44204102 756.52716797 -56.44204102 756.52716797 -57.46289062 756.34765625 C-61.20056209 755.66001343 -64.5000998 754.64516779 -68.00390625 753.203125 C-70.6696264 752.70999003 -73.30206342 752.47788868 -76.00390625 752.203125 C-76.00390625 751.543125 -76.00390625 750.883125 -76.00390625 750.203125 C-77.48310547 750.00976562 -77.48310547 750.00976562 -78.9921875 749.8125 C-89.43705627 748.31175523 -99.54121208 745.73486263 -109.1796875 741.421875 C-112.08337602 740.16883099 -114.99338105 739.16898561 -118.00390625 738.203125 C-132.22504212 733.58732926 -132.22504212 733.58732926 -138.2265625 729.80078125 C-140.68404085 728.38712633 -142.96454103 727.4004202 -145.6015625 726.390625 C-151.46497052 724.10119669 -156.92499418 721.22206594 -162.44140625 718.203125 C-164.01075928 717.34654297 -164.01075928 717.34654297 -165.61181641 716.47265625 C-185.54386082 705.47985014 -204.51042834 692.79052026 -222.00390625 678.203125 C-222.98101562 677.39875 -223.958125 676.594375 -224.96484375 675.765625 C-239.92271616 663.35733778 -254.39087258 650.00644595 -267.00390625 635.203125 C-267.8948625 634.18664823 -268.78687964 633.17110082 -269.6796875 632.15625 C-294.17346705 604.16914178 -317.7998071 570.65215242 -330.66015625 535.546875 C-331.66631663 533.04317359 -332.72060642 530.74584758 -333.953125 528.359375 C-336.12445818 524.09196796 -337.76028496 519.726306 -339.31640625 515.203125 C-339.6105542 514.35516357 -339.90470215 513.50720215 -340.20776367 512.63354492 C-344.40563729 500.3292024 -348.41658842 487.77997012 -351.140625 475.05859375 C-351.58978505 471.4387403 -351.58978505 471.4387403 -353.00390625 470.203125 C-353.50217194 467.62174851 -353.95476814 465.04683927 -354.37890625 462.453125 C-355.26417515 457.18536392 -356.24787492 452.0085476 -357.56640625 446.828125 C-359.57154323 438.38765312 -360.29818175 429.83237131 -361.00390625 421.203125 C-361.09285156 420.16599365 -361.09285156 420.16599365 -361.18359375 419.10791016 C-362.61661551 401.54912867 -362.1976029 383.81898672 -362.02349854 366.21795654 C-362.00671379 364.49184729 -361.99392259 362.7657 -361.98193359 361.03955078 C-361.80050626 344.57886424 -358.72567978 328.39441136 -356.00390625 312.203125 C-355.82569336 311.11322266 -355.64748047 310.02332031 -355.46386719 308.90039062 C-352.69252713 291.97100071 -348.43608867 275.83782004 -343.00390625 259.578125 C-342.74691956 258.80621826 -342.48993286 258.03431152 -342.22515869 257.23901367 C-339.15863913 248.06846954 -335.87199301 239.07242428 -332.00390625 230.203125 C-331.66617187 229.4076123 -331.3284375 228.61209961 -330.98046875 227.79248047 C-321.73507771 206.08892501 -310.32933073 185.65693619 -297.00390625 166.203125 C-296.55418457 165.54634766 -296.10446289 164.88957031 -295.64111328 164.21289062 C-287.12112228 151.86358144 -277.9832661 140.0553884 -267.70703125 129.1171875 C-265.70056177 126.95414381 -263.767088 124.77250454 -261.84765625 122.53515625 C-257.65685036 117.72584835 -253.19051048 113.20365373 -248.68066406 108.69458008 C-247.26470678 107.27644216 -245.85692336 105.85015835 -244.44921875 104.42382812 C-238.27916114 98.24088042 -231.83263424 92.6420518 -225.00390625 87.203125 C-223.97640078 86.33968371 -222.95298985 85.4712913 -221.9375 84.59375 C-207.05245989 71.82848869 -190.77407522 61.2980149 -174.00390625 51.203125 C-173.15771729 50.68621094 -172.31152832 50.16929687 -171.43969727 49.63671875 C-166.37176981 46.55521755 -161.26745023 43.68720731 -155.94140625 41.078125 C-155.24805176 40.73539551 -154.55469727 40.39266602 -153.84033203 40.03955078 C-148.9462974 37.63326928 -144.01804139 35.34834777 -139.00390625 33.203125 C-138.08867187 32.78933594 -137.1734375 32.37554687 -136.23046875 31.94921875 C-99.61384563 15.68008959 -60.68566083 6.03855412 -21.00390625 1.203125 C-20.03503227 1.07319656 -20.03503227 1.07319656 -19.04658508 0.94064331 C-12.69332259 0.14334278 -6.39805815 0.02605445 0 0 Z " fill="#FDCC09" transform="translate(609.00390625,188.796875)"/>
<path d="M0 0 C1.14456161 -0.00692368 2.28912323 -0.01384735 3.46836853 -0.02098083 C7.16514515 -0.03824826 10.86177864 -0.04457376 14.55859375 -0.046875 C15.81575195 -0.04821442 17.07291016 -0.04955383 18.36816406 -0.05093384 C43.108522 -0.0452069 67.7759135 0.63425144 91.99609375 6.203125 C93.49269531 6.52216797 93.49269531 6.52216797 95.01953125 6.84765625 C98.35932727 7.58172453 101.67638445 8.38267763 104.99609375 9.203125 C105.78806152 9.39745117 106.5800293 9.59177734 107.39599609 9.79199219 C128.50533786 15.00985646 149.25969633 20.98814039 168.99609375 30.203125 C170.6756034 30.91976916 172.35513807 31.63635544 174.03515625 32.35180664 C198.63150345 43.0300266 221.36672721 56.39938954 242.99609375 72.203125 C244.13398285 73.02231843 245.27198955 73.84134856 246.41015625 74.66015625 C254.29185653 80.43105817 261.65058326 86.77492355 268.99609375 93.203125 C269.79402344 93.89921875 270.59195313 94.5953125 271.4140625 95.3125 C272.69282481 96.43048948 273.96917896 97.55124455 275.2421875 98.67578125 C276.49068353 99.76300162 277.75562923 100.83145474 279.03125 101.88671875 C279.67964844 102.42425781 280.32804688 102.96179688 280.99609375 103.515625 C281.86234375 104.22138672 281.86234375 104.22138672 282.74609375 104.94140625 C283.99609375 106.203125 283.99609375 106.203125 283.99609375 108.203125 C284.55296875 108.43 285.10984375 108.656875 285.68359375 108.890625 C313.57004105 124.71806806 336.87073702 168.48092325 351.99609375 195.203125 C352.53363281 196.13640625 353.07117188 197.0696875 353.625 198.03125 C375.98693739 237.75872459 389.33150605 282.30112832 395.99609375 327.203125 C396.24818604 328.89018555 396.24818604 328.89018555 396.50537109 330.61132812 C403.22924573 378.07561208 403.41246334 437.31915344 385.875 482.87988281 C384.85559077 485.57452122 384.12959014 488.26906862 383.49609375 491.078125 C381.38682216 499.86865687 378.97038166 508.46364914 375.11328125 516.65625 C373.95171145 519.30430423 372.96267417 521.99465349 371.9855957 524.71533203 C368.96983993 533.07661199 365.35701628 540.92222541 361.24316406 548.79443359 C359.82168345 551.53999501 358.43645033 554.30260372 357.05078125 557.06640625 C350.16118532 570.70210883 342.67856378 583.63281264 333.99609375 596.203125 C333.54105469 596.86376953 333.08601562 597.52441406 332.6171875 598.20507812 C329.81096295 602.25525595 326.93230566 606.24635627 323.99609375 610.203125 C323.60389648 610.73421875 323.21169922 611.2653125 322.80761719 611.8125 C307.42441701 632.54145658 289.62041622 652.4200344 269.99609375 669.203125 C269.10664062 669.98171875 268.2171875 670.7603125 267.30078125 671.5625 C251.58332807 685.21928363 234.6594461 697.20858935 216.99609375 708.203125 C216.28420898 708.64994629 215.57232422 709.09676758 214.83886719 709.55712891 C197.54688351 720.34115742 178.94798095 728.61012622 160.11743164 736.31005859 C157.87929429 737.25229664 155.67628752 738.25787131 153.46875 739.26953125 C149.32891341 741.12102269 145.17283586 742.4899453 140.80859375 743.703125 C139.72155151 744.01286255 139.72155151 744.01286255 138.61254883 744.32885742 C137.13072815 744.75077707 135.64822767 745.17031688 134.16503906 745.58740234 C132.0802748 746.17922759 130.00245537 746.79061005 127.92578125 747.41015625 C126.69085937 747.77496094 125.4559375 748.13976562 124.18359375 748.515625 C123.08402344 748.84175781 121.98445313 749.16789063 120.8515625 749.50390625 C117.99609375 750.203125 117.99609375 750.203125 113.99609375 750.203125 C113.99609375 750.863125 113.99609375 751.523125 113.99609375 752.203125 C113.19945312 752.32429687 112.4028125 752.44546875 111.58203125 752.5703125 C109.99261719 752.82167969 109.99261719 752.82167969 108.37109375 753.078125 C107.32695313 753.24054687 106.2828125 753.40296875 105.20703125 753.5703125 C102.00471951 754.20142503 99.08317574 755.15407768 95.99609375 756.203125 C86.43163976 758.59125334 76.8651756 759.74263075 67.05444336 760.55664062 C66.1960083 760.62818359 65.33757324 760.69972656 64.453125 760.7734375 C63.6897583 760.83289551 62.9263916 760.89235352 62.13989258 760.95361328 C60.01144988 761.15394019 60.01144988 761.15394019 58.04321289 761.69580078 C45.52570468 764.79793341 31.15773885 763.44321546 18.37109375 763.453125 C17.23558075 763.45479675 16.10006775 763.45646851 14.93014526 763.45819092 C-1.9148772 763.45967848 -18.35448432 762.95287847 -35.00390625 760.203125 C-36.0096167 760.03973633 -37.01532715 759.87634766 -38.05151367 759.70800781 C-43.85637095 758.75303717 -49.65489017 757.76369492 -55.44140625 756.703125 C-56.44204102 756.52716797 -56.44204102 756.52716797 -57.46289062 756.34765625 C-61.20056209 755.66001343 -64.5000998 754.64516779 -68.00390625 753.203125 C-70.6696264 752.70999003 -73.30206342 752.47788868 -76.00390625 752.203125 C-76.00390625 751.543125 -76.00390625 750.883125 -76.00390625 750.203125 C-77.48310547 750.00976562 -77.48310547 750.00976562 -78.9921875 749.8125 C-89.43705627 748.31175523 -99.54121208 745.73486263 -109.1796875 741.421875 C-112.08337602 740.16883099 -114.99338105 739.16898561 -118.00390625 738.203125 C-132.22504212 733.58732926 -132.22504212 733.58732926 -138.2265625 729.80078125 C-140.68404085 728.38712633 -142.96454103 727.4004202 -145.6015625 726.390625 C-151.46497052 724.10119669 -156.92499418 721.22206594 -162.44140625 718.203125 C-164.01075928 717.34654297 -164.01075928 717.34654297 -165.61181641 716.47265625 C-185.54386082 705.47985014 -204.51042834 692.79052026 -222.00390625 678.203125 C-222.98101562 677.39875 -223.958125 676.594375 -224.96484375 675.765625 C-239.92271616 663.35733778 -254.39087258 650.00644595 -267.00390625 635.203125 C-267.8948625 634.18664823 -268.78687964 633.17110082 -269.6796875 632.15625 C-294.17346705 604.16914178 -317.7998071 570.65215242 -330.66015625 535.546875 C-331.66631663 533.04317359 -332.72060642 530.74584758 -333.953125 528.359375 C-336.12445818 524.09196796 -337.76028496 519.726306 -339.31640625 515.203125 C-339.6105542 514.35516357 -339.90470215 513.50720215 -340.20776367 512.63354492 C-344.40563729 500.3292024 -348.41658842 487.77997012 -351.140625 475.05859375 C-351.58978505 471.4387403 -351.58978505 471.4387403 -353.00390625 470.203125 C-353.50217194 467.62174851 -353.95476814 465.04683927 -354.37890625 462.453125 C-355.26417515 457.18536392 -356.24787492 452.0085476 -357.56640625 446.828125 C-359.57154323 438.38765312 -360.29818175 429.83237131 -361.00390625 421.203125 C-361.09285156 420.16599365 -361.09285156 420.16599365 -361.18359375 419.10791016 C-362.61661551 401.54912867 -362.1976029 383.81898672 -362.02349854 366.21795654 C-362.00671379 364.49184729 -361.99392259 362.7657 -361.98193359 361.03955078 C-361.80050626 344.57886424 -358.72567978 328.39441136 -356.00390625 312.203125 C-355.82569336 311.11322266 -355.64748047 310.02332031 -355.46386719 308.90039062 C-352.69252713 291.97100071 -348.43608867 275.83782004 -343.00390625 259.578125 C-342.74691956 258.80621826 -342.48993286 258.03431152 -342.22515869 257.23901367 C-339.15863913 248.06846954 -335.87199301 239.07242428 -332.00390625 230.203125 C-331.66617187 229.4076123 -331.3284375 228.61209961 -330.98046875 227.79248047 C-321.73507771 206.08892501 -310.32933073 185.65693619 -297.00390625 166.203125 C-296.55418457 165.54634766 -296.10446289 164.88957031 -295.64111328 164.21289062 C-287.12112228 151.86358144 -277.9832661 140.0553884 -267.70703125 129.1171875 C-265.70056177 126.95414381 -263.767088 124.77250454 -261.84765625 122.53515625 C-257.65685036 117.72584835 -253.19051048 113.20365373 -248.68066406 108.69458008 C-247.26470678 107.27644216 -245.85692336 105.85015835 -244.44921875 104.42382812 C-238.27916114 98.24088042 -231.83263424 92.6420518 -225.00390625 87.203125 C-223.97640078 86.33968371 -222.95298985 85.4712913 -221.9375 84.59375 C-207.05245989 71.82848869 -190.77407522 61.2980149 -174.00390625 51.203125 C-173.15771729 50.68621094 -172.31152832 50.16929687 -171.43969727 49.63671875 C-166.37176981 46.55521755 -161.26745023 43.68720731 -155.94140625 41.078125 C-155.24805176 40.73539551 -154.55469727 40.39266602 -153.84033203 40.03955078 C-148.9462974 37.63326928 -144.01804139 35.34834777 -139.00390625 33.203125 C-138.08867187 32.78933594 -137.1734375 32.37554687 -136.23046875 31.94921875 C-99.61384563 15.68008959 -60.68566083 6.03855412 -21.00390625 1.203125 C-20.03503227 1.07319656 -20.03503227 1.07319656 -19.04658508 0.94064331 C-12.69332259 0.14334278 -6.39805815 0.02605445 0 0 Z M-8.00390625 11.203125 C-10.71370553 11.35274582 -13.41756829 11.47512111 -16.12890625 11.578125 C-23.17511617 11.90355088 -30.09191591 12.65210543 -37.06640625 13.703125 C-37.94119629 13.83380371 -38.81598633 13.96448242 -39.71728516 14.09912109 C-43.68699351 14.40101442 -43.68699351 14.40101442 -47.00390625 16.203125 C-50.35917839 16.78037612 -53.72568997 17.23398186 -57.09765625 17.703125 C-59.88865908 17.89555205 -59.88865908 17.89555205 -61.00390625 19.203125 C-63.08400001 19.55611061 -65.16840376 19.88364377 -67.25390625 20.203125 C-75.68079498 21.64444805 -83.79174517 24.10654558 -91.94140625 26.640625 C-93.1850293 27.02412109 -94.42865234 27.40761719 -95.70996094 27.80273438 C-101.51687148 29.63485288 -107.10744773 31.58079114 -112.61889648 34.16601562 C-115.5950611 35.46018568 -118.63074036 36.49443029 -121.69921875 37.55078125 C-129.00189413 40.12111148 -135.92469889 43.24930788 -142.87890625 46.640625 C-143.49853241 46.94170166 -144.11815857 47.24277832 -144.75656128 47.55297852 C-170.39964969 60.05067928 -194.14499992 75.14861072 -215.97753906 93.52539062 C-217.42882295 94.72698374 -218.89933784 95.90549639 -220.38183594 97.06835938 C-228.16882013 103.23461451 -235.16244513 110.05565118 -242.15673828 117.09521484 C-244.12573775 119.07493924 -246.10521352 121.04373254 -248.0859375 123.01171875 C-255.18306858 130.10140134 -261.83068956 137.28413225 -268.00390625 145.203125 C-269.2726628 146.76731182 -270.54322343 148.33003886 -271.81640625 149.890625 C-280.83981946 161.24613308 -289.33205677 172.74379635 -296.79492188 185.19091797 C-297.99222299 187.18367964 -299.20792182 189.16428397 -300.42578125 191.14453125 C-312.41543893 210.84387892 -321.93679009 231.6227675 -330.00390625 253.203125 C-330.40988037 254.27643066 -330.81585449 255.34973633 -331.23413086 256.45556641 C-334.35137268 264.90209164 -336.84809238 273.42316122 -339.11645508 282.12646484 C-339.6933062 284.33540048 -340.282537 286.54077493 -340.87304688 288.74609375 C-342.77942146 295.94129239 -344.46662532 303.07234165 -345.58349609 310.44042969 C-346.00519053 313.21156453 -346.50862104 315.95721679 -347.03125 318.7109375 C-348.08855264 324.47597576 -348.85349499 330.26167436 -349.56640625 336.078125 C-349.75493164 337.55732422 -349.75493164 337.55732422 -349.94726562 339.06640625 C-351.63887482 352.68784571 -352.24128159 366.17892997 -352.25390625 379.890625 C-352.25524567 380.7550824 -352.25658508 381.61953979 -352.25796509 382.51019287 C-352.25381151 394.999866 -351.79905949 407.38714593 -350.69140625 419.828125 C-350.63255249 420.51184174 -350.57369873 421.19555847 -350.51306152 421.8999939 C-349.78783792 430.09628813 -348.53222899 438.01097224 -346.71069336 446.03320312 C-345.61527576 450.94612267 -344.86103442 455.89985361 -344.09960938 460.87304688 C-343.3735777 465.44420723 -342.35240261 469.76432448 -341.00390625 474.203125 C-340.46180858 476.0632979 -339.92162847 477.92403013 -339.3828125 479.78515625 C-338.77754949 481.86203914 -338.17207562 483.93886058 -337.56640625 486.015625 C-337.26669922 487.04494141 -336.96699219 488.07425781 -336.65820312 489.13476562 C-335.77652946 492.1584664 -334.89062891 495.18090157 -334.00390625 498.203125 C-333.73231689 499.13753418 -333.46072754 500.07194336 -333.1809082 501.03466797 C-332.92398193 501.90881348 -332.66705566 502.78295898 -332.40234375 503.68359375 C-332.06662354 504.83251099 -332.06662354 504.83251099 -331.72412109 506.00463867 C-330.71556029 509.08331325 -329.39888699 511.98506774 -328.0390625 514.921875 C-326.94957639 517.32285572 -325.96933874 519.74979066 -325.00390625 522.203125 C-323.13137949 526.93180153 -321.09999974 531.57006227 -319.00390625 536.203125 C-318.62363281 537.06808594 -318.24335938 537.93304687 -317.8515625 538.82421875 C-315.39198172 544.36416907 -312.73565522 549.72325535 -309.78125 555.015625 C-308.43916675 557.42252595 -307.12255027 559.83732466 -305.8203125 562.265625 C-292.86489854 586.25605318 -276.73418681 608.50007864 -258.33984375 628.62109375 C-256.43428503 630.72740531 -254.57136293 632.85872391 -252.71484375 635.0078125 C-249.0455028 639.20815179 -245.19908743 643.19976915 -241.25390625 647.140625 C-240.20674438 648.18766602 -240.20674438 648.18766602 -239.13842773 649.25585938 C-234.43772982 653.90519831 -229.62681566 658.19191584 -224.42578125 662.27734375 C-222.12600279 664.10603856 -219.9747942 666.02357898 -217.81640625 668.015625 C-193.27698878 689.98797575 -161.3797164 710.05697661 -130.62890625 722.015625 C-129.78070313 722.345625 -128.9325 722.675625 -128.05859375 723.015625 C-127.05054688 723.4075 -126.0425 723.799375 -125.00390625 724.203125 C-123.71445259 724.72298917 -122.42542186 725.24390306 -121.13671875 725.765625 C-90.96091045 737.88490816 -58.43369251 747.31483408 -25.92431641 749.94384766 C-24.00390625 750.203125 -24.00390625 750.203125 -23.00390625 751.203125 C-21.56333721 751.35697504 -20.11569407 751.44546078 -18.66821289 751.50634766 C-17.29118446 751.56645523 -17.29118446 751.56645523 -15.88633728 751.6277771 C-14.8848616 751.66553253 -13.88338593 751.70328796 -12.8515625 751.7421875 C-11.81620865 751.78340729 -10.7808548 751.82462708 -9.71412659 751.86709595 C16.16805866 752.84858417 42.0934211 753.48549224 67.80859375 749.953125 C68.55940216 749.85070496 69.31021057 749.74828491 70.08377075 749.64276123 C79.07828556 748.3815304 87.92959908 746.66525349 96.76802063 744.57366943 C101.50129842 743.46609986 106.16256329 742.7344838 110.99609375 742.203125 C110.99609375 741.543125 110.99609375 740.883125 110.99609375 740.203125 C112.0840625 740.10773437 113.17203125 740.01234375 114.29296875 739.9140625 C119.81590582 739.21461955 124.96617789 737.54640864 130.24609375 735.828125 C131.32947021 735.4765332 132.41284668 735.12494141 133.52905273 734.76269531 C161.47828411 725.51885605 187.94149973 713.67198285 212.99609375 698.203125 C213.94871094 697.62433594 214.90132812 697.04554688 215.8828125 696.44921875 C229.69161887 687.88321779 242.67928392 678.18640251 255.12890625 667.76171875 C256.86570959 666.31196032 258.61628144 664.88097936 260.37109375 663.453125 C267.90509175 657.24519068 274.88479665 650.51901022 281.80859375 643.640625 C282.6802417 642.77824219 283.55188965 641.91585937 284.44995117 641.02734375 C289.65698546 635.79503981 294.45925703 630.37413043 299.06201172 624.60253906 C300.75125732 622.50686805 302.49165305 620.50020186 304.30859375 618.515625 C328.17985426 591.35932864 347.86486811 557.83280461 360.99609375 524.203125 C361.29515625 523.44370605 361.59421875 522.68428711 361.90234375 521.90185547 C377.37577759 482.50050905 388.33726408 440.47081307 388.05078125 397.9296875 C388.04485962 396.22486206 388.04485962 396.22486206 388.03881836 394.4855957 C388.02865209 391.72472727 388.0143614 388.96394964 387.99609375 386.203125 C342.71193308 386.06588568 297.42779436 385.96011477 252.14346685 385.89673302 C246.80104787 385.8892285 241.4586293 385.88146259 236.11621094 385.87353516 C235.05260132 385.87196129 233.9889917 385.87038743 232.89315149 385.86876588 C215.65603064 385.84263567 198.41902947 385.79531595 181.18197969 385.74020822 C163.50405385 385.68416104 145.82619082 385.65078544 128.14817977 385.63859403 C117.23389996 385.6303484 106.31995839 385.60427661 95.40578267 385.5556262 C87.92836847 385.52398684 80.45112992 385.51430703 72.97365358 385.52211674 C68.65505757 385.52597178 64.33705384 385.51993368 60.01856232 385.48789215 C56.06800081 385.45879356 52.11843241 385.45715253 48.16782615 385.47773163 C46.73571224 385.48027667 45.30353753 385.47257878 43.87154415 385.45382591 C36.69839704 384.99854088 36.69839704 384.99854088 30.32989454 387.52121615 C29.07849007 389.29481071 29.07849007 389.29481071 27.99609375 392.203125 C24.50372909 395.11342888 21.53569789 395.68094819 16.98828125 395.4921875 C12.86857797 394.89442663 9.95266592 393.25865291 7.18359375 390.203125 C4.73176324 386.07372625 4.36530485 381.89406217 4.99609375 377.203125 C7.39628998 372.31041731 9.85886896 370.01626316 14.99609375 368.203125 C19.93299392 367.57479225 23.13660475 368.3938142 27.41796875 370.64453125 C28.99609375 372.203125 28.99609375 372.203125 31.99609375 379.203125 C149.47609375 379.203125 266.95609375 379.203125 387.99609375 379.203125 C387.99609375 319.67810391 375.89891049 263.05702888 347.95117188 210.04101562 C346.98230887 208.17659827 346.05708601 206.2950204 345.13671875 204.40625 C331.25616181 176.43822099 311.06172257 148.407091 288.55078125 126.7578125 C286.86065333 125.06768458 285.34508244 123.28367851 283.80859375 121.453125 C279.45772251 116.41271836 274.50108413 112.05461775 269.5546875 107.61767578 C268.0687767 106.2690907 266.60975468 104.8910541 265.15234375 103.51171875 C257.53167179 96.32023298 249.42529414 89.93970896 241.01123047 83.70068359 C239.25782532 82.39763208 237.5181665 81.07876644 235.78125 79.75390625 C213.75869081 63.39667124 189.021797 49.66199765 163.66162109 39.30761719 C161.28713157 38.3237199 158.95192966 37.2854531 156.62109375 36.203125 C144.38316634 30.76887659 131.63361862 27.36090028 118.72949219 23.93945312 C116.1468621 23.24373927 113.5744055 22.52038434 111.00390625 21.78125 C103.62503102 19.66152542 96.39646912 17.70227539 88.76953125 16.66015625 C85.99609375 16.203125 85.99609375 16.203125 82.19921875 15.21875 C77.95073267 14.12732685 73.72816954 13.59122187 69.37109375 13.140625 C67.92042309 12.9844585 66.46989821 12.82693107 65.01953125 12.66796875 C64.38966309 12.602146 63.75979492 12.53632324 63.11083984 12.46850586 C61.48412804 12.26436874 59.86496824 11.99937752 58.25146484 11.70874023 C54.46917037 11.12128472 50.70450673 10.85105636 46.88671875 10.6484375 C46.10693665 10.60639191 45.32715454 10.56434631 44.52374268 10.52102661 C36.11874835 10.10539732 27.71893776 10.05171546 19.30517578 10.07275391 C16.70599778 10.07820915 14.10698596 10.0727161 11.5078125 10.06640625 C9.83203087 10.06706568 8.15624935 10.06834402 6.48046875 10.0703125 C5.71482605 10.06828827 4.94918335 10.06626404 4.16033936 10.06417847 C-0.00717454 10.08236681 -3.91120023 10.44021568 -8.00390625 11.203125 Z " fill="#0F0D06" transform="translate(609.00390625,188.796875)"/>
<path d="M0 0 C1.03769531 -0.02835937 2.07539062 -0.05671875 3.14453125 -0.0859375 C7.08056655 0.51027837 8.43362561 1.49210726 11.1875 4.375 C13.02614617 7.23084044 14.54840242 10.21213009 16.0625 13.25 C16.45824219 14.02085938 16.85398437 14.79171875 17.26171875 15.5859375 C18.58559744 18.17485583 19.88816406 20.77367462 21.1875 23.375 C21.81404916 24.62666688 22.44068185 25.87829194 23.06738281 27.12988281 C24.77613375 30.54390257 26.48236064 33.95917512 28.1875 37.375 C28.22508423 35.74703491 28.22508423 35.74703491 28.26342773 34.08618164 C28.35733755 30.073684 28.45759767 26.06136618 28.55981445 22.04907227 C28.60322573 20.30985712 28.64489612 18.57059765 28.68481445 16.83129883 C28.74236768 14.33661512 28.8061042 11.8421559 28.87109375 9.34765625 C28.88780624 8.56536148 28.90451874 7.78306671 28.92173767 6.97706604 C29.07362829 1.48887171 29.07362829 1.48887171 30.1875 0.375 C31.68488124 0.2770943 33.18692892 0.24525136 34.6875 0.25 C35.5021875 0.24742188 36.316875 0.24484375 37.15625 0.2421875 C39.1875 0.375 39.1875 0.375 40.1875 1.375 C40.29146613 3.04678679 40.32602893 4.72294633 40.33276367 6.39794922 C40.33914352 7.46931122 40.34552338 8.54067322 40.35209656 9.64450073 C40.35320938 10.81111237 40.3543222 11.977724 40.35546875 13.1796875 C40.36046135 14.96477219 40.36046135 14.96477219 40.36555481 16.78591919 C40.37062955 19.30958671 40.37296297 21.83326097 40.37280273 24.35693359 C40.37498665 28.22634922 40.39312982 32.09547874 40.41210938 35.96484375 C40.41504364 38.41145735 40.41702821 40.85807232 40.41796875 43.3046875 C40.42515427 44.46725067 40.43233978 45.62981384 40.43974304 46.8276062 C40.43666641 47.90527252 40.43358978 48.98293884 40.43041992 50.09326172 C40.43184494 51.04288788 40.43326996 51.99251404 40.43473816 52.97091675 C40.1875 55.375 40.1875 55.375 38.1875 58.375 C35.54296875 58.94921875 35.54296875 58.94921875 32.375 59.0625 C31.33730469 59.12824219 30.29960938 59.19398438 29.23046875 59.26171875 C25.44708555 58.1592438 24.46618847 56.49498407 22.60083008 53.12280273 C22.13443115 52.21602783 21.66803223 51.30925293 21.1875 50.375 C20.56963623 49.21492432 19.95177246 48.05484863 19.31518555 46.85961914 C17.5260038 43.48405035 15.77193345 40.09144612 14.02929688 36.69165039 C12.93008848 34.54804653 11.82481622 32.40765016 10.71875 30.26757812 C10.01526848 28.90122517 9.31213091 27.53469505 8.609375 26.16796875 C8.28024109 25.53046188 7.95110718 24.89295502 7.61199951 24.23612976 C6.28201635 21.63581844 5.11297982 19.15143945 4.1875 16.375 C4.16244385 17.6117749 4.1373877 18.8485498 4.11157227 20.12280273 C4.01767747 24.69436713 3.91741371 29.26577318 3.81518555 33.8371582 C3.77176856 35.81889146 3.73009863 37.80066378 3.69018555 39.7824707 C3.63264617 42.6246317 3.56890555 45.46659483 3.50390625 48.30859375 C3.47883751 49.64608925 3.47883751 49.64608925 3.45326233 51.01060486 C3.30137171 57.26112829 3.30137171 57.26112829 2.1875 58.375 C0.69011876 58.4729057 -0.81192892 58.50474864 -2.3125 58.5 C-3.1271875 58.50257813 -3.941875 58.50515625 -4.78125 58.5078125 C-6.8125 58.375 -6.8125 58.375 -7.8125 57.375 C-7.91653846 55.66727578 -7.95103224 53.95526194 -7.95776367 52.24438477 C-7.96414352 51.14977432 -7.97052338 50.05516388 -7.97709656 48.92738342 C-7.97820938 47.73576096 -7.9793222 46.54413849 -7.98046875 45.31640625 C-7.98379715 44.10178207 -7.98712555 42.8871579 -7.99055481 41.63572693 C-7.99562923 39.06078471 -7.99796298 36.48583589 -7.99780273 33.91088867 C-7.99998863 29.95806103 -8.01813762 26.00551255 -8.03710938 22.05273438 C-8.04004322 19.55729263 -8.04202808 17.06184955 -8.04296875 14.56640625 C-8.05015427 13.37680801 -8.05733978 12.18720978 -8.06474304 10.96156311 C-8.0601281 9.3149192 -8.0601281 9.3149192 -8.05541992 7.63500977 C-8.05684494 6.6653981 -8.05826996 5.69578644 -8.05973816 4.6967926 C-7.52752405 -0.30118503 -4.24104299 0.05229399 0 0 Z " fill="#0F0F0F" transform="translate(811.8125,77.625)"/>
<path d="M0 0 C1.03769531 -0.02835937 2.07539063 -0.05671875 3.14453125 -0.0859375 C7.0949065 0.51245054 8.44865355 1.45296806 11.1875 4.375 C12.92222894 7.35901327 14.30890564 10.46348856 15.6875 13.625 C18.12376748 19.108754 20.58517369 24.30738929 23.95898438 29.28417969 C25.67335422 32.20187908 26.89341511 35.2484085 28.1875 38.375 C28.22508423 36.70159546 28.22508423 36.70159546 28.26342773 34.99438477 C28.35733421 30.8700741 28.45759514 26.7459385 28.55981445 22.62182617 C28.603227 20.8341073 28.64489729 19.04634526 28.68481445 17.25854492 C28.7423646 14.69436609 28.80610203 12.13040588 28.87109375 9.56640625 C28.88780624 8.7622377 28.90451874 7.95806915 28.92173767 7.12953186 C29.07362829 1.48887171 29.07362829 1.48887171 30.1875 0.375 C31.68488124 0.2770943 33.18692892 0.24525136 34.6875 0.25 C35.5021875 0.24742188 36.316875 0.24484375 37.15625 0.2421875 C39.1875 0.375 39.1875 0.375 40.1875 1.375 C40.29153846 3.08272422 40.32603224 4.79473806 40.33276367 6.50561523 C40.33914352 7.60022568 40.34552338 8.69483612 40.35209656 9.82261658 C40.35320938 11.01423904 40.3543222 12.20586151 40.35546875 13.43359375 C40.36046135 15.25553001 40.36046135 15.25553001 40.36555481 17.11427307 C40.37062923 19.68921529 40.37296298 22.26416411 40.37280273 24.83911133 C40.37498863 28.79193897 40.39313762 32.74448745 40.41210938 36.69726562 C40.41504322 39.19270737 40.41702808 41.68815045 40.41796875 44.18359375 C40.42515427 45.37319199 40.43233978 46.56279022 40.43974304 47.78843689 C40.43666641 48.88619949 40.43358978 49.9839621 40.43041992 51.11499023 C40.43184494 52.0846019 40.43326996 53.05421356 40.43473816 54.0532074 C40.1875 56.375 40.1875 56.375 38.1875 58.375 C35.5078125 58.74609375 35.5078125 58.74609375 32.3125 58.8125 C30.73855469 58.87244141 30.73855469 58.87244141 29.1328125 58.93359375 C26.1875 58.375 26.1875 58.375 24.0703125 56.40234375 C21.68393035 52.56531851 19.79789465 48.61262464 17.9375 44.5 C14.7250626 37.54240944 11.35000262 30.72664324 7.66308594 24.00830078 C6.27812613 21.47541409 5.10347651 19.12292952 4.1875 16.375 C4.16244385 17.6117749 4.1373877 18.8485498 4.11157227 20.12280273 C4.01767747 24.69436713 3.91741371 29.26577318 3.81518555 33.8371582 C3.77176856 35.81889146 3.73009863 37.80066378 3.69018555 39.7824707 C3.63264617 42.6246317 3.56890555 45.46659483 3.50390625 48.30859375 C3.47883751 49.64608925 3.47883751 49.64608925 3.45326233 51.01060486 C3.30137171 57.26112829 3.30137171 57.26112829 2.1875 58.375 C0.69011876 58.4729057 -0.81192892 58.50474864 -2.3125 58.5 C-3.1271875 58.50257813 -3.941875 58.50515625 -4.78125 58.5078125 C-6.8125 58.375 -6.8125 58.375 -7.8125 57.375 C-7.91653846 55.66727578 -7.95103224 53.95526194 -7.95776367 52.24438477 C-7.96414352 51.14977432 -7.97052338 50.05516388 -7.97709656 48.92738342 C-7.97820938 47.73576096 -7.9793222 46.54413849 -7.98046875 45.31640625 C-7.98379715 44.10178207 -7.98712555 42.8871579 -7.99055481 41.63572693 C-7.99562923 39.06078471 -7.99796298 36.48583589 -7.99780273 33.91088867 C-7.99998863 29.95806103 -8.01813762 26.00551255 -8.03710938 22.05273438 C-8.04004322 19.55729263 -8.04202808 17.06184955 -8.04296875 14.56640625 C-8.05015427 13.37680801 -8.05733978 12.18720978 -8.06474304 10.96156311 C-8.0601281 9.3149192 -8.0601281 9.3149192 -8.05541992 7.63500977 C-8.05684494 6.6653981 -8.05826996 5.69578644 -8.05973816 4.6967926 C-7.52752405 -0.30118503 -4.24104299 0.05229399 0 0 Z " fill="#0D0D0D" transform="translate(481.8125,77.625)"/>
<path d="M0 0 C1.12083984 -0.02900391 2.24167969 -0.05800781 3.39648438 -0.08789062 C11.66093524 -0.15097804 16.80007971 1.0237813 23.375 6.25 C25.28556941 8.77195162 25.65686824 10.15539266 25.9375 13.3125 C26.02386719 13.99699219 26.11023438 14.68148437 26.19921875 15.38671875 C26.55053881 19.98510795 26.15131408 22.68425405 23.1875 26.3125 C20.91723419 28.78915361 19.25212122 29.73604414 15.9375 30.3125 C16.62585938 31.09560547 16.62585938 31.09560547 17.328125 31.89453125 C22.14581858 37.6737393 24.78910207 43.13318028 26.9375 50.3125 C27.16308594 51.05628906 27.38867188 51.80007812 27.62109375 52.56640625 C28.08261912 54.14195837 28.51448022 55.72617582 28.9375 57.3125 C27.9375 58.3125 27.9375 58.3125 25.43359375 58.41015625 C24.42425781 58.39855469 23.41492188 58.38695312 22.375 58.375 C21.36308594 58.36597656 20.35117187 58.35695312 19.30859375 58.34765625 C18.13490234 58.33025391 18.13490234 58.33025391 16.9375 58.3125 C14.25761854 52.53935111 11.99822082 46.76172329 10.0625 40.6953125 C8.70453082 37.81905832 7.73822137 36.81694154 4.9375 35.3125 C1.28475531 34.58768916 1.28475531 34.58768916 -2.0625 34.3125 C-2.05726318 35.00400146 -2.05202637 35.69550293 -2.04663086 36.40795898 C-2.025925 39.52196352 -2.01286037 42.63595361 -2 45.75 C-1.99162109 46.83861328 -1.98324219 47.92722656 -1.97460938 49.04882812 C-1.97138672 50.08330078 -1.96816406 51.11777344 -1.96484375 52.18359375 C-1.95960693 53.14193115 -1.95437012 54.10026855 -1.94897461 55.08764648 C-2.0625 57.3125 -2.0625 57.3125 -3.0625 58.3125 C-4.74858966 58.38455511 -6.43750659 58.39636068 -8.125 58.375 C-9.04410156 58.36597656 -9.96320312 58.35695312 -10.91015625 58.34765625 C-11.62042969 58.33605469 -12.33070313 58.32445312 -13.0625 58.3125 C-13.08562883 50.89790058 -13.10341785 43.48330889 -13.11431217 36.06868076 C-13.11953982 32.62609652 -13.12663531 29.18353688 -13.13793945 25.7409668 C-13.15084235 21.78694957 -13.15572918 17.83294244 -13.16015625 13.87890625 C-13.16531754 12.63726212 -13.17047882 11.39561798 -13.17579651 10.11634827 C-13.17587204 8.97524094 -13.17594757 7.83413361 -13.17602539 6.65844727 C-13.178246 5.648069 -13.18046661 4.63769073 -13.18275452 3.59669495 C-12.88165132 -2.12266104 -4.34869797 0.03662575 0 0 Z " fill="#0B0A0A" transform="translate(712.0625,77.6875)"/>
<path d="M0 0 C2.93359375 -0.43359375 2.93359375 -0.43359375 6.4375 -0.4375 C7.59121094 -0.45683594 8.74492188 -0.47617188 9.93359375 -0.49609375 C13 0 13 0 14.7265625 1.45703125 C16.6060122 5.21016547 17.75718234 9.10503216 18.9375 13.125 C20.69247393 19.02852415 22.64691619 24.73735728 24.98071289 30.43798828 C26.73967257 34.85919136 28.24375239 39.36272175 29.75 43.875 C30.22373047 45.25945312 30.22373047 45.25945312 30.70703125 46.671875 C31.00480469 47.56132813 31.30257812 48.45078125 31.609375 49.3671875 C31.87717773 50.16237793 32.14498047 50.95756836 32.42089844 51.77685547 C33 54 33 54 33 58 C29.04 58 25.08 58 21 58 C18 48.375 18 48.375 18 45 C10.41 45.33 2.82 45.66 -5 46 C-5.99 49.3 -6.98 52.6 -8 56 C-10 58 -10 58 -12.3828125 58.1953125 C-13.74019531 58.16050781 -13.74019531 58.16050781 -15.125 58.125 C-16.03507813 58.10695312 -16.94515625 58.08890625 -17.8828125 58.0703125 C-18.58148437 58.04710937 -19.28015625 58.02390625 -20 58 C-19.42864348 53.02284988 -18.34729549 48.69897959 -16.625 44 C-16.09048689 42.52888509 -15.55669968 41.05750632 -15.0234375 39.5859375 C-14.71374023 38.73612305 -14.40404297 37.88630859 -14.08496094 37.01074219 C-12.7772445 33.3818585 -11.50115173 29.74216935 -10.2265625 26.1015625 C-9.48330521 23.98442027 -8.73961958 21.867429 -7.99578857 19.75048828 C-7.49953985 18.3361855 -7.00445854 16.92147255 -6.51055908 15.50634766 C-5.80787444 13.49500212 -5.09983802 11.48561381 -4.390625 9.4765625 C-3.97844727 8.30174316 -3.56626953 7.12692383 -3.14160156 5.91650391 C-2 3 -2 3 0 0 Z " fill="#0E0E0E" transform="translate(658,78)"/>
<path d="M0 0 C1.88332031 -0.07347656 1.88332031 -0.07347656 3.8046875 -0.1484375 C4.90039062 0.02429688 5.99609375 0.19703125 7.125 0.375 C9.54898206 3.71162365 10.87635488 7.16459599 12.140625 11.06640625 C12.50164307 12.16702393 12.86266113 13.2676416 13.23461914 14.40161133 C13.79910767 16.15187622 13.79910767 16.15187622 14.375 17.9375 C17.71660294 28.20005871 17.71660294 28.20005871 21.26953125 38.390625 C21.59469727 39.29224365 21.91986328 40.1938623 22.25488281 41.12280273 C22.85988747 42.78656553 23.47209787 44.44773245 24.09277344 46.10571289 C25.63244994 50.35821844 26.4686548 53.77587517 26.125 58.375 C22.495 58.375 18.865 58.375 15.125 58.375 C13.805 54.415 12.485 50.455 11.125 46.375 C3.535 46.045 -4.055 45.715 -11.875 45.375 C-12.205 47.685 -12.535 49.995 -12.875 52.375 C-14.4375 55.8125 -14.4375 55.8125 -15.875 58.375 C-19.175 58.375 -22.475 58.375 -25.875 58.375 C-25.28711912 53.18008701 -24.07490987 48.4954892 -22.328125 43.5625 C-22.07504578 42.83111816 -21.82196655 42.09973633 -21.56121826 41.34619141 C-20.75507689 39.0203483 -19.94036357 36.69762415 -19.125 34.375 C-18.32873981 32.0886651 -17.53428507 29.80170915 -16.7401123 27.51464844 C-16.21757783 26.01099409 -15.69390524 24.50773474 -15.16906738 23.00488281 C-12.98358777 16.73532898 -10.89959376 10.4351826 -8.84667969 4.12109375 C-7.11146066 -0.78286195 -4.99601247 0.13281833 0 0 Z " fill="#0E0E0D" transform="translate(770.875,77.625)"/>
<path d="M0 0 C1.8359375 1.34375 1.8359375 1.34375 3 3 C3.39078556 5.72507798 3.13616953 8.23121956 3 11 C0 12 0 12 -1.8046875 11.22265625 C-2.48789062 10.83980469 -3.17109375 10.45695312 -3.875 10.0625 C-9.70135357 7.311697 -15.66640506 7.08934062 -22 8 C-26.73353689 10.43726793 -30.09161331 12.91071062 -32.25 17.875 C-33.78243824 24.44461948 -34.62838501 32.35655663 -31.83203125 38.61328125 C-29.04297169 42.5351722 -26.67948331 44.61498051 -22 46 C-18.64494474 46.24049932 -18.64494474 46.24049932 -15.1875 46.125 C-13.145625 46.08375 -11.10375 46.0425 -9 46 C-9 41.38 -9 36.76 -9 32 C-11.6915625 32.0309375 -11.6915625 32.0309375 -14.4375 32.0625 C-16.29166122 32.0838122 -18.14712498 32.07226502 -20 32 C-21 31 -21 31 -21.125 27.5 C-21 24 -21 24 -20 23 C-16.52791193 22.74901076 -13.0425938 22.81477904 -9.5625 22.8125 C-8.58216797 22.80025391 -7.60183594 22.78800781 -6.59179688 22.77539062 C-5.18704102 22.77249023 -5.18704102 22.77249023 -3.75390625 22.76953125 C-2.89095947 22.76542236 -2.0280127 22.76131348 -1.13891602 22.75708008 C1 23 1 23 3 25 C3.46045489 29.48257952 3.3240002 33.99652035 3.3125 38.5 C3.32861328 39.76199219 3.34472656 41.02398437 3.36132812 42.32421875 C3.36197266 43.52691406 3.36261719 44.72960937 3.36328125 45.96875 C3.36626221 47.07669922 3.36924316 48.18464844 3.37231445 49.32617188 C3.24945068 50.20853516 3.12658691 51.09089844 3 52 C0 54 0 54 -3 54 C-3 54.66 -3 55.32 -3 56 C-3.99 56 -4.98 56 -6 56 C-6.495 56.99 -6.495 56.99 -7 58 C-29.76175131 57.7429371 -29.76175131 57.7429371 -37.8203125 50.32421875 C-42.73945798 44.9654395 -45.55405812 39.30070567 -46 32 C-46.07605469 30.94167969 -46.15210938 29.88335937 -46.23046875 28.79296875 C-46.61061263 19.30992011 -45.29083625 12.94121891 -39.015625 5.71484375 C-28.15286608 -4.89753243 -13.74194778 -5.08263822 0 0 Z " fill="#0F0F0F" transform="translate(578,80)"/>
<path d="M0 0 C0.9075 0.00257812 1.815 0.00515625 2.75 0.0078125 C4.11125 0.00394531 4.11125 0.00394531 5.5 0 C7.75 0.1328125 7.75 0.1328125 8.75 1.1328125 C8.83726223 2.91352496 8.85699041 4.6976439 8.84765625 6.48046875 C8.84443359 7.56005859 8.84121094 8.63964844 8.83789062 9.75195312 C8.82951172 10.88826172 8.82113281 12.02457031 8.8125 13.1953125 C8.80798828 14.33548828 8.80347656 15.47566406 8.79882812 16.65039062 C8.78699747 19.47791601 8.7705141 22.3053389 8.75 25.1328125 C9.41 25.1328125 10.07 25.1328125 10.75 25.1328125 C11.00265625 24.42769531 11.2553125 23.72257812 11.515625 22.99609375 C13.37396131 18.6854592 16.02142051 15.01416699 18.6796875 11.16015625 C19.92790897 9.33492674 21.13515162 7.47925212 22.2578125 5.57421875 C23.62846694 3.37725549 24.71673528 1.74094005 26.75 0.1328125 C30.18627911 -0.50890227 33.30163531 -0.3578639 36.75 0.1328125 C37.98957739 3.62838252 37.98957739 3.62838252 36.93310547 5.8527832 C36.49885254 6.41570068 36.06459961 6.97861816 35.6171875 7.55859375 C35.14023437 8.19087891 34.66328125 8.82316406 34.171875 9.47460938 C33.40617188 10.45010742 33.40617188 10.45010742 32.625 11.4453125 C31.15424589 13.37324546 29.68466763 15.30203841 28.21777344 17.23291016 C27.23405155 18.50625077 26.22629482 19.76135747 25.19628906 20.99755859 C23.55190454 22.9783472 23.55190454 22.9783472 21.75 26.1328125 C22.80135879 29.88750188 24.75469035 32.82924455 26.97265625 36.00390625 C27.59333984 36.90818359 28.21402344 37.81246094 28.85351562 38.74414062 C30.15894769 40.6274509 31.46884712 42.50767246 32.78320312 44.38476562 C33.40259766 45.29033203 34.02199219 46.19589844 34.66015625 47.12890625 C35.22871338 47.94544678 35.79727051 48.7619873 36.38305664 49.60327148 C37.92920273 52.46442877 38.38303331 54.9194455 38.75 58.1328125 C37.00215533 58.26842114 35.25126074 58.36508459 33.5 58.4453125 C32.52546875 58.50332031 31.5509375 58.56132812 30.546875 58.62109375 C27.75 58.1328125 27.75 58.1328125 25.80859375 56.28515625 C22.81318132 51.69825334 19.91299647 47.06103594 17.0625 42.3828125 C15.89310106 40.47063572 14.7225891 38.55913901 13.55078125 36.6484375 C13.03684814 35.80571289 12.52291504 34.96298828 11.9934082 34.09472656 C10.89756334 32.20746511 10.89756334 32.20746511 9.75 31.1328125 C9.42 40.0428125 9.09 48.9528125 8.75 58.1328125 C5.12 58.1328125 1.49 58.1328125 -2.25 58.1328125 C-3.95565618 56.42715632 -3.37752055 54.22547755 -3.37939453 51.89453125 C-3.38254669 50.77667236 -3.38569885 49.65881348 -3.38894653 48.50708008 C-3.3869223 47.29044678 -3.38489807 46.07381348 -3.3828125 44.8203125 C-3.38376923 43.58112061 -3.38472595 42.34192871 -3.38571167 41.06518555 C-3.38639374 38.43892969 -3.38503538 35.81276617 -3.38037109 33.18652344 C-3.37467381 29.81352536 -3.37795302 26.44060685 -3.38394356 23.06761169 C-3.3884177 19.86017573 -3.38528882 16.6527495 -3.3828125 13.4453125 C-3.38483673 12.2286792 -3.38686096 11.0120459 -3.38894653 9.75854492 C-3.38579437 8.64068604 -3.38264221 7.52282715 -3.37939453 6.37109375 C-3.37859894 5.38149658 -3.37780334 4.39189941 -3.37698364 3.37231445 C-3.20506774 0.34038059 -3.03147878 0.17894146 0 0 Z " fill="#0E0E0D" transform="translate(596.25,77.8671875)"/>
<path d="M0 0 C3.3 0 6.6 0 10 0 C10 7.26 10 14.52 10 22 C10.66 22 11.32 22 12 22 C12.21527344 21.34515625 12.43054688 20.6903125 12.65234375 20.015625 C14.48593252 15.91263795 16.98581816 12.41871986 19.5625 8.75 C20.06974609 8.0178125 20.57699219 7.285625 21.09960938 6.53125 C24.82233093 1.17766907 24.82233093 1.17766907 26 0 C27.68608966 -0.07205511 29.37500659 -0.08386068 31.0625 -0.0625 C31.98160156 -0.05347656 32.90070313 -0.04445313 33.84765625 -0.03515625 C34.55792969 -0.02355469 35.26820313 -0.01195312 36 0 C35.49174096 4.68632067 33.55259156 7.32367957 30.6875 11 C29.90761719 12.010625 29.12773437 13.02125 28.32421875 14.0625 C26.82073748 15.96269818 25.2628008 17.82155533 23.64453125 19.625 C21.77250334 21.77591055 21.77250334 21.77591055 22.19750977 23.84790039 C23.18504616 26.49625248 24.55761873 28.50383278 26.1953125 30.80859375 C26.82824219 31.72060547 27.46117187 32.63261719 28.11328125 33.57226562 C29.45517884 35.48349259 30.80416361 37.38976299 32.16015625 39.29101562 C32.79050781 40.20431641 33.42085938 41.11761719 34.0703125 42.05859375 C34.94840576 43.30080688 34.94840576 43.30080688 35.84423828 44.56811523 C37.24677338 47.51924581 36.95572567 48.93436815 36 52 C32.7 52 29.4 52 26 52 C24.9790625 49.834375 24.9790625 49.834375 23.9375 47.625 C21.55976805 42.83556849 18.742389 38.60564378 15.55078125 34.32421875 C13.96994212 31.95495103 12.96063978 29.67370184 12 27 C11.34 27 10.68 27 10 27 C10.00523682 27.72179443 10.01047363 28.44358887 10.01586914 29.18725586 C10.03657358 32.43732849 10.04963918 35.68738728 10.0625 38.9375 C10.07087891 40.07380859 10.07925781 41.21011719 10.08789062 42.38085938 C10.09111328 43.46044922 10.09433594 44.54003906 10.09765625 45.65234375 C10.10289307 46.65257568 10.10812988 47.65280762 10.11352539 48.68334961 C10 51 10 51 9 52 C7.1875 52.1328125 7.1875 52.1328125 5 52.125 C4.278125 52.12757812 3.55625 52.13015625 2.8125 52.1328125 C1 52 1 52 0 51 C-0.09333705 49.40389018 -0.11745372 47.80366572 -0.11352539 46.20483398 C-0.11344986 45.18385117 -0.11337433 44.16286835 -0.11329651 43.11094666 C-0.10813522 42.0005452 -0.10297394 40.89014374 -0.09765625 39.74609375 C-0.0962413 38.61551041 -0.09482635 37.48492706 -0.09336853 36.32008362 C-0.08775019 32.69252935 -0.07519458 29.06503576 -0.0625 25.4375 C-0.05748736 22.98502693 -0.05292405 20.5325529 -0.04882812 18.08007812 C-0.0377748 12.05336187 -0.02049788 6.02669124 0 0 Z " fill="#0F0F0E" transform="translate(439,1002)"/>
<path d="M0 0 C5.15193577 -0.31671736 8.50392139 -0.28937183 12.546875 3.13671875 C15.84665846 6.40492533 16.62559649 8.6240236 16.796875 13.26171875 C16.53911669 26.51049589 7.10469127 34.31578684 -1.578125 43.26171875 C5.021875 43.59171875 11.621875 43.92171875 18.421875 44.26171875 C18.421875 47.23171875 18.421875 50.20171875 18.421875 53.26171875 C7.531875 53.26171875 -3.358125 53.26171875 -14.578125 53.26171875 C-16.15136775 50.11523326 -15.9270988 47.73691618 -15.578125 44.26171875 C-13.95435505 42.02903507 -12.5381941 40.38431051 -10.578125 38.51171875 C-9.56768073 37.47386759 -8.56122062 36.43212394 -7.55859375 35.38671875 C-6.80521729 34.60748047 -6.80521729 34.60748047 -6.03662109 33.8125 C1.16670797 26.31157911 1.16670797 26.31157911 4.046875 16.69921875 C3.7493025 13.20967293 3.7493025 13.20967293 1.421875 11.26171875 C-3.79034312 10.63440754 -8.87482069 10.75328978 -13.578125 13.26171875 C-14.578125 12.26171875 -14.578125 12.26171875 -15.015625 8.94921875 C-14.578125 5.26171875 -14.578125 5.26171875 -11.953125 2.88671875 C-7.79398084 0.88416786 -4.53749626 0.46062462 0 0 Z " fill="#100F0F" transform="translate(573.578125,1000.73828125)"/>
<path d="M0 0 C1.81242052 -0.02687279 3.62495233 -0.04633715 5.4375 -0.0625 C6.44683594 -0.07410156 7.45617187 -0.08570312 8.49609375 -0.09765625 C11 0 11 0 12 1 C12.09304018 2.47354348 12.11746265 3.95150591 12.11352539 5.42797852 C12.11344986 6.36887833 12.11337433 7.30977814 12.11329651 8.27919006 C12.10813522 9.30209641 12.10297394 10.32500275 12.09765625 11.37890625 C12.0962413 12.42070541 12.09482635 13.46250458 12.09336853 14.53587341 C12.0877508 17.87811094 12.0751953 21.22028257 12.0625 24.5625 C12.05748728 26.82226466 12.05292398 29.08203037 12.04882812 31.34179688 C12.03777561 36.89455682 12.0204991 42.44726722 12 48 C18.27 48 24.54 48 31 48 C31 51.3 31 54.6 31 58 C26.90661348 58.04939115 22.81334202 58.08571501 18.71972656 58.10986328 C17.32679219 58.11992877 15.93387898 58.13358234 14.54101562 58.15087891 C12.5404564 58.1751022 10.53974385 58.18540814 8.5390625 58.1953125 C7.33459473 58.20578613 6.13012695 58.21625977 4.88916016 58.22705078 C2 58 2 58 0 56 C-0.24050903 53.6335144 -0.24050903 53.6335144 -0.22705078 50.63232422 C-0.22689972 49.51131317 -0.22674866 48.39030212 -0.22659302 47.23532104 C-0.21627045 46.02071198 -0.20594788 44.80610291 -0.1953125 43.5546875 C-0.1924826 42.31453888 -0.18965271 41.07439026 -0.18673706 39.79666138 C-0.17742174 36.49875367 -0.1594489 33.20104028 -0.1373291 29.90319824 C-0.11687474 26.5383543 -0.10773623 23.17348193 -0.09765625 19.80859375 C-0.07556519 13.20565277 -0.04206483 6.60284229 0 0 Z " fill="#0E0E0E" transform="translate(411,78)"/>
<path d="M0 0 C0.94594025 0.00707474 1.89188049 0.01414948 2.8664856 0.0214386 C5.87274962 0.04931435 8.87711631 0.11204009 11.8828125 0.17578125 C13.92705634 0.20087293 15.97132952 0.22368458 18.015625 0.24414062 C23.01374623 0.29911877 28.01045825 0.38534424 33.0078125 0.48828125 C33.05035606 2.48782871 33.04862033 4.48869761 33.0078125 6.48828125 C32.0078125 7.48828125 32.0078125 7.48828125 29.28515625 7.5859375 C27.63193359 7.56853516 27.63193359 7.56853516 25.9453125 7.55078125 C24.28822266 7.53724609 24.28822266 7.53724609 22.59765625 7.5234375 C21.74300781 7.51183594 20.88835938 7.50023437 20.0078125 7.48828125 C19.94946855 11.36321741 19.91410049 15.23803961 19.8828125 19.11328125 C19.86605469 20.20769531 19.84929688 21.30210938 19.83203125 22.4296875 C19.7824835 30.14312398 19.7824835 30.14312398 22.0078125 37.48828125 C24.92415379 37.73849695 24.92415379 37.73849695 28.0078125 37.48828125 C28.6678125 36.49828125 29.3278125 35.50828125 30.0078125 34.48828125 C30.6678125 34.48828125 31.3278125 34.48828125 32.0078125 34.48828125 C31.44234576 38.44654844 30.37234918 41.24799025 28.0078125 44.48828125 C24.81266019 46.80201223 21.87523532 47.05228041 18.0078125 46.48828125 C13.89878481 42.49030836 13.09658602 39.41858922 12.83984375 33.8359375 C12.82513426 32.40761299 12.8190438 30.97918094 12.8203125 29.55078125 C12.81966797 28.8038501 12.81902344 28.05691895 12.81835938 27.28735352 C12.88187936 20.51309138 13.78031007 14.16282573 15.0078125 7.48828125 C10.3878125 7.48828125 5.7678125 7.48828125 1.0078125 7.48828125 C1.03488281 8.74382812 1.06195312 9.999375 1.08984375 11.29296875 C1.08660813 16.80430313 0.44505522 22.15992876 -0.3046875 27.61328125 C-0.42263672 28.56332031 -0.54058594 29.51335937 -0.66210938 30.4921875 C-1.40162184 35.96078734 -2.36338319 40.60715968 -4.9921875 45.48828125 C-7.5546875 46.55078125 -7.5546875 46.55078125 -9.9921875 46.48828125 C-10.6521875 45.82828125 -11.3121875 45.16828125 -11.9921875 44.48828125 C-11.88787844 40.31591883 -10.44195371 37.24263934 -8.5546875 33.61328125 C-4.14511572 25.06099939 -3.54595116 17.04799082 -2.9921875 7.48828125 C-9.96103156 8.23090336 -9.96103156 8.23090336 -15.4921875 12.11328125 C-16.2346875 13.28890625 -16.2346875 13.28890625 -16.9921875 14.48828125 C-17.6521875 14.48828125 -18.3121875 14.48828125 -18.9921875 14.48828125 C-18.64380135 13.0855686 -18.26185272 11.69118229 -17.8671875 10.30078125 C-17.65835938 9.52347656 -17.44953125 8.74617188 -17.234375 7.9453125 C-13.34533978 0.25284976 -7.82598477 -0.22203127 0 0 Z " fill="#131313" transform="translate(577.9921875,1114.51171875)"/>
<path d="M0 0 C1.28785652 0.00212242 1.28785652 0.00212242 2.60173035 0.00428772 C5.33217924 0.00986568 8.06254482 0.02241411 10.79296875 0.03515625 C12.64908735 0.0401741 14.50520725 0.04473651 16.36132812 0.04882812 C20.90107355 0.05982789 25.44075705 0.07707732 29.98046875 0.09765625 C29.98046875 2.40765625 29.98046875 4.71765625 29.98046875 7.09765625 C26.02046875 7.09765625 22.06046875 7.09765625 17.98046875 7.09765625 C17.93107213 11.04862603 17.8947512 14.99947655 17.87060547 18.95068359 C17.85558768 20.95676985 17.83017894 22.96276949 17.8046875 24.96875 C17.79824219 26.22558594 17.79179688 27.48242188 17.78515625 28.77734375 C17.77468262 29.93991699 17.76420898 31.10249023 17.75341797 32.30029297 C17.68784878 35.23675904 17.68784878 35.23675904 19.98046875 37.09765625 C23.17198384 37.51759245 24.5653795 37.36690333 27.29296875 35.59765625 C27.84984375 35.10265625 28.40671875 34.60765625 28.98046875 34.09765625 C28.74583496 38.16464197 28.60160784 40.42327667 25.79296875 43.47265625 C22.60755488 45.3131176 20.67535352 46.17463302 16.98046875 46.09765625 C14.16796875 43.72265625 14.16796875 43.72265625 11.98046875 41.09765625 C11.65046875 40.76765625 11.32046875 40.43765625 10.98046875 40.09765625 C10.88078403 38.42295288 10.84966303 36.7440726 10.84765625 35.06640625 C10.84572266 33.50792969 10.84572266 33.50792969 10.84375 31.91796875 C10.84761719 30.82226562 10.85148438 29.7265625 10.85546875 28.59765625 C10.85160156 27.53289062 10.84773437 26.468125 10.84375 25.37109375 C10.85133582 19.19623678 11.17021429 13.21957882 11.98046875 7.09765625 C7.69046875 7.09765625 3.40046875 7.09765625 -1.01953125 7.09765625 C-0.98214844 8.15597656 -0.94476562 9.21429687 -0.90625 10.3046875 C-0.91015393 16.21393877 -1.8964013 21.96383684 -2.83203125 27.78515625 C-2.99767578 28.89955078 -3.16332031 30.01394531 -3.33398438 31.16210938 C-3.50478516 32.23783203 -3.67558594 33.31355469 -3.8515625 34.421875 C-4.07936401 35.87726685 -4.07936401 35.87726685 -4.31176758 37.36206055 C-5.0987936 40.40401522 -6.16818672 42.56341306 -8.01953125 45.09765625 C-10.58203125 45.53515625 -10.58203125 45.53515625 -13.01953125 45.09765625 C-13.67953125 44.43765625 -14.33953125 43.77765625 -15.01953125 43.09765625 C-14.67018961 39.4203758 -13.44958595 36.74534488 -11.58203125 33.59765625 C-7.90170951 27.35758835 -6.68307166 22.45658765 -6.39453125 15.28515625 C-6.35585938 14.49689453 -6.3171875 13.70863281 -6.27734375 12.89648438 C-6.18364281 10.96390245 -6.10052346 9.03081249 -6.01953125 7.09765625 C-11.27687829 7.28916165 -11.27687829 7.28916165 -15.7890625 9.5078125 C-16.13324219 10.05308594 -16.47742188 10.59835937 -16.83203125 11.16015625 C-17.91484375 12.61421875 -17.91484375 12.61421875 -19.01953125 14.09765625 C-20.00953125 14.09765625 -20.99953125 14.09765625 -22.01953125 14.09765625 C-21.48713517 9.57228959 -19.74829852 6.70925998 -17.01953125 3.09765625 C-11.66838135 -0.46977702 -6.22169811 -0.03881674 0 0 Z " fill="#151515" transform="translate(695.01953125,1008.90234375)"/>
<path d="M0 0 C3.50761015 -0.62388323 6.52443466 -0.87923528 10 0 C12.70699778 3.01364987 14.37748923 6.30647954 16 10 C18.21116694 7.94089039 19.7388771 5.95998323 21.1875 3.3125 C21.785625 2.219375 22.38375 1.12625 23 0 C25.97 0 28.94 0 32 0 C31.26979774 5.17694681 28.88897469 8.79504791 26.1796875 13.18359375 C24.69447244 16.72942176 24.91722921 18.33164723 26 22 C27.72811048 25.45216436 29.6560264 28.74066183 31.6015625 32.07421875 C33 35 33 35 32 38 C28.74890324 38.79618696 26.21236693 39.03690325 23 38 C20.02069213 34.30824895 17.98705646 30.29357537 16 26 C13.66847004 28.8360417 11.51805157 31.59212035 9.75 34.8125 C9.1725 35.864375 8.595 36.91625 8 38 C5.03 38 2.06 38 -1 38 C-0.37857225 32.62108439 2.49235222 28.59682214 5.38085938 24.171875 C7.63723575 20.53983197 7.63723575 20.53983197 7.43359375 16.4140625 C6.96050781 15.61742187 6.48742187 14.82078125 6 14 C5.50242187 13.07960938 5.00484375 12.15921875 4.4921875 11.2109375 C3.41054278 9.31414024 2.32719764 7.41831167 1.2421875 5.5234375 C0 3 0 3 0 0 Z " fill="#0E0E0E" transform="translate(739,1122)"/>
<path d="M0 0 C2.97 0 5.94 0 9 0 C8.28057305 5.58069764 5.37261904 9.49903775 2.3984375 14.16015625 C0.84908682 16.76163735 0.84908682 16.76163735 1.03125 18.93359375 C2.81904932 22.74708505 5.06233629 26.3011597 7.29296875 29.8671875 C10.10782435 34.56870259 10.10782435 34.56870259 9 39 C6.03 39 3.06 39 0 39 C-2.31 34.71 -4.62 30.42 -7 26 C-10.44564908 30.28350552 -10.44564908 30.28350552 -13.25 34.8125 C-13.8275 35.864375 -14.405 36.91625 -15 38 C-17.97 38 -20.94 38 -24 38 C-23.2560133 32.30318755 -20.27705404 28.02600446 -17.3984375 23.15625 C-15.83992916 19.6387228 -15.69155993 18.54581595 -17 15 C-17.96327794 13.09479101 -18.98774229 11.21961962 -20.0625 9.375 C-23 4.32941176 -23 4.32941176 -23 1 C-19.49238985 0.37611677 -16.47556534 0.12076472 -13 1 C-10.29300222 4.01364987 -8.62251077 7.30647954 -7 11 C-5.07010324 8.50053485 -3.35035822 6.00753888 -1.8125 3.25 C-1.214375 2.1775 -0.61625 1.105 0 0 Z " fill="#0D0D0D" transform="translate(775,1015)"/>
<path d="M0 0 C3.4487068 -0.4821493 6.57162717 -0.69196516 10 0 C13.48105917 3.27812747 14.99632541 7.40586065 16 12 C16.66 12 17.32 12 18 12 C18.2475 11.13375 18.495 10.2675 18.75 9.375 C20.15177136 5.59021732 21.23813466 2.97431652 24 0 C27.06152757 -0.50761079 29.92670687 -0.35461075 33 0 C31.55959835 5.32948611 28.95580836 9.71323848 26.14453125 14.4140625 C24.84488149 16.82383794 24.84488149 16.82383794 25.1015625 18.9296875 C26.90847554 23.09344364 29.25915415 26.96777147 31.50390625 30.90625 C33 34 33 34 33 38 C29.84198749 38.56844225 27.13572947 38.76095064 24 38 C20.31575286 34.38397966 18.01929393 30.05013811 17 25 C14.27324841 27.40689803 12.88033404 29.92471023 11.3125 33.1875 C10.87550781 34.08855469 10.43851563 34.98960938 9.98828125 35.91796875 C9.66214844 36.60503906 9.33601562 37.29210938 9 38 C5.7 38 2.4 38 -1 38 C0.67100115 32.30841741 3.45171388 27.86176015 6.63671875 22.90234375 C8.19148209 20.15869999 8.19148209 20.15869999 7.9296875 17.51171875 C6.76845747 14.37444602 5.20045442 11.71709622 3.4375 8.875 C0 3.32796781 0 3.32796781 0 0 Z " fill="#0F0E0E" transform="translate(636,1122)"/>
<path d="M0 0 C3.63 0 7.26 0 11 0 C16 8.75 16 8.75 16 11 C18.40575607 8.81482901 19.79535581 6.74080329 21.1875 3.8125 C21.785625 2.554375 22.38375 1.29625 23 0 C26.3 0 29.6 0 33 0 C31.23007796 4.76583886 28.75246523 8.93265752 26.14453125 13.28125 C24.76059146 16.56869741 24.80338328 17.66549482 26 21 C27.67749024 24.06959833 29.44750811 27.03512174 31.29296875 30.00390625 C32.26748176 31.62809461 33.14133206 33.31170121 34 35 C33.67 35.99 33.34 36.98 33 38 C29.87416455 38.49032713 27.10489119 38.68766047 24 38 C21.6511791 35.6511791 20.36421898 33.00237752 19 30 C17.69581962 26.85196051 17.69581962 26.85196051 15 25 C14.773125 25.66 14.54625 26.32 14.3125 27 C10.70848502 35.23774853 10.70848502 35.23774853 8 38 C5.0484067 38.71736312 3.07290319 38.41666484 0 38 C0.63729931 31.8819266 3.27656332 28.04663908 6.6015625 23 C8.31467422 19.3249447 8.18935816 17.84177614 7 14 C5.40150559 10.81837522 5.40150559 10.81837522 3.4375 7.75 C0 2.18913481 0 2.18913481 0 0 Z " fill="#0F0F0F" transform="translate(616,1016)"/>
<path d="M0 0 C3.96 0 7.92 0 12 0 C12 19.14 12 38.28 12 58 C8.04 58 4.08 58 0 58 C0 38.86 0 19.72 0 0 Z " fill="#131312" transform="translate(450,78)"/>
<path d="M0 0 C3.3 0 6.6 0 10 0 C10 14.52 10 29.04 10 44 C17.26 44 24.52 44 32 44 C32 46.31 32 48.62 32 51 C30.11680732 52.88319268 26.88069863 52.13054285 24.375 52.1328125 C23.71290527 52.13376923 23.05081055 52.13472595 22.36865234 52.13571167 C20.96647039 52.13639326 19.5642853 52.13454042 18.16210938 52.13037109 C16.00904287 52.12502246 13.85618498 52.1303167 11.703125 52.13671875 C10.34374954 52.13605796 8.9843742 52.13477679 7.625 52.1328125 C6.37976563 52.13168457 5.13453125 52.13055664 3.8515625 52.12939453 C1 52 1 52 0 51 C-0.09333705 49.40389018 -0.11745372 47.80366572 -0.11352539 46.20483398 C-0.11344986 45.18385117 -0.11337433 44.16286835 -0.11329651 43.11094666 C-0.10813522 42.0005452 -0.10297394 40.89014374 -0.09765625 39.74609375 C-0.0962413 38.61551041 -0.09482635 37.48492706 -0.09336853 36.32008362 C-0.08775019 32.69252935 -0.07519458 29.06503576 -0.0625 25.4375 C-0.05748736 22.98502693 -0.05292405 20.5325529 -0.04882812 18.08007812 C-0.0377748 12.05336187 -0.02049788 6.02669124 0 0 Z " fill="#161515" transform="translate(443,1108)"/>
<path d="M0 0 C2.05078125 0.03255208 4.1015625 0.06510417 6.15234375 0.09765625 C6.81234375 1.74765625 7.47234375 3.39765625 8.15234375 5.09765625 C8.79171875 4.27265625 9.43109375 3.44765625 10.08984375 2.59765625 C14.35566396 -0.88464597 16.76455766 -0.30441734 22.15234375 0.09765625 C22.15234375 3.72765625 22.15234375 7.35765625 22.15234375 11.09765625 C20.23177083 10.93489583 18.31119792 10.77213542 16.390625 10.609375 C13.73370615 11.18898208 12.01244182 12.15599522 10.1628418 14.1652832 C7.78438682 18.71359707 8.40775216 24.33946651 8.40234375 29.34765625 C8.36935509 31.7279152 8.33308363 34.10813173 8.29296875 36.48828125 C8.28813477 37.54047852 8.28330078 38.59267578 8.27832031 39.67675781 C8.15234375 42.09765625 8.15234375 42.09765625 7.15234375 43.09765625 C5.65496251 43.19556195 4.15291483 43.22740489 2.65234375 43.22265625 C1.83765625 43.22523438 1.02296875 43.2278125 0.18359375 43.23046875 C-1.84765625 43.09765625 -1.84765625 43.09765625 -2.84765625 42.09765625 C-2.94879325 39.07957562 -2.98734534 36.08485112 -2.98046875 33.06640625 C-2.98142548 32.16015503 -2.9823822 31.25390381 -2.98336792 30.32019043 C-2.98404978 28.40014578 -2.98219507 26.48009884 -2.97802734 24.56005859 C-2.97267917 21.61029921 -2.97797213 18.66069211 -2.984375 15.7109375 C-2.98371422 13.85026008 -2.98243306 11.98958275 -2.98046875 10.12890625 C-2.98249298 9.24037964 -2.98451721 8.35185303 -2.98660278 7.43640137 C-2.95853368 0.1563707 -2.95853368 0.1563707 0 0 Z " fill="#110E00" transform="translate(793.84765625,501.90234375)"/>
<path d="M0 0 C3.25 0.375 3.25 0.375 4.25 1.375 C4.32179964 2.89428038 4.33392007 4.41667482 4.3125 5.9375 C4.30347656 6.76378906 4.29445313 7.59007812 4.28515625 8.44140625 C4.27355469 9.07949219 4.26195312 9.71757813 4.25 10.375 C3.198125 10.271875 2.14625 10.16875 1.0625 10.0625 C-2.74845769 10.07077304 -2.74845769 10.07077304 -5.4375 12.125 C-8.94186987 17.05006036 -8.53143692 21.78206333 -8.5625 27.6875 C-8.58763672 28.80962891 -8.61277344 29.93175781 -8.63867188 31.08789062 C-8.6974532 33.85061286 -8.7337998 36.61175392 -8.75 39.375 C-10.22906892 39.40189216 -11.70827483 39.42134621 -13.1875 39.4375 C-14.01121094 39.44910156 -14.83492187 39.46070313 -15.68359375 39.47265625 C-17.75 39.375 -17.75 39.375 -18.75 38.375 C-18.83858646 35.63605915 -18.86523479 32.9224673 -18.84765625 30.18359375 C-18.8462413 29.36375504 -18.84482635 28.54391632 -18.84336853 27.69923401 C-18.83775289 25.07028618 -18.82519779 22.44142227 -18.8125 19.8125 C-18.80748701 18.03450643 -18.80292376 16.25651154 -18.79882812 14.47851562 C-18.78777839 10.11064455 -18.77050331 5.74283652 -18.75 1.375 C-15.78 1.375 -12.81 1.375 -9.75 1.375 C-9.42 2.695 -9.09 4.015 -8.75 5.375 C-8.069375 4.55 -7.38875 3.725 -6.6875 2.875 C-3.75 0.375 -3.75 0.375 0 0 Z " fill="#131313" transform="translate(712.75,1120.625)"/>
<path d="M0 0 C2.01822917 0.06510417 4.03645833 0.13020833 6.0546875 0.1953125 C6.0546875 3.4953125 6.0546875 6.7953125 6.0546875 10.1953125 C4.9821875 10.1128125 3.9096875 10.0303125 2.8046875 9.9453125 C-0.90464514 9.84767431 -0.90464514 9.84767431 -3.14379883 11.8605957 C-5.34810003 14.71731509 -5.46621723 16.22461822 -5.51953125 19.80078125 C-5.54724609 20.86619141 -5.57496094 21.93160156 -5.60351562 23.02929688 C-5.61318359 24.13595703 -5.62285156 25.24261719 -5.6328125 26.3828125 C-5.67469295 28.58470875 -5.72006899 30.78654227 -5.76953125 32.98828125 C-5.78072998 33.9630542 -5.79192871 34.93782715 -5.8034668 35.94213867 C-5.9453125 38.1953125 -5.9453125 38.1953125 -6.9453125 39.1953125 C-9.9153125 39.1953125 -12.8853125 39.1953125 -15.9453125 39.1953125 C-15.9453125 26.6553125 -15.9453125 14.1153125 -15.9453125 1.1953125 C-13.3053125 1.1953125 -10.6653125 1.1953125 -7.9453125 1.1953125 C-7.9453125 2.8453125 -7.9453125 4.4953125 -7.9453125 6.1953125 C-7.2853125 6.1953125 -6.6253125 6.1953125 -5.9453125 6.1953125 C-5.5121875 5.2671875 -5.5121875 5.2671875 -5.0703125 4.3203125 C-2.93932448 0.2951129 -2.93932448 0.2951129 0 0 Z " fill="#111111" transform="translate(812.9453125,1120.8046875)"/>
<path d="M0 0 C1 1 1 1 1.09765625 2.84765625 C1.06510417 4.8984375 1.03255208 6.94921875 1 9 C0.37351562 9.10957031 -0.25296875 9.21914062 -0.8984375 9.33203125 C-1.71570313 9.49058594 -2.53296875 9.64914062 -3.375 9.8125 C-4.59316406 10.03873047 -4.59316406 10.03873047 -5.8359375 10.26953125 C-8.35820641 10.87544942 -8.35820641 10.87544942 -10 14 C-10.36749389 16.61289494 -10.36749389 16.61289494 -10.4140625 19.54296875 C-10.47207031 21.15268555 -10.47207031 21.15268555 -10.53125 22.79492188 C-10.57765625 24.47424805 -10.57765625 24.47424805 -10.625 26.1875 C-10.68300781 27.88422852 -10.68300781 27.88422852 -10.7421875 29.61523438 C-10.83652533 32.4099925 -10.92211652 35.20474278 -11 38 C-13.98212913 39.49106457 -16.71609658 39.11941467 -20 39 C-21 38 -21 38 -21.11352539 34.48999023 C-21.11336626 32.92951578 -21.10767142 31.36903607 -21.09765625 29.80859375 C-21.0962413 28.98875504 -21.09482635 28.16891632 -21.09336853 27.32423401 C-21.08775289 24.69528618 -21.07519779 22.06642227 -21.0625 19.4375 C-21.05748701 17.65950643 -21.05292376 15.88151154 -21.04882812 14.10351562 C-21.03777839 9.73564455 -21.02050331 5.36783652 -21 1 C-18.36 1 -15.72 1 -13 1 C-13 2.32 -13 3.64 -13 5 C-12.34 5 -11.68 5 -11 5 C-10.71125 4.360625 -10.4225 3.72125 -10.125 3.0625 C-7.85824154 -1.09322384 -4.30225558 -0.15644566 0 0 Z " fill="#101010" transform="translate(831,1015)"/>
<path d="M0 0 C0.33 0 0.66 0 1 0 C1 4.95 1 9.9 1 15 C-116.48 15 -233.96 15 -355 15 C-355.33 13.35 -355.66 11.7 -356 10 C-354.68 10.33 -353.36 10.66 -352 11 C-352 11.66 -352 12.32 -352 13 C-236.83 13.33 -121.66 13.66 -3 14 C-1.47625318 10.19063294 -0.72113533 8.05267785 -0.375 4.1875 C-0.30023437 3.39730469 -0.22546875 2.60710938 -0.1484375 1.79296875 C-0.09945313 1.20128906 -0.05046875 0.60960937 0 0 Z " fill="#EDCC11" transform="translate(996,553)"/>
<path d="M0 0 C4.53897705 -0.02465392 9.07791543 -0.04283789 13.61694336 -0.05493164 C15.16219766 -0.0599714 16.70744716 -0.0668032 18.25268555 -0.07543945 C20.46925029 -0.08752076 22.68575218 -0.09323173 24.90234375 -0.09765625 C25.5971434 -0.10281754 26.29194305 -0.10797882 27.00779724 -0.11329651 C28.6722933 -0.11349277 30.33665499 -0.06189129 32 0 C33 1 33 1 33.125 4 C33 7 33 7 32 8 C29.72052208 8.1002093 27.43792865 8.13081303 25.15625 8.1328125 C24.47195923 8.13376923 23.78766846 8.13472595 23.0826416 8.13571167 C21.63338123 8.1363933 20.18411782 8.13454023 18.73486328 8.13037109 C16.50937072 8.12502252 14.28407999 8.1303166 12.05859375 8.13671875 C10.65364539 8.13605797 9.24869715 8.1347768 7.84375 8.1328125 C6.55662109 8.13168457 5.26949219 8.13055664 3.94335938 8.12939453 C1 8 1 8 0 7 C-0.04092937 4.66702567 -0.04241723 2.33294775 0 0 Z " fill="#161616" transform="translate(500,1035)"/>
<path d="M0 0 C10.56 0 21.12 0 32 0 C32 2.64 32 5.28 32 8 C21.44 8 10.88 8 0 8 C0 5.36 0 2.72 0 0 Z " fill="#1B1B1A" transform="translate(501,1141)"/>
<path d="M0 0 C10.56 0 21.12 0 32 0 C32 2.31 32 4.62 32 7 C30.11680732 8.88319268 26.88069863 8.13054285 24.375 8.1328125 C23.71290527 8.13376923 23.05081055 8.13472595 22.36865234 8.13571167 C20.96647039 8.13639326 19.5642853 8.13454042 18.16210938 8.13037109 C16.00904287 8.12502246 13.85618498 8.1303167 11.703125 8.13671875 C10.34374954 8.13605796 8.9843742 8.13477679 7.625 8.1328125 C6.37976563 8.13168457 5.13453125 8.13055664 3.8515625 8.12939453 C1 8 1 8 0 7 C0 4.69 0 2.38 0 0 Z " fill="#141414" transform="translate(500,1019)"/>
<path d="M0 0 C0.66209473 -0.00095673 1.32418945 -0.00191345 2.00634766 -0.00289917 C3.40852961 -0.00358076 4.8107147 -0.00172792 6.21289062 0.00244141 C8.36595713 0.00779004 10.51881502 0.0024958 12.671875 -0.00390625 C14.03125046 -0.00324546 15.3906258 -0.00196429 16.75 0 C18.61785156 0.00169189 18.61785156 0.00169189 20.5234375 0.00341797 C23.375 0.1328125 23.375 0.1328125 24.375 1.1328125 C24.5 4.1328125 24.5 4.1328125 24.375 7.1328125 C23.375 8.1328125 23.375 8.1328125 20.41577148 8.24633789 C19.12227783 8.24110107 17.82878418 8.23586426 16.49609375 8.23046875 C15.46610008 8.22834633 15.46610008 8.22834633 14.41529846 8.22618103 C12.21432199 8.22056729 10.01344591 8.20801257 7.8125 8.1953125 C6.32356917 8.19029926 4.83463676 8.18573605 3.34570312 8.18164062 C-0.31123075 8.17059343 -3.96810558 8.15331963 -7.625 8.1328125 C-7.66741723 5.79986475 -7.66592937 3.46578683 -7.625 1.1328125 C-5.74180732 -0.75038018 -2.50569863 0.00226965 0 0 Z " fill="#161716" transform="translate(508.625,1124.8671875)"/>
<path d="M0 0 C11.35326135 -0.49362006 11.35326135 -0.49362006 14.359375 1.80078125 C16.75236615 5.00852891 16.54798575 7.09560156 16 11 C14.75 13.9375 14.75 13.9375 12 16 C7.90654111 16.42458749 4.13599589 16.22478239 0 16 C0 10.72 0 5.44 0 0 Z " fill="#EDEDED" transform="translate(710,87)"/>
<path d="M0 0 C3.6437221 2.73811866 4.41353245 6.76092824 5.625 10.9375 C5.8415625 11.65357422 6.058125 12.36964844 6.28125 13.10742188 C7.26685859 16.38974183 8.16868641 19.67474562 9 23 C3.72 23 -1.56 23 -7 23 C-6.48334032 17.14016367 -5.24718923 12.39106117 -2.9375 7 C-2.65583984 6.32066406 -2.37417969 5.64132813 -2.08398438 4.94140625 C-1.39808689 3.29060213 -0.70030171 1.64474531 0 0 Z " fill="#E4E4E4" transform="translate(770,91)"/>
<path d="M0 0 C0.8146875 0.00257812 1.629375 0.00515625 2.46875 0.0078125 C3.2834375 0.00523438 4.098125 0.00265625 4.9375 0 C6.96875 0.1328125 6.96875 0.1328125 7.96875 1.1328125 C8.0623419 2.85146659 8.08619611 4.57396994 8.08227539 6.29516602 C8.08219986 7.39623184 8.08212433 8.49729767 8.08204651 9.63172913 C8.07688522 10.8296257 8.07172394 12.02752228 8.06640625 13.26171875 C8.0649913 14.48108627 8.06357635 15.7004538 8.06211853 16.95677185 C8.05649967 20.8696432 8.04394396 24.78245831 8.03125 28.6953125 C8.02623743 31.34049397 8.0216741 33.98567633 8.01757812 36.63085938 C8.00652411 43.13152976 7.98976764 49.63216711 7.96875 56.1328125 C6.97875 55.8028125 5.98875 55.4728125 4.96875 55.1328125 C4.96875 37.9728125 4.96875 20.8128125 4.96875 3.1328125 C3.31875 3.1328125 1.66875 3.1328125 -0.03125 3.1328125 C-1.61355808 6.29742865 -1.27282813 9.72360617 -1.34765625 13.203125 C-1.36843735 13.99935272 -1.38921844 14.79558044 -1.41062927 15.61593628 C-1.47609149 18.16313935 -1.53499415 20.71044675 -1.59375 23.2578125 C-1.6369384 24.98308377 -1.68055279 26.70834443 -1.72460938 28.43359375 C-1.83176945 32.66655935 -1.93304623 36.89963003 -2.03125 41.1328125 C-2.69125 41.1328125 -3.35125 41.1328125 -4.03125 41.1328125 C-3.91332014 35.45435718 -3.78909597 29.77608855 -3.65893555 24.09790039 C-3.61551959 22.16467065 -3.57384958 20.23140091 -3.53393555 18.2980957 C-3.47639369 15.52543048 -3.4126538 12.75296793 -3.34765625 9.98046875 C-3.33094376 9.11067886 -3.31423126 8.24088898 -3.29701233 7.34474182 C-3.11914911 0.20394436 -3.11914911 0.20394436 0 0 Z " fill="#2D2D2D" transform="translate(514.03125,77.8671875)"/>
<path d="M0 0 C2.14265515 3.21398272 3.26579078 6.17784342 4.5625 9.8125 C4.99691406 11.01519531 5.43132813 12.21789062 5.87890625 13.45703125 C7 17 7 17 8 23 C3.05 23 -1.9 23 -7 23 C-6.60628218 16.43803628 -4.82833224 4.82833224 0 0 Z " fill="#E9E9E9" transform="translate(664,90)"/>
<path d="M0 0 C0.33 0 0.66 0 1 0 C1.33 2.31 1.66 4.62 2 7 C2.66 7 3.32 7 4 7 C4 4.69 4 2.38 4 0 C4.33 0 4.66 0 5 0 C5.24911532 7.05254049 4.30538582 13.73221766 3.1875 20.6875 C3.02185547 21.80189453 2.85621094 22.91628906 2.68554688 24.06445312 C2.51474609 25.14017578 2.34394531 26.21589844 2.16796875 27.32421875 C2.01610107 28.29447998 1.8642334 29.26474121 1.70776367 30.2644043 C0.92073765 33.30635897 -0.14865547 35.46575681 -2 38 C-4.5625 38.4375 -4.5625 38.4375 -7 38 C-7.66 37.34 -8.32 36.68 -9 36 C-8.65065836 32.32271955 -7.4300547 29.64768863 -5.5625 26.5 C-1.88217826 20.2599321 -0.66354041 15.3589314 -0.375 8.1875 C-0.33632813 7.39923828 -0.29765625 6.61097656 -0.2578125 5.79882812 C-0.16411156 3.8662462 -0.08099221 1.93315624 0 0 Z " fill="#242323" transform="translate(689,1016)"/>
<path d="M0 0 C0.66 0 1.32 0 2 0 C2.36047431 7.08932806 2.36047431 7.08932806 0.8125 11 C-1 13 -1 13 -3.5625 13.4375 C-6 13 -6 13 -8 11 C-7.9375 8.5 -7.9375 8.5 -7 6 C-5.35448038 5.28272222 -3.68577711 4.61674772 -2 4 C-0.65589738 1.98264795 -0.65589738 1.98264795 0 0 Z " fill="#131212" transform="translate(688,1041)"/>
<path d="M0 0 C0.66 0.33 1.32 0.66 2 1 C0.60974609 2.37285156 0.60974609 2.37285156 -0.80859375 3.7734375 C-2.01836039 4.9738261 -3.22798865 6.17435417 -4.4375 7.375 C-5.04916016 7.97828125 -5.66082031 8.5815625 -6.29101562 9.203125 C-6.87431641 9.78320312 -7.45761719 10.36328125 -8.05859375 10.9609375 C-8.59798584 11.49509277 -9.13737793 12.02924805 -9.69311523 12.57958984 C-11.10846977 13.98652388 -11.10846977 13.98652388 -12 16 C-12.66 16 -13.32 16 -14 16 C-14.226875 16.5671875 -14.45375 17.134375 -14.6875 17.71875 C-16.88029139 21.53003027 -20.36692406 23.96262158 -23.6875 26.78125 C-25.86444931 28.86994461 -26.75311235 30.32967423 -28 33 C-29.88215868 34.85290233 -31.91358806 36.36715588 -34 38 C-34.66 37.67 -35.32 37.34 -36 37 C-35.57589844 36.5875 -35.15179688 36.175 -34.71484375 35.75 C-34.12832031 35.1725 -33.54179687 34.595 -32.9375 34 C-32.36902344 33.443125 -31.80054688 32.88625 -31.21484375 32.3125 C-29.39074904 30.40797784 -27.6813088 28.47123727 -25.96875 26.46875 C-21.10839934 20.87775839 -15.81991486 15.71236345 -10.5625 10.5 C-9.5342702 9.47679861 -8.50627374 8.45336267 -7.47851562 7.4296875 C-4.98835662 4.95042001 -2.49507167 2.47432462 0 0 Z " fill="#1A1B1B" transform="translate(373,285)"/>
<path d="M0 0 C2.67471043 1.33735521 2.7840928 2.52868255 3.75 5.3125 C4.03359375 6.09238281 4.3171875 6.87226562 4.609375 7.67578125 C5.08237812 10.4901498 4.49767311 11.62868424 3 14 C2.67 14 2.34 14 2 14 C1.67 22.91 1.34 31.82 1 41 C0.67 41 0.34 41 0 41 C0 27.47 0 13.94 0 0 Z " fill="#DEDFDF" transform="translate(815,93)"/>
<path d="M0 0 C0.66 0.33 1.32 0.66 2 1 C2.33 1.99 2.66 2.98 3 4 C5.97 4.495 5.97 4.495 9 5 C9 5.33 9 5.66 9 6 C8.32453125 6.08636719 7.6490625 6.17273437 6.953125 6.26171875 C1.08067576 7.09115915 1.08067576 7.09115915 -3.5 10.625 C-4.2425 11.800625 -4.2425 11.800625 -5 13 C-5.66 13 -6.32 13 -7 13 C-4.29384966 3.40546697 -4.29384966 3.40546697 0 0 Z " fill="#1F1F1F" transform="translate(566,1116)"/>
<path d="M0 0 C0.99 0.495 0.99 0.495 2 1 C2.73075648 3.3140622 3.40138258 5.64828869 4 8 C3.34 8.66 2.68 9.32 2 10 C1.75498505 12.43176397 1.62675079 14.75864884 1.5859375 17.1953125 C1.56657135 17.90275604 1.5472052 18.61019958 1.5272522 19.33908081 C1.46742348 21.60093085 1.42105899 23.8628317 1.375 26.125 C1.33682314 27.6575744 1.29777158 29.19012728 1.2578125 30.72265625 C1.16171961 34.48159624 1.07770151 38.24063668 1 42 C0.67 42 0.34 42 0 42 C0 28.14 0 14.28 0 0 Z " fill="#E2E1E2" transform="translate(485,93)"/>
<path d="M0 0 C0.99 0 1.98 0 3 0 C4.2148059 2.42961179 4.23607267 4.16384116 4.3125 6.875 C4.34988281 7.73867187 4.38726563 8.60234375 4.42578125 9.4921875 C4 12 4 12 0 16 C0 10.72 0 5.44 0 0 Z " fill="#0A0A09" transform="translate(592,1132)"/>
<path d="M0 0 C0.33 0 0.66 0 1 0 C1.04898437 0.63808594 1.09796875 1.27617188 1.1484375 1.93359375 C1.22320312 2.75988281 1.29796875 3.58617187 1.375 4.4375 C1.44460938 5.26121094 1.51421875 6.08492187 1.5859375 6.93359375 C1.72257812 7.61550781 1.85921875 8.29742188 2 9 C2.66 9.33 3.32 9.66 4 10 C3.67 10.66 3.34 11.32 3 12 C2.90500497 13.49756871 2.87012802 14.99942932 2.875 16.5 C2.87242187 17.2940625 2.86984375 18.088125 2.8671875 18.90625 C2.86722004 21.05918534 2.86722004 21.05918534 4 23 C4.0716735 25.55157655 4.09308442 28.07472971 4.0625 30.625 C4.05798828 31.33140625 4.05347656 32.0378125 4.04882812 32.765625 C4.03703875 34.51045275 4.01910324 36.255237 4 38 C3.67 38 3.34 38 3 38 C2.48816954 33.91806133 1.99277714 29.83427904 1.5 25.75 C1.35691406 24.61046875 1.21382813 23.4709375 1.06640625 22.296875 C0.17479823 14.82435065 -0.18525988 7.52360955 0 0 Z " fill="#C3A207" transform="translate(258,592)"/>
<path d="M0 0 C0.87454834 0.00523682 1.74909668 0.01047363 2.65014648 0.01586914 C3.59438477 0.0190918 4.53862305 0.02231445 5.51147461 0.02563477 C6.50469727 0.03401367 7.49791992 0.04239258 8.52124023 0.05102539 C9.51833008 0.05553711 10.51541992 0.06004883 11.54272461 0.06469727 C14.01478872 0.07652532 16.48673541 0.0930069 18.95874023 0.11352539 C18.62874023 1.10352539 18.29874023 2.09352539 17.95874023 3.11352539 C11.68874023 2.78352539 5.41874023 2.45352539 -1.04125977 2.11352539 C-1.37125977 4.09352539 -1.70125977 6.07352539 -2.04125977 8.11352539 C-2.37125977 8.11352539 -2.70125977 8.11352539 -3.04125977 8.11352539 C-3.083677 5.78057764 -3.08218914 3.44649972 -3.04125977 1.11352539 C-2.04125977 0.11352539 -2.04125977 0.11352539 0 0 Z " fill="#29292A" transform="translate(560.041259765625,102.886474609375)"/>
<path d="M0 0 C12.87 0 25.74 0 39 0 C39 1.98 39 3.96 39 6 C37.68 6 36.36 6 35 6 C35 5.34 35 4.68 35 4 C35.99 3.01 36.98 2.02 38 1 C25.46 1 12.92 1 0 1 C0 0.67 0 0.34 0 0 Z " fill="#010101" transform="translate(686,1009)"/>
<path d="M0 0 C0.66 0.99 1.32 1.98 2 3 C1.52949219 3.51949219 1.05898438 4.03898437 0.57421875 4.57421875 C-3.39465646 9.0042264 -3.39465646 9.0042264 -6.6875 13.9375 C-8 16 -8 16 -10.1875 16.8125 C-10.785625 16.874375 -11.38375 16.93625 -12 17 C-9.71206762 13.00907588 -7.09605857 9.34119809 -4.3125 5.6875 C-3.89677734 5.13771484 -3.48105469 4.58792969 -3.05273438 4.02148438 C-2.03735842 2.67932075 -1.01898747 1.33942378 0 0 Z " fill="#DEB809" transform="translate(340,335)"/>
<path d="M0 0 C-0.33 1.65 -0.66 3.3 -1 5 C-1.66 4.34 -2.32 3.68 -3 3 C-3.99 4.98 -4.98 6.96 -6 9 C-9.3 9 -12.6 9 -16 9 C-16 8.01 -16 7.02 -16 6 C-12.7 5.67 -9.4 5.34 -6 5 C-5.67 3.68 -5.34 2.36 -5 1 C-2 0 -2 0 0 0 Z " fill="#DBDBDB" transform="translate(746,130)"/>
<path d="M0 0 C1.32 1.32 2.64 2.64 4 4 C3.01 4.33 2.02 4.66 1 5 C1 12.26 1 19.52 1 27 C0.67 27 0.34 27 0 27 C0 18.09 0 9.18 0 0 Z " fill="#CBCACB" transform="translate(605,108)"/>
<path d="M0 0 C0.33 0 0.66 0 1 0 C1.33 1.65 1.66 3.3 2 5 C2.66 5 3.32 5 4 5 C3.67 9.62 3.34 14.24 3 19 C2.67 19 2.34 19 2 19 C0.26044666 12.56986533 -0.24991456 6.65050424 0 0 Z " fill="#1C1B1A" transform="translate(575,1122)"/>
<path d="M0 0 C0.66 0.33 1.32 0.66 2 1 C-0.33333333 5.66666667 -2.66666667 10.33333333 -5 15 C-5.66 15 -6.32 15 -7 15 C-5.45454854 9.52067211 -2.84456788 4.88570819 0 0 Z " fill="#DBB607" transform="translate(303,390)"/>
<path d="M0 0 C0.66 0.33 1.32 0.66 2 1 C-1.3 4.63 -4.6 8.26 -8 12 C-8.99 11.67 -9.98 11.34 -11 11 C-7.37 7.37 -3.74 3.74 0 0 Z " fill="#E3B807" transform="translate(381,292)"/>
<path d="M0 0 C0.53625 0.2475 1.0725 0.495 1.625 0.75 C1.00625 0.8325 0.3875 0.915 -0.25 1 C-2.5515144 1.54994195 -2.5515144 1.54994195 -3.5 3.75 C-3.78875 4.41 -4.0775 5.07 -4.375 5.75 C-5.365 6.245 -5.365 6.245 -6.375 6.75 C-7.50850534 8.76669827 -7.50850534 8.76669827 -8.375 10.75 C-8.75 7.5 -8.75 7.5 -8.375 3.75 C-3.80896226 -0.4009434 -3.80896226 -0.4009434 0 0 Z " fill="#353535" transform="translate(567.375,1002.25)"/>
<path d="M0 0 C0.33 0 0.66 0 1 0 C1 4.95 1 9.9 1 15 C-1.31 15 -3.62 15 -6 15 C-5.01 14.67 -4.02 14.34 -3 14 C-0.56643627 9.67366449 -0.40189164 4.85442796 0 0 Z " fill="#EFC509" transform="translate(996,553)"/>
<path d="M0 0 C0.33 0 0.66 0 1 0 C1.06058594 0.68707031 1.12117188 1.37414062 1.18359375 2.08203125 C1.26738281 2.98308594 1.35117187 3.88414062 1.4375 4.8125 C1.51871094 5.70582031 1.59992188 6.59914063 1.68359375 7.51953125 C1.93489767 10.12743559 1.93489767 10.12743559 3 13 C2.34 13.66 1.68 14.32 1 15 C0.30251417 16.31747324 -0.36959957 17.64914193 -1 19 C-1.10349817 12.58311325 -0.74507544 6.37305598 0 0 Z " fill="#C09F0A" transform="translate(259,527)"/>
<path d="M0 0 C4.29 0 8.58 0 13 0 C13 0.33 13 0.66 13 1 C9.92382812 1.29296875 9.92382812 1.29296875 6.84765625 1.5859375 C6.23792969 1.72257813 5.62820313 1.85921875 5 2 C4.67 2.66 4.34 3.32 4 4 C2.35 3.67 0.7 3.34 -1 3 C-0.67 2.01 -0.34 1.02 0 0 Z " fill="#F1C20C" transform="translate(641,575)"/>
<path d="M0 0 C3.3 0 6.6 0 10 0 C9.01 1.485 9.01 1.485 8 3 C4.375 3.1875 4.375 3.1875 1 3 C0.67 2.01 0.34 1.02 0 0 Z " fill="#EDEEED" transform="translate(840,136)"/>
<path d="M0 0 C1.65 0 3.3 0 5 0 C4.67 1.65 4.34 3.3 4 5 C2.68 5.33 1.36 5.66 0 6 C0 4.02 0 2.04 0 0 Z " fill="#0D0D0D" transform="translate(501,1142)"/>
<path d="M0 0 C0.66 0.66 1.32 1.32 2 2 C-1.3 5.3 -4.6 8.6 -8 12 C-8.66 11.67 -9.32 11.34 -10 11 C-9.44570313 10.45730469 -8.89140625 9.91460938 -8.3203125 9.35546875 C-7.23363281 8.28232422 -7.23363281 8.28232422 -6.125 7.1875 C-5.40570312 6.47980469 -4.68640625 5.77210938 -3.9453125 5.04296875 C-1.84641063 2.95600806 -1.84641063 2.95600806 0 0 Z " fill="#D5D5D5" transform="translate(915,820)"/>
<path d="M0 0 C1.98 0 3.96 0 6 0 C6 4.29 6 8.58 6 13 C5.67 13 5.34 13 5 13 C4.93941406 12.38511719 4.87882813 11.77023437 4.81640625 11.13671875 C4.73261719 10.32847656 4.64882813 9.52023437 4.5625 8.6875 C4.48128906 7.88699219 4.40007813 7.08648438 4.31640625 6.26171875 C4.04734307 3.83912821 4.04734307 3.83912821 3 1 C2.01 0.67 1.02 0.34 0 0 Z " fill="#F7CB16" transform="translate(990,575)"/>
<path d="M0 0 C0.66 0.33 1.32 0.66 2 1 C1.38125 1.5775 0.7625 2.155 0.125 2.75 C-2.06079584 4.82232439 -2.06079584 4.82232439 -3 7.1875 C-4 9 -4 9 -6.125 9.75 C-7.053125 9.87375 -7.053125 9.87375 -8 10 C-5.61820737 6.25718301 -3.25524265 3.02272532 0 0 Z " fill="#DFB70A" transform="translate(356,317)"/>
<path d="M0 0 C3.98175544 2.10148204 6.35039045 4.36905358 9 8 C6 8 6 8 4.39453125 6.7578125 C3.87246094 6.21898437 3.35039063 5.68015625 2.8125 5.125 C2.28269531 4.59132813 1.75289062 4.05765625 1.20703125 3.5078125 C0 2 0 2 0 0 Z " fill="#DDB40A" transform="translate(884,303)"/>
<path d="M0 0 C0.66 0 1.32 0 2 0 C4.21538462 5.41538462 4.21538462 5.41538462 3.125 8.375 C2.75375 8.91125 2.3825 9.4475 2 10 C1.67 10 1.34 10 1 10 C0.67 6.7 0.34 3.4 0 0 Z " fill="#EBEBEB" transform="translate(816,97)"/>
<path d="M0 0 C0.66 0.33 1.32 0.66 2 1 C0.90931332 4.77545388 0.0916909 7.47043472 -3 10 C-3.33 9.34 -3.66 8.68 -4 8 C-3.22265625 6.0546875 -3.22265625 6.0546875 -2.0625 3.875 C-1.49208984 2.78832031 -1.49208984 2.78832031 -0.91015625 1.6796875 C-0.60980469 1.12539063 -0.30945313 0.57109375 0 0 Z " fill="#353536" transform="translate(289,393)"/>
<path d="M0 0 C2 2 2 2 2.125 5.625 C2.08375 6.73875 2.0425 7.8525 2 9 C1.01 9 0.02 9 -1 9 C-0.67 6.03 -0.34 3.06 0 0 Z " fill="#070707" transform="translate(575,1132)"/>
<path d="M0 0 C0.66 0.66 1.32 1.32 2 2 C1.01 3.98 0.02 5.96 -1 8 C-1.66 8 -2.32 8 -3 8 C-3.66 6.35 -4.32 4.7 -5 3 C-4.01 3.33 -3.02 3.66 -2 4 C-1.34 2.68 -0.68 1.36 0 0 Z " fill="#E4E4E4" transform="translate(655,1126)"/>
<path d="M0 0 C0.99 0.66 1.98 1.32 3 2 C2.34 3.65 1.68 5.3 1 7 C0.01 7 -0.98 7 -2 7 C-1.125 2.25 -1.125 2.25 0 0 Z " fill="#41403F" transform="translate(675,1016)"/>
<path d="M0 0 C2.97 0 5.94 0 9 0 C6 3 6 3 2.8125 3.1875 C1.4203125 3.0946875 1.4203125 3.0946875 0 3 C0 2.01 0 1.02 0 0 Z " fill="#060400" transform="translate(656,941)"/>
<path d="M0 0 C0.66 0.33 1.32 0.66 2 1 C0.25 6.75 0.25 6.75 -2 9 C-2.6875 7.3125 -2.6875 7.3125 -3 5 C-1.5625 2.25 -1.5625 2.25 0 0 Z " fill="#ECBF07" transform="translate(958,732)"/>
<path d="M0 0 C0.66 0.33 1.32 0.66 2 1 C0.4169423 5.2742558 -2.50568404 7.26531794 -6 10 C-4.34832443 6.4213696 -2.21713508 3.25179812 0 0 Z " fill="#EFC107" transform="translate(359,314)"/>
<path d="M0 0 C2.64752004 2.57784846 4.94432065 4.91648098 7 8 C4 8 4 8 1.8125 6.25 C0 4 0 4 0 0 Z " fill="#E6B908" transform="translate(893,311)"/>
<path d="M0 0 C0.66 0 1.32 0 2 0 C1.67 1.65 1.34 3.3 1 5 C-1.60582371 5.93065133 -2.64198224 6.14917407 -5.25 5.0625 C-5.8275 4.711875 -6.405 4.36125 -7 4 C-5.824375 3.8453125 -5.824375 3.8453125 -4.625 3.6875 C-1.66954819 3.22404978 -1.66954819 3.22404978 0 0 Z " fill="#3C3B3C" transform="translate(608,1149)"/>
<path d="M0 0 C2.97 0 5.94 0 9 0 C8.25 4.75 8.25 4.75 6 7 C6.33 5.02 6.66 3.04 7 1 C4.69 1 2.38 1 0 1 C0 0.67 0 0.34 0 0 Z " fill="#4D4C4D" transform="translate(775,1015)"/>
<path d="M0 0 C1.32 0.66 2.64 1.32 4 2 C2.68 3.32 1.36 4.64 0 6 C-0.66 5.67 -1.32 5.34 -2 5 C-1.34 3.35 -0.68 1.7 0 0 Z " fill="#ECBF0E" transform="translate(897,819)"/>
<path d="M0 0 C0.66 0.66 1.32 1.32 2 2 C1.74739753 5.78903708 -0.27849443 7.54186593 -3 10 C-2.01 6.7 -1.02 3.4 0 0 Z " fill="#3C2B02" transform="translate(975,697)"/>
<path d="M0 0 C0.66 0.33 1.32 0.66 2 1 C-0.46153846 5.8 -0.46153846 5.8 -3.1875 6.8125 C-3.785625 6.874375 -4.38375 6.93625 -5 7 C-3.47793991 4.37098712 -2.15634036 2.15634036 0 0 Z " fill="#E7BE05" transform="translate(333,345)"/>
<path d="M0 0 C0.33 0.99 0.66 1.98 1 3 C-0.9375 5.6875 -0.9375 5.6875 -3 8 C-3.99 7.67 -4.98 7.34 -6 7 C-4.02 4.69 -2.04 2.38 0 0 Z " fill="#DCB205" transform="translate(347,327)"/>
<path d="M0 0 C0.66 0 1.32 0 2 0 C2 1.98 2 3.96 2 6 C1.34 6 0.68 6 0 6 C-0.33 6.66 -0.66 7.32 -1 8 C-1.04241723 5.66705225 -1.04092937 3.33297433 -1 1 C-0.67 0.67 -0.34 0.34 0 0 Z " fill="#050404" transform="translate(691,1017)"/>
<path d="M0 0 C1.65 0 3.3 0 5 0 C5 0.99 5 1.98 5 3 C6.98 3 8.96 3 11 3 C11 3.33 11 3.66 11 4 C8.36 4 5.72 4 3 4 C2.67 3.01 2.34 2.02 2 1 C1.34 0.67 0.68 0.34 0 0 Z " fill="#C19C05" transform="translate(583,936)"/>
<path d="M0 0 C0 0.66 0 1.32 0 2 C-2.64846603 4.36214538 -4.61516396 5.87172132 -8 7 C-8 6.01 -8 5.02 -8 4 C-2.74285714 0 -2.74285714 0 0 0 Z " fill="#F1C50B" transform="translate(792,900)"/>
<path d="M0 0 C0.598125 0.20625 1.19625 0.4125 1.8125 0.625 C-0.57323379 2.51713369 -2.25925348 3.64891783 -5.1875 4.625 C-5.1875 3.635 -5.1875 2.645 -5.1875 1.625 C-2.1875 -0.375 -2.1875 -0.375 0 0 Z " fill="#EBBF0A" transform="translate(801.1875,896.375)"/>
<path d="M0 0 C0 3 0 3 -2.5 5.6875 C-3.325 6.450625 -4.15 7.21375 -5 8 C-5.66 7.67 -6.32 7.34 -7 7 C-7 6.34 -7 5.68 -7 5 C-5.03277992 3.61876037 -3.03131672 2.28511874 -1 1 C-0.67 0.67 -0.34 0.34 0 0 Z " fill="#CECECF" transform="translate(735,103)"/>
<path d="M0 0 C0.99 0 1.98 0 3 0 C3 2.64 3 5.28 3 8 C2.01 7.67 1.02 7.34 0 7 C0 4.69 0 2.38 0 0 Z " fill="#E1E2E1" transform="translate(704,1017)"/>
<path d="M0 0 C0.66 0.33 1.32 0.66 2 1 C2 2.66666667 2 4.33333333 2 6 C1.01 6 0.02 6 -1 6 C-1.33 5.01 -1.66 4.02 -2 3 C-1.34 2.01 -0.68 1.02 0 0 Z " fill="#252425" transform="translate(678,1012)"/>
<path d="M0 0 C-0.556875 0.226875 -1.11375 0.45375 -1.6875 0.6875 C-4.63246684 2.35896766 -6.68156544 4.55276352 -9 7 C-8.02086745 1.32103121 -5.73500486 -0.46500039 0 0 Z " fill="#DCAF09" transform="translate(813,512)"/>
<path d="M0 0 C2.45823172 3.68734758 3.01242616 6.69699971 4 11 C3.01 10.67 2.02 10.34 1 10 C0.67 6.7 0.34 3.4 0 0 Z " fill="#CAA207" transform="translate(974,439)"/>
<path d="M0 0 C0.66 0.99 1.32 1.98 2 3 C0.71937515 4.7074998 -0.61767557 6.37373596 -2 8 C-2.66 8 -3.32 8 -4 8 C-2.87548273 5.0280615 -1.77706209 2.66559313 0 0 Z " fill="#DFB705" transform="translate(318,365)"/>
<path d="M0 0 C2 3.75 2 3.75 2 6 C3.98 6 5.96 6 8 6 C8 6.33 8 6.66 8 7 C5.6739143 7.38063221 3.33944736 7.71269945 1 8 C0 7 0 7 -0.0625 3.4375 C-0.041875 2.303125 -0.02125 1.16875 0 0 Z " fill="#363636" transform="translate(558,1045)"/>
<path d="M0 0 C0.66 0 1.32 0 2 0 C2 1.98 2 3.96 2 6 C0.68 6 -0.64 6 -2 6 C-1.34 4.02 -0.68 2.04 0 0 Z " fill="#1F1F1F" transform="translate(753,1046)"/>
<path d="M0 0 C0.66 0.33 1.32 0.66 2 1 C1.1875 3.9375 1.1875 3.9375 0 7 C-0.99 7.33 -1.98 7.66 -3 8 C-1.125 2.25 -1.125 2.25 0 0 Z " fill="#2C2C2D" transform="translate(686,1038)"/>
<path d="M0 0 C0.66 0 1.32 0 2 0 C2 0.99 2 1.98 2 3 C1.34 3 0.68 3 0 3 C0 4.65 0 6.3 0 8 C-0.99 8 -1.98 8 -3 8 C-2.01 5.36 -1.02 2.72 0 0 Z " fill="#EFEFF0" transform="translate(990,688)"/>
<path d="M0 0 C0.33 0 0.66 0 1 0 C2.19876651 5.44893869 1.91360308 8.22169095 -1 13 C-2.07310858 9.72814447 -1.89263102 7.57052408 -1.0625 4.25 C-0.86785156 3.45078125 -0.67320312 2.6515625 -0.47265625 1.828125 C-0.31667969 1.22484375 -0.16070312 0.6215625 0 0 Z " fill="#5C5C5C" transform="translate(256,483)"/>
<path d="M0 0 C0.66 0.99 1.32 1.98 2 3 C0.71034824 4.37562854 -0.62689293 5.70766393 -2 7 C-2.66 7 -3.32 7 -4 7 C-2.79618552 4.50638429 -1.54571278 2.31856917 0 0 Z " fill="#252526" transform="translate(332,328)"/>
<path d="M0 0 C-0.33 1.65 -0.66 3.3 -1 5 C-1.66 4.34 -2.32 3.68 -3 3 C-3.33 3.99 -3.66 4.98 -4 6 C-4.66 5.67 -5.32 5.34 -6 5 C-5.6875 3.0625 -5.6875 3.0625 -5 1 C-2 0 -2 0 0 0 Z " fill="#CACACA" transform="translate(746,130)"/>
</svg>
