<?xml version="1.0" encoding="UTF-8"?>
<svg version="1.1" xmlns="http://www.w3.org/2000/svg" width="1536" height="1024">
<path d="M0 0 C506.88 0 1013.76 0 1536 0 C1536 337.92 1536 675.84 1536 1024 C1029.12 1024 522.24 1024 0 1024 C0 686.08 0 348.16 0 0 Z " fill="#FDFDFD" transform="translate(0,0)"/>
<path d="M0 0 C402.27 0 804.54 0 1219 0 C1219 186.78 1219 373.56 1219 566 C816.73 566 414.46 566 0 566 C0 379.22 0 192.44 0 0 Z " fill="#FDCC0C" transform="translate(143,208)"/>
<path d="M0 0 C402.27 0 804.54 0 1219 0 C1219 186.78 1219 373.56 1219 566 C816.73 566 414.46 566 0 566 C0 379.22 0 192.44 0 0 Z M15 14 C15 191.21 15 368.42 15 551 C407.7 551 800.4 551 1205 551 C1205 373.79 1205 196.58 1205 14 C812.3 14 419.6 14 15 14 Z " fill="#080703" transform="translate(143,208)"/>
<path d="M0 0 C4.93969769 2.33512982 7.43190222 5.22376793 10 10 C10.54548077 13.3285533 10.51461035 16.57200655 10.4375 19.9375 C10.44458984 20.80568359 10.45167969 21.67386719 10.45898438 22.56835938 C10.40443183 28.12012946 9.6365266 32.09542522 7 37 C2.17816681 41.69494284 -2.1645205 43.15938286 -8.83984375 43.4609375 C-11 43 -11 43 -17 39 C-17 45.27 -17 51.54 -17 58 C-20.63 58 -24.26 58 -28 58 C-28 39.19 -28 20.38 -28 1 C-25.03 1 -22.06 1 -19 1 C-19 2.65 -19 4.3 -19 6 C-18.34 6 -17.68 6 -17 6 C-17 5.34 -17 4.68 -17 4 C-11.89139025 -0.69439815 -6.74331047 -0.98486502 0 0 Z " fill="#0D0D0D" transform="translate(743,793)"/>
<path d="M0 0 C0.94488281 -0.03996094 1.88976562 -0.07992187 2.86328125 -0.12109375 C6.78703302 0.65497334 8.0537102 2.46098083 10.6875 5.4375 C12.05482801 7.70848333 13.28325389 9.90628389 14.45703125 12.26953125 C15.05362549 13.43460205 15.65021973 14.59967285 16.26489258 15.80004883 C17.00247803 17.26853271 17.74006348 18.7370166 18.5 20.25 C20.871875 24.931875 23.24375 29.61375 25.6875 34.4375 C26.0175 23.2175 26.3475 11.9975 26.6875 0.4375 C29.6575 0.4375 32.6275 0.4375 35.6875 0.4375 C35.73808526 7.52161622 35.77318494 14.60568612 35.79736328 21.68994141 C35.80743954 24.10141744 35.82110081 26.51288122 35.83837891 28.92431641 C35.8625559 32.38447085 35.87396669 35.8444642 35.8828125 39.3046875 C35.89313507 40.38805389 35.90345764 41.47142029 35.91409302 42.58761597 C35.91431961 44.08894577 35.91431961 44.08894577 35.91455078 45.62060547 C35.918992 46.50440887 35.92343323 47.38821228 35.92800903 48.29879761 C35.6875 50.4375 35.6875 50.4375 33.6875 52.4375 C31.48046875 52.9140625 31.48046875 52.9140625 28.875 53.0625 C28.02292969 53.13726562 27.17085937 53.21203125 26.29296875 53.2890625 C21.97367359 51.87735883 20.73279682 48.30628244 18.6875 44.4375 C18.20273193 43.5407959 17.71796387 42.6440918 17.21850586 41.72021484 C15.64107973 38.7635732 14.09780124 35.79121413 12.5625 32.8125 C12.03785156 31.801875 11.51320313 30.79125 10.97265625 29.75 C8.50851307 24.99638708 6.07538965 20.22995327 3.6875 15.4375 C3.66244385 16.52281006 3.6373877 17.60812012 3.61157227 18.72631836 C3.51766245 22.738816 3.41740233 26.75113382 3.31518555 30.76342773 C3.27177427 32.50264288 3.23010388 34.24190235 3.19018555 35.98120117 C3.13263232 38.47588488 3.0688958 40.9703441 3.00390625 43.46484375 C2.97883751 44.6382859 2.97883751 44.6382859 2.95326233 45.83543396 C2.80137171 51.32362829 2.80137171 51.32362829 1.6875 52.4375 C-0.125 52.5703125 -0.125 52.5703125 -2.3125 52.5625 C-3.034375 52.56507813 -3.75625 52.56765625 -4.5 52.5703125 C-6.3125 52.4375 -6.3125 52.4375 -7.3125 51.4375 C-7.41608779 49.91363769 -7.45101138 48.38503014 -7.45776367 46.85766602 C-7.46414352 45.88318008 -7.47052338 44.90869415 -7.47709656 43.90467834 C-7.47820938 42.84429855 -7.4793222 41.78391876 -7.48046875 40.69140625 C-7.48379715 39.60995834 -7.48712555 38.52851044 -7.49055481 37.41429138 C-7.49562877 35.12182034 -7.49796299 32.82934188 -7.49780273 30.53686523 C-7.49998845 27.01859433 -7.51813728 23.50063719 -7.53710938 19.98242188 C-7.54004328 17.76041775 -7.54202809 15.53841212 -7.54296875 13.31640625 C-7.55015427 12.25805069 -7.55733978 11.19969513 -7.56474304 10.10926819 C-7.56166641 9.1316301 -7.55858978 8.153992 -7.55541992 7.14672852 C-7.55684494 6.28370621 -7.55826996 5.4206839 -7.55973816 4.5315094 C-7.01645808 -0.06985798 -3.91280979 0.09001051 0 0 Z " fill="#0E0E0E" transform="translate(845.3125,131.5625)"/>
<path d="M0 0 C0.85207031 -0.03738281 1.70414063 -0.07476562 2.58203125 -0.11328125 C6.12103606 0.46505687 7.56043153 1.88162653 10.1875 4.3125 C12.13208008 7.33691406 12.13208008 7.33691406 13.95703125 10.828125 C14.44583015 11.7518692 14.44583015 11.7518692 14.94450378 12.6942749 C15.97364454 14.64497532 16.98696183 16.60339741 18 18.5625 C18.69883679 19.89377194 19.39869669 21.22450734 20.09960938 22.5546875 C21.80744926 25.80117095 23.50120547 29.05476299 25.1875 32.3125 C25.22508423 30.91173218 25.22508423 30.91173218 25.26342773 29.48266602 C25.35836928 26.02924811 25.45761258 22.5760104 25.55981445 19.12280273 C25.60321813 17.62610731 25.64488913 16.12936061 25.68481445 14.63256836 C25.74238616 12.48535688 25.80611716 10.33840479 25.87109375 8.19140625 C25.90775146 6.8979126 25.94440918 5.60441895 25.98217773 4.27172852 C26.1875 1.3125 26.1875 1.3125 27.1875 0.3125 C29 0.1796875 29 0.1796875 31.1875 0.1875 C31.909375 0.18492187 32.63125 0.18234375 33.375 0.1796875 C35.1875 0.3125 35.1875 0.3125 36.1875 1.3125 C36.29108779 2.83636231 36.32601138 4.36496986 36.33276367 5.89233398 C36.33914352 6.86681992 36.34552338 7.84130585 36.35209656 8.84532166 C36.35320938 9.90570145 36.3543222 10.96608124 36.35546875 12.05859375 C36.36046135 13.68076561 36.36046135 13.68076561 36.36555481 15.33570862 C36.37062877 17.62817966 36.37296299 19.92065812 36.37280273 22.21313477 C36.37498845 25.73140567 36.39313728 29.24936281 36.41210938 32.76757812 C36.41504328 34.98958225 36.41702809 37.21158788 36.41796875 39.43359375 C36.42515427 40.49194931 36.43233978 41.55030487 36.43974304 42.64073181 C36.43666641 43.6183699 36.43358978 44.596008 36.43041992 45.60327148 C36.43184494 46.46629379 36.43326996 47.3293161 36.43473816 48.2184906 C36.1875 50.3125 36.1875 50.3125 34.1875 52.3125 C31.9453125 52.68359375 31.9453125 52.68359375 29.3125 52.75 C28.01699219 52.80994141 28.01699219 52.80994141 26.6953125 52.87109375 C23.12142878 52.07504177 22.30382474 50.25048335 20.1875 47.3125 C19.02221517 45.29069971 17.90883989 43.23838465 16.83984375 41.1640625 C16.23462891 39.99359375 15.62941406 38.823125 15.00585938 37.6171875 C14.69672607 37.01229492 14.38759277 36.40740234 14.0690918 35.78417969 C13.12967196 33.94663854 12.1818049 32.11366 11.23242188 30.28125 C8.34407967 24.67102288 5.67779547 19.12318942 3.1875 13.3125 C2.8575 25.8525 2.5275 38.3925 2.1875 51.3125 C-0.7825 51.3125 -3.7525 51.3125 -6.8125 51.3125 C-6.8125 34.8125 -6.8125 18.3125 -6.8125 1.3125 C-4.39739385 0.10494692 -2.69511951 0.07677252 0 0 Z " fill="#0D0D0C" transform="translate(977.8125,131.6875)"/>
<path d="M0 0 C0.93005859 -0.020625 1.86011719 -0.04125 2.81835938 -0.0625 C10.27113034 -0.10439892 16.07029754 0.74882339 21.875 5.8125 C25.20527064 9.7482744 25.2807586 12.10112105 24.9375 17.25 C23.31305976 21.39232261 21.40578651 24.43201721 17.9375 27.25 C16.9475 27.25 15.9575 27.25 14.9375 27.25 C14.9375 27.91 14.9375 28.57 14.9375 29.25 C15.53304687 29.47042969 16.12859375 29.69085938 16.7421875 29.91796875 C19.64262417 31.67784225 20.51333133 33.56554804 22.0625 36.5625 C22.56007813 37.50738281 23.05765625 38.45226562 23.5703125 39.42578125 C27.36306468 47.26052361 27.36306468 47.26052361 25.9375 52.25 C24.47957116 52.30399736 23.02107288 52.34279177 21.5625 52.375 C20.75039063 52.39820313 19.93828125 52.42140625 19.1015625 52.4453125 C16.9375 52.25 16.9375 52.25 14.9375 50.25 C14.02021507 47.94392853 13.17439981 45.65851309 12.375 43.3125 C12.15392578 42.67892578 11.93285156 42.04535156 11.70507812 41.39257812 C10.76265413 38.68488863 9.84412456 35.96987367 8.9375 33.25 C5.6375 32.59 2.3375 31.93 -1.0625 31.25 C-1.05089844 32.68214844 -1.03929687 34.11429688 -1.02734375 35.58984375 C-1.01796745 37.45572787 -1.00886708 39.32161339 -1 41.1875 C-0.99162109 42.13302734 -0.98324219 43.07855469 -0.97460938 44.05273438 C-0.97138672 44.95185547 -0.96816406 45.85097656 -0.96484375 46.77734375 C-0.95960693 47.60999756 -0.95437012 48.44265137 -0.94897461 49.30053711 C-1.0625 51.25 -1.0625 51.25 -2.0625 52.25 C-3.58178038 52.32179964 -5.10417482 52.33392007 -6.625 52.3125 C-7.45128906 52.30347656 -8.27757812 52.29445312 -9.12890625 52.28515625 C-9.76699219 52.27355469 -10.40507813 52.26195312 -11.0625 52.25 C-11.08776739 45.00513449 -11.1053318 37.76028026 -11.11743164 30.51538086 C-11.12247356 28.04857967 -11.12930691 25.58178148 -11.13793945 23.11499023 C-11.15001125 19.57795471 -11.15572956 16.04095855 -11.16015625 12.50390625 C-11.16531754 11.39350479 -11.17047882 10.28310333 -11.17579651 9.13905334 C-11.17587204 8.11807053 -11.17594757 7.09708771 -11.17602539 6.04516602 C-11.178246 5.14137711 -11.18046661 4.2375882 -11.18275452 3.30641174 C-10.88310291 -1.81777897 -3.91003702 0.02106417 0 0 Z " fill="#0A0A0A" transform="translate(543.0625,131.75)"/>
<path d="M0 0 C1.06992187 -0.04898438 2.13984375 -0.09796875 3.2421875 -0.1484375 C6.125 0.375 6.125 0.375 7.6862793 2.57104492 C9.07649939 5.28047606 10.09732798 7.86513634 11.02734375 10.76171875 C11.36056641 11.78330078 11.69378906 12.80488281 12.03710938 13.85742188 C12.37548828 14.91509766 12.71386719 15.97277344 13.0625 17.0625 C15.24872111 23.84863143 17.49701922 30.55056575 20.21582031 37.14428711 C24.37902571 47.35889714 24.37902571 47.35889714 23.125 52.375 C19.495 52.375 15.865 52.375 12.125 52.375 C11.465 48.415 10.805 44.455 10.125 40.375 C3.195 40.375 -3.735 40.375 -10.875 40.375 C-11.535 43.675 -12.195 46.975 -12.875 50.375 C-14.875 52.375 -14.875 52.375 -17.0390625 52.5703125 C-17.85117187 52.54710937 -18.66328125 52.52390625 -19.5 52.5 C-20.31726563 52.48195312 -21.13453125 52.46390625 -21.9765625 52.4453125 C-22.60304688 52.42210937 -23.22953125 52.39890625 -23.875 52.375 C-23.53616261 47.80069522 -22.87995585 44.06560845 -21.078125 39.83984375 C-18.29940783 33.08619037 -16.11351221 26.15624199 -13.875 19.20898438 C-7.66887072 0.2390775 -7.66887072 0.2390775 0 0 Z " fill="#0F0F0F" transform="translate(939.875,131.625)"/>
<path d="M0 0 C1.93559313 -0.13504138 3.873872 -0.23201129 5.8125 -0.3125 C6.89144531 -0.37050781 7.97039063 -0.42851562 9.08203125 -0.48828125 C12 0 12 0 13.71484375 2.078125 C15.16429735 5.37353926 16.52103602 8.67988258 17.75 12.0625 C18.00168945 12.74425293 18.25337891 13.42600586 18.51269531 14.12841797 C21.52892399 22.35031116 24.42755582 30.61681652 27.27392578 38.89892578 C27.91009869 40.73984845 28.56667437 42.57369443 29.2265625 44.40625 C30.10479826 47.35144466 29.85829464 49.08179822 29 52 C26.03 52 23.06 52 20 52 C17.125 44.375 17.125 44.375 16 41 C9.07 40.67 2.14 40.34 -5 40 C-5.33 42.64 -5.66 45.28 -6 48 C-6.66 49.32 -7.32 50.64 -8 52 C-10.97 52 -13.94 52 -17 52 C-16.43645316 46.38957816 -15.38248548 41.34895341 -13.625 36 C-13.39949463 35.29721924 -13.17398926 34.59443848 -12.94165039 33.87036133 C-11.4259542 29.18721386 -9.78731771 24.58485849 -8 20 C-7.35250206 18.188094 -6.70680486 16.3755439 -6.0625 14.5625 C-4.2667288 9.59812864 -2.2221761 4.78713469 0 0 Z " fill="#0E0E0E" transform="translate(801,132)"/>
<path d="M0 0 C0.86947266 -0.02449219 1.73894531 -0.04898438 2.63476562 -0.07421875 C9.60947782 -0.10542552 15.43785597 1.40316464 21.10009766 5.61035156 C24.0839527 8.57235068 24.78457051 11.28127868 24.9375 15.3125 C24.6140968 21.12501699 23.41087926 25.34523847 19.25 29.625 C12.66043321 33.72517489 7.14050226 34.76749019 -0.5625 34.375 C-0.55089844 35.59058594 -0.53929687 36.80617187 -0.52734375 38.05859375 C-0.51796722 39.64322764 -0.50886687 41.22786318 -0.5 42.8125 C-0.49162109 43.61494141 -0.48324219 44.41738281 -0.47460938 45.24414062 C-0.4659857 47.28795221 -0.5102185 49.33183902 -0.5625 51.375 C-1.5625 52.375 -1.5625 52.375 -3.59375 52.5078125 C-4.4084375 52.50523437 -5.223125 52.50265625 -6.0625 52.5 C-6.8771875 52.50257813 -7.691875 52.50515625 -8.53125 52.5078125 C-10.5625 52.375 -10.5625 52.375 -11.5625 51.375 C-11.66608779 49.85113769 -11.70101138 48.32253014 -11.70776367 46.79516602 C-11.71414352 45.82068008 -11.72052338 44.84619415 -11.72709656 43.84217834 C-11.72820938 42.78179855 -11.7293222 41.72141876 -11.73046875 40.62890625 C-11.73379715 39.54745834 -11.73712555 38.46601044 -11.74055481 37.35179138 C-11.74562877 35.05932034 -11.74796299 32.76684188 -11.74780273 30.47436523 C-11.74998845 26.95609433 -11.76813728 23.43813719 -11.78710938 19.91992188 C-11.79004328 17.69791775 -11.79202809 15.47591212 -11.79296875 13.25390625 C-11.80015427 12.19555069 -11.80733978 11.13719513 -11.81474304 10.04676819 C-11.81166641 9.0691301 -11.80858978 8.091492 -11.80541992 7.08422852 C-11.80684494 6.22120621 -11.80826996 5.3581839 -11.80973816 4.4690094 C-11.10439227 -1.50499126 -4.55107133 0.0065436 0 0 Z " fill="#111111" transform="translate(760.5625,131.625)"/>
<path d="M0 0 C2 2 2 2 2.1953125 3.9453125 C2.13020833 5.96354167 2.06510417 7.98177083 2 10 C-0.49313431 9.58447762 -2.59019649 9.23151237 -4.8046875 7.98046875 C-10.16462916 5.5866158 -17.05350601 6.37434122 -22.5 8.125 C-26.80834122 11.35625591 -29.50395766 15.53478993 -30.2734375 20.91015625 C-30.58599618 27.53399587 -28.78633483 32.56217871 -25 38 C-19.93851114 42.09739574 -14.22329269 41.22768144 -8 41 C-8 36.71 -8 32.42 -8 28 C-11.63 28 -15.26 28 -19 28 C-19.04241723 25.66705225 -19.04092937 23.33297433 -19 21 C-16.7602852 18.7602852 -11.57102512 19.81468167 -8.5625 19.8125 C-7.67755859 19.80025391 -6.79261719 19.78800781 -5.88085938 19.77539062 C-5.03458984 19.77345703 -4.18832031 19.77152344 -3.31640625 19.76953125 C-2.53724854 19.76542236 -1.75809082 19.76131348 -0.95532227 19.75708008 C1 20 1 20 3 22 C3.50905296 25.95844453 3.41674402 29.95004503 3.4375 33.9375 C3.47037109 35.04802734 3.50324219 36.15855469 3.53710938 37.30273438 C3.54419922 38.36685547 3.55128906 39.43097656 3.55859375 40.52734375 C3.57204834 41.50437256 3.58550293 42.48140137 3.59936523 43.48803711 C3 46 3 46 0.60668945 47.80053711 C-7.47452966 51.51909377 -19.44929283 51.49723022 -27.96875 49.19921875 C-34.08104758 46.15353622 -38.47686362 40.54171575 -40.64453125 34.078125 C-42.21599592 24.89110079 -41.74798788 14.57587365 -36.375 6.75 C-27.46752218 -4.21473314 -12.49762543 -6.23451337 0 0 Z " fill="#0F0E0E" transform="translate(1064,134)"/>
<path d="M0 0 C1.27327148 0.00483398 1.27327148 0.00483398 2.57226562 0.00976562 C3.39404297 -0.00634766 4.21582031 -0.02246094 5.0625 -0.0390625 C11.27809658 -0.04395282 18.25307313 0.49016814 23.13891602 4.73901367 C27.20452261 9.43455396 27.99599577 13.67175062 27.90820312 19.68554688 C27.20765439 24.32153115 24.95256691 27.24149087 21.50976562 30.32226562 C15.46714309 34.39671967 9.63579209 34.85783338 2.50976562 34.32226562 C2.52136719 35.53785156 2.53296875 36.7534375 2.54492188 38.00585938 C2.55429841 39.59049326 2.56339875 41.1751288 2.57226562 42.75976562 C2.58064453 43.56220703 2.58902344 44.36464844 2.59765625 45.19140625 C2.60627993 47.23521783 2.56204712 49.27910464 2.50976562 51.32226562 C1.50976562 52.32226562 1.50976562 52.32226562 -0.52148438 52.45507812 C-1.33617187 52.4525 -2.15085937 52.44992188 -2.99023438 52.44726562 C-3.80492187 52.44984375 -4.61960937 52.45242187 -5.45898438 52.45507812 C-7.49023438 52.32226562 -7.49023438 52.32226562 -8.49023438 51.32226562 C-8.59382216 49.79840332 -8.62874576 48.26979577 -8.63549805 46.74243164 C-8.6418779 45.76794571 -8.64825775 44.79345978 -8.65483093 43.78944397 C-8.65594376 42.72906418 -8.65705658 41.66868439 -8.65820312 40.57617188 C-8.66153152 39.49472397 -8.66485992 38.41327606 -8.66828918 37.29905701 C-8.67336315 35.00658597 -8.67569737 32.71410751 -8.67553711 30.42163086 C-8.67772282 26.90335996 -8.69587165 23.38540281 -8.71484375 19.8671875 C-8.71777765 17.64518337 -8.71976247 15.42317774 -8.72070312 13.20117188 C-8.72788864 12.14281631 -8.73507416 11.08446075 -8.74247742 9.99403381 C-8.73940079 9.01639572 -8.73632416 8.03875763 -8.7331543 7.03149414 C-8.73457932 6.16847183 -8.73600433 5.30544952 -8.73747253 4.41627502 C-8.129768 -0.73074197 -4.09676532 0.03585077 0 0 Z " fill="#121111" transform="translate(455.490234375,131.677734375)"/>
<path d="M0 0 C1 1 1 1 1.09765625 2.84765625 C1.06510417 4.8984375 1.03255208 6.94921875 1 9 C-4.56799627 8.24072778 -4.56799627 8.24072778 -6.80859375 6.9921875 C-11.53212094 4.85354952 -16.96296519 5.28917757 -22 6 C-26.35291641 8.24197033 -29.21048805 11.44787743 -31 16 C-31.90785027 23.38947897 -31.42483967 29.85850012 -27 36 C-24.83921157 38.57468593 -23.33051238 39.51479946 -20 40 C-18.08438746 40.06688591 -16.16664408 40.08531719 -14.25 40.0625 C-12.5175 40.041875 -10.785 40.02125 -9 40 C-9 35.71 -9 31.42 -9 27 C-12.63 27 -16.26 27 -20 27 C-20 24.36 -20 21.72 -20 19 C-16.87507749 18.94208156 -13.75029234 18.90643254 -10.625 18.875 C-9.73554687 18.85824219 -8.84609375 18.84148437 -7.9296875 18.82421875 C-7.07890625 18.81777344 -6.228125 18.81132812 -5.3515625 18.8046875 C-4.17327881 18.78897705 -4.17327881 18.78897705 -2.97119141 18.77294922 C-1 19 -1 19 1 21 C1.22705078 23.52197266 1.22705078 23.52197266 1.1953125 26.6640625 C1.18886719 27.78554687 1.18242188 28.90703125 1.17578125 30.0625 C1.15902344 31.238125 1.14226563 32.41375 1.125 33.625 C1.11597656 34.80835938 1.10695313 35.99171875 1.09765625 37.2109375 C1.07402812 40.14082523 1.04108514 43.0703134 1 46 C-7.15293833 50.28404197 -17.97609699 50.00869453 -27 49 C-30.36543274 47.90185598 -32.51834825 46.49485202 -35 44 C-35.928125 43.0925 -36.85625 42.185 -37.8125 41.25 C-42.66714107 34.03739041 -44.04422059 26.61481989 -43 18 C-41.0371156 9.3305939 -37.42354326 3.56616543 -30.00390625 -1.3125 C-20.32379685 -6.42786056 -9.40248602 -5.00260474 0 0 Z " fill="#0E0E0E" transform="translate(696,135)"/>
<path d="M0 0 C1.25232422 -0.00128906 2.50464844 -0.00257813 3.79492188 -0.00390625 C5.10912109 -0.00003906 6.42332031 0.00382813 7.77734375 0.0078125 C9.09541016 0.00394531 10.41347656 0.00007812 11.77148438 -0.00390625 C13.02251953 -0.00261719 14.27355469 -0.00132812 15.5625 0 C16.71758057 0.00112793 17.87266113 0.00225586 19.06274414 0.00341797 C21.71484375 0.1328125 21.71484375 0.1328125 22.71484375 1.1328125 C22.83984375 4.1328125 22.83984375 4.1328125 22.71484375 7.1328125 C21.71484375 8.1328125 21.71484375 8.1328125 19.85717773 8.24633789 C19.06641846 8.24110107 18.27565918 8.23586426 17.4609375 8.23046875 C16.60693359 8.22724609 15.75292969 8.22402344 14.87304688 8.22070312 C13.97521484 8.21232422 13.07738281 8.20394531 12.15234375 8.1953125 C11.25064453 8.19080078 10.34894531 8.18628906 9.41992188 8.18164062 C7.18486786 8.16981494 4.94984773 8.15187888 2.71484375 8.1328125 C2.71484375 12.4228125 2.71484375 16.7128125 2.71484375 21.1328125 C8.32484375 21.1328125 13.93484375 21.1328125 19.71484375 21.1328125 C19.71484375 23.4428125 19.71484375 25.7528125 19.71484375 28.1328125 C18.71484375 29.1328125 18.71484375 29.1328125 15.1171875 29.23046875 C13.62887508 29.2237947 12.14057943 29.21183433 10.65234375 29.1953125 C9.89373047 29.19080078 9.13511719 29.18628906 8.35351562 29.18164062 C6.47392504 29.1698193 4.59437476 29.15188328 2.71484375 29.1328125 C2.71484375 33.7528125 2.71484375 38.3728125 2.71484375 43.1328125 C4.75478516 43.11541016 4.75478516 43.11541016 6.8359375 43.09765625 C8.60807155 43.08827988 10.38020708 43.07917952 12.15234375 43.0703125 C13.05017578 43.06193359 13.94800781 43.05355469 14.87304688 43.04492188 C15.72705078 43.04169922 16.58105469 43.03847656 17.4609375 43.03515625 C18.25169678 43.02991943 19.04245605 43.02468262 19.85717773 43.01928711 C21.71484375 43.1328125 21.71484375 43.1328125 22.71484375 44.1328125 C22.83984375 47.6328125 22.83984375 47.6328125 22.71484375 51.1328125 C19.95932864 53.88832761 11.49509804 52.31849453 7.77734375 52.3203125 C6.46314453 52.33255859 5.14894531 52.34480469 3.79492188 52.35742188 C2.54259766 52.35935547 1.29027344 52.36128906 0 52.36328125 C-1.73431274 52.36944458 -1.73431274 52.36944458 -3.50366211 52.37573242 C-6.28515625 52.1328125 -6.28515625 52.1328125 -8.28515625 50.1328125 C-8.52566528 48.03207397 -8.52566528 48.03207397 -8.51220703 45.40771484 C-8.51198044 43.93641617 -8.51198044 43.93641617 -8.51174927 42.43539429 C-8.5014267 41.37390167 -8.49110413 40.31240906 -8.48046875 39.21875 C-8.47763885 38.13397369 -8.47480896 37.04919739 -8.47189331 35.93154907 C-8.46067203 32.45685937 -8.43556387 28.98242468 -8.41015625 25.5078125 C-8.40012897 23.15625371 -8.39100268 20.8046909 -8.3828125 18.453125 C-8.36072636 12.67960006 -8.3272297 6.90622449 -8.28515625 1.1328125 C-5.4791336 -0.27019883 -3.13497258 0.0030583 0 0 Z " fill="#131312" transform="translate(499.28515625,131.8671875)"/>
<path d="M0 0 C1 1 1 1 1.0625 4.5625 C1.041875 5.696875 1.02125 6.83125 1 8 C-2.68213365 9.22737788 -3.77904256 8.27399826 -7.15625 6.70703125 C-9.83236008 5.68081107 -12.17481644 5.73719223 -15 6 C-15.99 6.495 -15.99 6.495 -17 7 C-17.33380814 10.37436186 -17.33380814 10.37436186 -17 14 C-14.8392573 16.42003182 -12.62093494 17.16145364 -9.625 18.4375 C-4.03797821 20.84569905 0.94654457 23.59773269 4 29 C4.83522564 34.08805825 4.60538148 37.85186271 2.1875 42.4375 C1.1046875 43.7059375 1.1046875 43.7059375 0 45 C-0.45375 45.5775 -0.9075 46.155 -1.375 46.75 C-5.70085719 50.07758246 -10.79909771 50.27290926 -16.0625 50.25 C-17.24972656 50.25515625 -18.43695312 50.2603125 -19.66015625 50.265625 C-24.03960115 49.91731827 -26.87660873 49.12339127 -30 46 C-30.26991906 43.31160615 -30.08737357 40.70858064 -30 38 C-27.48225568 38.41962405 -25.36726729 38.80001802 -23.11328125 40.02734375 C-20.7038985 41.13628332 -19.07468734 41.23658471 -16.4375 41.1875 C-15.67308594 41.18105469 -14.90867187 41.17460937 -14.12109375 41.16796875 C-11.81102284 41.07053505 -11.81102284 41.07053505 -9 40 C-8.67 37.69 -8.34 35.38 -8 33 C-11.9691903 30.42424884 -15.84762233 28.02627974 -20.1875 26.125 C-24.46876375 23.98859028 -27.19939561 21.49325131 -29 17 C-29.78942785 12.5481446 -30.03273243 8.25199362 -28.11328125 4.06640625 C-21.2289929 -5.10502109 -9.23687548 -4.91323164 0 0 Z " fill="#0F0F0F" transform="translate(605,134)"/>
<path d="M0 0 C1.25683594 0.00322266 2.51367188 0.00644531 3.80859375 0.00976562 C5.12730469 0.01814453 6.44601562 0.02652344 7.8046875 0.03515625 C9.14452961 0.04017136 10.4843735 0.04473424 11.82421875 0.04882812 C15.10941956 0.06064539 18.39453147 0.07712008 21.6796875 0.09765625 C21.6796875 2.73765625 21.6796875 5.37765625 21.6796875 8.09765625 C15.0796875 8.09765625 8.4796875 8.09765625 1.6796875 8.09765625 C1.6796875 12.38765625 1.6796875 16.67765625 1.6796875 21.09765625 C3.50306641 21.08025391 3.50306641 21.08025391 5.36328125 21.0625 C6.94791514 21.05312347 8.53255068 21.04402312 10.1171875 21.03515625 C10.91962891 21.02677734 11.72207031 21.01839844 12.54882812 21.00976562 C14.59263971 21.00114195 16.63652652 21.04537475 18.6796875 21.09765625 C19.6796875 22.09765625 19.6796875 22.09765625 19.8046875 25.09765625 C19.6796875 28.09765625 19.6796875 28.09765625 18.6796875 29.09765625 C15.81701183 29.17090793 12.9789685 29.1900383 10.1171875 29.16015625 C9.31087891 29.15564453 8.50457031 29.15113281 7.67382812 29.14648438 C5.67574994 29.13466143 3.67770967 29.11672539 1.6796875 29.09765625 C1.6796875 34.04765625 1.6796875 38.99765625 1.6796875 44.09765625 C8.2796875 44.09765625 14.8796875 44.09765625 21.6796875 44.09765625 C21.6796875 46.73765625 21.6796875 49.37765625 21.6796875 52.09765625 C17.72871772 52.14705287 13.7778672 52.1833738 9.82666016 52.20751953 C7.8205739 52.22253732 5.81457426 52.24794606 3.80859375 52.2734375 C2.55175781 52.27988281 1.29492188 52.28632813 0 52.29296875 C-1.16257324 52.30344238 -2.32514648 52.31391602 -3.52294922 52.32470703 C-6.3203125 52.09765625 -6.3203125 52.09765625 -8.3203125 50.09765625 C-8.56082153 47.99691772 -8.56082153 47.99691772 -8.54736328 45.37255859 C-8.54713669 43.90125992 -8.54713669 43.90125992 -8.54690552 42.40023804 C-8.53658295 41.33874542 -8.52626038 40.27725281 -8.515625 39.18359375 C-8.5127951 38.09881744 -8.50996521 37.01404114 -8.50704956 35.89639282 C-8.49582828 32.42170312 -8.47072012 28.94726843 -8.4453125 25.47265625 C-8.43528522 23.12109746 -8.42615893 20.76953465 -8.41796875 18.41796875 C-8.39588261 12.64444381 -8.36238595 6.87106824 -8.3203125 1.09765625 C-5.50207058 -0.31146471 -3.14779968 -0.01417928 0 0 Z " fill="#0D0C0C" transform="translate(625.3203125,131.90234375)"/>
<path d="M0 0 C5.97873264 0.11935764 5.97873264 0.11935764 7.08984375 1.23046875 C7.37000354 5.80641195 6.76526826 9.57601081 5.61791992 13.98461914 C4.69261388 17.91984348 4.20089065 21.91600835 3.65234375 25.91796875 C2.64540762 32.99004515 1.39741955 39.86879804 -0.359375 46.796875 C-1.02052693 49.30227778 -1.02052693 49.30227778 -0.91015625 52.23046875 C0.40984375 52.56046875 1.72984375 52.89046875 3.08984375 53.23046875 C3.33984375 58.85546875 3.33984375 58.85546875 1.08984375 62.23046875 C-1.40625 62.6640625 -1.40625 62.6640625 -4.34765625 62.66796875 C-5.31574219 62.68730469 -6.28382812 62.70664062 -7.28125 62.7265625 C-9.91015625 62.23046875 -9.91015625 62.23046875 -11.5534668 60.54077148 C-15.9259149 53.09494165 -12.2692919 41.51624484 -10.53515625 33.60546875 C-10.3134375 32.55101562 -10.09171875 31.4965625 -9.86328125 30.41015625 C-9.42660917 28.33467953 -8.98564993 26.26009936 -8.54003906 24.18652344 C-7.62155495 19.87605613 -6.76468252 15.55397599 -5.91015625 11.23046875 C-5.57717769 9.56373117 -5.24388862 7.89705556 -4.91015625 6.23046875 C-4.76578125 5.50859375 -4.62140625 4.78671875 -4.47265625 4.04296875 C-3.67288915 1.46594143 -2.7244562 0.32871762 0 0 Z " fill="#0E0E0E" transform="translate(1421.91015625,454.76953125)"/>
<path d="M0 0 C3.3 0 6.6 0 10 0 C10.07423798 6.17469663 10.12864413 12.34913261 10.16479492 18.52416992 C10.17986772 20.62415086 10.20032941 22.7241004 10.22631836 24.82397461 C10.26276754 27.84496824 10.27974159 30.86554511 10.29296875 33.88671875 C10.30845261 34.82335861 10.32393646 35.75999847 10.33988953 36.72502136 C10.34144776 42.78026879 9.61519391 46.3560044 5.2265625 50.79296875 C2.18309054 52.44285092 -0.18278462 52.36300655 -3.625 52.3125 C-4.77226563 52.30863281 -5.91953125 52.30476563 -7.1015625 52.30078125 C-10 52 -10 52 -12 50 C-12.26991906 47.31160615 -12.08737357 44.70858064 -12 42 C-11.28972656 42.01160156 -10.57945312 42.02320313 -9.84765625 42.03515625 C-8.92855469 42.04417969 -8.00945313 42.05320313 -7.0625 42.0625 C-5.68771484 42.07990234 -5.68771484 42.07990234 -4.28515625 42.09765625 C-2.03406673 42.25949049 -2.03406673 42.25949049 -1 41 C-0.8396444 37.97192956 -0.74039552 34.96414546 -0.68359375 31.93359375 C-0.66281265 31.02497086 -0.64203156 30.11634796 -0.62062073 29.18019104 C-0.55502328 26.26604054 -0.4961932 23.35179696 -0.4375 20.4375 C-0.39432446 18.46678709 -0.35071049 16.49608374 -0.30664062 14.52539062 C-0.19933157 9.68369012 -0.09809325 4.84189563 0 0 Z " fill="#090909" transform="translate(900,132)"/>
<path d="M0 0 C0.8146875 0.00257813 1.629375 0.00515625 2.46875 0.0078125 C3.2834375 0.00523437 4.098125 0.00265625 4.9375 0 C6.96875 0.1328125 6.96875 0.1328125 7.96875 1.1328125 C8.06721967 2.69280298 8.09673618 4.25721794 8.09814453 5.8203125 C8.10129669 6.81804687 8.10444885 7.81578125 8.10769653 8.84375 C8.1056723 9.92914063 8.10364807 11.01453125 8.1015625 12.1328125 C8.10251923 13.23882812 8.10347595 14.34484375 8.10446167 15.484375 C8.10514367 17.82812558 8.10328804 20.17187803 8.09912109 22.515625 C8.09377314 26.11723038 8.09906547 29.71871103 8.10546875 33.3203125 C8.10480797 35.59114611 8.10352682 37.86197964 8.1015625 40.1328125 C8.10358673 41.21820313 8.10561096 42.30359375 8.10769653 43.421875 C8.10454437 44.41960937 8.10139221 45.41734375 8.09814453 46.4453125 C8.09695114 47.76982422 8.09695114 47.76982422 8.09573364 49.12109375 C7.96875 51.1328125 7.96875 51.1328125 6.96875 52.1328125 C5.47136876 52.2307182 3.96932108 52.26256114 2.46875 52.2578125 C1.6540625 52.26039063 0.839375 52.26296875 0 52.265625 C-2.03125 52.1328125 -2.03125 52.1328125 -3.03125 51.1328125 C-3.12971967 49.57282202 -3.15923618 48.00840706 -3.16064453 46.4453125 C-3.16379669 45.44757813 -3.16694885 44.44984375 -3.17019653 43.421875 C-3.1681723 42.33648437 -3.16614807 41.25109375 -3.1640625 40.1328125 C-3.16501923 39.02679688 -3.16597595 37.92078125 -3.16696167 36.78125 C-3.16764367 34.43749942 -3.16578804 32.09374697 -3.16162109 29.75 C-3.15627314 26.14839462 -3.16156547 22.54691397 -3.16796875 18.9453125 C-3.16730797 16.67447889 -3.16602682 14.40364536 -3.1640625 12.1328125 C-3.16608673 11.04742187 -3.16811096 9.96203125 -3.17019653 8.84375 C-3.16704437 7.84601563 -3.16389221 6.84828125 -3.16064453 5.8203125 C-3.15984894 4.93730469 -3.15905334 4.05429688 -3.15823364 3.14453125 C-2.98528218 0.40457448 -2.73892546 0.17908359 0 0 Z " fill="#0F0F0F" transform="translate(711.03125,131.8671875)"/>
<path d="M0 0 C3 0.625 3 0.625 5.875 2.375 C9.05062765 7.23184228 8.71428329 11.97088382 8 17.625 C5.8455416 23.85880177 5.8455416 23.85880177 3 25.625 C-0.74164473 25.5569701 -3.13472265 25.25541635 -6.1875 23.03125 C-8.69898537 19.69703666 -8.5666 17.32439575 -8.5625 13.1875 C-8.58441406 11.88941406 -8.60632813 10.59132813 -8.62890625 9.25390625 C-7.71871345 4.0019242 -5.28128405 1.10026751 0 0 Z " fill="#F2F2F2" transform="translate(734,801.375)"/>
<path d="M0 0 C8 0 8 0 11.5 1.5 C14 4 14 4 14.6875 7.9375 C14.41474318 11.10978042 13.87039798 12.20067409 12.0625 15 C7.77520667 17.79986503 5.05358898 17.37713351 0 17 C0 11.39 0 5.78 0 0 Z " fill="#F1F1F1" transform="translate(760,140)"/>
<path d="M0 0 C9.19230769 0 9.19230769 0 13 3 C14.41000664 5.82001327 14.24548451 7.87007255 14 11 C11.73529412 15.63235294 11.73529412 15.63235294 9 17 C5.99525503 17.13559318 3.00931153 17.04299016 0 17 C0 11.39 0 5.78 0 0 Z " fill="#F0F0F0" transform="translate(458,140)"/>
<path d="M0 0 C9.6092603 -0.43026539 9.6092603 -0.43026539 14 3 C15 4 15 4 15.3125 6.8125 C15 10 15 10 13.125 12.3125 C8.79779911 15.74880659 5.40337548 15.07719108 0 15 C0 10.05 0 5.1 0 0 Z " fill="#E3E3E3" transform="translate(542,140)"/>
<path d="M0 0 C2 1 2 1 2.77783203 2.73413086 C3.01872559 3.47026611 3.25961914 4.20640137 3.5078125 4.96484375 C3.77207031 5.76470703 4.03632812 6.56457031 4.30859375 7.38867188 C4.57800781 8.22978516 4.84742188 9.07089844 5.125 9.9375 C5.40214844 10.77474609 5.67929687 11.61199219 5.96484375 12.47460938 C8 18.70539563 8 18.70539563 8 21 C3.05 21 -1.9 21 -7 21 C-5.97094459 16.88377834 -4.75982258 12.86192973 -3.5 8.8125 C-3.27441406 8.07580078 -3.04882812 7.33910156 -2.81640625 6.58007812 C-1.11798022 1.11798022 -1.11798022 1.11798022 0 0 Z " fill="#E1E1E1" transform="translate(939,143)"/>
<path d="M0 0 C0.66 0 1.32 0 2 0 C3.00465729 3.12352227 4.00292927 6.24904853 5 9.375 C5.28617188 10.26445312 5.57234375 11.15390625 5.8671875 12.0703125 C6.13789062 12.92109375 6.40859375 13.771875 6.6875 14.6484375 C7.06455078 15.82672119 7.06455078 15.82672119 7.44921875 17.02880859 C8 19 8 19 8 21 C3.38 21 -1.24 21 -6 21 C-5.42381249 15.85404946 -4.25256722 11.44921945 -2.4375 6.5625 C-1.98246094 5.32628906 -1.52742187 4.09007812 -1.05859375 2.81640625 C-0.70925781 1.88699219 -0.35992188 0.95757812 0 0 Z " fill="#E3E3E3" transform="translate(806,143)"/>
<path d="M0 0 C2.94678433 2.94678433 4.32041919 5.24093818 6 9 C6 9.66 6 10.32 6 11 C3.03 10.505 3.03 10.505 0 10 C0 6.7 0 3.4 0 0 Z " fill="#DDDDDD" transform="translate(848,146)"/>
<path d="M0 0 C2.64 0 5.28 0 8 0 C3.375 4.875 3.375 4.875 0 6 C0 4.02 0 2.04 0 0 Z " fill="#F0C708" transform="translate(158,223)"/>
<path d="M0 0 C2.475 0.495 2.475 0.495 5 1 C4.67 1.66 4.34 2.32 4 3 C3.34 3 2.68 3 2 3 C1.67 4.65 1.34 6.3 1 8 C0.67 8 0.34 8 0 8 C0 5.36 0 2.72 0 0 Z " fill="#272727" transform="translate(575,172)"/>
</svg>
