<?xml version="1.0" encoding="UTF-8"?>
<svg version="1.1" xmlns="http://www.w3.org/2000/svg" width="1254" height="1254">
<path d="M0 0 C413.82 0 827.64 0 1254 0 C1254 413.82 1254 827.64 1254 1254 C840.18 1254 426.36 1254 0 1254 C0 840.18 0 426.36 0 0 Z " fill="#FDFDFD" transform="translate(0,0)"/>
<path d="M0 0 C270.6 0 541.2 0 820 0 C820 266.97 820 533.94 820 809 C549.4 809 278.8 809 0 809 C0 542.03 0 275.06 0 0 Z " fill="#FDC90D" transform="translate(217,229)"/>
<path d="M0 0 C270.6 0 541.2 0 820 0 C820 266.97 820 533.94 820 809 C549.4 809 278.8 809 0 809 C0 542.03 0 275.06 0 0 Z M16 16 C16 272.41 16 528.82 16 793 C276.04 793 536.08 793 804 793 C804 536.59 804 280.18 804 16 C543.96 16 283.92 16 16 16 Z " fill="#050501" transform="translate(217,229)"/>
<path d="M0 0 C1.175625 -0.00257812 2.35125 -0.00515625 3.5625 -0.0078125 C4.79742188 -0.00007813 6.03234375 0.00765625 7.3046875 0.015625 C8.51640625 0.00789063 9.728125 0.00015625 10.9765625 -0.0078125 C20.46529342 0.01286012 28.23524587 0.76562695 36.1796875 6.265625 C39.87279083 10.80893917 40.72700719 13.94530359 40.6796875 19.765625 C40.69 21.0340625 40.7003125 22.3025 40.7109375 23.609375 C39.93136987 28.97463458 37.52838797 32.01560993 33.6171875 35.640625 C31.1796875 37.265625 31.1796875 37.265625 28.1796875 37.265625 C28.91960938 37.92820313 29.65953125 38.59078125 30.421875 39.2734375 C33.61415995 42.47022179 35.38945423 46.0906258 37.3046875 50.140625 C37.63855469 50.82253906 37.97242188 51.50445312 38.31640625 52.20703125 C39.29267176 54.21698965 40.23816841 56.23920318 41.1796875 58.265625 C41.4797168 58.87825195 41.77974609 59.49087891 42.08886719 60.12207031 C44.07534363 64.35817893 44.1796875 66.27781341 44.1796875 71.265625 C39.5596875 71.265625 34.9396875 71.265625 30.1796875 71.265625 C25.77725102 62.96872548 22.15011526 54.17690829 19.1796875 45.265625 C14.84080618 42.89896246 11.36345499 42.91359594 6.1796875 42.265625 C6.1796875 51.835625 6.1796875 61.405625 6.1796875 71.265625 C1.8896875 71.265625 -2.4003125 71.265625 -6.8203125 71.265625 C-8.66632562 69.41961188 -7.95772573 66.41257009 -7.96557617 63.94165039 C-7.96893478 63.28147415 -7.9722934 62.62129791 -7.97575378 61.94111633 C-7.98528945 59.74848575 -7.9872082 57.55593131 -7.98828125 55.36328125 C-7.99149205 53.8449246 -7.99485599 52.32656827 -7.99836731 50.80821228 C-8.00436515 47.62123904 -8.00620654 44.43429294 -8.00561523 41.24731445 C-8.00551358 37.156929 -8.01916593 33.06671703 -8.03638744 28.97637272 C-8.04748821 25.83917944 -8.04953504 22.70202834 -8.04900551 19.56481743 C-8.05018853 18.0564864 -8.05462825 16.54815439 -8.06233788 15.03984261 C-8.07209912 12.93276841 -8.06927532 10.82607402 -8.06323242 8.71899414 C-8.06465744 7.51843887 -8.06608246 6.31788361 -8.06755066 5.08094788 C-7.59219712 -0.33194508 -4.69084904 0.00989183 0 0 Z " fill="#080808" transform="translate(563.8203125,63.734375)"/>
<path d="M0 0 C0.70962891 0.00676758 1.41925781 0.01353516 2.15039062 0.02050781 C9.83682803 0.17253946 19.36771383 1.49271383 25.125 7.25 C25.19705511 8.93608966 25.20886068 10.62500659 25.1875 12.3125 C25.17847656 13.23160156 25.16945313 14.15070313 25.16015625 15.09765625 C25.14855469 15.80792969 25.13695312 16.51820312 25.125 17.25 C22.52257853 18.24679905 21.48208286 18.40918904 18.890625 17.25390625 C18.06046875 16.77824219 17.2303125 16.30257812 16.375 15.8125 C9.20967299 12.3600275 1.94917092 12.05200128 -5.875 13.25 C-11.68567341 16.49492152 -16.41405654 20.93762485 -18.875 27.25 C-19.21431561 31.91990302 -19.0274018 36.57284117 -18.875 41.25 C-18.86855469 42.04664063 -18.86210938 42.84328125 -18.85546875 43.6640625 C-18.55020763 49.33965807 -15.79162848 53.34203663 -11.875 57.25 C-7.33967421 60.92503379 -3.11723932 60.60716003 2.4375 60.4375 C5.304375 60.375625 8.17125 60.31375 11.125 60.25 C11.125 54.31 11.125 48.37 11.125 42.25 C6.175 42.25 1.225 42.25 -3.875 42.25 C-3.875 38.95 -3.875 35.65 -3.875 32.25 C0.58327926 32.1921696 5.0414628 32.15646145 9.5 32.125 C11.40652344 32.09986328 11.40652344 32.09986328 13.3515625 32.07421875 C15.16914062 32.06455078 15.16914062 32.06455078 17.0234375 32.0546875 C18.14411621 32.04421387 19.26479492 32.03374023 20.41943359 32.02294922 C23.125 32.25 23.125 32.25 25.125 34.25 C25.30002995 36.83103306 25.35662279 39.30308163 25.3203125 41.8828125 C25.3174826 42.63464813 25.31465271 43.38648376 25.31173706 44.16110229 C25.30052874 46.56589578 25.27542352 48.97031881 25.25 51.375 C25.23997102 53.00390088 25.23084503 54.63280758 25.22265625 56.26171875 C25.20058735 60.25795556 25.16605351 64.25391494 25.125 68.25 C13.62784898 74.25163808 -0.47301764 75.22464069 -13.1484375 72.5625 C-21.30092527 69.55235067 -27.58218019 63.73952253 -31.875 56.25 C-34.6044745 49.97182149 -35.39674658 44.11361519 -35.3125 37.3125 C-35.30275146 36.43223145 -35.29300293 35.55196289 -35.28295898 34.64501953 C-34.98520326 23.75826269 -31.78922726 17.339163 -24.24609375 9.44921875 C-17.10087024 2.82193566 -9.80623861 -0.13452267 0 0 Z " fill="#0B0A0A" transform="translate(757.875,62.75)"/>
<path d="M0 0 C1.12277344 -0.00386719 2.24554688 -0.00773437 3.40234375 -0.01171875 C5.16384766 0.00568359 5.16384766 0.00568359 6.9609375 0.0234375 C8.11207031 0.01183594 9.26320313 0.00023437 10.44921875 -0.01171875 C19.9870482 0.0209078 27.69196899 1.39246224 35.3359375 7.3984375 C40.22310921 12.79117869 39.62245603 18.94808676 39.54296875 25.9140625 C39.16966189 32.1968874 37.80351219 36.33147533 33.2109375 40.7109375 C24.96427433 47.00309006 16.38370836 46.78434051 6.3359375 46.3984375 C6.34117432 47.12023193 6.34641113 47.84202637 6.35180664 48.58569336 C6.37251108 51.83576599 6.38557668 55.08582478 6.3984375 58.3359375 C6.40681641 59.47224609 6.41519531 60.60855469 6.42382812 61.77929688 C6.42705078 62.85888672 6.43027344 63.93847656 6.43359375 65.05078125 C6.43883057 66.05101318 6.44406738 67.05124512 6.44946289 68.08178711 C6.3359375 70.3984375 6.3359375 70.3984375 5.3359375 71.3984375 C3.17112953 71.4973669 1.00299965 71.5281485 -1.1640625 71.5234375 C-2.35 71.52601563 -3.5359375 71.52859375 -4.7578125 71.53125 C-7.6640625 71.3984375 -7.6640625 71.3984375 -8.6640625 70.3984375 C-8.77402346 68.32855737 -8.81319099 66.25489301 -8.82519531 64.18212891 C-8.83016022 63.53331253 -8.83512512 62.88449615 -8.84024048 62.21601868 C-8.85489526 60.06066849 -8.8616698 57.90539191 -8.8671875 55.75 C-8.87293656 54.25645952 -8.87869432 52.76291908 -8.88446045 51.26937866 C-8.89498011 48.13368383 -8.90081633 44.9980147 -8.90429688 41.86230469 C-8.90978139 37.84144321 -8.93380409 33.82092042 -8.96226883 29.80016518 C-8.98088077 26.71354171 -8.98610004 23.62700001 -8.98763275 20.54032516 C-8.99066349 19.0579277 -8.99870619 17.57553182 -9.01181793 16.09318924 C-9.0288479 14.01970841 -9.02700623 11.94705729 -9.02050781 9.87353516 C-9.02415344 8.69296539 -9.02779907 7.51239563 -9.03155518 6.29605103 C-8.6640625 3.3984375 -8.6640625 3.3984375 -7.30331421 1.51800537 C-4.87445092 -0.14084744 -2.91762178 0.00971461 0 0 Z " fill="#0C0C0C" transform="translate(449.6640625,63.6015625)"/>
<path d="M0 0 C0.83961777 0.00718552 1.67923553 0.01437103 2.54429626 0.02177429 C3.83496254 0.02246162 3.83496254 0.02246162 5.15170288 0.02316284 C6.97162758 0.02618599 8.79154968 0.03407416 10.61143494 0.0464325 C13.40750726 0.06469157 16.20324868 0.0669422 18.99937439 0.06669617 C20.76435123 0.07161114 22.52932581 0.07743937 24.29429626 0.08427429 C25.13593826 0.08538712 25.97758026 0.08649994 26.84472656 0.08764648 C32.73684296 0.13619599 32.73684296 0.13619599 33.85289001 1.25224304 C33.95079571 2.74962428 33.98263866 4.25167196 33.97789001 5.75224304 C33.9817572 6.97427429 33.9817572 6.97427429 33.98570251 8.22099304 C33.85289001 10.25224304 33.85289001 10.25224304 32.85289001 11.25224304 C30.85324019 11.33982307 28.85052892 11.3592088 26.84898376 11.34989929 C25.63404236 11.34667664 24.41910095 11.34345398 23.16734314 11.34013367 C21.88794861 11.33175476 20.60855408 11.32337585 19.29039001 11.31474304 C18.0071283 11.31023132 16.72386658 11.3057196 15.40171814 11.30107117 C12.21875581 11.28923859 9.03581727 11.27130249 5.85289001 11.25224304 C5.85289001 17.19224304 5.85289001 23.13224304 5.85289001 29.25224304 C7.50160095 29.24064148 9.15031189 29.22903992 10.84898376 29.21708679 C12.99611806 29.20771066 15.14325356 29.19861027 17.29039001 29.18974304 C18.3790033 29.18136414 19.46761658 29.17298523 20.58921814 29.16435242 C21.6236908 29.16112976 22.65816345 29.1579071 23.72398376 29.15458679 C24.68232117 29.14934998 25.64065857 29.14411316 26.6280365 29.13871765 C28.85289001 29.25224304 28.85289001 29.25224304 29.85289001 30.25224304 C29.95079571 31.74962428 29.98263866 33.25167196 29.97789001 34.75224304 C29.9817572 35.97427429 29.9817572 35.97427429 29.98570251 37.22099304 C29.85289001 39.25224304 29.85289001 39.25224304 28.85289001 40.25224304 C27.14516644 40.33938136 25.43390353 40.35924312 23.72398376 40.34989929 C22.17227478 40.34506531 22.17227478 40.34506531 20.58921814 40.34013367 C19.50060486 40.33175476 18.41199158 40.32337585 17.29039001 40.31474304 C15.65166931 40.30797546 15.65166931 40.30797546 13.97984314 40.30107117 C11.2708357 40.28924144 8.56185622 40.27130535 5.85289001 40.25224304 C5.85289001 46.85224304 5.85289001 53.45224304 5.85289001 60.25224304 C15.09289001 60.25224304 24.33289001 60.25224304 33.85289001 60.25224304 C33.85289001 63.55224304 33.85289001 66.85224304 33.85289001 70.25224304 C31.75847883 72.34665423 27.1862332 71.41638806 24.29429626 71.42021179 C23.43480881 71.42354019 22.57532135 71.42686859 21.68978882 71.43029785 C19.8681034 71.43537075 18.04640866 71.43770607 16.22471619 71.43754578 C13.43069712 71.43973107 10.63707345 71.45787948 7.84312439 71.47685242 C6.07684971 71.47978644 4.31057314 71.48177118 2.54429626 71.48271179 C1.7046785 71.48989731 0.86506073 71.49708282 0 71.50448608 C-5.91828817 71.48106485 -5.91828817 71.48106485 -8.14710999 69.25224304 C-8.40107727 66.48161316 -8.40107727 66.48161316 -8.40589905 62.90653992 C-8.40940369 62.25597122 -8.41290833 61.60540253 -8.41651917 60.93511963 C-8.42533628 58.78030287 -8.41948761 56.62581326 -8.41273499 54.47099304 C-8.41408165 52.97648556 -8.41602219 51.48197851 -8.41853333 49.98747253 C-8.42148455 46.85351902 -8.41718706 43.71967942 -8.40785217 40.58573914 C-8.39645755 36.56374291 -8.40301704 32.54201359 -8.4149971 28.52002716 C-8.42221579 25.43343587 -8.41992775 22.34690812 -8.41474152 19.26031494 C-8.41340504 17.77710946 -8.41505268 16.29389826 -8.41970062 14.81069946 C-8.4247661 12.73962573 -8.41705583 10.66898738 -8.40589905 8.59794617 C-8.40430786 7.418172 -8.40271667 6.23839783 -8.40107727 5.02287292 C-7.8964812 -0.48196588 -4.78596435 0.01894013 0 0 Z " fill="#080808" transform="translate(509.14710998535156,63.74775695800781)"/>
<path d="M0 0 C1.63984529 0.00031732 3.27971127 0.01165397 4.91943359 0.03173828 C6.21365738 0.03598312 6.21365738 0.03598312 7.5340271 0.04031372 C10.29544829 0.05152746 13.05654759 0.07663394 15.81787109 0.10205078 C17.68765808 0.11207905 19.55745015 0.12120517 21.42724609 0.12939453 C26.01591218 0.15147066 30.60433702 0.18600844 35.19287109 0.22705078 C35.19287109 3.85705078 35.19287109 7.48705078 35.19287109 11.22705078 C26.28287109 11.22705078 17.37287109 11.22705078 8.19287109 11.22705078 C8.19287109 17.16705078 8.19287109 23.10705078 8.19287109 29.22705078 C15.78287109 29.22705078 23.37287109 29.22705078 31.19287109 29.22705078 C31.19287109 32.52705078 31.19287109 35.82705078 31.19287109 39.22705078 C30.19287109 40.22705078 30.19287109 40.22705078 28.05981445 40.34057617 C26.68515015 40.33272095 26.68515015 40.33272095 25.28271484 40.32470703 C24.29335938 40.32148437 23.30400391 40.31826172 22.28466797 40.31494141 C21.24375 40.3065625 20.20283203 40.29818359 19.13037109 40.28955078 C18.08558594 40.28503906 17.04080078 40.28052734 15.96435547 40.27587891 C13.37383655 40.26405005 10.78334687 40.24611397 8.19287109 40.22705078 C8.19287109 46.82705078 8.19287109 53.42705078 8.19287109 60.22705078 C10.13033203 60.21544922 12.06779297 60.20384766 14.06396484 60.19189453 C16.5860993 60.18251857 19.1082348 60.17341816 21.63037109 60.16455078 C22.90976562 60.15617187 24.18916016 60.14779297 25.50732422 60.13916016 C26.72226562 60.1359375 27.93720703 60.13271484 29.18896484 60.12939453 C30.31488037 60.12415771 31.4407959 60.1189209 32.60083008 60.11352539 C35.19287109 60.22705078 35.19287109 60.22705078 36.19287109 61.22705078 C36.43167706 68.74943884 36.43167706 68.74943884 35.19287109 71.22705078 C29.67530633 71.27640288 24.15786939 71.3127474 18.64013672 71.33691406 C16.76218427 71.34698613 14.88424756 71.3606444 13.00634766 71.37792969 C10.31067019 71.40212531 7.61519963 71.41352161 4.91943359 71.42236328 C4.07667877 71.43268585 3.23392395 71.44300842 2.3656311 71.4536438 C0.30665862 71.45404222 -1.75180825 71.34962666 -3.80712891 71.22705078 C-6.58804776 68.44613193 -6.0606649 66.77619853 -6.06591797 62.88134766 C-6.06942261 62.23077896 -6.07292725 61.58021027 -6.07653809 60.90992737 C-6.0853552 58.75511061 -6.07950653 56.600621 -6.07275391 54.44580078 C-6.07410057 52.9512933 -6.07604111 51.45678625 -6.07855225 49.96228027 C-6.08150347 46.82832676 -6.07720598 43.69448716 -6.06787109 40.56054688 C-6.05647647 36.53855065 -6.06303596 32.51682133 -6.07501602 28.4948349 C-6.08223471 25.40824361 -6.07994667 22.32171586 -6.07476044 19.23512268 C-6.07342396 17.7519172 -6.0750716 16.268706 -6.07971954 14.7855072 C-6.08478502 12.71443347 -6.07707475 10.64379512 -6.06591797 8.57275391 C-6.06432678 7.39297974 -6.0627356 6.21320557 -6.06109619 4.99768066 C-5.64784247 0.48933181 -4.42226884 0.26373669 0 0 Z " fill="#090908" transform="translate(677.80712890625,63.77294921875)"/>
<path d="M0 0 C2.0486746 1.6037136 2.89727247 2.38241189 3.328125 4.97265625 C3.11111111 10.77777778 3.11111111 10.77777778 2 13 C-1.0020784 12.55851788 -3.04012357 11.97667234 -5.6875 10.4375 C-10.19088504 8.48320083 -14.15914617 8.27180318 -19 9 C-21.84074462 10.33822159 -21.84074462 10.33822159 -23 13 C-23.07262054 17.06675047 -22.77183417 19.15580637 -20 22.1875 C-16.88145403 24.07162152 -13.74733957 25.50864398 -10.40625 26.9453125 C-3.04595491 30.17141587 1.88731476 32.93132224 6 40 C7.78075211 45.73287292 7.91822362 51.66417947 5.4375 57.1875 C1.77814672 63.65579348 -3.91596108 67.82730201 -11 70 C-13.8273203 70.39787377 -16.58603254 70.4295537 -19.4375 70.375 C-20.18596191 70.36702393 -20.93442383 70.35904785 -21.70556641 70.35083008 C-27.7581093 70.19419624 -32.67430454 69.46919384 -37.68359375 65.75 C-39.56427938 63.24986005 -39.29634258 61.39637321 -39.1875 58.3125 C-39.16042969 57.31863281 -39.13335938 56.32476562 -39.10546875 55.30078125 C-39.07066406 54.54152344 -39.03585937 53.78226563 -39 53 C-35.44501259 53.59986466 -32.46793095 54.58392127 -29.1875 56.0625 C-23.48196624 58.39735385 -19.18308113 58.83036899 -13.125 57.25 C-10.50060225 55.70623662 -9.79576014 54.94431252 -9 52 C-8.83974601 48.45421315 -8.83974601 48.45421315 -10 45 C-13.27428679 42.06153749 -16.67432711 40.75021768 -20.75 39.3125 C-26.89675675 36.95624324 -31.77256109 33.02414855 -36 28 C-38.58291831 21.9168653 -39.57834425 14.9197723 -37.0546875 8.65234375 C-29.40155314 -4.22321248 -13.01249156 -6.84423258 0 0 Z " fill="#0A0909" transform="translate(654,66)"/>
<path d="M0 0 C1.093125 0.00257812 2.18625 0.00515625 3.3125 0.0078125 C4.405625 0.00523438 5.49875 0.00265625 6.625 0 C9.3125 0.1328125 9.3125 0.1328125 10.3125 1.1328125 C10.41202293 3.27481574 10.44049679 5.42013955 10.44189453 7.56445312 C10.44364685 8.23598923 10.44539917 8.90752533 10.44720459 9.59941101 C10.4516223 11.82932078 10.44868542 14.05915186 10.4453125 16.2890625 C10.44598556 17.83223486 10.44695561 19.37540711 10.44821167 20.9185791 C10.44968853 24.1568299 10.44753447 27.39505317 10.44287109 30.63330078 C10.4371738 34.79323773 10.44045287 38.95311016 10.44644356 43.11304474 C10.45004949 46.30080658 10.44891044 49.48855301 10.44631577 52.67631531 C10.44564658 54.21058662 10.44647461 55.74485932 10.44879532 57.27912903 C10.45132238 59.41984791 10.44748054 61.56046092 10.44189453 63.70117188 C10.44070114 65.53198303 10.44070114 65.53198303 10.43948364 67.39978027 C10.3125 70.1328125 10.3125 70.1328125 9.3125 71.1328125 C7.12610547 71.20540196 4.93749611 71.21655033 2.75 71.1953125 C1.55246094 71.18628906 0.35492187 71.17726563 -0.87890625 71.16796875 C-2.26916016 71.15056641 -2.26916016 71.15056641 -3.6875 71.1328125 C-3.71062545 62.02322085 -3.72841612 52.91363924 -3.73931217 43.8040247 C-3.74454056 39.57449879 -3.7516374 35.3449929 -3.76293945 31.11547852 C-3.77376991 27.03712707 -3.77977717 22.95879493 -3.78237724 18.88043022 C-3.78423121 17.32103611 -3.78785127 15.7616431 -3.79323006 14.20225716 C-3.80044262 12.02552088 -3.80149085 9.84886536 -3.80102539 7.67211914 C-3.803246 6.43079727 -3.80546661 5.1894754 -3.80775452 3.91053772 C-3.64625877 0.18019302 -3.64625877 0.18019302 0 0 Z " fill="#050404" transform="translate(801.6875,63.8671875)"/>
<path d="M0 0 C1.15371094 -0.01417969 2.30742188 -0.02835938 3.49609375 -0.04296875 C6.5625 0.1875 6.5625 0.1875 9.5625 2.1875 C9.5625 4.1675 9.5625 6.1475 9.5625 8.1875 C5.6025 7.8575 1.6425 7.5275 -2.4375 7.1875 C-2.7675 8.5075 -3.0975 9.8275 -3.4375 11.1875 C-0.31579897 13.78891752 2.99661693 15.43738112 6.66015625 17.125 C8.73509802 18.28389971 10.08806446 19.32078344 11.5625 21.1875 C11.97212682 25.42031052 12.0102592 28.06810201 10.4375 32 C7.38995362 35.55547078 4.58628442 36.97055982 -0.09765625 37.47265625 C-4.24790275 37.60112956 -7.67081537 37.44306154 -11.625 36.125 C-13.4375 34.1875 -13.4375 34.1875 -13.75 30.5 C-13.646875 29.406875 -13.54375 28.31375 -13.4375 27.1875 C-12.6125 27.5175 -11.7875 27.8475 -10.9375 28.1875 C-6.8501017 29.35532809 -3.66826656 29.3333885 0.5625 29.1875 C1.1159764 27.11196352 1.5625 25.34384036 1.5625 23.1875 C0.97082031 23.01734375 0.37914062 22.8471875 -0.23046875 22.671875 C-9.32602876 19.88237209 -9.32602876 19.88237209 -12.4375 16.1875 C-13.48332984 13.10876496 -13.83453951 10.41973715 -13.4375 7.1875 C-10.22148605 1.10860305 -6.50026486 0.03623336 0 0 Z " fill="#0E0D0D" transform="translate(628.4375,1064.8125)"/>
<path d="M0 0 C0 2.31 0 4.62 0 7 C-3.96 6.67 -7.92 6.34 -12 6 C-12.33 7.32 -12.66 8.64 -13 10 C-12.08476563 10.47050781 -11.16953125 10.94101563 -10.2265625 11.42578125 C-9.02583262 12.05428829 -7.8253232 12.68321663 -6.625 13.3125 C-6.02171875 13.62123047 -5.4184375 13.92996094 -4.796875 14.24804688 C-1.61741675 15.92609428 -0.03462448 16.94806328 2 20 C2.4606067 24.97455239 2.16781812 28.06753613 -1 32 C-5.05874561 35.02760483 -8.11083852 35.40693733 -13.125 35.375 C-14.95417969 35.38660156 -14.95417969 35.38660156 -16.8203125 35.3984375 C-20 35 -20 35 -21.91796875 33.67578125 C-23.54507439 31.15582342 -23.19460228 28.91903418 -23 26 C-18.25 26.875 -18.25 26.875 -16 28 C-11.85496339 28.24787017 -11.85496339 28.24787017 -8 27 C-7.7886547 24.6087705 -7.7886547 24.6087705 -9 22 C-11.1922307 20.77075323 -13.43116959 19.89090002 -15.76953125 18.97265625 C-19.24382674 17.4575957 -21.32226974 15.35546053 -23 12 C-23.49480737 7.62920155 -23.55812383 5.71758779 -20.8125 2.1875 C-14.10869789 -3.02656831 -7.84050696 -3.05971003 0 0 Z " fill="#0D0C0C" transform="translate(638,174)"/>
<path d="M0 0 C1.04929688 -0.01417969 2.09859375 -0.02835938 3.1796875 -0.04296875 C6.06047071 0.18245063 7.68740208 0.69785683 10.125 2.1875 C10.125 4.1675 10.125 6.1475 10.125 8.1875 C9.485625 8.0225 8.84625 7.8575 8.1875 7.6875 C4.14913348 7.02817485 0.20692742 7.10746221 -3.875 7.1875 C-3.83331483 9.59976272 -3.83331483 9.59976272 -2.875 12.1875 C-0.2330973 13.96006392 -0.2330973 13.96006392 3 15.25 C9.89352844 18.2482696 9.89352844 18.2482696 12.125 22.1875 C12.79642098 26.71959158 12.4931579 28.6136068 10 32.5 C5.46725891 36.73712754 1.12519561 37.58461952 -4.90625 37.45703125 C-7.9279028 37.04335259 -10.28801025 35.73969385 -12.875 34.1875 C-12.875 31.8775 -12.875 29.5675 -12.875 27.1875 C-12.05 27.5175 -11.225 27.8475 -10.375 28.1875 C-6.2876017 29.35532809 -3.10576656 29.3333885 1.125 29.1875 C1.455 27.8675 1.785 26.5475 2.125 25.1875 C1.465 24.795625 0.805 24.40375 0.125 24 C-0.865 23.401875 -1.855 22.80375 -2.875 22.1875 C-3.54917969 21.80078125 -4.22335938 21.4140625 -4.91796875 21.015625 C-5.62566406 20.59796875 -6.33335937 20.1803125 -7.0625 19.75 C-7.73667969 19.35941406 -8.41085938 18.96882812 -9.10546875 18.56640625 C-12.2724941 16.0985035 -12.8153222 13.65639696 -13.3125 9.75 C-12.76213565 5.26846174 -11.32329737 3.97897883 -7.875 1.1875 C-5.17835792 -0.16082104 -3.00912479 0.01839318 0 0 Z " fill="#0E0D0D" transform="translate(178.875,617.8125)"/>
<path d="M0 0 C1.59134766 -0.02126953 1.59134766 -0.02126953 3.21484375 -0.04296875 C6.0625 0.1875 6.0625 0.1875 9.0625 2.1875 C9.25 5.8125 9.25 5.8125 9.0625 9.1875 C8.19625 8.8575 7.33 8.5275 6.4375 8.1875 C3.10531725 7.20018659 0.51090462 7.02329026 -2.9375 7.1875 C-3.2675 8.8375 -3.5975 10.4875 -3.9375 12.1875 C-3.10605469 12.58582031 -2.27460937 12.98414063 -1.41796875 13.39453125 C-0.33128906 13.92433594 0.75539063 14.45414063 1.875 15 C3.49341797 15.78310547 3.49341797 15.78310547 5.14453125 16.58203125 C9.43659476 18.94352804 9.43659476 18.94352804 11.0625 21.1875 C11.97440283 25.57449198 11.5991522 29.21739794 9.4375 33.125 C5.12281096 36.8719668 0.75554767 37.57694802 -4.90234375 37.45703125 C-8.26118291 37.01219459 -10.91884247 35.69682877 -13.9375 34.1875 C-13.9375 32.2075 -13.9375 30.2275 -13.9375 28.1875 C-13.133125 28.3525 -12.32875 28.5175 -11.5 28.6875 C-7.27862648 29.27997348 -3.19085455 29.27256709 1.0625 29.1875 C1.0625 27.5375 1.0625 25.8875 1.0625 24.1875 C0.23105469 23.81238281 -0.60039063 23.43726563 -1.45703125 23.05078125 C-3.08705078 22.28314453 -3.08705078 22.28314453 -4.75 21.5 C-5.82894531 21.00113281 -6.90789062 20.50226562 -8.01953125 19.98828125 C-11.2233236 18.01110819 -12.42445471 16.60114253 -13.9375 13.1875 C-13.9375 8.67834613 -13.4356922 6.77511132 -10.5 3.3125 C-6.74523166 0.19878967 -4.82551045 0.02924552 0 0 Z " fill="#0E0E0E" transform="translate(1072.9375,616.8125)"/>
<path d="M0 0 C12.58580396 -0.70574602 12.58580396 -0.70574602 16.04296875 1.01953125 C18.65735864 3.80259146 19.33265232 6.82864917 19.5625 10.5 C19.30927755 14.91649743 17.89685455 17.60654182 15 21 C10.25368713 24.16420858 5.63243123 23.12112755 0 23 C0 15.41 0 7.82 0 0 Z " fill="#F4F4F4" transform="translate(456,76)"/>
<path d="M0 0 C13.16037736 -0.43867925 13.16037736 -0.43867925 18 3 C20.48386059 6.72579089 20.3804212 8.58711402 20 13 C18.7683795 15.77114613 17.83978036 17.43820249 15.3125 19.12890625 C12.20916563 20.29789876 9.55535712 20.19110714 6.25 20.125 C3.15625 20.063125 3.15625 20.063125 0 20 C0 13.4 0 6.8 0 0 Z " fill="#ECECEC" transform="translate(570,75)"/>
<path d="M0 0 C5.53588533 -0.02464775 11.071739 -0.04283496 16.60766602 -0.05493164 C18.4924373 -0.05997244 20.37720465 -0.06680498 22.26196289 -0.07543945 C24.96501636 -0.08751617 27.66801831 -0.09323068 30.37109375 -0.09765625 C31.21900986 -0.10281754 32.06692596 -0.10797882 32.9405365 -0.11329651 C34.96071068 -0.11349195 36.98077934 -0.06206211 39 0 C40 1 40 1 40.09765625 3.06640625 C40.08605469 3.89011719 40.07445312 4.71382813 40.0625 5.5625 C40.05347656 6.38878906 40.04445313 7.21507813 40.03515625 8.06640625 C40.02355469 8.70449219 40.01195312 9.34257813 40 10 C39.34 10.33 38.68 10.66 38 11 C38 8.03 38 5.06 38 2 C25.13 2 12.26 2 -1 2 C-0.67 1.34 -0.34 0.68 0 0 Z " fill="#3A3939" transform="translate(503,64)"/>
<path d="M0 0 C1.32 0.33 2.64 0.66 4 1 C3.67 3.64 3.34 6.28 3 9 C2.01 9.33 1.02 9.66 0 10 C0 6.7 0 3.4 0 0 Z " fill="#1C1C1C" transform="translate(754,95)"/>
<path d="M0 0 C0.66 0.33 1.32 0.66 2 1 C-0.97 4.3 -3.94 7.6 -7 11 C-7.33 10.34 -7.66 9.68 -8 9 C-6.85459775 7.68712379 -5.70866567 6.37470979 -4.5625 5.0625 C-3.92441406 4.33160156 -3.28632812 3.60070312 -2.62890625 2.84765625 C-1.77458541 1.87860647 -0.91348825 0.91348825 0 0 Z " fill="#DFDEDF" transform="translate(748,77)"/>
<path d="M0 0 C1.4540625 0.0309375 1.4540625 0.0309375 2.9375 0.0625 C2.298125 0.289375 1.65875 0.51625 1 0.75 C-1.33443661 1.91500896 -1.33443661 1.91500896 -1.8125 4.6875 C-1.895 5.47125 -1.9775 6.255 -2.0625 7.0625 C-3.0525 6.4025 -4.0425 5.7425 -5.0625 5.0625 C-3.9375 0.08035714 -3.9375 0.08035714 0 0 Z " fill="#DBDBDB" transform="translate(629.0625,1070.9375)"/>
<path d="M0 0 C2.31 0.33 4.62 0.66 7 1 C6.071875 1.3403125 6.071875 1.3403125 5.125 1.6875 C2.38589791 3.37929835 1.94975528 4.99244161 1 8 C0.67 8 0.34 8 0 8 C0 5.36 0 2.72 0 0 Z " fill="#F3F2F2" transform="translate(517,105)"/>
<path d="M0 0 C0.66 0.33 1.32 0.66 2 1 C2 3.31 2 5.62 2 8 C0.68 7.34 -0.64 6.68 -2 6 C-1.34 4.02 -0.68 2.04 0 0 Z " fill="#1E1E1E" transform="translate(1080,618)"/>
<path d="M0 0 C0.99 0.33 1.98 0.66 3 1 C2.6875 2.9375 2.6875 2.9375 2 5 C1.01 5.33 0.02 5.66 -1 6 C-1.625 4.125 -1.625 4.125 -2 2 C-1.34 1.34 -0.68 0.68 0 0 Z " fill="#E6E6E7" transform="translate(626,179)"/>
<path d="M0 0 C0.66 0.33 1.32 0.66 2 1 C0.35 2.98 -1.3 4.96 -3 7 C-3.99 6.67 -4.98 6.34 -6 6 C-4.02 4.02 -2.04 2.04 0 0 Z " fill="#131313" transform="translate(737,69)"/>
</svg>
