<?xml version="1.0" encoding="UTF-8"?>
<svg version="1.1" xmlns="http://www.w3.org/2000/svg" width="1254" height="1254">
<path d="M0 0 C413.82 0 827.64 0 1254 0 C1254 413.82 1254 827.64 1254 1254 C840.18 1254 426.36 1254 0 1254 C0 840.18 0 426.36 0 0 Z " fill="#FDFDFD" transform="translate(0,0)"/>
<path d="M0 0 C3.9771073 1.32570243 4.29899039 2.84172827 6.265625 6.4921875 C6.73044281 7.34485703 6.73044281 7.34485703 7.20465088 8.2147522 C8.22838405 10.09696827 9.23895781 11.98594126 10.25 13.875 C10.96705876 15.19783001 11.68517251 16.52008864 12.40429688 17.84179688 C13.88561237 20.56552992 15.362974 23.29135189 16.83789062 26.01855469 C20.00993785 31.87276993 23.25626225 37.68525485 26.5 43.5 C33.34996889 55.81317299 40.15991511 68.14815823 46.96073914 80.48851013 C49.34022963 84.80541472 51.72396961 89.11995527 54.109375 93.43359375 C60.81617985 105.56506279 67.48864478 117.71299419 74.0715332 129.91235352 C78.29015096 137.71902759 82.57676872 145.48703623 86.875 153.25 C92.61315891 163.61398665 98.25459114 174.02546995 103.82998657 184.47784424 C107.89432445 192.09603233 112.0120508 199.67754161 116.23071289 207.21118164 C119.82517673 213.64644331 123.32292821 220.13236501 126.8125 226.625 C127.40740234 227.73157959 128.00230469 228.83815918 128.61523438 229.97827148 C130.41049353 233.31866653 132.20525011 236.65933131 134 240 C140.42736012 251.96285887 146.90255654 263.88742395 153.625 275.6875 C158.22558814 283.76594634 162.63691849 291.91932672 166.91552734 300.17236328 C170.11894738 306.34469407 173.40655691 312.46494963 176.75 318.5625 C181.36103984 326.97428722 185.91501669 335.41535017 190.4375 343.875 C199.67739735 361.15339934 209.01646286 378.37694263 218.41088867 395.57177734 C222.30103731 402.70000191 226.15468187 409.84750858 230 417 C235.80347598 427.79387775 241.65311828 438.56161514 247.53222656 449.31445312 C250.02456567 453.87462116 252.51203166 458.43744634 255 463 C257.98708673 468.4772154 260.97468942 473.95414606 263.96484375 479.4296875 C270.78891724 491.92832777 277.58156862 504.44372436 284.35888672 516.96777344 C287.07122138 521.97925759 289.78571261 526.98957329 292.5 532 C293.58334382 533.99999432 294.66667715 535.99999432 295.75 538 C296.554375 539.485 296.554375 539.485 297.375 541 C303.33333333 552 309.29166667 563 315.25 574 C315.78608887 574.98967773 316.32217773 575.97935547 316.87451172 576.99902344 C317.95955652 579.00223322 319.04451725 581.00548855 320.12939453 583.00878906 C322.8108603 587.96005329 325.49370662 592.91055853 328.1796875 597.859375 C334.0057356 608.59772127 339.80114812 619.35183559 345.5625 630.125 C351.00989602 640.31073732 356.50949716 650.46660201 362.05078125 660.6015625 C370.56189365 676.1697701 378.9721728 691.79205587 387.34301758 707.43603516 C391.54975906 715.29731041 395.76982427 723.15130505 400 731 C406.7800053 743.58402061 413.54592748 756.17540285 420.27978516 768.78417969 C421.903727 771.82002442 423.53522935 774.85169324 425.16796875 777.8828125 C426.09151013 779.60918016 427.01471302 781.33572897 427.9375 783.0625 C428.35676758 783.83585693 428.77603516 784.60921387 429.20800781 785.40600586 C432 790.6581551 432 790.6581551 432 794 C148.2 794 -135.6 794 -428 794 C-426.51813514 789.55440543 -425.07197874 785.94142645 -422.9453125 781.84375 C-422.64810303 781.26884323 -422.35089355 780.69393646 -422.04467773 780.10160828 C-421.07612483 778.23193554 -420.10088209 776.36585635 -419.125 774.5 C-418.44114048 773.18535631 -417.7573852 771.8706584 -417.07373047 770.5559082 C-412.70905584 762.18086329 -408.24745324 753.86303989 -403.69506836 745.58837891 C-399.28229608 737.55761371 -394.97843388 729.47126629 -390.6875 721.375 C-389.22280395 718.61190083 -387.75799974 715.84885909 -386.29296875 713.0859375 C-385.93116516 712.40358536 -385.56936157 711.72123322 -385.19659424 711.01820374 C-381.04674062 703.19619972 -376.85863727 695.39481198 -372.67138672 687.59277344 C-368.22761899 679.30666782 -363.8149347 671.00450261 -359.41107178 662.69714355 C-353.81793836 652.14728636 -348.18876226 641.62087968 -342.44970703 631.14941406 C-338.48730414 623.91348784 -334.57950799 616.64899695 -330.6875 609.375 C-330.37295868 608.78716736 -330.05841736 608.19933472 -329.73434448 607.59368896 C-328.13159397 604.59790796 -326.52948952 601.60178205 -324.92773438 598.60546875 C-319.29327516 588.06596703 -313.64785612 577.53232724 -308 567 C-307.38705078 565.85660156 -306.77410156 564.71320312 -306.14257812 563.53515625 C-300.13477366 552.33330285 -294.11527301 541.14241993 -287.90161133 530.05322266 C-283.62538134 522.38987121 -279.51421805 514.63814029 -275.38580322 506.89459229 C-271.82189301 500.21312156 -268.24520908 493.54658753 -264.4375 487 C-262.24225608 483.21800194 -260.17462705 479.42645977 -258.25 475.5 C-255.54807288 469.99527381 -252.6390081 464.6232833 -249.6875 459.25 C-244.58711999 449.95799367 -239.58760539 440.61599317 -234.625 431.25 C-228.84281278 420.3404188 -223.02852779 409.44936699 -217.16625977 398.58251953 C-212.95195127 390.77030761 -208.75263714 382.95020308 -204.5625 375.125 C-203.93972168 373.96194336 -203.31694336 372.79888672 -202.67529297 371.60058594 C-201.41379667 369.24452132 -200.15243054 366.88838704 -198.89111328 364.53222656 C-195.76209039 358.68742893 -192.63087309 352.84380667 -189.5 347 C-188.24999097 344.66667151 -186.99999097 342.33333817 -185.75 340 C-183.25 335.33333333 -180.75 330.66666667 -178.25 326 C-177.63116943 324.84483887 -177.01233887 323.68967773 -176.37475586 322.49951172 C-175.1256058 320.16778663 -173.87641964 317.83608088 -172.62719727 315.50439453 C-169.8047512 310.23617187 -166.98255876 304.9678143 -164.16183472 299.69866943 C-157.21310272 286.71841746 -150.25145182 273.74529773 -143.26708984 260.78417969 C-139.02168023 252.90342212 -134.78872005 245.01606387 -130.5625 237.125 C-129.94205811 235.96661621 -129.32161621 234.80823242 -128.68237305 233.61474609 C-125.82189651 228.27306635 -122.96264279 222.93073809 -120.10600281 217.58700562 C-113.11093774 204.50261738 -106.0806103 191.43900015 -98.9609375 178.421875 C-95.79070421 172.62354584 -92.64463288 166.81224213 -89.5 161 C-79.12311537 141.83075724 -68.65285791 122.71451686 -58.11167908 103.63520813 C-55.70913367 99.28598491 -53.31061636 94.93455842 -50.9140625 90.58203125 C-42.91133047 76.05071664 -34.85371553 61.55159219 -26.73095703 47.08691406 C-24.95055999 43.91183082 -23.175743 40.73368405 -21.40234375 37.5546875 C-14.37878886 24.97065988 -7.26797881 12.44455963 0 0 Z " fill="#FDCA02" transform="translate(623,183)"/>
<path d="M0 0 C3.9771073 1.32570243 4.29899039 2.84172827 6.265625 6.4921875 C6.73044281 7.34485703 6.73044281 7.34485703 7.20465088 8.2147522 C8.22838405 10.09696827 9.23895781 11.98594126 10.25 13.875 C10.96705876 15.19783001 11.68517251 16.52008864 12.40429688 17.84179688 C13.88561237 20.56552992 15.362974 23.29135189 16.83789062 26.01855469 C20.00993785 31.87276993 23.25626225 37.68525485 26.5 43.5 C33.34996889 55.81317299 40.15991511 68.14815823 46.96073914 80.48851013 C49.34022963 84.80541472 51.72396961 89.11995527 54.109375 93.43359375 C60.81617985 105.56506279 67.48864478 117.71299419 74.0715332 129.91235352 C78.29015096 137.71902759 82.57676872 145.48703623 86.875 153.25 C92.61315891 163.61398665 98.25459114 174.02546995 103.82998657 184.47784424 C107.89432445 192.09603233 112.0120508 199.67754161 116.23071289 207.21118164 C119.82517673 213.64644331 123.32292821 220.13236501 126.8125 226.625 C127.40740234 227.73157959 128.00230469 228.83815918 128.61523438 229.97827148 C130.41049353 233.31866653 132.20525011 236.65933131 134 240 C140.42736012 251.96285887 146.90255654 263.88742395 153.625 275.6875 C158.22558814 283.76594634 162.63691849 291.91932672 166.91552734 300.17236328 C170.11894738 306.34469407 173.40655691 312.46494963 176.75 318.5625 C181.36103984 326.97428722 185.91501669 335.41535017 190.4375 343.875 C199.67739735 361.15339934 209.01646286 378.37694263 218.41088867 395.57177734 C222.30103731 402.70000191 226.15468187 409.84750858 230 417 C235.80347598 427.79387775 241.65311828 438.56161514 247.53222656 449.31445312 C250.02456567 453.87462116 252.51203166 458.43744634 255 463 C257.98708673 468.4772154 260.97468942 473.95414606 263.96484375 479.4296875 C270.78891724 491.92832777 277.58156862 504.44372436 284.35888672 516.96777344 C287.07122138 521.97925759 289.78571261 526.98957329 292.5 532 C293.58334382 533.99999432 294.66667715 535.99999432 295.75 538 C296.554375 539.485 296.554375 539.485 297.375 541 C303.33333333 552 309.29166667 563 315.25 574 C315.78608887 574.98967773 316.32217773 575.97935547 316.87451172 576.99902344 C317.95955652 579.00223322 319.04451725 581.00548855 320.12939453 583.00878906 C322.8108603 587.96005329 325.49370662 592.91055853 328.1796875 597.859375 C334.0057356 608.59772127 339.80114812 619.35183559 345.5625 630.125 C351.00989602 640.31073732 356.50949716 650.46660201 362.05078125 660.6015625 C370.56189365 676.1697701 378.9721728 691.79205587 387.34301758 707.43603516 C391.54975906 715.29731041 395.76982427 723.15130505 400 731 C406.7800053 743.58402061 413.54592748 756.17540285 420.27978516 768.78417969 C421.903727 771.82002442 423.53522935 774.85169324 425.16796875 777.8828125 C426.09151013 779.60918016 427.01471302 781.33572897 427.9375 783.0625 C428.35676758 783.83585693 428.77603516 784.60921387 429.20800781 785.40600586 C432 790.6581551 432 790.6581551 432 794 C148.2 794 -135.6 794 -428 794 C-426.51813514 789.55440543 -425.07197874 785.94142645 -422.9453125 781.84375 C-422.64810303 781.26884323 -422.35089355 780.69393646 -422.04467773 780.10160828 C-421.07612483 778.23193554 -420.10088209 776.36585635 -419.125 774.5 C-418.44114048 773.18535631 -417.7573852 771.8706584 -417.07373047 770.5559082 C-412.70905584 762.18086329 -408.24745324 753.86303989 -403.69506836 745.58837891 C-399.28229608 737.55761371 -394.97843388 729.47126629 -390.6875 721.375 C-389.22280395 718.61190083 -387.75799974 715.84885909 -386.29296875 713.0859375 C-385.93116516 712.40358536 -385.56936157 711.72123322 -385.19659424 711.01820374 C-381.04674062 703.19619972 -376.85863727 695.39481198 -372.67138672 687.59277344 C-368.22761899 679.30666782 -363.8149347 671.00450261 -359.41107178 662.69714355 C-353.81793836 652.14728636 -348.18876226 641.62087968 -342.44970703 631.14941406 C-338.48730414 623.91348784 -334.57950799 616.64899695 -330.6875 609.375 C-330.37295868 608.78716736 -330.05841736 608.19933472 -329.73434448 607.59368896 C-328.13159397 604.59790796 -326.52948952 601.60178205 -324.92773438 598.60546875 C-319.29327516 588.06596703 -313.64785612 577.53232724 -308 567 C-307.38705078 565.85660156 -306.77410156 564.71320312 -306.14257812 563.53515625 C-300.13477366 552.33330285 -294.11527301 541.14241993 -287.90161133 530.05322266 C-283.62538134 522.38987121 -279.51421805 514.63814029 -275.38580322 506.89459229 C-271.82189301 500.21312156 -268.24520908 493.54658753 -264.4375 487 C-262.24225608 483.21800194 -260.17462705 479.42645977 -258.25 475.5 C-255.54807288 469.99527381 -252.6390081 464.6232833 -249.6875 459.25 C-244.58711999 449.95799367 -239.58760539 440.61599317 -234.625 431.25 C-228.84281278 420.3404188 -223.02852779 409.44936699 -217.16625977 398.58251953 C-212.95195127 390.77030761 -208.75263714 382.95020308 -204.5625 375.125 C-203.93972168 373.96194336 -203.31694336 372.79888672 -202.67529297 371.60058594 C-201.41379667 369.24452132 -200.15243054 366.88838704 -198.89111328 364.53222656 C-195.76209039 358.68742893 -192.63087309 352.84380667 -189.5 347 C-188.24999097 344.66667151 -186.99999097 342.33333817 -185.75 340 C-183.25 335.33333333 -180.75 330.66666667 -178.25 326 C-177.63116943 324.84483887 -177.01233887 323.68967773 -176.37475586 322.49951172 C-175.1256058 320.16778663 -173.87641964 317.83608088 -172.62719727 315.50439453 C-169.8047512 310.23617187 -166.98255876 304.9678143 -164.16183472 299.69866943 C-157.21310272 286.71841746 -150.25145182 273.74529773 -143.26708984 260.78417969 C-139.02168023 252.90342212 -134.78872005 245.01606387 -130.5625 237.125 C-129.94205811 235.96661621 -129.32161621 234.80823242 -128.68237305 233.61474609 C-125.82189651 228.27306635 -122.96264279 222.93073809 -120.10600281 217.58700562 C-113.11093774 204.50261738 -106.0806103 191.43900015 -98.9609375 178.421875 C-95.79070421 172.62354584 -92.64463288 166.81224213 -89.5 161 C-79.12311537 141.83075724 -68.65285791 122.71451686 -58.11167908 103.63520813 C-55.70913367 99.28598491 -53.31061636 94.93455842 -50.9140625 90.58203125 C-42.91133047 76.05071664 -34.85371553 61.55159219 -26.73095703 47.08691406 C-24.95055999 43.91183082 -23.175743 40.73368405 -21.40234375 37.5546875 C-14.37878886 24.97065988 -7.26797881 12.44455963 0 0 Z M0 18 C-0.37584229 18.72981079 -0.37584229 18.72981079 -0.75927734 19.47436523 C-5.19162078 28.05461828 -9.65944251 36.58930163 -14.625 44.875 C-19.21604499 52.55030455 -23.5638679 60.35291924 -27.875 68.1875 C-28.21954224 68.81361176 -28.56408447 69.43972351 -28.91906738 70.08480835 C-33.91654338 79.17260409 -38.885751 88.27584542 -43.84326172 97.38549805 C-47.26156603 103.66250376 -50.72084543 109.91555161 -54.20361328 116.15698242 C-56.51796348 120.31121784 -58.808667 124.4772976 -61.078125 128.65625 C-61.86896484 130.11224609 -61.86896484 130.11224609 -62.67578125 131.59765625 C-63.69077964 133.46898082 -64.7039408 135.34130362 -65.71484375 137.21484375 C-68.09697934 141.6071102 -70.5412994 145.936809 -73.13671875 150.20703125 C-75.51003022 154.12418452 -77.58643015 158.05655119 -79.5625 162.1875 C-82.80914506 168.84043489 -86.37730267 175.26858852 -90.0625 181.6875 C-95.17807804 190.61379989 -99.99753048 199.65851232 -104.6875 208.8125 C-108.62581784 216.49658911 -112.56214664 224.16977402 -116.8125 231.6875 C-121.67214149 240.28420057 -126.26853041 249.01605161 -130.875 257.75 C-135.92483543 267.32190844 -140.98310765 276.88585253 -146.1875 286.375 C-154.6941824 301.88727178 -163.02378077 317.49535605 -171.3125 333.125 C-171.673367 333.80543869 -172.03423401 334.48587738 -172.40603638 335.18693542 C-174.59259859 339.31010925 -174.59259859 339.31010925 -176.77874756 343.4335022 C-181.70449004 352.72241362 -186.69411937 361.97260009 -191.75463867 371.18896484 C-195.25464332 377.5828919 -198.64478137 384.02906639 -202 390.5 C-206.33134969 398.85271613 -210.76891693 407.13820412 -215.29345703 415.38769531 C-219.36553013 422.81794923 -223.3795635 430.27829863 -227.375 437.75 C-228.65228852 440.13805038 -229.92963565 442.5260694 -231.20703125 444.9140625 C-231.52336517 445.50547531 -231.8396991 446.09688812 -232.1656189 446.70622253 C-237.17571143 456.07003595 -242.21896585 465.4160264 -247.25732422 474.76464844 C-249.02863801 478.05316768 -250.79781145 481.34283025 -252.56640625 484.6328125 C-258.4997003 495.66745576 -264.45662871 506.68814286 -270.46582031 517.68164062 C-276.69756338 529.09210616 -282.84452828 540.54827181 -289 552 C-295.61582019 564.30816712 -302.23146628 576.61569041 -308.9375 588.875 C-315.3914804 600.67798239 -321.73470519 612.53993717 -328.07666016 624.40332031 C-331.213808 630.27100384 -334.35744513 636.13521108 -337.5 642 C-338.12068359 643.15886719 -338.74136719 644.31773437 -339.38085938 645.51171875 C-342.46615962 651.27222741 -345.55330717 657.03173031 -348.64453125 662.7890625 C-355.92805561 676.3604726 -363.15801629 689.95856392 -370.3510437 703.57809448 C-375.42853225 713.18859001 -380.56785621 722.76045068 -385.80322266 732.28613281 C-389.82849353 739.63102707 -393.69732597 747.05274556 -397.54541016 754.49169922 C-401.4593951 762.03315349 -405.52650996 769.4820553 -409.69946289 776.88330078 C-410.13379639 777.66044434 -410.56812988 778.43758789 -411.015625 779.23828125 C-411.40008789 779.91930908 -411.78455078 780.60033691 -412.18066406 781.30200195 C-413.14486083 782.98598727 -413.14486083 782.98598727 -413 785 C-139.1 785 134.8 785 417 785 C416.15600217 780.78001087 415.43345728 778.57504919 413.4375 774.94921875 C412.62647827 773.46156006 412.62647827 773.46156006 411.79907227 771.94384766 C410.90853149 770.33195557 410.90853149 770.33195557 410 768.6875 C409.04868758 766.94406581 408.09741191 765.20061103 407.14759827 763.45635986 C406.47670534 762.22448833 405.80508937 760.99301034 405.13279724 759.76190186 C401.58060844 753.25134392 398.10448996 746.70102386 394.63345337 740.14694214 C392.83585233 736.75310129 391.03522253 733.36086904 389.234375 729.96875 C388.87938431 729.30004379 388.52439362 728.63133759 388.15864563 727.94236755 C382.14004259 716.60991572 376.07168194 705.30408172 370 694 C369.40058594 692.88367188 368.80117188 691.76734375 368.18359375 690.6171875 C361.69922745 678.54478198 355.18528235 666.48966981 348.60864258 654.46728516 C344.53074167 647.0004407 340.5108149 639.50301068 336.5 632 C331.51371028 622.67266248 326.49305083 613.36531009 321.41796875 604.0859375 C317.76127244 597.3999673 314.12614021 590.7025887 310.5 584 C306.36977499 576.36639901 302.22481379 568.74114864 298.0625 561.125 C293.67766632 553.0997076 289.33040721 545.0547823 285 537 C278.71341165 525.30758216 272.36943271 513.64744991 266 502 C259.65292978 490.39344321 253.32979623 478.77486879 247.0625 467.125 C246.47557373 466.03437256 245.88864746 464.94374512 245.28393555 463.82006836 C240.46046227 454.85669581 240.46046227 454.85669581 238.32324219 450.88037109 C232.49416984 440.04134442 226.60158499 429.25080634 220.5 418.5625 C215.32108891 409.4841735 210.44684305 400.27353099 205.66186523 390.98242188 C202.17963136 384.23167853 198.5888943 377.56058815 194.86938477 370.93823242 C189.38648497 361.16037624 184.12031569 351.26467481 178.81884766 341.38769531 C175.86246114 335.88127662 172.90031559 330.37796147 169.9375 324.875 C169.35919434 323.80088867 168.78088867 322.72677734 168.18505859 321.62011719 C158.6714216 303.95688188 149.0994526 286.32570383 139.48388672 268.71777344 C136.48569871 263.22652155 133.49062149 257.73357198 130.49536133 252.24072266 C128.02245893 247.70619804 125.54810232 243.17248107 123.0703125 238.640625 C117.63575358 228.69623105 112.23762902 218.73338664 106.875 208.75 C100.96744208 197.75747585 94.95267356 186.8304133 88.84814453 175.94628906 C83.00723528 165.52683676 77.33100614 155.02671423 71.71374512 144.48510742 C67.43824335 136.46860841 63.07100776 128.51348406 58.5625 120.625 C53.51609893 111.79536242 48.69495365 102.86211237 43.9375 93.875 C38.90518681 84.36971788 33.7627721 74.94850191 28.37353516 65.6394043 C23.99241492 58.05176882 19.8255872 50.35530322 15.67236328 42.64111328 C11.2152735 34.36948277 6.64740449 26.16598204 2 18 C1.34 18 0.68 18 0 18 Z " fill="#0B0A07" transform="translate(623,183)"/>
<path d="M0 0 C0.71220703 -0.03287109 1.42441406 -0.06574219 2.15820312 -0.09960938 C6.09256234 -0.13964448 7.95947194 0.26228165 11.10546875 2.6796875 C13.06680657 5.27763216 13.96931267 6.87905358 14.6875 10 C15.72061644 13.93985083 17.01160871 17.5708053 18.625 21.3125 C21.16877646 27.24797841 23.23494628 33.28531955 25.1875 39.4375 C26.86222721 36.24790591 28.16606724 32.9942968 29.4375 29.625 C31.36558975 24.57089493 33.31627701 19.52750137 35.3125 14.5 C36.02792969 12.69208984 36.02792969 12.69208984 36.7578125 10.84765625 C40.35318047 2.27181953 40.35318047 2.27181953 42.1875 0.4375 C45.03085048 0.33763025 47.84447163 0.29872119 50.6875 0.3125 C51.88439453 0.30669922 51.88439453 0.30669922 53.10546875 0.30078125 C59.06089233 0.31089233 59.06089233 0.31089233 60.1875 1.4375 C60.28126053 3.24805025 60.3049411 5.06227201 60.30102539 6.87524414 C60.30091209 8.61693626 60.30091209 8.61693626 60.30079651 10.39381409 C60.29563522 11.657332 60.29047394 12.92084991 60.28515625 14.22265625 C60.2837413 15.50861191 60.28232635 16.79456757 60.28086853 18.11949158 C60.27704418 21.54393443 60.26721462 24.96833509 60.25616455 28.39276123 C60.24594864 31.88488189 60.24137053 35.37700934 60.23632812 38.86914062 C60.22559227 45.72527778 60.20851684 52.58138687 60.1875 59.4375 C58.37507948 59.46437279 56.56254767 59.48383715 54.75 59.5 C53.74066406 59.51160156 52.73132813 59.52320313 51.69140625 59.53515625 C49.1875 59.4375 49.1875 59.4375 48.1875 58.4375 C48.02708807 55.33664779 47.92786598 52.25562421 47.87109375 49.15234375 C47.85031265 48.22152481 47.82953156 47.29070587 47.80812073 46.3316803 C47.74252069 43.34619818 47.68369198 40.36062516 47.625 37.375 C47.5818247 35.35611024 47.53821075 33.3372298 47.49414062 31.31835938 C47.38682871 26.35816703 47.28559112 21.39788291 47.1875 16.4375 C44.71179931 23.35401561 42.23737034 30.27054363 39.81738281 37.20678711 C33.04536195 56.57963805 33.04536195 56.57963805 30.1875 59.4375 C27.5859375 59.6328125 27.5859375 59.6328125 24.5625 59.5625 C23.55960938 59.54445312 22.55671875 59.52640625 21.5234375 59.5078125 C20.36714844 59.47300781 20.36714844 59.47300781 19.1875 59.4375 C16.79572916 54.13739242 14.99027124 48.81251727 13.3125 43.25 C11.30416524 36.71535243 9.10268791 30.40786277 6.265625 24.17578125 C4.90148934 20.71107439 4.09060118 17.04990474 3.1875 13.4375 C2.8575 28.6175 2.5275 43.7975 2.1875 59.4375 C-1.7725 59.4375 -5.7325 59.4375 -9.8125 59.4375 C-9.85764375 52.04017543 -9.89435423 44.64292585 -9.91612434 37.24549294 C-9.9265717 33.81074541 -9.94074805 30.37609683 -9.96337891 26.94140625 C-9.98922063 22.99480362 -9.99896493 19.04824137 -10.0078125 15.1015625 C-10.01813507 13.86507965 -10.02845764 12.6285968 -10.03909302 11.35464478 C-10.03924408 10.21361298 -10.03939514 9.07258118 -10.03955078 7.89697266 C-10.043992 6.888815 -10.04843323 5.88065735 -10.05300903 4.84194946 C-9.47838097 -0.90280001 -4.57900596 0.03669729 0 0 Z " fill="#0B0B0B" transform="translate(711.8125,62.5625)"/>
<path d="M0 0 C2.08218362 -0.10832169 4.16599129 -0.18573541 6.25 -0.25 C7.99023438 -0.31960937 7.99023438 -0.31960937 9.765625 -0.390625 C13 0 13 0 15.265625 1.5390625 C17.49053693 4.69603213 18.49530064 7.94572165 19.5 11.625 C21.01216575 16.97493815 22.79407133 22.08181127 24.8984375 27.22900391 C27.01415566 32.55112296 28.86951577 37.96631084 30.75 43.375 C31.16121094 44.53644531 31.57242188 45.69789062 31.99609375 46.89453125 C32.38410156 48.00957031 32.77210938 49.12460938 33.171875 50.2734375 C33.6992627 51.78043213 33.6992627 51.78043213 34.23730469 53.31787109 C35 56 35 56 35 60 C30.71 60 26.42 60 22 60 C18 48.25 18 48.25 18 46 C10.74 46.33 3.48 46.66 -4 47 C-4.639375 48.959375 -5.27875 50.91875 -5.9375 52.9375 C-7.875 58.875 -7.875 58.875 -9 60 C-10.85287502 60.07226502 -12.70833878 60.0838122 -14.5625 60.0625 C-15.57441406 60.05347656 -16.58632813 60.04445312 -17.62890625 60.03515625 C-18.41136719 60.02355469 -19.19382812 60.01195312 -20 60 C-20.28276606 54.60675472 -19.4646616 50.86086483 -17.4375 45.875 C-14.49854456 38.45326945 -11.92936488 30.94522032 -9.44897461 23.35888672 C-6.79691881 15.27798049 -3.91694601 7.56375782 0 0 Z " fill="#0C0C0C" transform="translate(537,62)"/>
<path d="M0 0 C5.28 0 10.56 0 16 0 C19.6192245 8.91880324 23.08564954 17.8260193 25.8125 27.0625 C27.7105068 33.42730192 30.11941064 39.53615743 32.71411133 45.64477539 C34.63692762 50.35087745 35.34886276 53.91465438 35 59 C31.04 59 27.08 59 23 59 C21.09275253 54.66534667 19.50808924 50.52426773 18 46 C10.74 45.67 3.48 45.34 -4 45 C-4.33 46.98 -4.66 48.96 -5 51 C-7.10888252 57.10888252 -7.10888252 57.10888252 -9 59 C-10.85287502 59.07226502 -12.70833878 59.0838122 -14.5625 59.0625 C-15.57441406 59.05347656 -16.58632813 59.04445312 -17.62890625 59.03515625 C-18.41136719 59.02355469 -19.19382812 59.01195312 -20 59 C-19.44890475 52.5655906 -17.84259528 47.04798713 -15.625 41 C-15.32078125 40.14921875 -15.0165625 39.2984375 -14.703125 38.421875 C-13.32190943 34.57335983 -11.90580179 30.73909111 -10.4609375 26.9140625 C-8.62297947 22.0381472 -6.9345098 17.11038807 -5.25 12.1796875 C-5.0025 11.468125 -4.755 10.7565625 -4.5 10.0234375 C-4.2834375 9.39356934 -4.066875 8.76370117 -3.84375 8.11474609 C-2.73460537 5.33482399 -1.33851923 2.67703847 0 0 Z " fill="#0B0B0A" transform="translate(930,63)"/>
<path d="M0 0 C0.68578125 -0.03738281 1.3715625 -0.07476562 2.078125 -0.11328125 C4.0859375 -0.1484375 4.0859375 -0.1484375 7.625 0.375 C10.78236989 3.91098384 11.76114402 8.57298095 13.0625 13.0625 C14.70460511 18.53494252 16.52369161 23.81858551 18.73046875 29.09375 C19.65577791 31.45349039 20.37195414 33.81187161 21.0625 36.25 C22.47305806 41.21829896 24.48793073 45.82505529 26.63671875 50.515625 C27.625 53.375 27.625 53.375 27.625 59.375 C23.335 59.375 19.045 59.375 14.625 59.375 C13.305 55.085 11.985 50.795 10.625 46.375 C3.365 46.045 -3.895 45.715 -11.375 45.375 C-12.035 48.345 -12.695 51.315 -13.375 54.375 C-14.3125 57.4375 -14.3125 57.4375 -16.375 59.375 C-20.07637681 59.79113112 -23.66699489 59.65829411 -27.375 59.375 C-27.2854227 58.04060711 -27.1772897 56.70746081 -27.0625 55.375 C-27.00449219 54.6325 -26.94648437 53.89 -26.88671875 53.125 C-26.31655873 50.06093395 -25.32835338 47.38112501 -24.19750977 44.48535156 C-22.87962003 41.10398056 -21.70034626 37.67447016 -20.5 34.25 C-19.97410312 32.75645943 -19.44805922 31.26297062 -18.921875 29.76953125 C-18.17353555 27.64382012 -17.42530883 25.51807014 -16.67773438 23.39208984 C-8.50220831 0.17383697 -8.50220831 0.17383697 0 0 Z " fill="#090909" transform="translate(807.375,62.625)"/>
<path d="M0 0 C0.99 0.66 1.98 1.32 3 2 C3.29296875 4.1640625 3.29296875 4.1640625 3.1875 6.625 C3.14689453 7.85089844 3.14689453 7.85089844 3.10546875 9.1015625 C3.07066406 9.72804688 3.03585937 10.35453125 3 11 C0.625 11.625 0.625 11.625 -2 12 C-2.66 11.34 -3.32 10.68 -4 10 C-10.71040615 7.31583754 -19.40794792 6.21729694 -26.25390625 8.875 C-30.3584121 11.56996712 -33.59463387 15.24852405 -35 20 C-35.79966102 27.19694915 -35.79378008 33.72063987 -32 40 C-28.77445006 43.72178839 -25.82254584 46.70681302 -20.78125 47.23046875 C-19.65203125 47.20919922 -19.65203125 47.20919922 -18.5 47.1875 C-17.37078125 47.17783203 -17.37078125 47.17783203 -16.21875 47.16796875 C-13.67455364 47.03806998 -13.67455364 47.03806998 -10 46 C-10 41.38 -10 36.76 -10 32 C-12.9390625 32.0309375 -12.9390625 32.0309375 -15.9375 32.0625 C-17.95832876 32.08377188 -19.98035801 32.07244053 -22 32 C-23 31 -23 31 -23.125 27.5 C-23 24 -23 24 -22 23 C-18.19411856 22.74791278 -14.37574544 22.81477656 -10.5625 22.8125 C-8.94891602 22.79413086 -8.94891602 22.79413086 -7.30273438 22.77539062 C-6.27599609 22.77345703 -5.24925781 22.77152344 -4.19140625 22.76953125 C-2.77130249 22.76336792 -2.77130249 22.76336792 -1.32250977 22.75708008 C1 23 1 23 3 25 C3.22705078 27.79736328 3.22705078 27.79736328 3.1953125 31.3203125 C3.18886719 32.57714844 3.18242187 33.83398438 3.17578125 35.12890625 C3.15902344 36.44761719 3.14226562 37.76632813 3.125 39.125 C3.11496983 40.46483721 3.10584404 41.80468152 3.09765625 43.14453125 C3.07402075 46.42986573 3.04107234 49.71484465 3 53 C-7.19822088 58.56501901 -18.55153041 59.63661453 -29.984375 57.421875 C-38.13216702 54.63846779 -43.48128947 48.30820933 -47.5 40.875 C-51.02985738 31.86125705 -50.00444135 21.12025141 -46.2421875 12.36328125 C-42.58884627 5.41274211 -37.83222939 1.44407546 -30.69140625 -1.8984375 C-20.55574571 -4.92304731 -9.62217528 -4.23833911 0 0 Z " fill="#0D0D0D" transform="translate(349,65)"/>
<path d="M0 0 C2.43868168 -0.1079859 4.87259133 -0.18726589 7.3125 -0.25 C8.00279297 -0.28351562 8.69308594 -0.31703125 9.40429688 -0.3515625 C14.48644254 -0.44976821 14.48644254 -0.44976821 16.85546875 1.625 C18.21880621 4.45404155 19.14067013 7.22802329 20 10.25 C21.23830163 14.56341736 22.61898396 18.75000318 24.21923828 22.93798828 C25.79994941 27.1126869 27.24701729 31.33614957 28.71923828 35.55004883 C30.49213194 40.60891869 32.35593849 45.62327612 34.3359375 50.60546875 C35 53 35 53 35 59 C31.04 59 27.08 59 23 59 C19 49.5 19 49.5 19 45 C11.41 45 3.82 45 -4 45 C-4.66 47.97 -5.32 50.94 -6 54 C-6.99 56.475 -6.99 56.475 -8 59 C-11.63 59 -15.26 59 -19 59 C-19.45161071 52.72005485 -17.86890106 47.91321954 -15.6875 42.0625 C-15.37876953 41.20720703 -15.07003906 40.35191406 -14.75195312 39.47070312 C-13.32586989 35.5347134 -11.85769898 31.61470062 -10.38671875 27.6953125 C-9.27813398 24.7411683 -8.19187774 21.78181901 -7.125 18.8125 C-4.84010521 12.50689888 -2.42549784 6.25261533 0 0 Z " fill="#090909" transform="translate(659,63)"/>
<path d="M0 0 C0.75539063 -0.01160156 1.51078125 -0.02320313 2.2890625 -0.03515625 C8.54708302 -0.00289841 13.38522678 1.56761339 19 4.375 C19 8.005 19 11.635 19 15.375 C14 14.375 14 14.375 10.375 12.8125 C4.28367997 10.47499912 -2.68204033 10.26524181 -8.875 12.4375 C-13.62380018 15.38175611 -16.24240016 19.10220049 -18 24.375 C-18.8920895 32.42639001 -18.4563858 38.64488606 -13.76953125 45.40625 C-10.63488619 48.89380212 -7.50297428 50.14409831 -2.8828125 50.5703125 C0.33362302 50.65278521 2.94112832 50.39462389 6 49.375 C6.33 44.755 6.66 40.135 7 35.375 C4.0609375 35.4059375 4.0609375 35.4059375 1.0625 35.4375 C-0.95832876 35.45877188 -2.98035801 35.44744053 -5 35.375 C-6 34.375 -6 34.375 -6.125 30.875 C-6 27.375 -6 27.375 -5 26.375 C-3.30441274 26.27567847 -1.60474253 26.24419993 0.09375 26.2421875 C1.12371094 26.24089844 2.15367187 26.23960938 3.21484375 26.23828125 C4.84099609 26.24408203 4.84099609 26.24408203 6.5 26.25 C7.58410156 26.24613281 8.66820312 26.24226563 9.78515625 26.23828125 C10.81511719 26.23957031 11.84507812 26.24085937 12.90625 26.2421875 C14.33420898 26.24387939 14.33420898 26.24387939 15.79101562 26.24560547 C18 26.375 18 26.375 19 27.375 C19.08783542 29.59355264 19.10694609 31.81488496 19.09765625 34.03515625 C19.0962413 34.69962265 19.09482635 35.36408905 19.09336853 36.0486908 C19.08775518 38.17833899 19.07520054 40.30788339 19.0625 42.4375 C19.05748671 43.87825369 19.05292351 45.31900903 19.04882812 46.75976562 C19.03778145 50.29821102 19.02050792 53.83659539 19 57.375 C17.75108386 57.85698463 16.50081192 58.33545677 15.25 58.8125 C14.55390625 59.07933594 13.8578125 59.34617188 13.140625 59.62109375 C4.52570667 62.65517995 -6.97579973 62.93582232 -15.625 59.8125 C-22.87574129 56.2857789 -27.060855 51.2276834 -30.18408203 43.90551758 C-31.58750617 39.55288706 -31.57885561 35.34998312 -31.5 30.8125 C-31.51546875 29.91853516 -31.5309375 29.02457031 -31.546875 28.10351562 C-31.50271217 20.55719134 -29.57245878 15.27726119 -24.5625 9.625 C-23.2940625 8.51125 -23.2940625 8.51125 -22 7.375 C-21.236875 6.67375 -20.47375 5.9725 -19.6875 5.25 C-13.42635882 0.88176197 -7.43405552 -0.11417491 0 0 Z " fill="#0A0A0A" transform="translate(490,61.625)"/>
<path d="M0 0 C0.9075 0.00257812 1.815 0.00515625 2.75 0.0078125 C4.11125 0.00394531 4.11125 0.00394531 5.5 0 C7.75 0.1328125 7.75 0.1328125 8.75 1.1328125 C8.83737645 2.98650861 8.85698153 4.84348791 8.84765625 6.69921875 C8.84443359 7.82392578 8.84121094 8.94863281 8.83789062 10.10742188 C8.82951172 11.29142578 8.82113281 12.47542969 8.8125 13.6953125 C8.80798828 14.88318359 8.80347656 16.07105469 8.79882812 17.29492188 C8.78699675 20.24093476 8.77051287 23.18684931 8.75 26.1328125 C9.41 26.1328125 10.07 26.1328125 10.75 26.1328125 C11.01353271 25.40739258 11.27706543 24.68197266 11.54858398 23.93457031 C12.76758775 21.09179705 14.1889521 18.82624127 15.97265625 16.3046875 C16.59333984 15.42296875 17.21402344 14.54125 17.85351562 13.6328125 C18.49998047 12.7253125 19.14644531 11.8178125 19.8125 10.8828125 C20.46283203 9.95984375 21.11316406 9.036875 21.78320312 8.0859375 C26.56731673 1.31549577 26.56731673 1.31549577 27.75 0.1328125 C29.39230364 0.0082639 31.04052276 -0.04287274 32.6875 -0.0546875 C33.58339844 -0.06886719 34.47929688 -0.08304688 35.40234375 -0.09765625 C37.75 0.1328125 37.75 0.1328125 39.75 2.1328125 C39.39987933 5.45593315 37.93721905 7.51262386 35.9140625 10.1015625 C35.34429688 10.83761719 34.77453125 11.57367188 34.1875 12.33203125 C33.589375 13.09128906 32.99125 13.85054687 32.375 14.6328125 C31.20051808 16.14322702 30.02603882 17.65364362 28.8515625 19.1640625 C28.32900879 19.82986328 27.80645508 20.49566406 27.26806641 21.18164062 C26.51662354 22.1474707 26.51662354 22.1474707 25.75 23.1328125 C25.14978027 23.77154297 24.54956055 24.41027344 23.93115234 25.06835938 C22.45262739 27.10465293 22.45262739 27.10465293 23.3293457 29.53295898 C24.89590857 32.39983094 26.60931552 35.05147697 28.48046875 37.73046875 C29.20041016 38.77912109 29.92035156 39.82777344 30.66210938 40.90820312 C31.8044355 42.55844765 32.9468589 44.20865567 34.09936523 45.85180664 C35.21676711 47.4494182 36.31762777 49.05855912 37.41796875 50.66796875 C38.08078857 51.6206665 38.7436084 52.57336426 39.42651367 53.55493164 C40.75 56.1328125 40.75 56.1328125 40.45825195 58.47436523 C40.22452881 59.02165283 39.99080566 59.56894043 39.75 60.1328125 C35.60292001 60.74568146 31.88132508 60.93511271 27.75 60.1328125 C24.4621182 57.40252469 22.78683039 53.84417373 20.75 50.1328125 C19.87824038 48.74123961 18.99600857 47.35619244 18.10546875 45.9765625 C10.75 34.54899526 10.75 34.54899526 10.75 32.1328125 C10.09 32.1328125 9.43 32.1328125 8.75 32.1328125 C8.75 41.3728125 8.75 50.6128125 8.75 60.1328125 C4.79 60.1328125 0.83 60.1328125 -3.25 60.1328125 C-3.27255523 52.45744273 -3.29091753 44.78208521 -3.30181217 37.10669041 C-3.30703995 33.54303828 -3.31413569 29.97940993 -3.32543945 26.41577148 C-3.33834176 22.32275153 -3.34322906 18.2297567 -3.34765625 14.13671875 C-3.35281754 12.85132706 -3.35797882 11.56593536 -3.36329651 10.24159241 C-3.36337204 9.06044357 -3.36344757 7.87929474 -3.36352539 6.66235352 C-3.365746 5.61644547 -3.36796661 4.57053741 -3.37025452 3.49293518 C-3.2115639 0.37846315 -3.10690865 0.18339391 0 0 Z " fill="#080808" transform="translate(976.25,61.8671875)"/>
<path d="M0 0 C2.0390625 0.4140625 2.0390625 0.4140625 3.0390625 1.4140625 C3.3593297 4.36227567 3.29882601 5.97043055 1.78564453 8.5546875 C1.21185059 9.25078125 0.63805664 9.946875 0.046875 10.6640625 C-0.57574219 11.4375 -1.19835937 12.2109375 -1.83984375 13.0078125 C-2.49855469 13.801875 -3.15726563 14.5959375 -3.8359375 15.4140625 C-5.13036748 16.99301076 -6.41961974 18.57622094 -7.703125 20.1640625 C-8.56719971 21.20820312 -8.56719971 21.20820312 -9.44873047 22.2734375 C-11.17482092 24.71682805 -12.31181147 26.47429173 -12.9609375 29.4140625 C-11.6629667 32.43345442 -11.6629667 32.43345442 -9.4375 35.4140625 C-9.05733734 35.97222656 -8.67717468 36.53039062 -8.28549194 37.10546875 C-7.06927257 38.88742587 -5.82997416 40.6514367 -4.5859375 42.4140625 C-3.35150783 44.17808368 -2.1229456 45.94528568 -0.9078064 47.72265625 C0.19734076 49.33713412 1.32161186 50.93847146 2.44677734 52.5390625 C4.10111849 55.52610963 4.41194992 57.06807068 4.0390625 60.4140625 C2.12435406 60.54953715 0.20687769 60.64627119 -1.7109375 60.7265625 C-2.77828125 60.78457031 -3.845625 60.84257813 -4.9453125 60.90234375 C-8.99805347 60.24613569 -9.59274218 58.68573118 -11.9609375 55.4140625 C-13.13744993 53.663992 -14.28799191 51.89622636 -15.4140625 50.11328125 C-16.0328125 49.13681641 -16.6515625 48.16035156 -17.2890625 47.15429688 C-17.92328125 46.14689453 -18.5575 45.13949219 -19.2109375 44.1015625 C-19.860625 43.07482422 -20.5103125 42.04808594 -21.1796875 40.99023438 C-22.77609313 38.46650489 -24.36974564 35.94108122 -25.9609375 33.4140625 C-25.98599365 34.19644287 -26.0110498 34.97882324 -26.03686523 35.78491211 C-26.15243538 39.30731199 -26.27533699 42.8294181 -26.3984375 46.3515625 C-26.43775391 47.58326172 -26.47707031 48.81496094 -26.51757812 50.08398438 C-26.55947266 51.25380859 -26.60136719 52.42363281 -26.64453125 53.62890625 C-26.69951782 55.25493774 -26.69951782 55.25493774 -26.75561523 56.91381836 C-26.9609375 59.4140625 -26.9609375 59.4140625 -27.9609375 60.4140625 C-31.5909375 60.4140625 -35.2209375 60.4140625 -38.9609375 60.4140625 C-38.9609375 40.9440625 -38.9609375 21.4740625 -38.9609375 1.4140625 C-35.0009375 1.4140625 -31.0409375 1.4140625 -26.9609375 1.4140625 C-26.6309375 9.3340625 -26.3009375 17.2540625 -25.9609375 25.4140625 C-24.2903125 22.9596875 -22.6196875 20.5053125 -20.8984375 17.9765625 C-19.87998153 16.50746362 -18.85962541 15.03967675 -17.8359375 13.57421875 C-16.17477333 11.1905988 -14.57623621 8.80521066 -13.0234375 6.34765625 C-9.29059562 0.75736661 -6.77753246 -0.55285008 0 0 Z " fill="#090808" transform="translate(902.9609375,61.5859375)"/>
<path d="M0 0 C1.43352212 0.00015908 2.86704998 0.00585132 4.30053711 0.01586914 C5.43041298 0.01799156 5.43041298 0.01799156 6.58311462 0.02015686 C8.99807646 0.02577163 11.41294687 0.03832656 13.82788086 0.05102539 C15.46134307 0.05603849 17.09480672 0.06060173 18.72827148 0.06469727 C22.74067671 0.07574585 26.75301326 0.09302033 30.76538086 0.11352539 C30.79227302 1.59259431 30.81172707 3.07180022 30.82788086 4.55102539 C30.83948242 5.37473633 30.85108398 6.19844727 30.86303711 7.04711914 C30.76538086 9.11352539 30.76538086 9.11352539 29.76538086 10.11352539 C28.13065204 10.20052881 26.49224031 10.22053602 24.85522461 10.21118164 C23.86586914 10.20795898 22.87651367 10.20473633 21.85717773 10.20141602 C20.81625977 10.19303711 19.7753418 10.1846582 18.70288086 10.17602539 C17.6580957 10.17151367 16.61331055 10.16700195 15.53686523 10.16235352 C12.94634632 10.15052466 10.35585664 10.13258858 7.76538086 10.11352539 C7.76538086 14.73352539 7.76538086 19.35352539 7.76538086 24.11352539 C14.36538086 24.11352539 20.96538086 24.11352539 27.76538086 24.11352539 C27.76538086 26.75352539 27.76538086 29.39352539 27.76538086 32.11352539 C26.76538086 33.11352539 26.76538086 33.11352539 24.99951172 33.22705078 C24.25064697 33.22181396 23.50178223 33.21657715 22.73022461 33.21118164 C21.92133789 33.20795898 21.11245117 33.20473633 20.27905273 33.20141602 C19.42891602 33.19303711 18.5787793 33.1846582 17.70288086 33.17602539 C16.84887695 33.17151367 15.99487305 33.16700195 15.11499023 33.16235352 C12.99842422 33.15052912 10.88189401 33.13259308 8.76538086 33.11352539 C8.76538086 38.39352539 8.76538086 43.67352539 8.76538086 49.11352539 C16.02538086 49.11352539 23.28538086 49.11352539 30.76538086 49.11352539 C30.76538086 52.41352539 30.76538086 55.71352539 30.76538086 59.11352539 C25.94157284 59.13817729 21.11780119 59.15636232 16.29394531 59.16845703 C14.65168621 59.17349713 13.00943163 59.18032917 11.3671875 59.18896484 C9.01162607 59.20104465 6.65612377 59.20675678 4.30053711 59.21118164 C3.5619899 59.21634293 2.82344269 59.22150421 2.06251526 59.2268219 C0.29639998 59.22701789 -1.4695906 59.17547258 -3.23461914 59.11352539 C-4.95285004 57.39529449 -4.36216235 55.1275479 -4.36401367 52.78344727 C-4.36716583 51.64556763 -4.37031799 50.50768799 -4.37356567 49.33532715 C-4.37154144 48.09682007 -4.36951721 46.85831299 -4.36743164 45.58227539 C-4.36838837 44.32088745 -4.36934509 43.05949951 -4.37033081 41.7598877 C-4.37101289 39.08655401 -4.36965443 36.41331102 -4.36499023 33.73999023 C-4.35929295 30.30645848 -4.36257215 26.87300489 -4.3685627 23.43947601 C-4.37303676 20.17457296 -4.36990798 16.90967946 -4.36743164 13.64477539 C-4.36945587 12.40626831 -4.3714801 11.16776123 -4.37356567 9.89172363 C-4.37041351 8.75384399 -4.36726135 7.61596436 -4.36401367 6.44360352 C-4.36321808 5.43624146 -4.36242249 4.42887939 -4.36160278 3.39099121 C-4.16064665 -0.21317941 -3.71204177 0.13028149 0 0 Z " fill="#0B0B0B" transform="translate(263.234619140625,62.886474609375)"/>
<path d="M0 0 C2.625 1.5625 2.625 1.5625 3.625 2.5625 C3.69679964 4.08178038 3.70892007 5.60417482 3.6875 7.125 C3.67847656 7.95128906 3.66945313 8.77757813 3.66015625 9.62890625 C3.64855469 10.26699219 3.63695312 10.90507813 3.625 11.5625 C-3.125 10.6875 -3.125 10.6875 -5.375 9.5625 C-7.41555005 9.49184383 -9.45834257 9.47828024 -11.5 9.5 C-12.59570312 9.50902344 -13.69140625 9.51804687 -14.8203125 9.52734375 C-16.08488281 9.54474609 -16.08488281 9.54474609 -17.375 9.5625 C-17.8513346 14.05650054 -17.8513346 14.05650054 -16.29296875 18.08203125 C-13.07001989 20.56980644 -9.33252074 22.10418531 -5.64453125 23.78125 C-0.18734132 26.3754602 3.29055561 29.56083341 6.625 34.5625 C7.25193472 40.02266404 7.96873711 46.41081931 4.8125 51.1875 C-0.37139301 56.8157267 -4.45515108 59.2658414 -12.24609375 59.85546875 C-13.66379544 59.8942628 -15.08185813 59.92147854 -16.5 59.9375 C-17.52130005 59.95816528 -17.52130005 59.95816528 -18.56323242 59.97924805 C-24.2055076 59.9277737 -28.36061755 58.57688245 -32.375 54.5625 C-32.5703125 52.3984375 -32.5703125 52.3984375 -32.5 49.9375 C-32.47292969 48.71160156 -32.47292969 48.71160156 -32.4453125 47.4609375 C-32.42210937 46.83445313 -32.39890625 46.20796875 -32.375 45.5625 C-30.5 44.9765625 -30.5 44.9765625 -28.375 44.5625 C-26.375 45.9375 -26.375 45.9375 -24.375 47.5625 C-21.35046523 48.54237088 -18.48143103 48.75514378 -15.3125 48.8125 C-14.45527344 48.83828125 -13.59804688 48.8640625 -12.71484375 48.890625 C-10.32359062 48.74885897 -10.32359062 48.74885897 -8.609375 47.2265625 C-7.16179049 45.50265221 -7.16179049 45.50265221 -6.6875 42.6875 C-7.04900902 39.59571168 -7.04900902 39.59571168 -8.8515625 38.23828125 C-10.97807721 36.89544228 -13.1389574 35.71383982 -15.375 34.5625 C-27.17799103 28.3288011 -27.17799103 28.3288011 -30.6875 22.3125 C-32.13751094 16.51245626 -32.32577271 11.56287556 -29.3125 6.25 C-22.62999674 -2.97295905 -10.34790275 -4.33667293 0 0 Z " fill="#0D0C0C" transform="translate(629.375,63.4375)"/>
<path d="M0 0 C0.7425 -0.02449219 1.485 -0.04898438 2.25 -0.07421875 C7.43684431 -0.10171086 10.65058025 0.73803098 14.625 4.375 C15.2109375 6.734375 15.2109375 6.734375 15 9.125 C14.94585937 9.92421875 14.89171875 10.7234375 14.8359375 11.546875 C14.76632813 12.15015625 14.69671875 12.7534375 14.625 13.375 C11.61704933 12.95528595 8.98173058 12.53049794 6.1875 11.3125 C2.83098335 10.0845061 0.1709488 10.04667141 -3.375 10.375 C-5.41951019 11.41874022 -5.41951019 11.41874022 -6.375 13.375 C-7.04185938 15.83172892 -7.04185938 15.83172892 -6.375 18.375 C-2.08265436 22.37413038 2.94199954 24.70814934 8.18554688 27.19921875 C12.73469584 29.49436727 15.28329021 31.66822172 17.625 36.375 C18.56926112 42.09611147 18.41598384 47.52937104 16.125 52.875 C9.90788631 59.09211369 4.09389165 61.50103472 -4.625 61.625 C-9.94793005 61.59502855 -16.32803357 61.42196643 -20.375 57.375 C-20.44726502 55.52212498 -20.4588122 53.66666122 -20.4375 51.8125 C-20.42847656 50.80058594 -20.41945312 49.78867188 -20.41015625 48.74609375 C-20.39855469 47.96363281 -20.38695312 47.18117187 -20.375 46.375 C-17.76529774 46.94569922 -16.13888309 47.51897373 -13.8125 48.9375 C-9.09347689 50.91090966 -4.43220934 51.18478862 0.625 50.375 C3.22461228 48.44079824 3.56852406 47.70679616 4.125 44.4375 C3.92395605 41.24273183 3.92395605 41.24273183 1.46875 39.36328125 C-1.39776996 37.35907979 -4.19144506 35.93747251 -7.375 34.5 C-13.12601663 31.71291445 -16.48083497 29.16333007 -19.375 23.375 C-20.04316874 18.01446444 -20.63722572 12.65324807 -17.953125 7.80859375 C-12.516311 1.50049546 -8.29349768 0.01425 0 0 Z " fill="#0B0B0A" transform="translate(231.375,61.625)"/>
<path d="M0 0 C2.65075202 2.56914837 2.99300112 3.92464291 3.34057617 7.66699219 C3.34010383 9.12703929 3.32330994 10.58714311 3.29296875 12.046875 C3.28872391 12.81807678 3.28447906 13.58927856 3.28010559 14.3838501 C3.26335383 16.83959315 3.22570939 19.29450629 3.1875 21.75 C3.17244857 23.41795687 3.15876097 25.08592665 3.14648438 26.75390625 C3.11346194 30.83625578 3.06170484 34.91798732 3 39 C0.36 39 -2.28 39 -5 39 C-5.33 38.01 -5.66 37.02 -6 36 C-6.928125 36.66 -7.85625 37.32 -8.8125 38 C-13.68270282 40.7462807 -18.55377197 41.08605134 -24 40 C-27.48166842 37.99651361 -30.19365908 35.61268185 -32 32 C-32.61624934 27.02598751 -32.87659318 23.2484812 -29.9375 19.0625 C-22.50649334 13.84498469 -16.94933663 13.60323138 -8 14 C-8.59861742 11.64828869 -9.26924352 9.3140622 -10 7 C-13.18726846 5.40636577 -16.53064619 5.60516682 -20 6 C-22.01526169 6.96887581 -24.01833966 7.9641321 -26 9 C-28.375 8.6875 -28.375 8.6875 -30 8 C-30.3125 5.25 -30.3125 5.25 -30 2 C-22.77264105 -5.42811892 -8.50884566 -5.29439285 0 0 Z " fill="#0D0D0C" transform="translate(638,1009)"/>
<path d="M0 0 C14.85 0 29.7 0 45 0 C45 2.97 45 5.94 45 9 C44.67 9.33 44.34 9.66 44 10 C38.72 10 33.44 10 28 10 C28 26.17 28 42.34 28 59 C24.04 59 20.08 59 16 59 C16 42.83 16 26.66 16 10 C10.72 10 5.44 10 0 10 C0 6.7 0 3.4 0 0 Z " fill="#080707" transform="translate(384,63)"/>
<path d="M0 0 C1.90625 1.1015625 1.90625 1.1015625 4.59375 3.1015625 C4.71875 9.8515625 4.71875 9.8515625 3.59375 12.1015625 C0.21912285 11.55432567 -1.4886 11.0466625 -4.40625 9.1015625 C-7.93964717 8.65049052 -9.67955524 8.55719729 -12.5703125 10.72265625 C-14.96028775 13.81945397 -14.91096331 15.66309515 -14.84375 19.5390625 C-14.84181641 21.20775391 -14.84181641 21.20775391 -14.83984375 22.91015625 C-14.36337161 26.41716288 -13.62724478 28.3544095 -11.40625 31.1015625 C-5.76949852 31.82888527 -3.16974751 31.23186086 1.59375 28.1015625 C2.58375 28.4315625 3.57375 28.7615625 4.59375 29.1015625 C5.01018471 32.17276846 5.26611943 34.14423029 4.59375 37.1015625 C1.63160908 40.78020948 -2.05460796 41.9159786 -6.62109375 42.54296875 C-11.56312874 42.71845911 -15.38630578 42.5310127 -19.96875 40.6015625 C-24.98946038 35.45211596 -27.54319715 29.08245693 -27.59375 21.9140625 C-27.47970614 14.04503635 -26.38032803 8.55929432 -21.0390625 2.546875 C-15.51595094 -2.34200365 -6.73674928 -2.5153447 0 0 Z " fill="#0E0E0E" transform="translate(366.40625,517.8984375)"/>
<path d="M0 0 C2.26111601 1.16632531 4.19873806 2.19873806 6 4 C6.07179964 5.51928038 6.08392007 7.04167482 6.0625 8.5625 C6.05347656 9.38878906 6.04445313 10.21507812 6.03515625 11.06640625 C6.02355469 11.70449219 6.01195312 12.34257813 6 13 C2.62537285 12.45276317 0.91765 11.9451 -2 10 C-5.53339717 9.54892802 -7.27330524 9.45563479 -10.1640625 11.62109375 C-12.55403775 14.71789147 -12.50471331 16.56153265 -12.4375 20.4375 C-12.43556641 22.10619141 -12.43556641 22.10619141 -12.43359375 23.80859375 C-11.95520897 27.32967809 -11.2594699 29.26140144 -9 32 C-5.97530488 32.84669182 -3.07899014 32.54203638 0 32 C2.32219658 30.55269907 2.32219658 30.55269907 4 29 C4.99 29.33 5.98 29.66 7 30 C7.34571236 35.27211344 7.34571236 35.27211344 7 38 C5.25 39.875 5.25 39.875 3 41 C2.41476562 41.34546875 1.82953125 41.6909375 1.2265625 42.046875 C-3.26033417 43.96758165 -8.22663608 43.51257599 -13 43 C-17.89948827 40.68387827 -20.85579936 37.31204659 -24 33 C-26.35876518 26.39243343 -26.41196079 16.63982973 -23.87109375 10.08984375 C-17.90057827 0.7521446 -10.84248306 -1.50627737 0 0 Z " fill="#0D0D0D" transform="translate(903,517)"/>
<path d="M0 0 C0.8146875 0.00257813 1.629375 0.00515625 2.46875 0.0078125 C3.2834375 0.00523437 4.098125 0.00265625 4.9375 0 C6.96875 0.1328125 6.96875 0.1328125 7.96875 1.1328125 C8.11132189 4.46899481 8.01103157 7.79256856 7.96875 11.1328125 C11.26875 11.1328125 14.56875 11.1328125 17.96875 11.1328125 C18.06640625 17.28515625 18.06640625 17.28515625 17.96875 19.1328125 C16.96875 20.1328125 16.96875 20.1328125 14.90234375 20.23046875 C14.07863281 20.21886719 13.25492188 20.20726562 12.40625 20.1953125 C11.57996094 20.18628906 10.75367188 20.17726563 9.90234375 20.16796875 C8.94521484 20.15056641 8.94521484 20.15056641 7.96875 20.1328125 C8.10729088 23.42482893 8.25582024 26.71631959 8.40625 30.0078125 C8.44556641 30.94496094 8.48488281 31.88210938 8.52539062 32.84765625 C8.56728516 33.74355469 8.60917969 34.63945313 8.65234375 35.5625 C8.68900146 36.38991699 8.72565918 37.21733398 8.76342773 38.06982422 C8.85113327 40.19460679 8.85113327 40.19460679 9.96875 42.1328125 C11.86408342 42.59804313 11.86408342 42.59804313 14.03125 42.7578125 C15.9803125 42.9434375 15.9803125 42.9434375 17.96875 43.1328125 C18.06640625 49.28515625 18.06640625 49.28515625 17.96875 51.1328125 C16.11584648 52.98571602 13.20250369 52.34939877 10.71875 52.3828125 C9.57921875 52.40859375 8.4396875 52.434375 7.265625 52.4609375 C3.62106614 52.09820889 1.83121526 51.3862426 -1.03125 49.1328125 C-3.16476366 45.83026294 -3.26618656 43.15659507 -3.2265625 39.2734375 C-3.21689453 37.60087891 -3.21689453 37.60087891 -3.20703125 35.89453125 C-3.19027344 34.73566406 -3.17351563 33.57679688 -3.15625 32.3828125 C-3.14722656 31.20847656 -3.13820313 30.03414062 -3.12890625 28.82421875 C-3.10535063 25.92687714 -3.07245652 23.02994809 -3.03125 20.1328125 C-3.835625 20.1534375 -4.64 20.1740625 -5.46875 20.1953125 C-8.03125 20.1328125 -8.03125 20.1328125 -9.03125 19.1328125 C-9.17240161 16.46222399 -9.07372107 13.80849012 -9.03125 11.1328125 C-7.05125 11.1328125 -5.07125 11.1328125 -3.03125 11.1328125 C-3.04285156 10.42253906 -3.05445313 9.71226562 -3.06640625 8.98046875 C-3.07994141 7.60181641 -3.07994141 7.60181641 -3.09375 6.1953125 C-3.10535156 5.27878906 -3.11695313 4.36226562 -3.12890625 3.41796875 C-3.00402422 0.49572926 -2.91184986 0.19039018 0 0 Z " fill="#0A0800" transform="translate(660.03125,659.8671875)"/>
<path d="M0 0 C0.89847656 0.00257812 1.79695313 0.00515625 2.72265625 0.0078125 C3.61855469 0.00523438 4.51445313 0.00265625 5.4375 0 C7.78515625 0.1328125 7.78515625 0.1328125 9.78515625 1.1328125 C9.80828476 8.67779483 9.82607394 16.22277351 9.83696842 23.76778316 C9.84219614 27.27090135 9.84929175 30.77399535 9.8605957 34.27709961 C9.87349831 38.30062091 9.87838537 42.32411664 9.8828125 46.34765625 C9.88797379 47.61117416 9.89313507 48.87469208 9.89845276 50.17649841 C9.89852829 51.3376265 9.89860382 52.49875458 9.89868164 53.69506836 C9.90090225 54.72321152 9.90312286 55.75135468 9.90541077 56.81065369 C9.78515625 59.1328125 9.78515625 59.1328125 8.78515625 60.1328125 C6.76551426 60.20525303 4.74348501 60.21658438 2.72265625 60.1953125 C1.61792969 60.18628906 0.51320313 60.17726562 -0.625 60.16796875 C-1.90697266 60.15056641 -1.90697266 60.15056641 -3.21484375 60.1328125 C-3.23797196 52.45744623 -3.25576128 44.78208354 -3.26665592 37.10669041 C-3.2718837 33.54303828 -3.27897944 29.97940993 -3.2902832 26.41577148 C-3.30318551 22.32275153 -3.30807281 18.2297567 -3.3125 14.13671875 C-3.31766129 12.85132706 -3.32282257 11.56593536 -3.32814026 10.24159241 C-3.32821579 9.06044357 -3.32829132 7.87929474 -3.32836914 6.66235352 C-3.33058975 5.61644547 -3.33281036 4.57053741 -3.33509827 3.49293518 C-3.1775753 0.4013795 -3.08263088 0.18484912 0 0 Z " fill="#100F0F" transform="translate(1028.21484375,61.8671875)"/>
<path d="M0 0 C4.29 0 8.58 0 13 0 C13.02255549 7.54498589 13.04091769 15.08995931 13.05181217 22.63497066 C13.05703989 26.13808885 13.0641355 29.64118285 13.07543945 33.14428711 C13.08834206 37.16780841 13.09322912 41.19130414 13.09765625 45.21484375 C13.10281754 46.47836166 13.10797882 47.74187958 13.11329651 49.04368591 C13.11337204 50.204814 13.11344757 51.36594208 13.11352539 52.56225586 C13.115746 53.59039902 13.11796661 54.61854218 13.12025452 55.67784119 C13 58 13 58 12 59 C10.16884117 59.09851171 8.33380067 59.12972629 6.5 59.125 C5.4996875 59.12757812 4.499375 59.13015625 3.46875 59.1328125 C1 59 1 59 0 58 C-0.09376053 56.18944975 -0.1174411 54.37522799 -0.11352539 52.56225586 C-0.11344986 51.40112778 -0.11337433 50.23999969 -0.11329651 49.04368591 C-0.10813522 47.780168 -0.10297394 46.51665009 -0.09765625 45.21484375 C-0.0962413 43.92888809 -0.09482635 42.64293243 -0.09336853 41.31800842 C-0.08954418 37.89356557 -0.07971462 34.46916491 -0.06866455 31.04473877 C-0.05844864 27.55261811 -0.05387053 24.06049066 -0.04882812 20.56835938 C-0.03809226 13.71222047 -0.02049614 6.8561166 0 0 Z " fill="#0B0B0B" transform="translate(436,63)"/>
<path d="M0 0 C0.9075 0.00257812 1.815 0.00515625 2.75 0.0078125 C4.11125 0.00394531 4.11125 0.00394531 5.5 0 C7.75 0.1328125 7.75 0.1328125 8.75 1.1328125 C8.84381302 2.97399279 8.86743954 4.81878891 8.86352539 6.66235352 C8.86344986 7.84350235 8.86337433 9.02465118 8.86329651 10.24159241 C8.85813522 11.5269841 8.85297394 12.81237579 8.84765625 14.13671875 C8.8462413 15.44487045 8.84482635 16.75302216 8.84336853 18.10081482 C8.8395441 21.58444109 8.82971446 25.06802589 8.81866455 28.55163574 C8.80844882 32.10407958 8.80387056 35.65653009 8.79882812 39.20898438 C8.78809212 46.18361254 8.77049593 53.15820626 8.75 60.1328125 C4.79 60.1328125 0.83 60.1328125 -3.25 60.1328125 C-3.27255523 52.45744273 -3.29091753 44.78208521 -3.30181217 37.10669041 C-3.30703995 33.54303828 -3.31413569 29.97940993 -3.32543945 26.41577148 C-3.33834176 22.32275153 -3.34322906 18.2297567 -3.34765625 14.13671875 C-3.35281754 12.85132706 -3.35797882 11.56593536 -3.36329651 10.24159241 C-3.36337204 9.06044357 -3.36344757 7.87929474 -3.36352539 6.66235352 C-3.365746 5.61644547 -3.36796661 4.57053741 -3.37025452 3.49293518 C-3.2115639 0.37846315 -3.10690865 0.18339391 0 0 Z " fill="#080807" transform="translate(367.25,61.8671875)"/>
<path d="M0 0 C0.66 0 1.32 0 2 0 C3.17152378 3.45670732 4.33639077 6.91562122 5.5 10.375 C5.83386719 11.35984375 6.16773438 12.3446875 6.51171875 13.359375 C6.98544922 14.77089844 6.98544922 14.77089844 7.46875 16.2109375 C7.76201172 17.08024902 8.05527344 17.94956055 8.35742188 18.84521484 C9 21 9 21 9 23 C3.72 23 -1.56 23 -7 23 C-5.62982617 16.03494972 -3.51097 9.63070001 -1 3 C-0.67 2.01 -0.34 1.02 0 0 Z " fill="#E2E2E2" transform="translate(806,76)"/>
<path d="M0 0 C2.48263539 2.48263539 2.95474465 4.5350825 4 7.875 C5.31130319 12.10769082 5.31130319 12.10769082 7.125 16.1328125 C8 18 8 18 8 22 C2.72 22 -2.56 22 -8 22 C-2.28571429 2.28571429 -2.28571429 2.28571429 0 0 Z " fill="#E3E3E3" transform="translate(937,77)"/>
<path d="M0 0 C2.26104255 2.26104255 2.59615826 3.52511373 3.4375 6.5625 C4.64914811 10.82181402 5.9931368 15.00593133 7.44921875 19.1875 C8 21 8 21 8 23 C3.05 23 -1.9 23 -7 23 C-5.875 15.125 -5.875 15.125 -4.58984375 11.81640625 C-4.32236328 11.11708984 -4.05488281 10.41777344 -3.77929688 9.69726562 C-3.36260742 8.64055664 -3.36260742 8.64055664 -2.9375 7.5625 C-2.65583984 6.83095703 -2.37417969 6.09941406 -2.08398438 5.34570312 C-1.39586753 3.56126454 -0.69885394 1.78026095 0 0 Z " fill="#E4E4E4" transform="translate(666,76)"/>
<path d="M0 0 C3.22556015 3.61225011 4.29866809 7.5144915 5.625 12.0625 C6.05466826 13.4908912 6.48435504 14.91927684 6.9140625 16.34765625 C7.27242187 17.55292969 7.63078125 18.75820312 8 20 C8.33 20.99 8.66 21.98 9 23 C3.72 23 -1.56 23 -7 23 C-5.44369189 15.21845945 -3.56714476 7.13428952 0 0 Z " fill="#E8E8E8" transform="translate(543,76)"/>
<path d="M0 0 C0.90492188 0.02320313 1.80984375 0.04640625 2.7421875 0.0703125 C4.10730469 0.09738281 4.10730469 0.09738281 5.5 0.125 C6.19867187 0.14820313 6.89734375 0.17140625 7.6171875 0.1953125 C7.9296875 2.9453125 7.9296875 2.9453125 7.6171875 6.1953125 C5.1631786 8.85966502 3.57866374 10.03506646 -0.0078125 10.6328125 C-2.3828125 10.1953125 -2.3828125 10.1953125 -4.2578125 9.0078125 C-5.3828125 7.1953125 -5.3828125 7.1953125 -5.1953125 4.6328125 C-4.13876038 1.46315613 -3.41781205 0.28014853 0 0 Z " fill="#EDEDED" transform="translate(622.3828125,1030.8046875)"/>
<path d="M0 0 C1.32 0 2.64 0 4 0 C4 8.25 4 16.5 4 25 C2.68 25 1.36 25 0 25 C0 16.75 0 8.5 0 0 Z " fill="#131000" transform="translate(622,308)"/>
<path d="M0 0 C1.32 0 2.64 0 4 0 C4 8.25 4 16.5 4 25 C2.68 25 1.36 25 0 25 C0 16.75 0 8.5 0 0 Z " fill="#120F00" transform="translate(622,261)"/>
<path d="M0 0 C1.32 0 2.64 0 4 0 C4 7.92 4 15.84 4 24 C2.68 24 1.36 24 0 24 C0 16.08 0 8.16 0 0 Z " fill="#0F0C00" transform="translate(622,921)"/>
<path d="M0 0 C1.32 0 2.64 0 4 0 C4 7.92 4 15.84 4 24 C2.68 24 1.36 24 0 24 C0 16.08 0 8.16 0 0 Z " fill="#0F0D00" transform="translate(622,874)"/>
<path d="M0 0 C1.32 0 2.64 0 4 0 C4 7.92 4 15.84 4 24 C2.68 24 1.36 24 0 24 C0 16.08 0 8.16 0 0 Z " fill="#0E0C00" transform="translate(622,827)"/>
<path d="M0 0 C1.32 0 2.64 0 4 0 C4 7.92 4 15.84 4 24 C2.68 24 1.36 24 0 24 C0 16.08 0 8.16 0 0 Z " fill="#120F00" transform="translate(622,780)"/>
<path d="M0 0 C1.32 0 2.64 0 4 0 C4 7.92 4 15.84 4 24 C2.68 24 1.36 24 0 24 C0 16.08 0 8.16 0 0 Z " fill="#0E0B00" transform="translate(622,733)"/>
<path d="M0 0 C1.32 0 2.64 0 4 0 C4 7.92 4 15.84 4 24 C2.68 24 1.36 24 0 24 C0 16.08 0 8.16 0 0 Z " fill="#0E0C00" transform="translate(622,686)"/>
<path d="M0 0 C1.32 0 2.64 0 4 0 C4 7.92 4 15.84 4 24 C2.68 24 1.36 24 0 24 C0 16.08 0 8.16 0 0 Z " fill="#0F0D00" transform="translate(622,639)"/>
<path d="M0 0 C1.32 0 2.64 0 4 0 C4 7.92 4 15.84 4 24 C2.68 24 1.36 24 0 24 C0 16.08 0 8.16 0 0 Z " fill="#0E0C00" transform="translate(622,592)"/>
<path d="M0 0 C1.32 0 2.64 0 4 0 C4 7.92 4 15.84 4 24 C2.68 24 1.36 24 0 24 C0 16.08 0 8.16 0 0 Z " fill="#0E0C00" transform="translate(622,544)"/>
<path d="M0 0 C1.32 0 2.64 0 4 0 C4 7.92 4 15.84 4 24 C2.68 24 1.36 24 0 24 C0 16.08 0 8.16 0 0 Z " fill="#0E0C00" transform="translate(622,497)"/>
<path d="M0 0 C1.32 0 2.64 0 4 0 C4 7.92 4 15.84 4 24 C2.68 24 1.36 24 0 24 C0 16.08 0 8.16 0 0 Z " fill="#0E0C00" transform="translate(622,450)"/>
<path d="M0 0 C1.32 0 2.64 0 4 0 C4 7.92 4 15.84 4 24 C2.68 24 1.36 24 0 24 C0 16.08 0 8.16 0 0 Z " fill="#0D0B00" transform="translate(622,403)"/>
<path d="M0 0 C1.32 0 2.64 0 4 0 C4 7.92 4 15.84 4 24 C2.68 24 1.36 24 0 24 C0 16.08 0 8.16 0 0 Z " fill="#0D0B00" transform="translate(622,356)"/>
<path d="M0 0 C1.32 0 2.64 0 4 0 C4 7.92 4 15.84 4 24 C2.68 24 1.36 24 0 24 C0 16.08 0 8.16 0 0 Z " fill="#100E00" transform="translate(622,215)"/>
<path d="M0 0 C0.33 0 0.66 0 1 0 C1 13.86 1 27.72 1 42 C0.67 42 0.34 42 0 42 C-0.02505615 40.98574951 -0.0501123 39.97149902 -0.07592773 38.92651367 C-0.17009645 35.16368973 -0.27029405 31.40104631 -0.37231445 27.63842773 C-0.41562749 26.00988996 -0.45730518 24.38130784 -0.49731445 22.75268555 C-0.55510503 20.41181065 -0.61877398 18.07115824 -0.68359375 15.73046875 C-0.70030624 15.00224411 -0.71701874 14.27401947 -0.73423767 13.52372742 C-0.82467238 10.43833061 -1.01723993 7.94828022 -2 5 C-1.0625 2.3125 -1.0625 2.3125 0 0 Z " fill="#EEEEEE" transform="translate(759,77)"/>
<path d="M0 0 C0.66 0 1.32 0 2 0 C1.814375 0.5775 1.62875 1.155 1.4375 1.75 C0.95817621 4.21509379 1.34273163 5.61740218 2 8 C1.67 8.33 1.34 8.66 1 9 C0.76636119 10.84891946 0.58696365 12.70488031 0.4375 14.5625 C0.35371094 15.57441406 0.26992188 16.58632813 0.18359375 17.62890625 C0.12300781 18.41136719 0.06242187 19.19382812 0 20 C-0.66 19.67 -1.32 19.34 -2 19 C-2.22262303 12.2718373 -1.95021536 6.46008837 0 0 Z " fill="#1C1C1C" transform="translate(341,526)"/>
<path d="M0 0 C1.65 1.65 3.3 3.3 5 5 C4.67 5.66 4.34 6.32 4 7 C3.01 6.67 2.02 6.34 1 6 C1 13.26 1 20.52 1 28 C0.34 27.67 -0.32 27.34 -1 27 C-0.67 18.09 -0.34 9.18 0 0 Z " fill="#D0D0D0" transform="translate(876,94)"/>
<path d="M0 0 C0.33 0 0.66 0 1 0 C1 3.96 1 7.92 1 12 C1.66 12 2.32 12 3 12 C3 8.37 3 4.74 3 1 C3.33 1 3.66 1 4 1 C4 5.62 4 10.24 4 15 C2.68 15 1.36 15 0 15 C0 10.05 0 5.1 0 0 Z " fill="#070600" transform="translate(622,789)"/>
<path d="M0 0 C3.63 0 7.26 0 11 0 C11 4.62 11 9.24 11 14 C9.68 13.67 8.36 13.34 7 13 C7.309375 12.319375 7.61875 11.63875 7.9375 10.9375 C9.13370649 7.63034088 9.59005397 4.48454122 10 1 C6.7 1 3.4 1 0 1 C0 0.67 0 0.34 0 0 Z " fill="#CBCCCB" transform="translate(486,97)"/>
<path d="M0 0 C2.31 0.33 4.62 0.66 7 1 C7 1.33 7 1.66 7 2 C6.05125 2.28875 5.1025 2.5775 4.125 2.875 C0.94788422 3.76825109 0.94788422 3.76825109 -1 6 C-1.46290221 8.66242821 -1.46290221 8.66242821 -1.625 11.625 C-1.69976563 12.62789062 -1.77453125 13.63078125 -1.8515625 14.6640625 C-1.90054688 15.43492187 -1.94953125 16.20578125 -2 17 C-2.33 17 -2.66 17 -3 17 C-3.08126087 14.91731407 -3.13930839 12.83371342 -3.1875 10.75 C-3.22230469 9.58984375 -3.25710938 8.4296875 -3.29296875 7.234375 C-2.97982934 3.77731593 -2.34290892 2.48434437 0 0 Z " fill="#DBDBDC" transform="translate(893,527)"/>
<path d="M0 0 C2.8992226 0.46761655 3.86675182 0.86675182 6 3 C4.35 3 2.7 3 1 3 C1 5.31 1 7.62 1 10 C0.34 10 -0.32 10 -1 10 C-1.02689216 8.52093108 -1.04634621 7.04172517 -1.0625 5.5625 C-1.07410156 4.73878906 -1.08570313 3.91507812 -1.09765625 3.06640625 C-1 1 -1 1 0 0 Z " fill="#323332" transform="translate(598,108)"/>
<path d="M0 0 C0.33 0 0.66 0 1 0 C1.25 5.625 1.25 5.625 -1 9 C-1.66 9 -2.32 9 -3 9 C-3 9.66 -3 10.32 -3 11 C-3.66 11 -4.32 11 -5 11 C-3.77782954 6.95743617 -2.37245704 3.50711041 0 0 Z " fill="#DBB606" transform="translate(299,800)"/>
<path d="M0 0 C1.0169313 2.65498232 1.13022151 3.69155375 0.00390625 6.359375 C-0.47175781 7.14828125 -0.94742187 7.9371875 -1.4375 8.75 C-1.91058594 9.54921875 -2.38367188 10.3484375 -2.87109375 11.171875 C-3.24363281 11.77515625 -3.61617188 12.3784375 -4 13 C-4.66 13 -5.32 13 -6 13 C-4.58707905 8.1725201 -2.57025846 4.2837641 0 0 Z " fill="#D9B304" transform="translate(314,772)"/>
<path d="M0 0 C2.35953094 2.35953094 2.49141413 3.77895617 3 7 C1.68 6.67 0.36 6.34 -1 6 C-1.66 7.32 -2.32 8.64 -3 10 C-3.33 9.34 -3.66 8.68 -4 8 C-3.22265625 6.0546875 -3.22265625 6.0546875 -2.0625 3.875 C-1.49208984 2.78832031 -1.49208984 2.78832031 -0.91015625 1.6796875 C-0.60980469 1.12539062 -0.30945313 0.57109375 0 0 Z " fill="#D7D6D7" transform="translate(937,77)"/>
<path d="M0 0 C0.88336837 2.4667645 1.1312406 3.63859372 0.22265625 6.140625 C-0.16019531 6.83671875 -0.54304687 7.5328125 -0.9375 8.25 C-1.31777344 8.95640625 -1.69804688 9.6628125 -2.08984375 10.390625 C-2.39019531 10.92171875 -2.69054687 11.4528125 -3 12 C-3.66 11.67 -4.32 11.34 -5 11 C-3.77472971 6.94718288 -2.30119506 3.55639236 0 0 Z " fill="#D6B104" transform="translate(521,387)"/>
<path d="M0 0 C5.61 0 11.22 0 17 0 C17 0.33 17 0.66 17 1 C11.72 1 6.44 1 1 1 C0.67 1.99 0.34 2.98 0 4 C-0.66 4 -1.32 4 -2 4 C-1.34 2.68 -0.68 1.36 0 0 Z " fill="#282728" transform="translate(754,63)"/>
<path d="M0 0 C0.66 0 1.32 0 2 0 C0.78065514 4.03321763 -0.55954927 7.54269479 -3 11 C-3.66 11 -4.32 11 -5 11 C-3.55049545 7.2089881 -1.84827434 3.6125362 0 0 Z " fill="#2D2D2E" transform="translate(321,739)"/>
<path d="M0 0 C2.6855594 2.6855594 3.06049974 5.37621328 4 9 C3.01 9.66 2.02 10.32 1 11 C-0.17571451 7.32589215 -0.07366746 3.83070817 0 0 Z " fill="#F3F3F3" transform="translate(715,79)"/>
<path d="M0 0 C0.33 1.32 0.66 2.64 1 4 C0.34 4 -0.32 4 -1 4 C-1.2165625 5.175625 -1.2165625 5.175625 -1.4375 6.375 C-2 9 -2 9 -3 11 C-3.66 11 -4.32 11 -5 11 C-3.77472971 6.94718288 -2.30119506 3.55639236 0 0 Z " fill="#D6B004" transform="translate(269,856)"/>
<path d="M0 0 C0.99 1.32 1.98 2.64 3 4 C0.71823587 6.07384637 -0.44323483 6.98397191 -3.578125 7.07421875 C-4.45984375 6.94660156 -5.3415625 6.81898437 -6.25 6.6875 C-7.58804688 6.50767578 -7.58804688 6.50767578 -8.953125 6.32421875 C-9.96632813 6.16373047 -9.96632813 6.16373047 -11 6 C-11 5.67 -11 5.34 -11 5 C-7.37 5 -3.74 5 0 5 C0 3.35 0 1.7 0 0 Z " fill="#B8B7B8" transform="translate(694,117)"/>
<path d="M0 0 C0.66 0.99 1.32 1.98 2 3 C0.7260411 5.03833424 -0.61061923 7.03852126 -2 9 C-2.66 9 -3.32 9 -4 9 C-2.94124926 5.59687262 -1.99097846 2.98646769 0 0 Z " fill="#DFB603" transform="translate(238,914)"/>
<path d="M0 0 C0.33 0 0.66 0 1 0 C1.3125 2.8125 1.3125 2.8125 1 6 C-1.5 7.875 -1.5 7.875 -4 9 C-2.94124926 5.59687262 -1.99097846 2.98646769 0 0 Z " fill="#D2A902" transform="translate(293,811)"/>
<path d="M0 0 C0.33 0.99 0.66 1.98 1 3 C-0.45792884 3.05399736 -1.91642712 3.09279177 -3.375 3.125 C-4.18710937 3.14820312 -4.99921875 3.17140625 -5.8359375 3.1953125 C-8 3 -8 3 -10 1 C-6.78548731 -0.60725635 -3.56387464 -0.05748185 0 0 Z " fill="#161616" transform="translate(335,69)"/>
<path d="M0 0 C0.33 0 0.66 0 1 0 C1.3125 2.8125 1.3125 2.8125 1 6 C-1.5 7.875 -1.5 7.875 -4 9 C-2.80100302 5.9168649 -1.52299523 2.93720508 0 0 Z " fill="#DDB604" transform="translate(485,454)"/>
<path d="M0 0 C3.3 0 6.6 0 10 0 C10 0.33 10 0.66 10 1 C7.36 1 4.72 1 2 1 C2 1.99 2 2.98 2 4 C1.01 4.33 0.02 4.66 -1 5 C-0.67 3.35 -0.34 1.7 0 0 Z " fill="#464546" transform="translate(974,62)"/>
<path d="M0 0 C0.33 0 0.66 0 1 0 C1 2.64 1 5.28 1 8 C-0.32 7.34 -1.64 6.68 -3 6 C-1.125 1.125 -1.125 1.125 0 0 Z " fill="#141100" transform="translate(677,703)"/>
<path d="M0 0 C2.475 0.99 2.475 0.99 5 2 C5 2.66 5 3.32 5 4 C6.98 4 8.96 4 11 4 C11 4.33 11 4.66 11 5 C5.62694301 5.44041451 5.62694301 5.44041451 3 5 C1 2.5 1 2.5 0 0 Z " fill="#DEDEDE" transform="translate(352,545)"/>
<path d="M0 0 C0.6875 1.625 0.6875 1.625 1 4 C-0.4375 7.25 -0.4375 7.25 -2 10 C-2.66 9.67 -3.32 9.34 -4 9 C-2.94124926 5.59687262 -1.99097846 2.98646769 0 0 Z " fill="#D9B305" transform="translate(471,480)"/>
<path d="M0 0 C0.66 0.99 1.32 1.98 2 3 C0.7260411 5.03833424 -0.61061923 7.03852126 -2 9 C-2.66 9 -3.32 9 -4 9 C-2.94124926 5.59687262 -1.99097846 2.98646769 0 0 Z " fill="#D9B403" transform="translate(544,345)"/>
<path d="M0 0 C0.66 0.99 1.32 1.98 2 3 C0.7260411 5.03833424 -0.61061923 7.03852126 -2 9 C-2.66 9 -3.32 9 -4 9 C-2.94124926 5.59687262 -1.99097846 2.98646769 0 0 Z " fill="#D9B304" transform="translate(557,321)"/>
<path d="M0 0 C2.4294516 3.6441774 2.16179575 5.71241272 2 10 C1.01 10 0.02 10 -1 10 C-1.33 9.01 -1.66 8.02 -2 7 C-1.34 6.67 -0.68 6.34 0 6 C0 4.02 0 2.04 0 0 Z " fill="#313132" transform="translate(963,112)"/>
<path d="M0 0 C0.66 0 1.32 0 2 0 C1.55123384 1.64846769 1.09069512 3.29373455 0.625 4.9375 C0.36976563 5.85402344 0.11453125 6.77054687 -0.1484375 7.71484375 C-1 10 -1 10 -3 11 C-2.53199289 6.94393835 -2.12046792 3.53411321 0 0 Z " fill="#222222" transform="translate(526,91)"/>
<path d="M0 0 C3 3.75 3 3.75 3 6 C1.35 6.66 -0.3 7.32 -2 8 C-1.125 2.25 -1.125 2.25 0 0 Z " fill="#D2D2D3" transform="translate(543,76)"/>
<path d="M0 0 C0.33 0 0.66 0 1 0 C1 2.97 1 5.94 1 9 C-0.65 9.33 -2.3 9.66 -4 10 C-4.33 9.34 -4.66 8.68 -5 8 C-3.68 7.67 -2.36 7.34 -1 7 C-0.67 4.69 -0.34 2.38 0 0 Z " fill="#5D5C5E" transform="translate(351,67)"/>
<path d="M0 0 C2.15377564 2.62198774 3.40072174 4.64404172 4 8 C3.01 7.67 2.02 7.34 1 7 C-0.1875 3.9375 -0.1875 3.9375 -1 1 C-0.67 0.67 -0.34 0.34 0 0 Z " fill="#DDAE03" transform="translate(985,864)"/>
<path d="M0 0 C0.66 0.33 1.32 0.66 2 1 C0.92598892 3.91517292 0.22189824 5.77810176 -2 8 C-2.33 7.01 -2.66 6.02 -3 5 C-1.5625 2.3125 -1.5625 2.3125 0 0 Z " fill="#131000" transform="translate(298,797)"/>
<path d="M0 0 C1.18851563 0.00902344 2.37703125 0.01804687 3.6015625 0.02734375 C4.51679687 0.03894531 5.43203125 0.05054688 6.375 0.0625 C6.375 0.3925 6.375 0.7225 6.375 1.0625 C5.60414063 1.12308594 4.83328125 1.18367187 4.0390625 1.24609375 C2.53472656 1.37177734 2.53472656 1.37177734 1 1.5 C-0.49660156 1.62181641 -0.49660156 1.62181641 -2.0234375 1.74609375 C-4.60427613 1.91215626 -4.60427613 1.91215626 -6.625 3.0625 C-7.285 2.4025 -7.945 1.7425 -8.625 1.0625 C-5.74084117 -0.37957941 -3.20778472 -0.03144887 0 0 Z " fill="#474747" transform="translate(896.625,516.9375)"/>
<path d="M0 0 C1.18851562 0.00902344 2.37703125 0.01804687 3.6015625 0.02734375 C4.51679688 0.03894531 5.43203125 0.05054688 6.375 0.0625 C6.375 0.3925 6.375 0.7225 6.375 1.0625 C5.60414063 1.12308594 4.83328125 1.18367187 4.0390625 1.24609375 C2.53472656 1.37177734 2.53472656 1.37177734 1 1.5 C-0.49660156 1.62181641 -0.49660156 1.62181641 -2.0234375 1.74609375 C-4.60427613 1.91215626 -4.60427613 1.91215626 -6.625 3.0625 C-7.285 2.4025 -7.945 1.7425 -8.625 1.0625 C-5.74084117 -0.37957941 -3.20778472 -0.03144887 0 0 Z " fill="#4A4A4B" transform="translate(357.625,516.9375)"/>
<path d="M0 0 C0.66 0.99 1.32 1.98 2 3 C1.01 4.98 0.02 6.96 -1 9 C-1.66 8.67 -2.32 8.34 -3 8 C-1.125 2.25 -1.125 2.25 0 0 Z " fill="#DAB405" transform="translate(489,446)"/>
<path d="M0 0 C0.66 0.99 1.32 1.98 2 3 C1.34 4.32 0.68 5.64 0 7 C-0.66 7 -1.32 7 -2 7 C-2.33 5.35 -2.66 3.7 -3 2 C-2.01 1.34 -1.02 0.68 0 0 Z " fill="#E1E1E1" transform="translate(909,114)"/>
<path d="M0 0 C1.1171875 1.765625 1.1171875 1.765625 2 4 C1.06434658 6.64564072 -0.45014515 8.62963376 -2 11 C-3 9 -3 9 -2.44140625 6.8359375 C-2.15136719 6.02382812 -1.86132812 5.21171875 -1.5625 4.375 C-1.27503906 3.55773437 -0.98757813 2.74046875 -0.69140625 1.8984375 C-0.46324219 1.27195312 -0.23507812 0.64546875 0 0 Z " fill="#434343" transform="translate(916,100)"/>
<path d="M0 0 C2.31 0 4.62 0 7 0 C6.67 0.99 6.34 1.98 6 3 C3.5625 2.625 3.5625 2.625 1 2 C0.67 1.34 0.34 0.68 0 0 Z " fill="#EBEBEB" transform="translate(354,560)"/>
<path d="M0 0 C0.66 1.32 1.32 2.64 2 4 C0.625 6 0.625 6 -1 8 C-1.66 8 -2.32 8 -3 8 C-1.125 2.25 -1.125 2.25 0 0 Z " fill="#D2AC03" transform="translate(531,368)"/>
</svg>
