<?xml version="1.0" encoding="UTF-8"?>
<svg version="1.1" xmlns="http://www.w3.org/2000/svg" width="1254" height="1254">
<path d="M0 0 C413.82 0 827.64 0 1254 0 C1254 413.82 1254 827.64 1254 1254 C840.18 1254 426.36 1254 0 1254 C0 840.18 0 426.36 0 0 Z " fill="#FDFDFD" transform="translate(0,0)"/>
<path d="M0 0 C3.9070372 1.30234573 4.19322309 2.65133338 6.1171875 6.23046875 C6.71724609 7.33205322 7.31730469 8.4336377 7.93554688 9.56860352 C8.25128662 10.15795685 8.56702637 10.74731018 8.89233398 11.35452271 C10.56182357 14.46863925 12.26296167 17.56541465 13.9609375 20.6640625 C14.303526 21.29097488 14.6461145 21.91788727 14.99908447 22.563797 C18.05074775 28.13275159 21.2432212 33.61097969 24.5 39.0625 C29.2358044 47.0029676 33.89300811 54.98405749 38.5 63 C43.17777965 71.13537309 47.89670907 79.24315363 52.6875 87.3125 C57.43958195 95.31756843 62.09303691 103.37353429 66.6965332 111.46484375 C70.10667761 117.4532802 73.56907386 123.40774202 77.07324219 129.34155273 C85.40270786 143.44732177 93.63093895 157.61308732 101.82714844 171.79663086 C104.28452954 176.04633427 106.75162316 180.29011965 109.23046875 184.52734375 C115.50608108 195.25513942 121.72865701 206.01014772 127.875 216.8125 C133.79811238 227.22195588 139.85447834 237.54443017 145.98632812 247.83276367 C151.57434467 257.22998139 157.00974022 266.70873609 162.4152832 276.21166992 C165.95996179 282.44020795 169.53064499 288.64916774 173.1875 294.8125 C177.69374642 302.40956316 182.03270064 310.09808892 186.36669922 317.79443359 C190.18231037 324.56717204 194.04279397 331.30872436 198 338 C204.18307785 335.02686044 210.08301254 331.82511079 215.87109375 328.13671875 C218 327 218 327 221 327 C221.66 328.65 222.32 330.3 223 332 C219.8796258 334.00728948 216.75296965 336.00457109 213.625 338 C212.73554687 338.57234375 211.84609375 339.1446875 210.9296875 339.734375 C210.07890625 340.27578125 209.228125 340.8171875 208.3515625 341.375 C207.17327881 342.12910156 207.17327881 342.12910156 205.97119141 342.8984375 C204 344 204 344 202 344 C202.3609375 344.62648438 202.721875 345.25296875 203.09375 345.8984375 C203.5578125 346.71570313 204.021875 347.53296875 204.5 348.375 C204.9640625 349.18710937 205.428125 349.99921875 205.90625 350.8359375 C207 353 207 353 207 355 C209.21095812 353.92177933 211.41867306 352.83762596 213.625 351.75 C214.55119141 351.29947266 214.55119141 351.29947266 215.49609375 350.83984375 C218.59640881 349.30600367 221.35619701 347.75213541 224.2109375 345.765625 C227 344 227 344 231 344 C231.33 345.65 231.66 347.3 232 349 C231.13117187 349.53109375 230.26234375 350.0621875 229.3671875 350.609375 C228.20308757 351.3228556 227.03902719 352.03640073 225.875 352.75 C225.30523438 353.09804688 224.73546875 353.44609375 224.1484375 353.8046875 C220.37337658 356.12120215 216.67154352 358.5225451 213 361 C213.58066603 364.80560234 214.66421734 367.526577 216.6328125 370.82421875 C217.18388672 371.75685547 217.73496094 372.68949219 218.30273438 373.65039062 C218.90408203 374.65263672 219.50542969 375.65488281 220.125 376.6875 C221.40958522 378.85764035 222.69341395 381.02822863 223.9765625 383.19921875 C224.64204102 384.32118652 225.30751953 385.4431543 225.99316406 386.59912109 C229.20471872 392.04157321 232.35112301 397.52112731 235.5 403 C242.04344725 414.36075053 248.63804006 425.69098625 255.25292969 437.01025391 C258.23294913 442.10993502 261.21060518 447.2109944 264.1875 452.3125 C264.77281494 453.31555176 265.35812988 454.31860352 265.96118164 455.35205078 C269.93050859 462.15772641 273.88323297 468.97281476 277.82592773 475.79394531 C281.45012046 482.06018966 285.09854305 488.31211249 288.75 494.5625 C294.33218437 504.11969039 299.87212056 513.70061835 305.39575195 523.29174805 C309.55059557 530.50138688 313.73522241 537.69292557 317.9375 544.875 C323.35930863 554.14494037 328.70204974 563.45831855 334.01922607 572.78845215 C339.22045129 581.9128284 344.48027878 591.00132774 349.78344727 600.06689453 C355.93932133 610.59367451 362.02663887 621.15964934 368.11328125 631.7265625 C369.9796838 634.9647516 371.84873763 638.20139438 373.71875 641.4375 C381.00103977 654.04216173 388.25102172 666.66459041 395.45874023 679.31201172 C396.08079346 680.40271973 396.70284668 681.49342773 397.34375 682.6171875 C398.24480469 684.20031738 398.24480469 684.20031738 399.1640625 685.81542969 C400.43182816 688.01446363 401.71962058 690.20203032 403.0234375 692.37988281 C403.98636719 693.99008301 403.98636719 693.99008301 404.96875 695.6328125 C405.55076172 696.5933252 406.13277344 697.55383789 406.73242188 698.54345703 C408 701 408 701 408 704 C276.66 704 145.32 704 10 704 C10 711.26 10 718.52 10 726 C8.02 726 6.04 726 4 726 C4 718.74 4 711.48 4 704 C-0.29 704 -4.58 704 -9 704 C-9 711.26 -9 718.52 -9 726 C-10.98 726 -12.96 726 -15 726 C-15 718.74 -15 711.48 -15 704 C-144.03 704 -273.06 704 -406 704 C-404.66590155 699.99770465 -403.72769995 697.2119766 -401.70703125 693.734375 C-401.24973633 692.94087646 -400.79244141 692.14737793 -400.32128906 691.32983398 C-399.82338867 690.47848877 -399.32548828 689.62714355 -398.8125 688.75 C-398.28495117 687.83742432 -397.75740234 686.92484863 -397.21386719 685.98461914 C-396.07339782 684.01268192 -394.93057209 682.042106 -393.78564453 680.07275391 C-391.38407834 675.94011621 -388.99617691 671.79965382 -386.6081543 667.65917969 C-385.35639187 665.48886606 -384.10393639 663.31895203 -382.85083008 661.14941406 C-378.21059333 653.11283646 -373.5993711 645.05999519 -369 637 C-358.44552584 618.50808284 -347.80399964 600.06789431 -337.05810547 581.68652344 C-332.83600292 574.45579958 -328.67196822 567.19357857 -324.52954102 559.91699219 C-320.81299723 553.3982001 -317.04044614 546.91355372 -313.25 540.4375 C-308.11136432 531.65614257 -303.03716441 522.83977716 -298 514 C-291.31767849 502.27557046 -284.54947978 490.60331503 -277.73095703 478.95751953 C-274.7534977 473.87022161 -271.78290106 468.77892141 -268.8125 463.6875 C-268.22710449 462.68428711 -267.64170898 461.68107422 -267.03857422 460.64746094 C-263.06844653 453.8405716 -259.11453406 447.02448965 -255.171875 440.20166016 C-252.71480645 435.95253399 -250.24804551 431.709314 -247.76953125 427.47265625 C-241.02294793 415.94001047 -234.33773356 404.37551975 -227.72644043 392.76495361 C-223.16798679 384.76004523 -218.57081101 376.78121282 -213.82910156 368.88305664 C-212.26988895 366.26796947 -210.96667037 363.9000111 -210 361 C-210.98033203 360.64808594 -210.98033203 360.64808594 -211.98046875 360.2890625 C-215.93124152 358.60244541 -219.58704258 356.50573525 -223.3125 354.375 C-224.42334961 353.74464844 -224.42334961 353.74464844 -225.55664062 353.1015625 C-227.37269011 352.07051505 -229.18656533 351.03563954 -231 350 C-229.25 345.125 -229.25 345.125 -227 344 C-225.07641602 344.88037109 -225.07641602 344.88037109 -222.75390625 346.2734375 C-221.49803711 347.0159375 -221.49803711 347.0159375 -220.21679688 347.7734375 C-218.90291992 348.56621094 -218.90291992 348.56621094 -217.5625 349.375 C-215.83605126 350.40602038 -214.10824226 351.43476732 -212.37890625 352.4609375 C-211.6113501 352.92290527 -210.84379395 353.38487305 -210.05297852 353.86083984 C-207.9103748 355.13197631 -207.9103748 355.13197631 -205 356 C-204.8453125 355.1646875 -204.8453125 355.1646875 -204.6875 354.3125 C-203.87055365 351.56458956 -202.47929543 349.44405332 -201 347 C-201 346.34 -201 345.68 -201 345 C-202.907885 343.57497472 -202.907885 343.57497472 -205.375 342.1796875 C-206.27734375 341.64472656 -207.1796875 341.10976563 -208.109375 340.55859375 C-209.06328125 340.00300781 -210.0171875 339.44742187 -211 338.875 C-211.95390625 338.31167969 -212.9078125 337.74835938 -213.890625 337.16796875 C-216.25662727 335.77202741 -218.6264682 334.38308728 -221 333 C-220.34 331.35 -219.68 329.7 -219 328 C-214.00107114 328.5307743 -210.51309801 330.9236543 -206.375 333.5625 C-201.57184706 336.88088737 -201.57184706 336.88088737 -196 338 C-195.64921387 337.36835937 -195.29842773 336.73671875 -194.93701172 336.0859375 C-187.28873619 322.33043839 -179.51566941 308.66157746 -171.55859375 295.08203125 C-167.88907903 288.81905536 -164.25200993 282.5376703 -160.625 276.25 C-159.69723755 274.64185425 -159.69723755 274.64185425 -158.75073242 273.0012207 C-155.47167081 267.31037477 -152.20472638 261.61281577 -148.953125 255.90625 C-148.44810959 255.02003716 -148.44810959 255.02003716 -147.93289185 254.11592102 C-147.59619476 253.5250621 -147.25949768 252.93420319 -146.91259766 252.32543945 C-146.23341906 251.13361455 -145.55421988 249.94180138 -144.875 248.75 C-144.53990417 248.16197601 -144.20480835 247.57395203 -143.85955811 246.96810913 C-138.87107464 238.2195054 -133.79466613 229.52705643 -128.6496582 220.86962891 C-124.55021055 213.96161809 -120.55073684 207.00072348 -116.58007812 200.01806641 C-112.84890744 193.46419457 -109.06011202 186.94575084 -105.25 180.4375 C-100.11127526 171.65619819 -95.03701981 162.83985707 -90 154 C-84.460964 144.28017114 -78.86853774 134.59350087 -73.21875 124.9375 C-68.95116745 117.64099831 -64.71851044 110.3249718 -60.5 103 C-55.12388634 93.66644047 -49.71368563 84.35360425 -44.27832031 75.05444336 C-39.90860083 67.57256185 -35.57417093 60.07078372 -31.25 52.5625 C-25.99606874 43.44322414 -20.70999849 34.34505659 -15.35107422 25.28710938 C-13.74206687 22.5633687 -12.13867132 19.83635254 -10.53515625 17.109375 C-9.3360123 15.07287262 -8.13679417 13.03641392 -6.9375 11 C-6.36435059 10.02450195 -5.79120117 9.04900391 -5.20068359 8.04394531 C-4.66910645 7.14256836 -4.1375293 6.24119141 -3.58984375 5.3125 C-3.11409912 4.50425781 -2.63835449 3.69601562 -2.14819336 2.86328125 C-1 1 -1 1 0 0 Z " fill="#FCC904" transform="translate(630,274)"/>
<path d="M0 0 C3.9070372 1.30234573 4.19322309 2.65133338 6.1171875 6.23046875 C6.71724609 7.33205322 7.31730469 8.4336377 7.93554688 9.56860352 C8.25128662 10.15795685 8.56702637 10.74731018 8.89233398 11.35452271 C10.56182357 14.46863925 12.26296167 17.56541465 13.9609375 20.6640625 C14.303526 21.29097488 14.6461145 21.91788727 14.99908447 22.563797 C18.05074775 28.13275159 21.2432212 33.61097969 24.5 39.0625 C29.2358044 47.0029676 33.89300811 54.98405749 38.5 63 C43.17777965 71.13537309 47.89670907 79.24315363 52.6875 87.3125 C57.43958195 95.31756843 62.09303691 103.37353429 66.6965332 111.46484375 C70.10667761 117.4532802 73.56907386 123.40774202 77.07324219 129.34155273 C85.40270786 143.44732177 93.63093895 157.61308732 101.82714844 171.79663086 C104.28452954 176.04633427 106.75162316 180.29011965 109.23046875 184.52734375 C115.50608108 195.25513942 121.72865701 206.01014772 127.875 216.8125 C133.79811238 227.22195588 139.85447834 237.54443017 145.98632812 247.83276367 C151.57434467 257.22998139 157.00974022 266.70873609 162.4152832 276.21166992 C165.95996179 282.44020795 169.53064499 288.64916774 173.1875 294.8125 C177.69374642 302.40956316 182.03270064 310.09808892 186.36669922 317.79443359 C190.18231037 324.56717204 194.04279397 331.30872436 198 338 C204.18307785 335.02686044 210.08301254 331.82511079 215.87109375 328.13671875 C218 327 218 327 221 327 C221.66 328.65 222.32 330.3 223 332 C219.8796258 334.00728948 216.75296965 336.00457109 213.625 338 C212.73554687 338.57234375 211.84609375 339.1446875 210.9296875 339.734375 C210.07890625 340.27578125 209.228125 340.8171875 208.3515625 341.375 C207.17327881 342.12910156 207.17327881 342.12910156 205.97119141 342.8984375 C204 344 204 344 202 344 C202.3609375 344.62648438 202.721875 345.25296875 203.09375 345.8984375 C203.5578125 346.71570313 204.021875 347.53296875 204.5 348.375 C204.9640625 349.18710937 205.428125 349.99921875 205.90625 350.8359375 C207 353 207 353 207 355 C209.21095812 353.92177933 211.41867306 352.83762596 213.625 351.75 C214.55119141 351.29947266 214.55119141 351.29947266 215.49609375 350.83984375 C218.59640881 349.30600367 221.35619701 347.75213541 224.2109375 345.765625 C227 344 227 344 231 344 C231.33 345.65 231.66 347.3 232 349 C231.13117187 349.53109375 230.26234375 350.0621875 229.3671875 350.609375 C228.20308757 351.3228556 227.03902719 352.03640073 225.875 352.75 C225.30523438 353.09804688 224.73546875 353.44609375 224.1484375 353.8046875 C220.37337658 356.12120215 216.67154352 358.5225451 213 361 C213.58066603 364.80560234 214.66421734 367.526577 216.6328125 370.82421875 C217.18388672 371.75685547 217.73496094 372.68949219 218.30273438 373.65039062 C218.90408203 374.65263672 219.50542969 375.65488281 220.125 376.6875 C221.40958522 378.85764035 222.69341395 381.02822863 223.9765625 383.19921875 C224.64204102 384.32118652 225.30751953 385.4431543 225.99316406 386.59912109 C229.20471872 392.04157321 232.35112301 397.52112731 235.5 403 C242.04344725 414.36075053 248.63804006 425.69098625 255.25292969 437.01025391 C258.23294913 442.10993502 261.21060518 447.2109944 264.1875 452.3125 C264.77281494 453.31555176 265.35812988 454.31860352 265.96118164 455.35205078 C269.93050859 462.15772641 273.88323297 468.97281476 277.82592773 475.79394531 C281.45012046 482.06018966 285.09854305 488.31211249 288.75 494.5625 C294.33218437 504.11969039 299.87212056 513.70061835 305.39575195 523.29174805 C309.55059557 530.50138688 313.73522241 537.69292557 317.9375 544.875 C323.35930863 554.14494037 328.70204974 563.45831855 334.01922607 572.78845215 C339.22045129 581.9128284 344.48027878 591.00132774 349.78344727 600.06689453 C355.93932133 610.59367451 362.02663887 621.15964934 368.11328125 631.7265625 C369.9796838 634.9647516 371.84873763 638.20139438 373.71875 641.4375 C381.00103977 654.04216173 388.25102172 666.66459041 395.45874023 679.31201172 C396.08079346 680.40271973 396.70284668 681.49342773 397.34375 682.6171875 C398.24480469 684.20031738 398.24480469 684.20031738 399.1640625 685.81542969 C400.43182816 688.01446363 401.71962058 690.20203032 403.0234375 692.37988281 C403.98636719 693.99008301 403.98636719 693.99008301 404.96875 695.6328125 C405.55076172 696.5933252 406.13277344 697.55383789 406.73242188 698.54345703 C408 701 408 701 408 704 C276.66 704 145.32 704 10 704 C10 711.26 10 718.52 10 726 C8.02 726 6.04 726 4 726 C4 718.74 4 711.48 4 704 C-0.29 704 -4.58 704 -9 704 C-9 711.26 -9 718.52 -9 726 C-10.98 726 -12.96 726 -15 726 C-15 718.74 -15 711.48 -15 704 C-144.03 704 -273.06 704 -406 704 C-404.66590155 699.99770465 -403.72769995 697.2119766 -401.70703125 693.734375 C-401.24973633 692.94087646 -400.79244141 692.14737793 -400.32128906 691.32983398 C-399.82338867 690.47848877 -399.32548828 689.62714355 -398.8125 688.75 C-398.28495117 687.83742432 -397.75740234 686.92484863 -397.21386719 685.98461914 C-396.07339782 684.01268192 -394.93057209 682.042106 -393.78564453 680.07275391 C-391.38407834 675.94011621 -388.99617691 671.79965382 -386.6081543 667.65917969 C-385.35639187 665.48886606 -384.10393639 663.31895203 -382.85083008 661.14941406 C-378.21059333 653.11283646 -373.5993711 645.05999519 -369 637 C-358.44552584 618.50808284 -347.80399964 600.06789431 -337.05810547 581.68652344 C-332.83600292 574.45579958 -328.67196822 567.19357857 -324.52954102 559.91699219 C-320.81299723 553.3982001 -317.04044614 546.91355372 -313.25 540.4375 C-308.11136432 531.65614257 -303.03716441 522.83977716 -298 514 C-291.31767849 502.27557046 -284.54947978 490.60331503 -277.73095703 478.95751953 C-274.7534977 473.87022161 -271.78290106 468.77892141 -268.8125 463.6875 C-268.22710449 462.68428711 -267.64170898 461.68107422 -267.03857422 460.64746094 C-263.06844653 453.8405716 -259.11453406 447.02448965 -255.171875 440.20166016 C-252.71480645 435.95253399 -250.24804551 431.709314 -247.76953125 427.47265625 C-241.02294793 415.94001047 -234.33773356 404.37551975 -227.72644043 392.76495361 C-223.16798679 384.76004523 -218.57081101 376.78121282 -213.82910156 368.88305664 C-212.26988895 366.26796947 -210.96667037 363.9000111 -210 361 C-210.98033203 360.64808594 -210.98033203 360.64808594 -211.98046875 360.2890625 C-215.93124152 358.60244541 -219.58704258 356.50573525 -223.3125 354.375 C-224.42334961 353.74464844 -224.42334961 353.74464844 -225.55664062 353.1015625 C-227.37269011 352.07051505 -229.18656533 351.03563954 -231 350 C-229.25 345.125 -229.25 345.125 -227 344 C-225.07641602 344.88037109 -225.07641602 344.88037109 -222.75390625 346.2734375 C-221.49803711 347.0159375 -221.49803711 347.0159375 -220.21679688 347.7734375 C-218.90291992 348.56621094 -218.90291992 348.56621094 -217.5625 349.375 C-215.83605126 350.40602038 -214.10824226 351.43476732 -212.37890625 352.4609375 C-211.6113501 352.92290527 -210.84379395 353.38487305 -210.05297852 353.86083984 C-207.9103748 355.13197631 -207.9103748 355.13197631 -205 356 C-204.8453125 355.1646875 -204.8453125 355.1646875 -204.6875 354.3125 C-203.87055365 351.56458956 -202.47929543 349.44405332 -201 347 C-201 346.34 -201 345.68 -201 345 C-202.907885 343.57497472 -202.907885 343.57497472 -205.375 342.1796875 C-206.27734375 341.64472656 -207.1796875 341.10976563 -208.109375 340.55859375 C-209.06328125 340.00300781 -210.0171875 339.44742187 -211 338.875 C-211.95390625 338.31167969 -212.9078125 337.74835938 -213.890625 337.16796875 C-216.25662727 335.77202741 -218.6264682 334.38308728 -221 333 C-220.34 331.35 -219.68 329.7 -219 328 C-214.00107114 328.5307743 -210.51309801 330.9236543 -206.375 333.5625 C-201.57184706 336.88088737 -201.57184706 336.88088737 -196 338 C-195.64921387 337.36835937 -195.29842773 336.73671875 -194.93701172 336.0859375 C-187.28873619 322.33043839 -179.51566941 308.66157746 -171.55859375 295.08203125 C-167.88907903 288.81905536 -164.25200993 282.5376703 -160.625 276.25 C-159.69723755 274.64185425 -159.69723755 274.64185425 -158.75073242 273.0012207 C-155.47167081 267.31037477 -152.20472638 261.61281577 -148.953125 255.90625 C-148.44810959 255.02003716 -148.44810959 255.02003716 -147.93289185 254.11592102 C-147.59619476 253.5250621 -147.25949768 252.93420319 -146.91259766 252.32543945 C-146.23341906 251.13361455 -145.55421988 249.94180138 -144.875 248.75 C-144.53990417 248.16197601 -144.20480835 247.57395203 -143.85955811 246.96810913 C-138.87107464 238.2195054 -133.79466613 229.52705643 -128.6496582 220.86962891 C-124.55021055 213.96161809 -120.55073684 207.00072348 -116.58007812 200.01806641 C-112.84890744 193.46419457 -109.06011202 186.94575084 -105.25 180.4375 C-100.11127526 171.65619819 -95.03701981 162.83985707 -90 154 C-84.460964 144.28017114 -78.86853774 134.59350087 -73.21875 124.9375 C-68.95116745 117.64099831 -64.71851044 110.3249718 -60.5 103 C-55.12388634 93.66644047 -49.71368563 84.35360425 -44.27832031 75.05444336 C-39.90860083 67.57256185 -35.57417093 60.07078372 -31.25 52.5625 C-25.99606874 43.44322414 -20.70999849 34.34505659 -15.35107422 25.28710938 C-13.74206687 22.5633687 -12.13867132 19.83635254 -10.53515625 17.109375 C-9.3360123 15.07287262 -8.13679417 13.03641392 -6.9375 11 C-6.36435059 10.02450195 -5.79120117 9.04900391 -5.20068359 8.04394531 C-4.66910645 7.14256836 -4.1375293 6.24119141 -3.58984375 5.3125 C-3.11409912 4.50425781 -2.63835449 3.69601562 -2.14819336 2.86328125 C-1 1 -1 1 0 0 Z M0 16 C-7.90951084 29.2736577 -15.79606784 42.55264025 -23.41455078 55.99609375 C-27.55772951 63.28251765 -31.83468832 70.48718582 -36.125 77.6875 C-40.5227517 85.06885647 -44.87882823 92.46012891 -49 100 C-53.04193168 107.39270681 -57.31102206 114.63803569 -61.625 121.875 C-67.1955572 131.2200379 -72.68009836 140.60777407 -78.0625 150.0625 C-78.39290283 150.6427594 -78.72330566 151.2230188 -79.0637207 151.82086182 C-80.39295313 154.15561204 -81.72200419 156.49046528 -83.05062866 158.82556152 C-91.84031842 174.26596177 -100.77015359 189.62605523 -109.7331543 204.96630859 C-116.5361481 216.61685321 -123.26651284 228.3091954 -130 240 C-137.87662589 253.67554314 -145.77120092 267.33960958 -153.73291016 280.96582031 C-158.61467646 289.32634177 -163.47086138 297.70149556 -168.28686523 306.10009766 C-171.2368182 311.24017309 -174.20589866 316.36553494 -177.25358582 321.44821167 C-178.6872087 323.84160102 -180.10916761 326.24182001 -181.53030396 328.64263916 C-182.54397236 330.34390458 -183.57445985 332.03511246 -184.60522461 333.72607422 C-185.21116455 334.7523291 -185.81710449 335.77858398 -186.44140625 336.8359375 C-186.98482666 337.73876465 -187.52824707 338.6415918 -188.08813477 339.57177734 C-189.25241352 341.93785464 -189.25241352 341.93785464 -188.37280273 344.17529297 C-186.90524579 346.12594575 -185.6896793 347.12614717 -183.59375 348.359375 C-182.93246094 348.75253906 -182.27117187 349.14570312 -181.58984375 349.55078125 C-180.90019531 349.94652344 -180.21054687 350.34226562 -179.5 350.75 C-178.81035156 351.16121094 -178.12070312 351.57242187 -177.41015625 351.99609375 C-173.93883631 354.22584648 -173.93883631 354.22584648 -170 355 C-170.66 356.98 -171.32 358.96 -172 361 C-174.22955653 359.72984669 -176.45865426 358.45889952 -178.6875 357.1875 C-179.31333984 356.83107422 -179.93917969 356.47464844 -180.58398438 356.10742188 C-181.19951172 355.75615234 -181.81503906 355.40488281 -182.44921875 355.04296875 C-183.05435303 354.6984668 -183.6594873 354.35396484 -184.28295898 353.99902344 C-185.81864584 353.10551702 -187.32569242 352.16320244 -188.828125 351.21484375 C-190.89685677 349.75524507 -190.89685677 349.75524507 -193.0625 350.375 C-196.03958631 352.8719111 -197.33211493 355.4789093 -199 359 C-197.83599063 362.49202811 -197.25731614 362.72730857 -194.18359375 364.48046875 C-193.41982422 364.92197266 -192.65605469 365.36347656 -191.86914062 365.81835938 C-191.06669922 366.27017578 -190.26425781 366.72199219 -189.4375 367.1875 C-188.63119141 367.65091797 -187.82488281 368.11433594 -186.99414062 368.59179688 C-185.00057554 369.73603246 -183.00257569 370.87163231 -181 372 C-181.33 373.32 -181.66 374.64 -182 376 C-187.27574042 375.38860578 -191.00824554 372.62065048 -195.27148438 369.70703125 C-198.3875182 367.58366891 -198.3875182 367.58366891 -202.01538086 367.12451172 C-204.75353876 368.33241358 -205.39373628 369.77490716 -206.8125 372.390625 C-207.32417725 373.31673584 -207.83585449 374.24284668 -208.36303711 375.19702148 C-208.90323486 376.20450439 -209.44343262 377.2119873 -210 378.25 C-211.16738015 380.37141775 -212.33536123 382.49250492 -213.50390625 384.61328125 C-214.09059082 385.68787598 -214.67727539 386.7624707 -215.28173828 387.86962891 C-217.78092494 392.4227081 -220.35347426 396.93218637 -222.9375 401.4375 C-223.42428223 402.28884521 -223.91106445 403.14019043 -224.41259766 404.01733398 C-230.53962569 414.71815748 -236.77450072 425.35629415 -243 436 C-250.83771958 449.40691456 -258.64279123 462.83160173 -266.39428711 476.28857422 C-271.14414532 484.52969191 -275.93095041 492.7486691 -280.73046875 500.9609375 C-285.64894344 509.38313461 -290.52320691 517.83040776 -295.39013672 526.2824707 C-299.60712431 533.60069898 -303.85791587 540.8983932 -308.125 548.1875 C-313.29902167 557.02972562 -318.36784215 565.92667516 -323.39160156 574.85498047 C-326.88263439 581.05001951 -330.43971305 587.19979341 -334.06274414 593.31835938 C-339.80745189 603.03157827 -345.41306503 612.82579843 -351.04443359 622.60498047 C-354.19332055 628.07169982 -357.346856 633.53573537 -360.5 639 C-361.74089941 641.15103359 -362.98178478 643.30207529 -364.22265625 645.453125 C-367.47527474 651.09111019 -370.72946832 656.7281849 -373.98413086 662.36499023 C-375.87668335 665.64461032 -377.76658172 668.92574875 -379.65625 672.20703125 C-381.66386669 675.69153487 -383.68146879 679.16948221 -385.71875 682.63671875 C-386.10297119 683.29510742 -386.48719238 683.95349609 -386.88305664 684.63183594 C-387.84353785 686.27659607 -388.81011352 687.91779342 -389.77734375 689.55859375 C-391.22389288 691.99199558 -391.22389288 691.99199558 -391 695 C-266.59 695 -142.18 695 -14 695 C-14 687.41 -14 679.82 -14 672 C-12.35 672 -10.7 672 -9 672 C-9 679.59 -9 687.18 -9 695 C-4.71 695 -0.42 695 4 695 C4 687.08 4 679.16 4 671 C5.98 671 7.96 671 10 671 C10 678.92 10 686.84 10 695 C136.72 695 263.44 695 394 695 C392.49435603 691.23589007 390.96798631 687.96459936 389.015625 684.44921875 C388.4175 683.3708374 387.819375 682.29245605 387.203125 681.18139648 C386.55235055 680.01661499 385.90130168 678.85198677 385.25 677.6875 C384.91742187 677.0907547 384.58484375 676.4940094 384.2421875 675.87918091 C378.46721926 665.51933286 372.53657931 655.25543337 366.53125 645.02734375 C362.81952076 638.70476925 359.1574865 632.35406397 355.5 626 C350.71554438 617.69171183 345.90417539 609.40006344 341.0625 601.125 C336.01152771 592.48722969 331.02004965 583.81663733 326.0625 575.125 C315.01423505 555.75973695 303.89160462 536.44421743 292.49926758 517.27905273 C288.5696125 510.66423857 284.68780817 504.02995559 280.89453125 497.3359375 C278.57589775 493.25323027 276.22793043 489.18801336 273.875 485.125 C273.41407959 484.32908447 272.95315918 483.53316895 272.47827148 482.71313477 C268.74898843 476.28004242 265.00029926 469.85835583 261.25 463.4375 C255.67088455 453.88535486 250.13387331 444.30955878 244.61303711 434.72363281 C240.37130136 427.36344291 236.10046713 420.02083764 231.8125 412.6875 C225.92047204 402.60742187 220.10665871 392.48456228 214.33105469 382.33740234 C212.30815342 378.78508086 210.27907005 375.23630023 208.25 371.6875 C207.16666667 369.79166667 206.08333333 367.89583333 205 366 C201.9164232 366.63183093 199.58622008 367.67188344 196.890625 369.28515625 C196.13652344 369.73310547 195.38242187 370.18105469 194.60546875 370.64257812 C193.82816406 371.11115234 193.05085937 371.57972656 192.25 372.0625 C191.06083984 372.77116211 191.06083984 372.77116211 189.84765625 373.49414062 C187.8956889 374.65826573 185.94664195 375.82699902 184 377 C183.34 375.02 182.68 373.04 182 371 C182.68449219 370.75507812 183.36898437 370.51015625 184.07421875 370.2578125 C187.52927929 368.77245937 190.6413857 366.87594838 193.8125 364.875 C194.40998047 364.50246094 195.00746094 364.12992188 195.62304688 363.74609375 C197.08426251 362.8342952 198.54244585 361.91764024 200 361 C199.45035274 357.65004457 198.70079152 355.08839895 196.9375 352.1875 C195.9784375 350.6096875 195.9784375 350.6096875 195 349 C190.09017938 350.72532014 185.9789681 353.49566088 181.72851562 356.4296875 C180.05859375 357.515625 180.05859375 357.515625 177 359 C174.59765625 358.234375 174.59765625 358.234375 173 357 C173 356.34 173 355.68 173 355 C174.65234375 353.76318359 174.65234375 353.76318359 176.9375 352.3984375 C177.74960937 351.90859375 178.56171875 351.41875 179.3984375 350.9140625 C180.25695312 350.40617187 181.11546875 349.89828125 182 349.375 C182.85851562 348.859375 183.71703125 348.34375 184.6015625 347.8125 C186.73056234 346.5351001 188.86341196 345.26465303 191 344 C189.58113222 339.09434012 187.38570624 334.95967882 184.75 330.625 C183.84180508 329.10585287 182.93429194 327.58629802 182.02734375 326.06640625 C181.53862793 325.25059082 181.04991211 324.43477539 180.54638672 323.59423828 C177.76958066 318.93583266 175.04272991 314.24830443 172.3125 309.5625 C171.72525146 308.55566162 171.13800293 307.54882324 170.53295898 306.51147461 C164.22148329 295.68148853 157.96451877 284.82014421 151.70605469 273.95947266 C144.57236042 261.58473856 137.39300398 249.23703881 130.19116211 236.90185547 C126.17013739 230.01259878 122.16660229 223.11349708 118.17480469 216.20727539 C114.55032125 209.94065129 110.90173003 203.68827748 107.25 197.4375 C102.22131562 188.82889771 97.22565822 180.20185198 92.25 171.5625 C87.7887144 163.81770821 83.30765726 156.08622672 78.76538086 148.38867188 C69.61687746 132.88387429 60.58901843 117.30899761 51.60449219 101.70874023 C46.88203186 93.51399027 42.11756641 85.34450475 37.33984375 77.18188477 C34.21528519 71.83256695 31.11811187 66.4688104 28.05859375 61.08203125 C27.55841988 60.2014077 27.55841988 60.2014077 27.04814148 59.30299377 C26.71329239 58.71340378 26.3784433 58.12381378 26.03344727 57.51635742 C20.18014844 47.21117475 14.25830113 36.95437437 8.125 26.8125 C7.24134766 25.3418811 7.24134766 25.3418811 6.33984375 23.84155273 C5.79714844 22.95153564 5.25445313 22.06151855 4.6953125 21.14453125 C4.22109863 20.36440674 3.74688477 19.58428223 3.25830078 18.78051758 C2.10993077 16.85815956 2.10993077 16.85815956 0 16 Z " fill="#12100B" transform="translate(630,274)"/>
<path d="M0 0 C0.67740234 -0.04576172 1.35480469 -0.09152344 2.05273438 -0.13867188 C4.05078125 -0.18359375 4.05078125 -0.18359375 7.6875 0.4375 C10.51089703 3.71039307 12.1754971 7.16449228 13.6875 11.1875 C14.17476562 12.46560547 14.17476562 12.46560547 14.671875 13.76953125 C15.00703125 14.64996094 15.3421875 15.53039062 15.6875 16.4375 C16.7718536 19.06297258 17.8590982 21.68713722 18.953125 24.30859375 C19.6875 26.4375 19.6875 26.4375 19.6875 29.4375 C20.3475 29.4375 21.0075 29.4375 21.6875 29.4375 C22.0278125 28.2928125 22.0278125 28.2928125 22.375 27.125 C23.81919213 23.06750781 25.57603718 19.2364803 27.38671875 15.33203125 C28.99651312 11.7498762 30.4110997 8.10877738 31.79296875 4.43359375 C32.6875 2.4375 32.6875 2.4375 34.6875 0.4375 C37.91015625 0.20703125 37.91015625 0.20703125 41.75 0.25 C43.65458984 0.25966797 43.65458984 0.25966797 45.59765625 0.26953125 C48.6875 0.4375 48.6875 0.4375 49.6875 1.4375 C49.78643778 3.21196009 49.81549092 4.99036251 49.81689453 6.76757812 C49.82004669 7.90545776 49.82319885 9.0433374 49.82644653 10.21569824 C49.8244223 11.45420532 49.82239807 12.6927124 49.8203125 13.96875 C49.82126923 15.23013794 49.82222595 16.49152588 49.82321167 17.7911377 C49.82389375 20.46447138 49.82253529 23.13771437 49.81787109 25.81103516 C49.81217381 29.24456691 49.81545301 32.6780205 49.82144356 36.11154938 C49.82591762 39.37645243 49.82278883 42.64134593 49.8203125 45.90625 C49.82233673 47.14475708 49.82436096 48.38326416 49.82644653 49.65930176 C49.82171829 51.36612122 49.82171829 51.36612122 49.81689453 53.10742188 C49.81609894 54.11478394 49.81530334 55.122146 49.81448364 56.16003418 C49.6875 58.4375 49.6875 58.4375 48.6875 59.4375 C47.02320949 59.53573937 45.35468069 59.56723631 43.6875 59.5625 C42.32625 59.56636719 42.32625 59.56636719 40.9375 59.5703125 C38.6875 59.4375 38.6875 59.4375 37.6875 58.4375 C37.52732834 55.62773482 37.42799466 52.83976404 37.37109375 50.02734375 C37.35031265 49.18530899 37.32953156 48.34327423 37.30812073 47.47572327 C37.24253188 44.77556821 37.18369724 42.07531283 37.125 39.375 C37.08182363 37.54881759 37.03820964 35.72264546 36.99414062 33.89648438 C36.88684106 29.41026008 36.78560034 24.9239345 36.6875 20.4375 C36.36136719 21.31792969 36.03523437 22.19835937 35.69921875 23.10546875 C35.26222656 24.26691406 34.82523438 25.42835937 34.375 26.625 C33.94574219 27.77355469 33.51648438 28.92210938 33.07421875 30.10546875 C31.82741245 33.10131601 30.41634688 35.70172894 28.6875 38.4375 C28.11753759 39.67485429 27.57134209 40.92378227 27.0625 42.1875 C25.6875 45.4375 25.6875 45.4375 24.6875 46.4375 C23.16821962 46.50929964 21.64582518 46.52142007 20.125 46.5 C19.29871094 46.49097656 18.47242188 46.48195312 17.62109375 46.47265625 C16.98300781 46.46105469 16.34492187 46.44945312 15.6875 46.4375 C11.04999692 37.87595585 7.76218296 28.66154888 4.6875 19.4375 C4.66244385 20.61368896 4.6373877 21.78987793 4.61157227 23.00170898 C4.51767194 27.34964622 4.41740952 31.69741716 4.31518555 36.04516602 C4.27177067 37.92989218 4.23010057 39.81465936 4.19018555 41.69946289 C4.13264107 44.40263249 4.06890196 47.10559436 4.00390625 49.80859375 C3.97883751 51.08046791 3.97883751 51.08046791 3.95326233 52.3780365 C3.80137171 58.32362829 3.80137171 58.32362829 2.6875 59.4375 C1.02320949 59.53573937 -0.64531931 59.56723631 -2.3125 59.5625 C-3.67375 59.56636719 -3.67375 59.56636719 -5.0625 59.5703125 C-7.3125 59.4375 -7.3125 59.4375 -8.3125 58.4375 C-8.41143778 56.66303991 -8.44049092 54.88463749 -8.44189453 53.10742188 C-8.44504669 51.96954224 -8.44819885 50.8316626 -8.45144653 49.65930176 C-8.4494223 48.42079468 -8.44739807 47.1822876 -8.4453125 45.90625 C-8.44626923 44.64486206 -8.44722595 43.38347412 -8.44821167 42.0838623 C-8.44889375 39.41052862 -8.44753529 36.73728563 -8.44287109 34.06396484 C-8.43717381 30.63043309 -8.44045301 27.1969795 -8.44644356 23.76345062 C-8.45091762 20.49854757 -8.44778883 17.23365407 -8.4453125 13.96875 C-8.44733673 12.73024292 -8.44936096 11.49173584 -8.45144653 10.21569824 C-8.44829437 9.0778186 -8.44514221 7.93993896 -8.44189453 6.76757812 C-8.44109894 5.76021606 -8.44030334 4.752854 -8.43948364 3.71496582 C-8.16935998 -1.12973221 -3.88957219 0.10551693 0 0 Z " fill="#0E0E0E" transform="translate(736.3125,70.5625)"/>
<path d="M0 0 C2.53833008 0.02286784 5.07666016 0.04573568 7.61499023 0.06860352 C8.67919189 0.07819092 9.74339355 0.08777832 10.83984375 0.09765625 C15.38867177 10.46066285 19.61589392 20.93318169 23.70117188 31.48681641 C24.38319503 33.24345312 25.06980451 34.99831532 25.76074219 36.75146484 C26.77353025 39.32147398 27.77298375 41.89631313 28.76953125 44.47265625 C29.07881561 45.25084717 29.38809998 46.02903809 29.70675659 46.83081055 C29.98770172 47.565979 30.26864685 48.30114746 30.55810547 49.05859375 C30.80648163 49.69587402 31.05485779 50.3331543 31.3107605 50.98974609 C31.83984375 53.09765625 31.83984375 53.09765625 31.83984375 59.09765625 C27.54984375 59.09765625 23.25984375 59.09765625 18.83984375 59.09765625 C17.51984375 54.80765625 16.19984375 50.51765625 14.83984375 46.09765625 C7.24984375 45.76765625 -0.34015625 45.43765625 -8.16015625 45.09765625 C-9.15015625 48.39765625 -10.14015625 51.69765625 -11.16015625 55.09765625 C-11.82015625 56.41765625 -12.48015625 57.73765625 -13.16015625 59.09765625 C-16.79015625 59.09765625 -20.42015625 59.09765625 -24.16015625 59.09765625 C-23.83694798 52.52575476 -22.35735991 47.88698991 -19.48828125 41.9921875 C-18.12807204 39.02773154 -17.09185976 36.07756958 -16.09765625 32.97265625 C-14.98833989 29.51211956 -13.82581403 26.20069695 -12.28515625 22.91015625 C-9.8491704 17.67909501 -8.04200877 12.22717193 -6.17822266 6.77270508 C-3.88877768 0.12017236 -3.88877768 0.12017236 0 0 Z " fill="#0B0A0A" transform="translate(817.16015625,70.90234375)"/>
<path d="M0 0 C1.2684375 0.556875 1.2684375 0.556875 2.5625 1.125 C5.01177982 4.31971281 4.29240126 8.12568332 4 12 C0.16574955 12.21716109 -2.23822234 11.64197019 -5.6875 10 C-12.34877843 7.2145547 -17.91228207 7.08887012 -24.8125 9.125 C-29.0627579 11.62515171 -31.7656181 14.53123621 -34 19 C-35.17152063 29.93587246 -35.17152063 29.93587246 -31.3125 39.8125 C-29.68399684 41.57421416 -29.68399684 41.57421416 -28 43 C-27.278125 43.66 -26.55625 44.32 -25.8125 45 C-20.48333704 46.8948135 -14.34777179 46.7825906 -9 45 C-8.67 41.04 -8.34 37.08 -8 33 C-10.9390625 33.0309375 -10.9390625 33.0309375 -13.9375 33.0625 C-15.95832876 33.08377188 -17.98035801 33.07244053 -20 33 C-21 32 -21 32 -21.1328125 30.1875 C-21.13023437 29.465625 -21.12765625 28.74375 -21.125 28 C-21.12886719 26.9171875 -21.12886719 26.9171875 -21.1328125 25.8125 C-21 24 -21 24 -20 23 C-18.30441274 22.90067847 -16.60474253 22.86919993 -14.90625 22.8671875 C-13.87628906 22.86589844 -12.84632813 22.86460938 -11.78515625 22.86328125 C-10.15900391 22.86908203 -10.15900391 22.86908203 -8.5 22.875 C-7.41589844 22.87113281 -6.33179688 22.86726563 -5.21484375 22.86328125 C-4.18488281 22.86457031 -3.15492188 22.86585937 -2.09375 22.8671875 C-0.66579102 22.86887939 -0.66579102 22.86887939 0.79101562 22.87060547 C3 23 3 23 4 24 C4.33781357 28.61735556 4.3250399 33.24687772 4.375 37.875 C4.43107422 39.83373047 4.43107422 39.83373047 4.48828125 41.83203125 C4.49988281 43.08113281 4.51148438 44.33023438 4.5234375 45.6171875 C4.5531665 47.34364502 4.5531665 47.34364502 4.58349609 49.10498047 C4 52 4 52 1.66674805 53.82617188 C-4.91445385 56.72303343 -10.85115207 57.36436782 -17.9375 57.375 C-18.79279297 57.39949219 -19.64808594 57.42398438 -20.52929688 57.44921875 C-27.77671473 57.48238771 -32.66244053 55.54679783 -38.390625 51.17578125 C-45.83797424 43.71278632 -48.37523567 37.53646131 -48.5625 27.0625 C-48.46937236 18.36703955 -46.89178153 12.29871686 -40.9453125 5.73046875 C-30.22825849 -4.56012809 -13.48284156 -6.70991882 0 0 Z " fill="#0E0D0D" transform="translate(522,73)"/>
<path d="M0 0 C4.62 0 9.24 0 14 0 C16.80440878 6.19928086 19.4107696 12.43616904 21.85546875 18.78515625 C22.20257401 19.68568222 22.54967926 20.58620819 22.90730286 21.51402283 C23.63388007 23.40341434 24.35901608 25.29336066 25.08276367 27.18383789 C26.18704155 30.06130539 27.30343652 32.93389168 28.41992188 35.80664062 C29.12835984 37.65335612 29.8360672 39.50035209 30.54296875 41.34765625 C30.87523972 42.19683121 31.20751068 43.04600616 31.54985046 43.9209137 C33.47374715 48.99890782 34.54725171 53.58376013 35 59 C31.04 59 27.08 59 23 59 C21.35 54.71 19.7 50.42 18 46 C10.41 45.67 2.82 45.34 -5 45 C-5.66 47.97 -6.32 50.94 -7 54 C-7.9375 57.0625 -7.9375 57.0625 -10 59 C-13.70137681 59.41613112 -17.29199489 59.28329411 -21 59 C-20.47761985 53.14934236 -19.24656922 48.40364227 -17 43 C-16.33195691 41.33388456 -15.66534789 39.66719357 -15 38 C-14.690625 37.236875 -14.38125 36.47375 -14.0625 35.6875 C-12.14308115 30.83249938 -10.34326945 25.93248369 -8.53515625 21.03515625 C-5.90032964 13.91495591 -3.19949809 6.89122667 0 0 Z " fill="#0C0C0C" transform="translate(555,71)"/>
<path d="M0 0 C2 2 2 2 2.1953125 4.1640625 C2.17210937 4.97617188 2.14890625 5.78828125 2.125 6.625 C2.10695313 7.44226563 2.08890625 8.25953125 2.0703125 9.1015625 C2.04710937 9.72804688 2.02390625 10.35453125 2 11 C0.27734375 11.65234375 0.27734375 11.65234375 -2 12 C-4.12109375 11.00390625 -4.12109375 11.00390625 -6.4375 9.5625 C-12.55164125 6.31974064 -18.20259921 6.01986744 -25 7 C-29.47500822 9.11974074 -32.2809988 11.87114633 -35 16 C-37.00330225 23.85294481 -37.33726471 32.32284652 -33.140625 39.4453125 C-30.60455302 42.90201335 -28.10480178 44.17318609 -24 45 C-22.31441541 45.09053693 -20.62550664 45.13009203 -18.9375 45.125 C-17.65166016 45.12886719 -17.65166016 45.12886719 -16.33984375 45.1328125 C-13.84435799 45.09365135 -13.84435799 45.09365135 -11 44 C-10.67 39.71 -10.34 35.42 -10 31 C-14.29 31 -18.58 31 -23 31 C-23.09765625 24.84765625 -23.09765625 24.84765625 -23 23 C-21.31483046 21.31483046 -19.21232212 21.86991981 -16.90625 21.8671875 C-15.87628906 21.86589844 -14.84632813 21.86460938 -13.78515625 21.86328125 C-12.15900391 21.86908203 -12.15900391 21.86908203 -10.5 21.875 C-9.41589844 21.87113281 -8.33179688 21.86726563 -7.21484375 21.86328125 C-6.18488281 21.86457031 -5.15492188 21.86585937 -4.09375 21.8671875 C-2.66579102 21.86887939 -2.66579102 21.86887939 -1.20898438 21.87060547 C1 22 1 22 2 23 C2.08767112 25.07262076 2.10695873 27.14820294 2.09765625 29.22265625 C2.09443359 30.48271484 2.09121094 31.74277344 2.08789062 33.04101562 C2.07953403 34.38151109 2.07106907 35.72200588 2.0625 37.0625 C2.0574866 38.40689942 2.05292342 39.7513006 2.04882812 41.09570312 C2.03699488 44.39717941 2.02050971 47.69856803 2 51 C-5.01840356 55.16381196 -10.49081124 56.76162595 -18.625 56.5 C-19.51445312 56.50257813 -20.40390625 56.50515625 -21.3203125 56.5078125 C-30.04513775 56.37950625 -36.60828931 54.24644454 -43 48 C-49.97878749 39.22666715 -50.88870544 29.93107695 -50 19 C-48.82418468 11.38025561 -44.68744589 6.05888681 -39 1 C-27.69889143 -6.41826837 -11.80529108 -6.19664704 0 0 Z " fill="#0D0C0C" transform="translate(362,74)"/>
<path d="M0 0 C1.75763672 0.08701172 1.75763672 0.08701172 3.55078125 0.17578125 C4.73027344 0.22089844 5.90976562 0.26601562 7.125 0.3125 C8.48044922 0.39951172 8.48044922 0.39951172 9.86328125 0.48828125 C13.971621 7.68260893 16.65742967 15.26553856 19.27563477 23.09082031 C20.93072395 27.99798928 22.77044397 32.72078703 24.95654297 37.41723633 C26.23171725 40.3298113 27.17602543 43.32261778 28.1328125 46.3515625 C28.83801508 48.41437434 29.68479416 50.330372 30.61328125 52.30078125 C31.86328125 55.48828125 31.86328125 55.48828125 30.86328125 59.48828125 C27.23328125 59.48828125 23.60328125 59.48828125 19.86328125 59.48828125 C17.12969336 54.37382649 15.84635379 51.3867165 14.86328125 45.48828125 C7.27328125 45.81828125 -0.31671875 46.14828125 -8.13671875 46.48828125 C-9.78671875 50.77828125 -11.43671875 55.06828125 -13.13671875 59.48828125 C-16.76671875 59.48828125 -20.39671875 59.48828125 -24.13671875 59.48828125 C-25.22855525 55.12093524 -24.95731989 54.19460288 -23.40625 50.1640625 C-23.01501953 49.13474609 -22.62378906 48.10542969 -22.22070312 47.04492188 C-21.80111328 45.97435547 -21.38152344 44.90378906 -20.94921875 43.80078125 C-20.54896484 42.74955078 -20.14871094 41.69832031 -19.73632812 40.61523438 C-17.94321051 35.94499126 -16.09505015 31.32138757 -14.02734375 26.765625 C-11.77898111 21.80215245 -10.06080105 16.69541122 -8.33789062 11.53125 C-4.64009401 0.72230604 -4.64009401 0.72230604 0 0 Z " fill="#0B0B0A" transform="translate(688.13671875,70.51171875)"/>
<path d="M0 0 C3.63 0 7.26 0 11 0 C11.33 5.94 11.66 11.88 12 18 C13.32 17.01 14.64 16.02 16 15 C20.51713992 14.10764005 25.04867676 13.99320024 29.203125 16.13671875 C33.16579068 19.30851628 34.69250622 22.04368638 36 27 C37.0763039 36.97458384 35.39841732 43.79617348 30 52.0625 C25.34862482 55.06651314 20.38741243 54.88925652 15 54 C12.62890625 52.59375 12.62890625 52.59375 11 51 C11 50.34 11 49.68 11 49 C10.34 49 9.68 49 9 49 C9 50.32 9 51.64 9 53 C6.03 53 3.06 53 0 53 C0 35.51 0 18.02 0 0 Z " fill="#0F0F0F" transform="translate(1062,941)"/>
<path d="M0 0 C1.47583955 0.0001591 2.95168467 0.00585225 4.42749023 0.01586914 C5.20293686 0.01728409 5.97838348 0.01869904 6.77732849 0.02015686 C9.26361893 0.02577194 11.74982059 0.03832693 14.23608398 0.05102539 C15.91772331 0.05603845 17.59936405 0.06060169 19.28100586 0.06469727 C23.41189965 0.07574626 27.54272674 0.09302094 31.67358398 0.11352539 C31.70047615 1.59259431 31.7199302 3.07180022 31.73608398 4.55102539 C31.74768555 5.37473633 31.75928711 6.19844727 31.77124023 7.04711914 C31.67358398 9.11352539 31.67358398 9.11352539 30.67358398 10.11352539 C28.96586041 10.20066371 27.2545975 10.22052546 25.54467773 10.21118164 C23.99296875 10.20634766 23.99296875 10.20634766 22.40991211 10.20141602 C21.32129883 10.19303711 20.23268555 10.1846582 19.11108398 10.17602539 C17.47236328 10.16925781 17.47236328 10.16925781 15.80053711 10.16235352 C13.09152967 10.15052379 10.38255019 10.1325877 7.67358398 10.11352539 C7.67358398 14.40352539 7.67358398 18.69352539 7.67358398 23.11352539 C14.93358398 23.11352539 22.19358398 23.11352539 29.67358398 23.11352539 C29.67358398 26.41352539 29.67358398 29.71352539 29.67358398 33.11352539 C22.41358398 33.11352539 15.15358398 33.11352539 7.67358398 33.11352539 C7.67358398 38.39352539 7.67358398 43.67352539 7.67358398 49.11352539 C15.59358398 49.11352539 23.51358398 49.11352539 31.67358398 49.11352539 C31.67358398 52.41352539 31.67358398 55.71352539 31.67358398 59.11352539 C26.70736049 59.13817637 21.74117232 59.15636188 16.77490234 59.16845703 C15.08414083 59.17349729 13.39338369 59.18032944 11.70263672 59.18896484 C9.27757692 59.20104396 6.85257454 59.20675662 4.42749023 59.21118164 C3.28685875 59.21892357 3.28685875 59.21892357 2.1231842 59.2268219 C0.30625828 59.22701777 -1.51054729 59.17549816 -3.32641602 59.11352539 C-5.04464692 57.39529449 -4.45395923 55.1275479 -4.45581055 52.78344727 C-4.45896271 51.64556763 -4.46211487 50.50768799 -4.46536255 49.33532715 C-4.46333832 48.09682007 -4.46131409 46.85831299 -4.45922852 45.58227539 C-4.46018524 44.32088745 -4.46114197 43.05949951 -4.46212769 41.7598877 C-4.46280976 39.08655401 -4.46145131 36.41331102 -4.45678711 33.73999023 C-4.45108982 30.30645848 -4.45436902 26.87300489 -4.46035957 23.43947601 C-4.46483364 20.17457296 -4.46170485 16.90967946 -4.45922852 13.64477539 C-4.46125275 12.40626831 -4.46327698 11.16776123 -4.46536255 9.89172363 C-4.46221039 8.75384399 -4.45905823 7.61596436 -4.45581055 6.44360352 C-4.45501495 5.43624146 -4.45421936 4.42887939 -4.45339966 3.39099121 C-4.24996836 -0.25757187 -3.77128098 0.12870794 0 0 Z " fill="#0E0E0E" transform="translate(272.326416015625,70.886474609375)"/>
<path d="M0 0 C0.71285156 -0.00128906 1.42570312 -0.00257812 2.16015625 -0.00390625 C7.90936914 0.11170863 11.51692673 1.21961782 16.25 4.375 C16.25 7.015 16.25 9.655 16.25 12.375 C11.73072663 13.63035371 11.73072663 13.63035371 9.43359375 12.41015625 C6.67884678 11.10423863 4.59728162 11.14293044 1.5625 11.1875 C0.58925781 11.19394531 -0.38398438 11.20039062 -1.38671875 11.20703125 C-3.70589122 11.11249229 -3.70589122 11.11249229 -4.75 12.375 C-4.79092937 14.70797433 -4.79241723 17.04205225 -4.75 19.375 C-1.28906929 21.42330593 1.94799731 23.25419892 5.6875 24.75 C10.48796508 26.93968583 15.48256378 29.70382616 18.45703125 34.19921875 C20.11596946 38.75108369 19.76072186 43.61890265 19.25 48.375 C16.93026575 53.28213015 13.53223069 56.1861048 9.25 59.375 C5.26605124 60.70298292 1.60945725 60.59832082 -2.5625 60.625 C-3.35720703 60.645625 -4.15191406 60.66625 -4.97070312 60.6875 C-9.99856886 60.72076958 -13.38071374 60.13173191 -17.75 57.375 C-19.75 55.375 -19.75 55.375 -19.9453125 53.2109375 C-19.92210937 52.39882812 -19.89890625 51.58671875 -19.875 50.75 C-19.84792969 49.52410156 -19.84792969 49.52410156 -19.8203125 48.2734375 C-19.79710937 47.64695313 -19.77390625 47.02046875 -19.75 46.375 C-17.94140625 45.75390625 -17.94140625 45.75390625 -15.75 45.375 C-14.2340625 46.3340625 -14.2340625 46.3340625 -12.6875 47.3125 C-8.0981179 50.1796194 -3.0051403 50.30385442 2.25 49.375 C4.10557513 48.13465391 4.10557513 48.13465391 5.25 46.375 C5.83333333 43.375 5.83333333 43.375 5.25 40.375 C1.63215096 37.01430199 -3.06271658 35.22876114 -7.52929688 33.24414062 C-12.77295345 30.76089873 -16.14035237 27.59429527 -18.75 22.375 C-19.43568776 17.31026089 -19.9174543 12.42766689 -17.328125 7.875 C-12.08554719 1.7810634 -8.04897387 -0.01487796 0 0 Z " fill="#0D0D0C" transform="translate(238.75,69.625)"/>
<path d="M0 0 C0.47566406 0.28875 0.95132813 0.5775 1.44140625 0.875 C1.5390625 7.02734375 1.5390625 7.02734375 1.44140625 8.875 C1.11140625 9.205 0.78140625 9.535 0.44140625 9.875 C-5.95394259 9.17732558 -5.95394259 9.17732558 -8.55859375 7.875 C-10.22204957 7.75417466 -11.89079966 7.6996206 -13.55859375 7.6875 C-14.44546875 7.67332031 -15.33234375 7.65914062 -16.24609375 7.64453125 C-18.75379359 7.64786874 -18.75379359 7.64786874 -20.55859375 9.875 C-21.14261508 12.28917872 -21.14261508 12.28917872 -20.55859375 14.875 C-17.2198903 18.42910367 -13.1668959 20.00162599 -8.76953125 21.87890625 C-2.90008438 24.52326836 1.53353489 28.05925729 4.44140625 33.875 C5.26318365 40.36838864 4.24594992 45.51829587 0.44140625 50.875 C-3.75923475 55.40135916 -7.33606559 56.73665896 -13.38671875 57.11328125 C-27.87781069 57.46803835 -27.87781069 57.46803835 -34.55859375 52.875 C-36.45348327 50.98011048 -35.73878487 48.30360854 -35.7890625 45.78515625 C-35.55859375 43.875 -35.55859375 43.875 -33.55859375 41.875 C-30.9499192 42.14486288 -29.48351661 42.92587549 -27.3046875 44.40234375 C-24.10245435 46.1196153 -22.04460553 46.27715046 -18.43359375 46.25 C-17.39976562 46.25773437 -16.3659375 46.26546875 -15.30078125 46.2734375 C-12.5564479 46.09597771 -12.5564479 46.09597771 -10.7421875 44.52734375 C-9.3684825 42.80379008 -9.3684825 42.80379008 -8.74609375 40.0625 C-9.75261014 36.11385879 -10.7256767 35.76190373 -14.12109375 33.6875 C-17.12629172 32.04714511 -20.11511224 30.60215806 -23.30859375 29.375 C-27.45820415 27.4597952 -29.55304644 25.30991121 -32.55859375 21.875 C-34.56314808 15.86133702 -34.5792277 9.16122004 -31.99609375 3.375 C-23.35798015 -5.4846037 -10.79510782 -5.72558205 0 0 Z " fill="#0E0D0D" transform="translate(654.55859375,73.125)"/>
<path d="M0 0 C0.68489502 -0.0103125 1.36979004 -0.020625 2.07543945 -0.03125 C6.87967945 0.05227174 11.41207623 0.91207623 14.9375 4.4375 C15.00929964 5.95678038 15.02142007 7.47917482 15 9 C14.99097656 9.82628906 14.98195313 10.65257813 14.97265625 11.50390625 C14.96105469 12.14199219 14.94945312 12.78007813 14.9375 13.4375 C8.1875 12.5625 8.1875 12.5625 5.9375 11.4375 C4.27305539 11.3419069 2.60468037 11.30765355 0.9375 11.3125 C-0.3928125 11.30863281 -0.3928125 11.30863281 -1.75 11.3046875 C-4.08926966 11.28622098 -4.08926966 11.28622098 -6.0625 12.4375 C-6.48059201 15.26901973 -6.48059201 15.26901973 -6.0625 18.4375 C-3.36360539 21.39757796 -0.37216235 22.78342108 3.25 24.3125 C9.19677237 26.85402542 14.20617238 29.94871655 17.9375 35.3125 C19.75018183 40.97713071 19.6953338 45.33957485 17.25 50.6875 C14.78550772 55.09764408 11.98679241 57.61059254 7.265625 59.515625 C3.48930739 60.56164725 -0.04764962 60.82032666 -3.9375 60.8125 C-4.64205322 60.81306396 -5.34660645 60.81362793 -6.07250977 60.81420898 C-11.88759415 60.69114197 -16.80270536 59.69729464 -21.0625 55.4375 C-21.33564815 49.70138889 -21.33564815 49.70138889 -21.0625 47.4375 C-20.4025 46.7775 -19.7425 46.1175 -19.0625 45.4375 C-16.45788541 45.70694289 -15.09460972 46.41317446 -13 48 C-8.5560935 50.17467765 -3.92578368 50.1767771 0.9375 49.4375 C3.93663435 47.66877974 4.76296065 46.99851935 5.8125 43.625 C4.73677564 39.70628983 3.76127378 39.3219666 0.375 37.25 C-2.64992409 35.60081822 -5.67121886 34.13666603 -8.875 32.875 C-13.58170037 30.75237042 -16.10664847 27.92071788 -18.875 23.625 C-20.64464256 18.87490682 -21.10096909 14.97597999 -19.18359375 10.2890625 C-17.03600234 6.4758474 -14.49361628 3.05434439 -10.484375 1.05859375 C-7.00766068 0.16698475 -3.5689244 0.04535567 0 0 Z " fill="#0E0E0E" transform="translate(900.0625,69.5625)"/>
<path d="M0 0 C0.71285156 -0.00128906 1.42570313 -0.00257812 2.16015625 -0.00390625 C7.90936914 0.11170863 11.51692673 1.21961782 16.25 4.375 C16.25 7.345 16.25 10.315 16.25 13.375 C12.87185907 12.97757166 9.84200535 12.62046563 6.6875 11.3125 C3.65960229 10.14792396 1.47107288 10.03233267 -1.75 10.375 C-4.19245747 11.41442845 -4.19245747 11.41442845 -5.75 13.375 C-6.50021244 15.83132332 -6.50021244 15.83132332 -5.75 18.375 C-2.14897712 21.71449608 1.83050273 23.77745371 6.25 25.8125 C11.62530141 28.30900313 16.49863719 30.87227438 19.25 36.375 C19.87632406 42.47395889 19.90115445 48.28554245 16.66796875 53.6484375 C13.24897498 57.81150981 9.59284944 59.91397233 4.20361328 60.65722656 C-3.40611016 61.31094336 -12.29273356 62.00132877 -18.59765625 57.01171875 C-20.85281894 53.80862327 -20.30797372 51.1568219 -19.75 47.375 C-19.42 46.715 -19.09 46.055 -18.75 45.375 C-16.15543861 45.87395411 -14.47360441 46.54353389 -12.1875 47.9375 C-7.42791912 49.92787019 -2.85327346 49.99187921 2.25 49.375 C3.24 48.715 4.23 48.055 5.25 47.375 C5.91707548 43.96000409 5.91707548 43.96000409 5.25 40.375 C1.9181591 37.16344217 -1.29519849 35.63199585 -5.625 34.125 C-11.5029289 31.71577482 -15.93682059 29.26568441 -18.75 23.375 C-19.91957445 17.87112022 -20.14384515 12.82741403 -17.3046875 7.83203125 C-12.1608527 1.71955224 -7.96041506 -0.01471426 0 0 Z " fill="#0B0B0A" transform="translate(972.75,69.625)"/>
<path d="M0 0 C6.1055471 -0.02464513 12.21106551 -0.04283371 18.31665039 -0.05493164 C20.39543156 -0.05997288 22.47420916 -0.06680574 24.55297852 -0.07543945 C27.53402586 -0.08751422 30.51502649 -0.09323024 33.49609375 -0.09765625 C34.89921059 -0.10539818 34.89921059 -0.10539818 36.33067322 -0.11329651 C37.19149002 -0.11337204 38.05230682 -0.11344757 38.93920898 -0.11352539 C40.08171364 -0.11685631 40.08171364 -0.11685631 41.24729919 -0.12025452 C43 0 43 0 44 1 C44.1328125 2.8125 44.1328125 2.8125 44.125 5 C44.12886719 6.0828125 44.12886719 6.0828125 44.1328125 7.1875 C44 9 44 9 43 10 C40.46950598 10.07313567 37.96695163 10.09247527 35.4375 10.0625 C34.72658203 10.05798828 34.01566406 10.05347656 33.28320312 10.04882812 C31.52209987 10.03700864 29.76103964 10.01907263 28 10 C28.00222061 10.59912704 28.00444122 11.19825409 28.00672913 11.8155365 C28.02878165 18.02797858 28.04390646 24.24040962 28.05493164 30.45288086 C28.05997333 32.77417451 28.06680651 35.09546497 28.07543945 37.41674805 C28.08751225 40.74528795 28.09322979 44.07378602 28.09765625 47.40234375 C28.10281754 48.44712387 28.10797882 49.49190399 28.11329651 50.56834412 C28.11340981 52.00972496 28.11340981 52.00972496 28.11352539 53.48022461 C28.115746 54.33071884 28.11796661 55.18121307 28.12025452 56.05747986 C28 58 28 58 27 59 C23.37 59 19.74 59 16 59 C16 42.83 16 26.66 16 10 C10.72 10 5.44 10 0 10 C0 6.7 0 3.4 0 0 Z " fill="#0B0B0B" transform="translate(398,71)"/>
<path d="M0 0 C2.93055895 2.77215036 4.24876085 4.29302724 4.53955078 8.3737793 C4.52907715 9.65679932 4.51860352 10.93981934 4.5078125 12.26171875 C4.5049826 12.9455513 4.50215271 13.62938385 4.49923706 14.3339386 C4.48805684 16.51447165 4.46295691 18.69459145 4.4375 20.875 C4.42746738 22.35481177 4.41834202 23.83462999 4.41015625 25.31445312 C4.38812481 28.938936 4.35361002 32.56317766 4.3125 36.1875 C1.3425 36.1875 -1.6275 36.1875 -4.6875 36.1875 C-4.6875 35.5275 -4.6875 34.8675 -4.6875 34.1875 C-5.450625 34.6825 -6.21375 35.1775 -7 35.6875 C-11.96464553 37.70701683 -16.39425549 38.06567907 -21.6875 37.1875 C-25.10061667 34.66179367 -26.35387768 33.18836696 -27.6875 29.1875 C-28.14425667 26.10005621 -28.25441954 23.26506324 -27.6875 20.1875 C-24.9442276 17.05233154 -22.92819734 15.55406967 -18.9375 14.375 C-14.51641021 14.11993713 -10.11432027 14.10876209 -5.6875 14.1875 C-6.3475 11.8775 -7.0075 9.5675 -7.6875 7.1875 C-16.37674582 6.87073157 -16.37674582 6.87073157 -24.6875 9.1875 C-25.6875 8.1875 -25.6875 8.1875 -25.9375 5.3125 C-25.6875 2.1875 -25.6875 2.1875 -24.5625 0.375 C-18.72154397 -3.32427215 -5.85880723 -3.79014196 0 0 Z " fill="#0B0B0B" transform="translate(186.6875,957.8125)"/>
<path d="M0 0 C3.96 0 7.92 0 12 0 C12 19.14 12 38.28 12 58 C9.49860398 59.25069801 7.72607309 59.13302467 4.9375 59.125 C3.58978516 59.12886719 3.58978516 59.12886719 2.21484375 59.1328125 C0 59 0 59 -1 58 C-1.09893778 56.22553991 -1.12799092 54.44713749 -1.12939453 52.66992188 C-1.13254669 51.53204224 -1.13569885 50.3941626 -1.13894653 49.22180176 C-1.1369223 47.98329468 -1.13489807 46.7447876 -1.1328125 45.46875 C-1.13376923 44.20736206 -1.13472595 42.94597412 -1.13571167 41.6463623 C-1.13639375 38.97302862 -1.13503529 36.29978563 -1.13037109 33.62646484 C-1.12467381 30.19293309 -1.12795301 26.7594795 -1.13394356 23.32595062 C-1.13841762 20.06104757 -1.13528883 16.79615407 -1.1328125 13.53125 C-1.13483673 12.29274292 -1.13686096 11.05423584 -1.13894653 9.77819824 C-1.13579437 8.6403186 -1.13264221 7.50243896 -1.12939453 6.33007812 C-1.12859894 5.32271606 -1.12780334 4.315354 -1.12698364 3.27746582 C-1 1 -1 1 0 0 Z " fill="#171616" transform="translate(1003,71)"/>
<path d="M0 0 C3.96 0 7.92 0 12 0 C12.02255549 7.54498589 12.04091769 15.08995931 12.05181217 22.63497066 C12.05703989 26.13808885 12.0641355 29.64118285 12.07543945 33.14428711 C12.08834206 37.16780841 12.09322912 41.19130414 12.09765625 45.21484375 C12.10281754 46.47836166 12.10797882 47.74187958 12.11329651 49.04368591 C12.11337204 50.204814 12.11344757 51.36594208 12.11352539 52.56225586 C12.115746 53.59039902 12.11796661 54.61854218 12.12025452 55.67784119 C12 58 12 58 11 59 C7.37 59 3.74 59 0 59 C0 39.53 0 20.06 0 0 Z " fill="#090909" transform="translate(451,71)"/>
<path d="M0 0 C3.96 0 7.92 0 12 0 C12.02255549 7.54498589 12.04091769 15.08995931 12.05181217 22.63497066 C12.05703989 26.13808885 12.0641355 29.64118285 12.07543945 33.14428711 C12.08834206 37.16780841 12.09322912 41.19130414 12.09765625 45.21484375 C12.10281754 46.47836166 12.10797882 47.74187958 12.11329651 49.04368591 C12.11337204 50.204814 12.11344757 51.36594208 12.11352539 52.56225586 C12.115746 53.59039902 12.11796661 54.61854218 12.12025452 55.67784119 C12 58 12 58 11 59 C7.37 59 3.74 59 0 59 C0 39.53 0 20.06 0 0 Z " fill="#0B0B0B" transform="translate(377,71)"/>
<path d="M0 0 C3.96 0 7.92 0 12 0 C12.02255549 7.54498589 12.04091769 15.08995931 12.05181217 22.63497066 C12.05703989 26.13808885 12.0641355 29.64118285 12.07543945 33.14428711 C12.08834206 37.16780841 12.09322912 41.19130414 12.09765625 45.21484375 C12.10281754 46.47836166 12.10797882 47.74187958 12.11329651 49.04368591 C12.11337204 50.204814 12.11344757 51.36594208 12.11352539 52.56225586 C12.115746 53.59039902 12.11796661 54.61854218 12.12025452 55.67784119 C12 58 12 58 11 59 C9.33570949 59.09823937 7.66718069 59.12973631 6 59.125 C4.63875 59.12886719 4.63875 59.12886719 3.25 59.1328125 C1 59 1 59 0 58 C-0.09376053 56.18944975 -0.1174411 54.37522799 -0.11352539 52.56225586 C-0.11344986 51.40112778 -0.11337433 50.23999969 -0.11329651 49.04368591 C-0.10813522 47.780168 -0.10297394 46.51665009 -0.09765625 45.21484375 C-0.0962413 43.92888809 -0.09482635 42.64293243 -0.09336853 41.31800842 C-0.08954418 37.89356557 -0.07971462 34.46916491 -0.06866455 31.04473877 C-0.05844864 27.55261811 -0.05387053 24.06049066 -0.04882812 20.56835938 C-0.03809226 13.71222047 -0.02049614 6.8561166 0 0 Z " fill="#0B0B0B" transform="translate(929,71)"/>
<path d="M0 0 C4.97142857 1.97142857 4.97142857 1.97142857 7 4 C7.04092937 6.33297433 7.04241723 8.66705225 7 11 C5.3125 11.6875 5.3125 11.6875 3 12 C1.32580562 11.0126546 -0.34051852 10.01187895 -2 9 C-4.80725847 8.59896308 -6.25237495 8.49858801 -8.625 10.08984375 C-10.70299184 12.97659945 -10.39709432 15.42818471 -10.375 18.9375 C-10.38273438 20.16339844 -10.39046875 21.38929688 -10.3984375 22.65234375 C-9.982267 26.14899201 -9.51966696 27.58730004 -7 30 C-2.28240326 30.71789516 0.09992908 29.52977573 4 27 C4.99 27 5.98 27 7 27 C7.29233535 29.92335346 7.48942356 32.15046727 7 35 C4.10595131 38.21560966 2.4007529 38.83351707 -1.859375 39.33984375 C-7.51452792 39.51568806 -12.32291641 39.5078127 -17 36 C-22.67163372 28.64220491 -22.55013805 22.01615131 -22 13 C-20.85364176 7.27792371 -17.56245698 4.30050079 -13 1 C-9.07953085 -0.96023457 -4.2833251 -0.35593828 0 0 Z " fill="#0D0D0D" transform="translate(638,213)"/>
<path d="M0 0 C3 0.5625 3 0.5625 5.375 2.3125 C7.829432 7.22136401 7.79558601 12.17258396 7 17.5625 C5.6875 20.3671875 5.6875 20.3671875 4 22.5625 C0.5625 23.6875 0.5625 23.6875 -3 23.5625 C-5.90583487 20.82241685 -6.91286927 19.12180239 -7.53125 15.15234375 C-7.5209375 13.94707031 -7.510625 12.74179687 -7.5 11.5 C-7.5103125 10.29214844 -7.520625 9.08429687 -7.53125 7.83984375 C-6.74349979 2.98012003 -4.83542435 0.90664207 0 0 Z " fill="#EEEFEF" transform="translate(1080,963.4375)"/>
<path d="M0 0 C2.30561401 2.08764039 3.53561616 3.80863384 4.60546875 6.72265625 C4.86650391 7.42583984 5.12753906 8.12902344 5.39648438 8.85351562 C5.65751953 9.58248047 5.91855469 10.31144531 6.1875 11.0625 C6.46013672 11.79533203 6.73277344 12.52816406 7.01367188 13.28320312 C9 18.70453477 9 18.70453477 9 21 C3.72 21 -1.56 21 -7 21 C-5.4981189 13.60612383 -3.62172365 6.68625904 0 0 Z " fill="#E0E0E0" transform="translate(820,86)"/>
<path d="M0 0 C2 1 2 1 3 3.80078125 C3.33 4.95964844 3.66 6.11851563 4 7.3125 C5.28035489 11.88076251 5.28035489 11.88076251 7.125 16.23046875 C8 18 8 18 8 21 C3.05 21 -1.9 21 -7 21 C-6.23332376 15.63326633 -5.44071682 12.01064176 -3.5 7.125 C-3.0565625 5.99320312 -2.613125 4.86140625 -2.15625 3.6953125 C-1 1 -1 1 0 0 Z " fill="#DCDCDC" transform="translate(691,86)"/>
<path d="M0 0 C0.66 0 1.32 0 2 0 C3.00777029 2.74737377 4.00641446 5.49749952 5 8.25 C5.28617188 9.02730469 5.57234375 9.80460937 5.8671875 10.60546875 C6.13789062 11.35957031 6.40859375 12.11367187 6.6875 12.890625 C7.06455078 13.92751465 7.06455078 13.92751465 7.44921875 14.98535156 C8 17 8 17 8 21 C3.05 21 -1.9 21 -7 21 C-6.29712116 18.18848464 -5.55544491 15.60252612 -4.58984375 12.890625 C-4.32236328 12.13652344 -4.05488281 11.38242188 -3.77929688 10.60546875 C-3.36260742 9.43951172 -3.36260742 9.43951172 -2.9375 8.25 C-2.65583984 7.45722656 -2.37417969 6.66445312 -2.08398438 5.84765625 C-1.39098013 3.8978477 -0.69571181 1.94884411 0 0 Z " fill="#DEDEDE" transform="translate(561,86)"/>
<path d="M0 0 C1.21236328 0.04060547 1.21236328 0.04060547 2.44921875 0.08203125 C3.06410156 0.11683594 3.67898437 0.15164063 4.3125 0.1875 C4.63402515 3.72427664 4.7256192 5.5837104 2.6875 8.5625 C-0.33585963 10.63111448 -2.09338208 10.65629799 -5.6875 10.1875 C-7.6875 8.1875 -7.6875 8.1875 -8 5.75 C-7.6875 3.1875 -7.6875 3.1875 -6.4609375 1.5390625 C-4.16572234 -0.21015434 -2.85019248 -0.12392141 0 0 Z " fill="#E2E2E2" transform="translate(176.6875,977.8125)"/>
<path d="M0 0 C2 1 2 1 2.8515625 3.28515625 C3.10679687 4.20167969 3.36203125 5.11820312 3.625 6.0625 C3.88539063 6.98160156 4.14578125 7.90070313 4.4140625 8.84765625 C4.60742188 9.55792969 4.80078125 10.26820312 5 11 C4.01 11 3.02 11 2 11 C1.67 20.24 1.34 29.48 1 39 C0.67 39 0.34 39 0 39 C0 26.13 0 13.26 0 0 Z " fill="#EBEAEB" transform="translate(740,89)"/>
<path d="M0 0 C0.33 0 0.66 0 1 0 C1 13.2 1 26.4 1 40 C0.67 40 0.34 40 0 40 C-0.33 30.43 -0.66 20.86 -1 11 C-2.98 11.99 -2.98 11.99 -5 13 C-4.54554036 11.58208592 -4.08625056 10.16571954 -3.625 8.75 C-3.24214844 7.56664063 -3.24214844 7.56664063 -2.8515625 6.359375 C-2.04826333 4.13372042 -1.10288338 2.09068328 0 0 Z " fill="#B2B2B2" transform="translate(773,89)"/>
<path d="M0 0 C0 3.69418201 -1.28179295 5.77836178 -3 9 C-3.66 9 -4.32 9 -5 9 C-5.66 6.69 -6.32 4.38 -7 2 C-5.824375 1.7834375 -5.824375 1.7834375 -4.625 1.5625 C-2.03578982 1.12201075 -2.03578982 1.12201075 0 0 Z " fill="#DFDFE0" transform="translate(761,91)"/>
<path d="M0 0 C0.33 0 0.66 0 1 0 C1.03738281 0.81984375 1.07476563 1.6396875 1.11328125 2.484375 C1.17902344 3.56203125 1.24476562 4.6396875 1.3125 5.75 C1.37050781 6.81734375 1.42851563 7.8846875 1.48828125 8.984375 C2.03090154 12.1821068 2.85071145 13.62598691 5 16 C3.35 16.99 1.7 17.98 0 19 C0 12.73 0 6.46 0 0 Z " fill="#EAE9EA" transform="translate(1073,941)"/>
<path d="M0 0 C2 1 2 1 2.8515625 3.28515625 C3.10679687 4.20167969 3.36203125 5.11820312 3.625 6.0625 C3.88539063 6.98160156 4.14578125 7.90070313 4.4140625 8.84765625 C4.60742188 9.55792969 4.80078125 10.26820312 5 11 C3.68 11 2.36 11 1 11 C-0.17571451 7.32589215 -0.07366746 3.83070817 0 0 Z " fill="#D0D0D0" transform="translate(740,89)"/>
<path d="M0 0 C1.32 0.33 2.64 0.66 4 1 C3.67 2.32 3.34 3.64 3 5 C5.64 5 8.28 5 11 5 C11 5.33 11 5.66 11 6 C7.37 6 3.74 6 0 6 C0 4.02 0 2.04 0 0 Z " fill="#464545" transform="translate(793,124)"/>
<path d="M0 0 C0.33 1.32 0.66 2.64 1 4 C0.34 4 -0.32 4 -1 4 C-1.33 6.31 -1.66 8.62 -2 11 C-3.32 11.33 -4.64 11.66 -6 12 C-4.43358249 7.69235185 -2.31663844 3.93828536 0 0 Z " fill="#D5AF04" transform="translate(247,952)"/>
<path d="M0 0 C0.66 0.33 1.32 0.66 2 1 C0.625 3 0.625 3 -1 5 C-1.66 5 -2.32 5 -3 5 C-3 7.64 -3 10.28 -3 13 C-3.33 13 -3.66 13 -4 13 C-4.63019694 4.80743982 -4.63019694 4.80743982 -2 1.4375 C-1.34 0.963125 -0.68 0.48875 0 0 Z " fill="#323232" transform="translate(163,974)"/>
<path d="M0 0 C0.33 0.66 0.66 1.32 1 2 C0.22265625 3.9453125 0.22265625 3.9453125 -0.9375 6.125 C-1.31777344 6.84945312 -1.69804687 7.57390625 -2.08984375 8.3203125 C-2.39019531 8.87460937 -2.69054687 9.42890625 -3 10 C-3.66 10 -4.32 10 -5 10 C-3.84414715 6.08788267 -2.64465038 3.1254959 0 0 Z " fill="#D7B205" transform="translate(301,859)"/>
<path d="M0 0 C0.66 0.33 1.32 0.66 2 1 C0.625 2.5 0.625 2.5 -1 4 C-1.66 4 -2.32 4 -3 4 C-3.33 5.32 -3.66 6.64 -4 8 C-4.66 7.67 -5.32 7.34 -6 7 C-6 6.01 -6 5.02 -6 4 C-3 1.8125 -3 1.8125 0 0 Z " fill="#241F01" transform="translate(818,641)"/>
<path d="M0 0 C0.98726527 2.66561622 1.0275526 3.90126985 0.25 6.6875 C-1 9 -1 9 -4 10 C-3.52449439 8.51965236 -3.04448784 7.04074979 -2.5625 5.5625 C-2.29566406 4.73878906 -2.02882813 3.91507812 -1.75390625 3.06640625 C-1 1 -1 1 0 0 Z " fill="#D5D4D5" transform="translate(772,92)"/>
<path d="M0 0 C1 3 1 3 -0.25 6.125 C-2 9 -2 9 -5 10 C-3.66511872 6.40608886 -2.03977277 3.24509304 0 0 Z " fill="#DFB906" transform="translate(394,698)"/>
<path d="M0 0 C0.99 0.99 1.98 1.98 3 3 C2.67 3.99 2.34 4.98 2 6 C0.68 6 -0.64 6 -2 6 C-1.34 4.02 -0.68 2.04 0 0 Z " fill="#CDCCCC" transform="translate(820,86)"/>
<path d="M0 0 C1.65 0 3.3 0 5 0 C5.33 0.99 5.66 1.98 6 3 C3.69 3 1.38 3 -1 3 C-0.67 2.01 -0.34 1.02 0 0 Z " fill="#F7CC0F" transform="translate(616,942)"/>
<path d="M0 0 C0.66 1.32 1.32 2.64 2 4 C0.68 5.32 -0.64 6.64 -2 8 C-2.33 7.01 -2.66 6.02 -3 5 C-1.5625 2.3125 -1.5625 2.3125 0 0 Z " fill="#DAB302" transform="translate(511,495)"/>
<path d="M0 0 C0.66 0.99 1.32 1.98 2 3 C0.68 5.31 -0.64 7.62 -2 10 C-3 8 -3 8 -2.44140625 6.0546875 C-2.15136719 5.33539063 -1.86132812 4.61609375 -1.5625 3.875 C-1.27503906 3.15054688 -0.98757813 2.42609375 -0.69140625 1.6796875 C-0.46324219 1.12539062 -0.23507812 0.57109375 0 0 Z " fill="#444445" transform="translate(541,106)"/>
<path d="M0 0 C0.598125 0.20625 1.19625 0.4125 1.8125 0.625 C0.636875 1.24375 0.636875 1.24375 -0.5625 1.875 C-3.24641656 3.6642777 -4.06848949 4.67488139 -5.1875 7.625 C-5.375 4.75 -5.375 4.75 -5.1875 1.625 C-2.1875 -0.375 -2.1875 -0.375 0 0 Z " fill="#D7D7D7" transform="translate(898.1875,80.375)"/>
<path d="M0 0 C0.6875 1.6875 0.6875 1.6875 1 4 C-0.3125 6.75 -0.3125 6.75 -2 9 C-2.66 9 -3.32 9 -4 9 C-2.94124926 5.59687262 -1.99097846 2.98646769 0 0 Z " fill="#D4AE04" transform="translate(311,841)"/>
<path d="M0 0 C1 3 1 3 1 7 C-0.32 6.67 -1.64 6.34 -3 6 C-1.125 1.125 -1.125 1.125 0 0 Z " fill="#2B2C2B" transform="translate(402,618)"/>
<path d="M0 0 C0.66 0.33 1.32 0.66 2 1 C-2.625 6.875 -2.625 6.875 -6 8 C-4.55746343 4.63408134 -2.66735273 2.48952921 0 0 Z " fill="#222222" transform="translate(961,72)"/>
</svg>
